<svg xmlns="http://www.w3.org/2000/svg" width="139.207" height="249.729" viewBox="0 0 139.207 249.729">
  <g id="Grupo_9496" data-name="Grupo 9496" transform="translate(-61.521 -384.924)">
    <g id="Grupo_9488" data-name="Grupo 9488" transform="translate(61.521 538.886)">
      <g id="Grupo_9475" data-name="Grupo 9475" transform="translate(16.086 75.443)">
        <g id="Grupo_9473" data-name="Grupo 9473" transform="translate(0.731 0.732)">
          <rect id="Rectángulo_1958" data-name="Rectángulo 1958" width="45.479" height="18.861" fill="#f4872e"/>
          <rect id="Rectángulo_1959" data-name="Rectángulo 1959" width="36.897" height="18.861" transform="translate(72.413)" fill="#ffc630"/>
          <rect id="Rectángulo_1960" data-name="Rectángulo 1960" width="35.397" height="18.861" transform="translate(45.479)" fill="#fda630"/>
        </g>
        <g id="Grupo_9474" data-name="Grupo 9474">
          <path id="Trazado_13014" data-name="Trazado 13014" d="M194.283,718.835H83.51V698.511H194.283Zm-109.31-1.463H192.82v-17.4H84.973Z" transform="translate(-83.51 -698.511)" fill="#f3812e"/>
        </g>
      </g>
      <g id="Grupo_9478" data-name="Grupo 9478" transform="translate(28.434 56.582)">
        <g id="Grupo_9476" data-name="Grupo 9476" transform="translate(0.731 0.732)">
          <rect id="Rectángulo_1961" data-name="Rectángulo 1961" width="45.479" height="18.861" fill="#f4872e"/>
          <rect id="Rectángulo_1962" data-name="Rectángulo 1962" width="36.897" height="18.861" transform="translate(72.413)" fill="#ffc630"/>
          <rect id="Rectángulo_1963" data-name="Rectángulo 1963" width="35.397" height="18.861" transform="translate(45.479)" fill="#fda630"/>
        </g>
        <g id="Grupo_9477" data-name="Grupo 9477">
          <path id="Trazado_13015" data-name="Trazado 13015" d="M211.162,693.053H100.389V672.729H211.162Zm-109.31-1.463H209.7v-17.4H101.852Z" transform="translate(-100.389 -672.729)" fill="#f3812e"/>
        </g>
      </g>
      <g id="Grupo_9481" data-name="Grupo 9481" transform="translate(0 37.721)">
        <g id="Grupo_9479" data-name="Grupo 9479" transform="translate(0.731 0.732)">
          <rect id="Rectángulo_1964" data-name="Rectángulo 1964" width="45.479" height="18.861" fill="#f4872e"/>
          <rect id="Rectángulo_1965" data-name="Rectángulo 1965" width="36.897" height="18.861" transform="translate(72.413)" fill="#ffc630"/>
          <rect id="Rectángulo_1966" data-name="Rectángulo 1966" width="35.397" height="18.861" transform="translate(45.479)" fill="#fda630"/>
        </g>
        <g id="Grupo_9480" data-name="Grupo 9480">
          <path id="Trazado_13016" data-name="Trazado 13016" d="M172.294,667.271H61.521V646.947H172.294Zm-109.31-1.463H170.831v-17.4H62.984Z" transform="translate(-61.521 -646.947)" fill="#f3812e"/>
        </g>
      </g>
      <g id="Grupo_9484" data-name="Grupo 9484" transform="translate(8.523 18.86)">
        <g id="Grupo_9482" data-name="Grupo 9482" transform="translate(0.731 0.732)">
          <rect id="Rectángulo_1967" data-name="Rectángulo 1967" width="45.479" height="18.861" fill="#f4872e"/>
          <rect id="Rectángulo_1968" data-name="Rectángulo 1968" width="36.897" height="18.861" transform="translate(72.413)" fill="#ffc630"/>
          <rect id="Rectángulo_1969" data-name="Rectángulo 1969" width="35.397" height="18.861" transform="translate(45.479)" fill="#fda630"/>
        </g>
        <g id="Grupo_9483" data-name="Grupo 9483">
          <path id="Trazado_13017" data-name="Trazado 13017" d="M183.944,641.489H73.171V621.165H183.944Zm-109.31-1.463H182.481v-17.4H74.634Z" transform="translate(-73.171 -621.165)" fill="#f3812e"/>
        </g>
      </g>
      <g id="Grupo_9487" data-name="Grupo 9487" transform="translate(24.609 0)">
        <g id="Grupo_9485" data-name="Grupo 9485" transform="translate(0.731 0.731)">
          <rect id="Rectángulo_1970" data-name="Rectángulo 1970" width="45.479" height="18.861" fill="#f4872e"/>
          <rect id="Rectángulo_1971" data-name="Rectángulo 1971" width="36.897" height="18.861" transform="translate(72.413)" fill="#ffc630"/>
          <rect id="Rectángulo_1972" data-name="Rectángulo 1972" width="35.397" height="18.861" transform="translate(45.479)" fill="#fda630"/>
        </g>
        <g id="Grupo_9486" data-name="Grupo 9486">
          <path id="Trazado_13018" data-name="Trazado 13018" d="M205.933,615.707H95.16V595.384H205.933Zm-109.31-1.463H204.47v-17.4H96.623Z" transform="translate(-95.16 -595.384)" fill="#f3812e"/>
        </g>
      </g>
    </g>
    <g id="Grupo_9495" data-name="Grupo 9495" transform="translate(131.685 384.924)">
      <path id="Trazado_13019" data-name="Trazado 13019" d="M162.552,385.048" transform="translate(-158.807 -384.957)" fill="#002f4c"/>
      <g id="Grupo_9489" data-name="Grupo 9489" transform="translate(25.854 143.354)">
        <path id="Trazado_13020" data-name="Trazado 13020" d="M198.833,586.724s1.416,1.959,8.088,3.658c1.469.374,3.053.629,3.053,3.053h-6.587l-6.734-1.165v1.165h-3.637s-1.013-5.948,1.111-6.711Z" transform="translate(-192.774 -582.451)" fill="#122043"/>
        <path id="Trazado_13021" data-name="Trazado 13021" d="M199.674,580.883l-.345,4.273h0a4.116,4.116,0,0,1-4.456.149l-.25-.149v-4.273Z" transform="translate(-193.27 -580.883)" fill="#f7a57a"/>
      </g>
      <g id="Grupo_9490" data-name="Grupo 9490" transform="translate(0.494 143.354)">
        <path id="Trazado_13022" data-name="Trazado 13022" d="M164.167,586.724s1.416,1.959,8.088,3.658c1.469.374,3.053.629,3.053,3.053h-6.587l-6.734-1.165v1.165h-3.637s-1.013-5.948,1.111-6.711Z" transform="translate(-158.108 -582.451)" fill="#122043"/>
        <path id="Trazado_13023" data-name="Trazado 13023" d="M165.008,580.883l-.345,4.273h0a4.116,4.116,0,0,1-4.456.149l-.25-.149v-4.273Z" transform="translate(-158.604 -580.883)" fill="#f7a57a"/>
      </g>
      <path id="Trazado_13024" data-name="Trazado 13024" d="M197.269,480.3l.757,74.684h-7.3L183.495,480.3Z" transform="translate(-164.429 -410.528)" fill="#122043"/>
      <path id="Trazado_13025" data-name="Trazado 13025" d="M184.83,480.277s-2.1,21.145-6.929,35.237-12.279,39.465-12.279,39.465h-7.514s10.436-52.933,8.049-74.7H184.83Z" transform="translate(-157.614 -410.522)" fill="#002f4c"/>
      <path id="Trazado_13026" data-name="Trazado 13026" d="M200.853,422.618s7.441,17.352,9.329,17.352c1.511,0-.566-14.169-.566-14.169h6.231s7.837,24.284,1.605,28.722-19.922-12.558-19.922-12.558Z" transform="translate(-168.197 -395.043)" fill="#005558"/>
      <path id="Trazado_13027" data-name="Trazado 13027" d="M171.743,483.15,174,488.724c1.086,2.191,5.078,2.246,7.727,1.55a.55.55,0,0,0,.26-.9,76.558,76.558,0,0,0-6.541-6.6Z" transform="translate(-161.275 -411.191)" fill="#f7a57a"/>
      <path id="Trazado_13028" data-name="Trazado 13028" d="M190.6,417.7s3.887,2.635,3.887,5.656-.38,40.123-.38,40.123l-22.391-.018v-37.5s.466-8.337,8.617-8.337S190.6,417.7,190.6,417.7Z" transform="translate(-161.267 -393.702)" fill="#005558"/>
      <path id="Trazado_13029" data-name="Trazado 13029" d="M186.545,403.767v10.478a6.4,6.4,0,0,0,4.889,2.391c3.147,0,3.147-2.269,3.147-2.269v-6.715l-4.658-1.213Z" transform="translate(-165.248 -389.983)" fill="#f18c72"/>
      <path id="Trazado_13030" data-name="Trazado 13030" d="M194.951,405.537a3.908,3.908,0,0,0,2.337-.608c2.8-4.454-.388-16.459-.388-16.459l-10.141,1.818-.323,8.046a6.756,6.756,0,0,0,2.534,5.549h0A10.837,10.837,0,0,0,194.951,405.537Z" transform="translate(-165.217 -385.876)" fill="#f7a57a"/>
      <path id="Trazado_13031" data-name="Trazado 13031" d="M190.741,389.547a21.679,21.679,0,0,0,6.908,0c3.541-.629,1.275-4.532,1.275-4.532s-2.621,1.2-7.279.508c-3.143-.465-3.988-1.075-6,0-2.738,1.46-2.076,6.411-2.076,6.411l1.511,10.473h.565s.139-6.228.139-8.348c.592-.965,1.234-.965,1.728-.724a1.584,1.584,0,0,1,.841,1.439v10.873s6.924,2.985,8.686,2.443.585-8.6.585-8.6a3.235,3.235,0,0,0-3.606.882c-1.56,1.747-3.452-.07-3.452-.07Z" transform="translate(-164.429 -384.924)" fill="#002f4c"/>
      <path id="Trazado_13032" data-name="Trazado 13032" d="M217.839,424.031l-.219-1.2c-.486-2.65-3.018-5.945-5.569-6.81H209.4l.82,5.652,3.733,2.356Z" transform="translate(-171.385 -393.273)" fill="#f7a57a"/>
      <path id="Trazado_13033" data-name="Trazado 13033" d="M187.349,396.046a1.768,1.768,0,0,1,1.669,1.664,1.524,1.524,0,0,1-1.149,1.9,1.769,1.769,0,0,1-1.669-1.664A1.524,1.524,0,0,1,187.349,396.046Z" transform="translate(-165.149 -387.909)" fill="#f7a57a"/>
      <path id="Trazado_13034" data-name="Trazado 13034" d="M210.7,422.168l5.154,2.983s-3.233-.033-3.286,0l-5.455-4.565s.4-.8,1.632-.124A6.273,6.273,0,0,1,210.7,422.168Z" transform="translate(-170.769 -394.392)" fill="#f7a57a"/>
      <path id="Trazado_13035" data-name="Trazado 13035" d="M170.306,421.055s-12.873,14.3-12.873,22.873,10.449,23.679,10.449,23.679l5.162-1.511s-4.658-18.7-4.658-23.669,9.568-12.264,9.568-12.264" transform="translate(-157.433 -394.624)" fill="#005558"/>
      <g id="Grupo_9491" data-name="Grupo 9491" transform="translate(10.575 35.239)">
        <path id="Trazado_13036" data-name="Trazado 13036" d="M172.644,445.659c0,4.282,3.789,19.936,4.68,23.583-.262.069-.369.09-.765.192-1.1-4.506-4.671-19.567-4.671-23.775,0-5.1,9.321-12.262,9.717-12.564l.458.6C181.969,433.767,172.644,440.928,172.644,445.659Z" transform="translate(-171.888 -433.095)" fill="#0f787a"/>
      </g>
      <g id="Grupo_9494" data-name="Grupo 9494" transform="translate(32.359 7.405)">
        <path id="Trazado_13037" data-name="Trazado 13037" d="M207.244,410.068a13.656,13.656,0,0,0,2.359,9.988,1.484,1.484,0,0,0,.963.535,3.788,3.788,0,0,0,1.781-.294,1.656,1.656,0,0,0,1.078-.773.714.714,0,0,0-.075-.746c-.694-1.034-2.837-4.587-1.861-7.731A5.6,5.6,0,0,0,207.244,410.068Z" transform="translate(-203.122 -399.057)" fill="#002f4c"/>
        <path id="Trazado_13038" data-name="Trazado 13038" d="M213.688,420.15a1.1,1.1,0,0,0,.6-.579.714.714,0,0,0-.075-.746c-.694-1.034-2.837-4.587-1.861-7.731a4.718,4.718,0,0,0-2.023-.931C210.221,413.616,210.962,415.925,213.688,420.15Z" transform="translate(-203.99 -399.104)" fill="#002f4c"/>
        <g id="Grupo_9493" data-name="Grupo 9493" transform="translate(7.105 13.967)">
          <g id="Grupo_9492" data-name="Grupo 9492" transform="translate(0 0.005)">
            <path id="Trazado_13039" data-name="Trazado 13039" d="M211.451,415.77c.162.793.547,1.384.859,1.32s.432-.759.27-1.552-.548-1.384-.86-1.32S211.288,414.977,211.451,415.77Z" transform="translate(-211.379 -414.164)" fill="#ffc630"/>
            <path id="Trazado_13040" data-name="Trazado 13040" d="M211.761,414.223l.328-.078-.024.165-.218.086Z" transform="translate(-211.481 -414.145)" fill="#ffc630"/>
            <path id="Trazado_13041" data-name="Trazado 13041" d="M212.53,418.1l.4-.077-.452-.066Z" transform="translate(-211.673 -415.167)" fill="#ffc630"/>
          </g>
          <path id="Trazado_13042" data-name="Trazado 13042" d="M211.814,415.695c.163.793.547,1.384.86,1.32s.432-.759.269-1.552-.548-1.383-.86-1.32S211.651,414.9,211.814,415.695Z" transform="translate(-211.476 -414.139)" fill="#f27a00"/>
        </g>
        <path id="Trazado_13043" data-name="Trazado 13043" d="M204.4,403.714h-.61a2.079,2.079,0,0,0-2.121,2.021v1.6a2.079,2.079,0,0,0,2.121,2.021h.61Z" transform="translate(-201.667 -397.373)" fill="#ffc630"/>
        <path id="Trazado_13044" data-name="Trazado 13044" d="M229.252,402.977c0,4.38-1.007,7.931-2.249,7.931s-2.249-3.551-2.249-7.931,1.007-7.931,2.249-7.931S229.252,398.6,229.252,402.977Z" transform="translate(-207.865 -395.046)" fill="#ffc630"/>
        <path id="Trazado_13045" data-name="Trazado 13045" d="M224.366,401.891l1.777,1.157v2.566l-1.832,1.662-.633-3.337Z" transform="translate(-207.576 -396.884)" fill="#002f4c"/>
        <path id="Trazado_13046" data-name="Trazado 13046" d="M219.428,403.074c0-3.681.712-6.768,1.676-7.661l0-.005a36.255,36.255,0,0,1-16.185,6.133v5.6s11.812-.664,16.185,3.6l.007,0C220.141,409.845,219.428,406.757,219.428,403.074Z" transform="translate(-202.539 -395.143)" fill="#122043"/>
        <path id="Trazado_13047" data-name="Trazado 13047" d="M227.2,404.745c0,.712-.109,1.289-.243,1.289s-.243-.577-.243-1.289.109-1.288.243-1.288S227.2,404.034,227.2,404.745Z" transform="translate(-208.391 -397.304)" fill="#f27a00"/>
      </g>
      <path id="Trazado_13048" data-name="Trazado 13048" d="M215.045,419.969a6.071,6.071,0,0,1-2.878.47c-1.5,0-2.173-1.842-2.429-2.844-.091-.353-.17-.853.271-1.078l2.408-.334Z" transform="translate(-171.455 -393.315)" fill="#f7a57a"/>
    </g>
  </g>
</svg>
