<svg xmlns="http://www.w3.org/2000/svg" xmlns:xlink="http://www.w3.org/1999/xlink" width="345.87" height="210.017" viewBox="0 0 345.87 210.017">
  <defs>
    <linearGradient id="linear-gradient" y1="0.5" x2="1" y2="0.5" gradientUnits="objectBoundingBox">
      <stop offset="0" stop-color="#daece5"/>
      <stop offset="1" stop-color="#b2deeb"/>
    </linearGradient>
    <linearGradient id="linear-gradient-2" y1="0.5" x2="1" y2="0.5" gradientUnits="objectBoundingBox">
      <stop offset="0" stop-color="#eef7f6"/>
      <stop offset="1" stop-color="#b2deeb"/>
    </linearGradient>
    <linearGradient id="linear-gradient-6" x1="-1.423" y1="0.5" x2="-0.423" y2="0.5" xlink:href="#linear-gradient"/>
  </defs>
  <g id="Grupo_9566" data-name="Grupo 9566" transform="translate(-41.392 -36.12)">
    <path id="Trazado_13144" data-name="Trazado 13144" d="M41.557,229.008c-2.4,10.447,22.233,11.79,32.385,11.9a39.887,39.887,0,0,0,8.374-.8c8.585-1.742,27.377-6.314,24.741-12.531-3.4-8.02-13.615-2.428-13.615-2.428s1.282-6.055-16.1-10.054-17.312,9.327-17.312,9.327S44.576,215.884,41.557,229.008Z" transform="translate(0 -72.065)" fill="url(#linear-gradient)"/>
    <g id="Grupo_9524" data-name="Grupo 9524" transform="translate(357.157 102.168)">
      <g id="Grupo_9518" data-name="Grupo 9518">
        <path id="Trazado_13145" data-name="Trazado 13145" d="M589.474,152.84l2.171,4.27-4.559-1.04-15.6-4.915Z" transform="translate(-571.488 -148.68)" fill="#a4d1bb"/>
        <path id="Trazado_13146" data-name="Trazado 13146" d="M600.069,160.17l-7.745-.481,1.9-.965Z" transform="translate(-579.912 -151.74)" fill="#53b6b9"/>
        <path id="Trazado_13147" data-name="Trazado 13147" d="M589.474,151.16l1.355-4.16-19.341,2.475Z" transform="translate(-571.488 -147)" fill="url(#linear-gradient-2)"/>
        <path id="Trazado_13148" data-name="Trazado 13148" d="M571.488,151.154l15.6,4.915-2.325,6Z" transform="translate(-571.488 -148.68)" fill="url(#linear-gradient-2)"/>
      </g>
      <g id="Grupo_9523" data-name="Grupo 9523" transform="translate(2.219 10.971)">
        <g id="Grupo_9519" data-name="Grupo 9519" transform="translate(14.22)">
          <path id="Trazado_13149" data-name="Trazado 13149" d="M601.093,167.174a.35.35,0,0,0,.11-.086.364.364,0,0,0-.036-.513,10.231,10.231,0,0,0-1.533-1.1.364.364,0,0,0-.369.628,9.473,9.473,0,0,1,1.424,1.026A.364.364,0,0,0,601.093,167.174Z" transform="translate(-599.085 -165.419)" fill="#53b6b9"/>
        </g>
        <g id="Grupo_9521" data-name="Grupo 9521" transform="translate(0 2.681)">
          <g id="Grupo_9520" data-name="Grupo 9520">
            <path id="Trazado_13150" data-name="Trazado 13150" d="M585.772,208.812a.364.364,0,0,1,.129-.5A10.265,10.265,0,0,0,588.573,206a.364.364,0,0,1,.562.465,10.956,10.956,0,0,1-2.863,2.479l-.021.011A.364.364,0,0,1,585.772,208.812Zm4.152-4.085a.363.363,0,0,1-.136-.5,13.043,13.043,0,0,0,1.321-3.317.365.365,0,0,1,.708.175,13.746,13.746,0,0,1-1.4,3.5.364.364,0,0,1-.5.136Zm1.855-5.54a.365.365,0,0,1-.338-.39l.01-.164a16.763,16.763,0,0,0-.179-3.425.364.364,0,0,1,.72-.11,17.578,17.578,0,0,1,.186,3.573l-.011.176a.365.365,0,0,1-.39.338Zm-.506-5.839a.364.364,0,0,1-.445-.259,26.531,26.531,0,0,0-1.183-3.43.368.368,0,0,1,.2-.477.364.364,0,0,1,.477.2,27.249,27.249,0,0,1,1.215,3.525.365.365,0,0,1-.187.418A.385.385,0,0,1,591.273,193.347Zm-2.048-5.512a.365.365,0,0,1-.488-.166c-.045-.092-.091-.184-.136-.275a12.263,12.263,0,0,1-1.178.393.364.364,0,1,1-.195-.7q.528-.147,1.039-.343c-.379-.725-.8-1.478-1.266-2.289a.364.364,0,1,1,.63-.366c.488.84.92,1.62,1.31,2.371a11.124,11.124,0,0,0,1.517-.846.364.364,0,1,1,.405.606,11.875,11.875,0,0,1-1.591.89c.041.08.08.16.119.239a.365.365,0,0,1-.162.485Zm2.878-3.066a.364.364,0,0,1-.007-.515,9.15,9.15,0,0,0,1.933-2.941.364.364,0,0,1,.674.277,9.885,9.885,0,0,1-2.086,3.172.354.354,0,0,1-.1.071A.366.366,0,0,1,592.1,184.769Zm-6.917,3.421a11.392,11.392,0,0,1-3.773-.295.364.364,0,0,1,.179-.706,10.647,10.647,0,0,0,3.532.275.365.365,0,0,1,.2.688A.36.36,0,0,1,585.186,188.19Zm9.726-8.5a.365.365,0,0,1-.3-.422,11.046,11.046,0,0,0,.033-3.548.364.364,0,1,1,.72-.108,11.765,11.765,0,0,1-.036,3.782.364.364,0,0,1-.422.3Zm-15.638,7.4a9.529,9.529,0,0,1-.856-.5,7.793,7.793,0,0,1-2.059-1.968.364.364,0,1,1,.591-.425,7.064,7.064,0,0,0,1.865,1.782,8.886,8.886,0,0,0,.79.457.364.364,0,1,1-.332.649Zm6.592-4.513a13.528,13.528,0,0,0-2.251-2.776.364.364,0,1,1,.488-.541,14.205,14.205,0,0,1,2.375,2.923.364.364,0,0,1-.109.5l-.032.018A.364.364,0,0,1,585.866,182.578Zm8.739-8.707a.365.365,0,0,1-.463-.227,11.652,11.652,0,0,0-.633-1.5,11.159,11.159,0,0,0-1.024-1.645.364.364,0,0,1,.582-.438,11.862,11.862,0,0,1,1.092,1.752,12.408,12.408,0,0,1,.673,1.59.365.365,0,0,1-.179.443A.5.5,0,0,1,594.605,173.872Zm-18.811,8.919a.364.364,0,0,1-.441-.266,4.043,4.043,0,0,1,.3-2.905,3.674,3.674,0,0,1,.622-.856.364.364,0,0,1,.522.508,2.972,2.972,0,0,0-.5.687,3.29,3.29,0,0,0-.237,2.39.364.364,0,0,1-.188.413A.358.358,0,0,1,575.794,182.791Zm6.091-4.161a5.213,5.213,0,0,0-3.355-.316.364.364,0,1,1-.179-.706,5.885,5.885,0,0,1,3.84.361.364.364,0,0,1-.306.662Z" transform="translate(-575.213 -169.92)" fill="#53b6b9"/>
          </g>
        </g>
        <g id="Grupo_9522" data-name="Grupo 9522" transform="translate(6.66 41.915)">
          <path id="Trazado_13151" data-name="Trazado 13151" d="M588.716,236.473a.365.365,0,0,0-.266-.675,7.793,7.793,0,0,1-1.713.289.364.364,0,1,0,.04.727,8.527,8.527,0,0,0,1.873-.314A.416.416,0,0,0,588.716,236.473Z" transform="translate(-586.393 -235.784)" fill="#53b6b9"/>
        </g>
      </g>
    </g>
    <g id="Grupo_9527" data-name="Grupo 9527" transform="translate(168.324 64.988)">
      <g id="Grupo_9525" data-name="Grupo 9525" transform="translate(59.606)">
        <path id="Trazado_13152" data-name="Trazado 13152" d="M386.658,92.831l-12.611-6.96-6.438-1.288-4.865.715Z" transform="translate(-357.86 -84.583)" fill="url(#linear-gradient-2)"/>
        <path id="Trazado_13153" data-name="Trazado 13153" d="M386.658,93.317l-23.615-6.071-.3-1.462" transform="translate(-357.86 -85.069)" fill="#a4d1bb"/>
        <path id="Trazado_13154" data-name="Trazado 13154" d="M362.115,95.041l.03.049.991,3.666,23.208-1.7Z" transform="translate(-357.605 -88.811)" fill="#53b6b9"/>
        <path id="Trazado_13155" data-name="Trazado 13155" d="M354.544,89.578l3.369-2.735,25.276,6.863-21.758-.647Z" transform="translate(-354.544 -85.497)" fill="url(#linear-gradient-2)"/>
      </g>
      <g id="Grupo_9526" data-name="Grupo 9526" transform="translate(0 1.167)">
        <path id="Trazado_13156" data-name="Trazado 13156" d="M264.63,169.284a17.673,17.673,0,0,0,2.272-.986.343.343,0,0,1,.316.609,18.355,18.355,0,0,1-2.36,1.024q-.435.154-.876.285a.342.342,0,0,1-.3-.052.338.338,0,0,1-.124-.177.342.342,0,0,1,.229-.427Q264.211,169.431,264.63,169.284Z" transform="translate(-258.144 -119.582)" fill="#53b6b9"/>
        <path id="Trazado_13157" data-name="Trazado 13157" d="M342.7,87.14c1.071.137,2.186.313,3.407.539a.343.343,0,0,1-.125.675c-1.209-.223-2.312-.4-3.37-.533a.35.35,0,0,1-.161-.065.343.343,0,0,1,.248-.616Z" transform="translate(-289.993 -86.782)" fill="#53b6b9"/>
        <path id="Trazado_13158" data-name="Trazado 13158" d="M333.26,87.161a.343.343,0,0,1,.2-.618c1.1-.01,2.265.036,3.459.136a.343.343,0,0,1-.058.684c-1.173-.1-2.315-.143-3.4-.134A.336.336,0,0,1,333.26,87.161Z" transform="translate(-286.277 -86.542)" fill="#53b6b9"/>
        <path id="Trazado_13159" data-name="Trazado 13159" d="M274.609,162.969a.343.343,0,1,1,.478.491,19.116,19.116,0,0,1-2.707,2.2.342.342,0,0,1-.395-.009.333.333,0,0,1-.081-.085.343.343,0,0,1,.094-.476A18.5,18.5,0,0,0,274.609,162.969Z" transform="translate(-261.502 -117.403)" fill="#53b6b9"/>
        <path id="Trazado_13160" data-name="Trazado 13160" d="M278.773,159.009a.343.343,0,0,1-.048-.482q.291-.356.565-.724a17.687,17.687,0,0,0,1.318-2.061.343.343,0,0,1,.465-.137.346.346,0,0,1,.138.465,18.474,18.474,0,0,1-1.369,2.141q-.283.382-.586.751a.343.343,0,0,1-.469.058Z" transform="translate(-264.252 -114.449)" fill="#53b6b9"/>
        <path id="Trazado_13161" data-name="Trazado 13161" d="M283.562,150.891a.337.337,0,0,1-.073-.041.343.343,0,0,1-.113-.406,23.4,23.4,0,0,0,1.044-3.211.343.343,0,1,1,.665.167,23.922,23.922,0,0,1-1.075,3.305A.343.343,0,0,1,283.562,150.891Z" transform="translate(-266.153 -110.975)" fill="#53b6b9"/>
        <path id="Trazado_13162" data-name="Trazado 13162" d="M297.2,104.02q-.429.524-.831,1.066c-.4.546-.79,1.112-1.148,1.681a.343.343,0,0,1-.473.108l-.023-.015a.343.343,0,0,1-.085-.457c.366-.584.762-1.165,1.177-1.724q.412-.557.852-1.093a.327.327,0,0,1,.483-.048A.343.343,0,0,1,297.2,104.02Z" transform="translate(-270.699 -93.379)" fill="#53b6b9"/>
        <path id="Trazado_13163" data-name="Trazado 13163" d="M292.583,111.634a25.17,25.17,0,0,0-1.36,3.1.342.342,0,0,1-.439.207.326.326,0,0,1-.088-.047.342.342,0,0,1-.119-.391,25.6,25.6,0,0,1,1.4-3.182.343.343,0,1,1,.608.318Z" transform="translate(-269.067 -96.484)" fill="#53b6b9"/>
        <path id="Trazado_13164" data-name="Trazado 13164" d="M303.323,97.572a27.925,27.925,0,0,0-2.484,2.3.344.344,0,0,1-.452.039l-.033-.028a.343.343,0,0,1-.011-.485,28.67,28.67,0,0,1,2.544-2.361.343.343,0,0,1,.436.53Z" transform="translate(-272.985 -90.755)" fill="#53b6b9"/>
        <path id="Trazado_13165" data-name="Trazado 13165" d="M315.7,90.181a.343.343,0,0,1-.278-.628,27.255,27.255,0,0,1,3.259-1.2.343.343,0,0,1,.2.658A26.439,26.439,0,0,0,315.7,90.181Z" transform="translate(-279.039 -87.269)" fill="#53b6b9"/>
        <path id="Trazado_13166" data-name="Trazado 13166" d="M287.443,132.84a.339.339,0,0,1-.166-.066.343.343,0,0,1-.136-.315l.049-.432c.113-.994.227-1.99.359-2.981a.343.343,0,1,1,.68.09c-.131.988-.244,1.979-.357,2.969l-.049.431A.343.343,0,0,1,287.443,132.84Z" transform="translate(-267.685 -103.607)" fill="#53b6b9"/>
        <path id="Trazado_13167" data-name="Trazado 13167" d="M307.758,94.27a.342.342,0,0,1-.4,0,.352.352,0,0,1-.076-.078.343.343,0,0,1,.083-.478,28.554,28.554,0,0,1,2.953-1.824.343.343,0,0,1,.324.605A27.77,27.77,0,0,0,307.758,94.27Z" transform="translate(-275.803 -88.686)" fill="#53b6b9"/>
        <path id="Trazado_13168" data-name="Trazado 13168" d="M286.767,137.9a.342.342,0,0,1,.3.384c-.169,1.336-.334,2.42-.52,3.413a.344.344,0,0,1-.4.273.348.348,0,0,1-.141-.061.343.343,0,0,1-.133-.339c.183-.978.347-2.049.515-3.372A.342.342,0,0,1,286.767,137.9Z" transform="translate(-267.169 -107.308)" fill="#53b6b9"/>
        <path id="Trazado_13169" data-name="Trazado 13169" d="M258.157,171.25a.343.343,0,0,1,.132.673,27.8,27.8,0,0,1-3.441.444.343.343,0,1,1-.048-.684A27.426,27.426,0,0,0,258.157,171.25Z" transform="translate(-254.481 -120.789)" fill="#53b6b9"/>
        <path id="Trazado_13170" data-name="Trazado 13170" d="M289.476,119.712a.344.344,0,0,1,.242.421c-.27,1.009-.5,2.1-.707,3.321a.343.343,0,1,1-.677-.113c.208-1.248.445-2.355.722-3.386A.343.343,0,0,1,289.476,119.712Z" transform="translate(-268.166 -99.948)" fill="#53b6b9"/>
        <path id="Trazado_13171" data-name="Trazado 13171" d="M326.48,86.805q.6-.071,1.2-.117a.343.343,0,1,1,.052.684q-.588.044-1.173.114c-.725.086-1.458.207-2.177.359a.343.343,0,1,1-.142-.671C324.982,87.018,325.735,86.894,326.48,86.805Z" transform="translate(-282.577 -86.601)" fill="#53b6b9"/>
      </g>
    </g>
    <g id="Grupo_9534" data-name="Grupo 9534" transform="translate(55.714 36.12)">
      <g id="Grupo_9533" data-name="Grupo 9533">
        <g id="Grupo_9529" data-name="Grupo 9529" transform="translate(18.636 37.345)">
          <path id="Trazado_13172" data-name="Trazado 13172" d="M120.481,190.067l30-.163s-2.286-9.125-1.43-16.132a8.935,8.935,0,0,1,4.192-6.405c29.4-18.385,22.195-39.385,22.195-39.385s-3.2-26.662-40.994-29.041C94.151,96.406,96.755,132.2,96.755,132.2S95.025,152.128,116,165.543a12.081,12.081,0,0,1,5.358,8.69A43.143,43.143,0,0,1,120.481,190.067Z" transform="translate(-96.721 -98.813)" fill="#ffc630"/>
          <path id="Trazado_13173" data-name="Trazado 13173" d="M166.639,251.613l.058,10.747c.022,4.027-2.591,7.336-5.805,7.354l-18.269.1c-3.215.018-5.863-3.263-5.885-7.289l-.058-10.747Z" transform="translate(-112.877 -160.594)" fill="#53b6b9"/>
          <path id="Trazado_13174" data-name="Trazado 13174" d="M163.356,282.017l-2.039,4.921L149.956,287l-2.511-4.9Z" transform="translate(-117.23 -172.887)" fill="#0f787a"/>
          <g id="Grupo_9528" data-name="Grupo 9528" transform="translate(24.611 33.786)">
            <path id="Trazado_13175" data-name="Trazado 13175" d="M167.1,165.083c4.516-8.519-6.725-12.671-12-6.826a5.93,5.93,0,0,0-1.4,3.915c-.036,2.522.021,6.453.021,6.453a44.92,44.92,0,0,1-4.71-1.064,21.075,21.075,0,0,0-.7-7.046c-3.176-9.295-15.1-2.034-8.1,4.587a17.53,17.53,0,0,0,6.642,3.532q.307,22.076.615,44.152l2.049-.011q-.189-13.568-.378-27.137-.1-7.041-.2-14.082c-.01-.737.008-1.521.03-2.324a34.822,34.822,0,0,0,4.522.787l.232,42.734,2.05-.011-.231-42.57c.414.017.84.042,1.225.039C160.659,170.178,165.151,168.751,167.1,165.083Zm-20.243,1.826c-2.894-.945-6.991-2.879-7.386-5.76a2.214,2.214,0,0,1,.736-1.9c5.051-4.571,6.579,3.622,6.557,4.648A25.237,25.237,0,0,1,146.852,166.909Zm18.489-2.165c-2.305,3.444-5.992,4.43-9.812,4.121l-.035-6.544a4.53,4.53,0,0,1,1.32-3.246,6.391,6.391,0,0,1,7.691-1.453C166.652,158.947,166.908,162.4,165.342,164.744Z" transform="translate(-138.037 -155.532)" fill="#fff"/>
          </g>
        </g>
        <g id="Grupo_9530" data-name="Grupo 9530" transform="translate(0 12.594)">
          <path id="Trazado_13176" data-name="Trazado 13176" d="M83.38,75.031a1.585,1.585,0,0,0-.012-2.244L68.138,57.721a1.587,1.587,0,0,0-2.232,2.256l15.23,15.066A1.586,1.586,0,0,0,83.38,75.031Z" transform="translate(-65.435 -57.262)" fill="#ffc630"/>
        </g>
        <g id="Grupo_9531" data-name="Grupo 9531" transform="translate(84.342 12.055)">
          <path id="Trazado_13177" data-name="Trazado 13177" d="M207.5,74.3a1.586,1.586,0,0,1-.013-2.245l15.066-15.23a1.587,1.587,0,0,1,2.256,2.231L209.742,74.29A1.586,1.586,0,0,1,207.5,74.3Z" transform="translate(-207.026 -56.357)" fill="#ffc630"/>
        </g>
        <g id="Grupo_9532" data-name="Grupo 9532" transform="translate(54.432)">
          <path id="Trazado_13178" data-name="Trazado 13178" d="M158.525,60.716a1.586,1.586,0,0,0,1.579-1.6L159.988,37.7a1.587,1.587,0,1,0-3.174.017l.116,21.423A1.586,1.586,0,0,0,158.525,60.716Z" transform="translate(-156.814 -36.12)" fill="#ffc630"/>
        </g>
      </g>
    </g>
    <g id="Grupo_9535" data-name="Grupo 9535" transform="translate(260.513 195.908)">
      <path id="Trazado_13179" data-name="Trazado 13179" d="M414.92,310.1s-.527,3,5.178,5.89c1.17.593.7.886.841,1.447L414,316.192l-2.168-3.543-.975.574-1.613-2.277s1.416-2.62,2.912-2.377Z" transform="translate(-409.245 -306.06)" fill="#122043"/>
      <path id="Trazado_13180" data-name="Trazado 13180" d="M418.557,305.021l-1.66,3.389h0a2.764,2.764,0,0,1-2.665-1.364l-.1-.169,1.391-2.509Z" transform="translate(-411.222 -304.368)" fill="#f7a57a"/>
    </g>
    <path id="Trazado_13181" data-name="Trazado 13181" d="M396.426,226.891s12.828,1.727,20.919,6.757a5.629,5.629,0,0,1,2.525,6.056c-3.257,13.974-8.747,36.038-8.747,36.038l-3.347-2.011s-4.951-30.159.19-34.6S396.426,226.891,396.426,226.891Z" transform="translate(-143.549 -77.134)" fill="#122043"/>
    <g id="Grupo_9536" data-name="Grupo 9536" transform="translate(312.024 203.319)">
      <path id="Trazado_13182" data-name="Trazado 13182" d="M499.579,316.809l.547,3.268h0a3.146,3.146,0,0,1-3.408.114l-.191-.114-.808-3.268Z" transform="translate(-495.72 -316.809)" fill="#f7a57a"/>
    </g>
    <path id="Trazado_13183" data-name="Trazado 13183" d="M499.082,320.925s.015,3.473,6.992,5.558c1.431.428.966.851,1.234,1.453H499.28l-3.144-3.534-.978.84-2.267-2.227s.394-3.223,2.119-3.251C496.436,320.249,499.082,320.925,499.082,320.925Z" transform="translate(-182.553 -114.685)" fill="#122043"/>
    <path id="Trazado_13184" data-name="Trazado 13184" d="M484.709,248.629l6.068,37.413h-5.394S473.269,252.381,472,242.484c0-5.606,12.246,0,12.246,0Z" transform="translate(-174.104 -82.431)" fill="#122043"/>
    <g id="Grupo_9537" data-name="Grupo 9537" transform="translate(222.225 153.777)">
      <path id="Trazado_13185" data-name="Trazado 13185" d="M369.912,324.794a6.573,6.573,0,0,0-1.556-.755,18.184,18.184,0,0,1-1.66-2.247,3.022,3.022,0,0,1,.288-2.791s4.771,2.473,9.308,1.657S381.015,322,381.015,322l-7.358,2.483c-.5.17-4.547-1.978-4.485-1.782Z" transform="translate(-353.651 -268.153)" fill="#122043"/>
      <path id="Trazado_13186" data-name="Trazado 13186" d="M344.968,248.207l2.844-2.3a27.009,27.009,0,0,0,1.154,10.185,27.571,27.571,0,0,0,1.555,3.59c3.931,7.523,7.781,24.806,7.781,24.806s6.694,4.384,9.7,1.592c-4.538-.466-6.383-2.573-7.12-3.628a3.079,3.079,0,0,1-.423-1.169c-.568-2.714-1.41-15.043-5.154-41.145-.353-2.461-.761-4.795-2.657-6.056C347.5,230.661,344.968,248.207,344.968,248.207Z" transform="translate(-344.968 -233.639)" fill="#f18c72"/>
    </g>
    <g id="Grupo_9538" data-name="Grupo 9538" transform="translate(275.164 161.954)">
      <path id="Trazado_13187" data-name="Trazado 13187" d="M437.024,302.117l-3.183-1.626c7.414-14.51,14.557-28.8,20.458-44.127a16.632,16.632,0,0,0,.055-4.611c-.02-.269-.041-.54-.058-.812-1.987.005-4.184.031-6.145.141l-.2-3.568c2.648-.149,5.648-.149,8.059-.149H457.8v1.787c0,.706.059,1.5.122,2.334a18.793,18.793,0,0,1-.176,5.843l-.066.208C451.706,273.065,444.5,287.485,437.024,302.117Z" transform="translate(-433.841 -247.366)" fill="#0f787a"/>
    </g>
    <g id="Grupo_9539" data-name="Grupo 9539" transform="translate(200.259 166.287)">
      <path id="Trazado_13188" data-name="Trazado 13188" d="M344.17,308.924l-.935-7.434a46.643,46.643,0,0,0-5.916-15.987c-6.461-10.849-16.294-17.354-29.227-19.333l.541-3.533c17.552,2.687,27,12.99,31.831,21.162a51.838,51.838,0,0,1,4.9,11.153l11.389-31.87V254.64h3.574V263.7Z" transform="translate(-308.092 -254.64)" fill="#0f787a"/>
    </g>
    <circle id="Elipse_505" data-name="Elipse 505" cx="29.567" cy="29.567" r="29.567" transform="translate(160.617 187.003)" fill="#002f4c"/>
    <circle id="Elipse_506" data-name="Elipse 506" cx="29.567" cy="29.567" r="29.567" transform="translate(328.129 187.003)" fill="#002f4c"/>
    <g id="Grupo_9542" data-name="Grupo 9542" transform="translate(169.28 195.386)">
      <g id="Grupo_9540" data-name="Grupo 9540">
        <path id="Trazado_13189" data-name="Trazado 13189" d="M262.376,309.781a21.51,21.51,0,1,1,0,30.419A21.534,21.534,0,0,1,262.376,309.781Z" transform="translate(-256.086 -303.491)" fill="#a4d1bb"/>
      </g>
      <g id="Grupo_9541" data-name="Grupo 9541" transform="translate(3.025 3.027)">
        <path id="Trazado_13190" data-name="Trazado 13190" d="M261.212,337.364a18.453,18.453,0,0,0,4.725,13.728l.251-.49a17.94,17.94,0,0,1-4.476-12.991C261.546,337.528,261.378,337.448,261.212,337.364Z" transform="translate(-261.165 -320.214)" fill="#fff"/>
        <path id="Trazado_13191" data-name="Trazado 13191" d="M283.821,309.694a17.965,17.965,0,0,1,11.151,34.1c-.057.211-.127.418-.2.624A18.478,18.478,0,0,0,283,309.4C283.272,309.5,283.542,309.6,283.821,309.694Z" transform="translate(-269.994 -308.573)" fill="#fff"/>
      </g>
    </g>
    <g id="Grupo_9543" data-name="Grupo 9543" transform="translate(169.415 165.884)">
      <path id="Trazado_13192" data-name="Trazado 13192" d="M403.184,304.567h-1.751c-30.213,0-123.564-.59-124.5-.6l-2.234-.014,9.1-39.254-27.48-.093.013-3.574,28.3.1,1.662-7.17,3.481.807-1.477,6.376,145.772.493.767,3.9-1.872.259a38.04,38.04,0,0,0-14.716,6.214c-9.684,6.789-14.736,17.153-15.016,30.8Zm-124-4.155c14.152.088,91.47.562,120.522.581.884-17.466,9.448-27.022,16.607-32a41.9,41.9,0,0,1,6.78-3.82l-135.637-.459Z" transform="translate(-256.312 -253.963)" fill="#0f787a"/>
    </g>
    <g id="Grupo_9544" data-name="Grupo 9544" transform="translate(336.838 195.376)">
      <path id="Trazado_13193" data-name="Trazado 13193" d="M558.888,346.494a21.51,21.51,0,1,1,21.51-21.51A21.535,21.535,0,0,1,558.888,346.494Z" transform="translate(-537.378 -303.474)" fill="#a4d1bb"/>
    </g>
    <g id="Grupo_9545" data-name="Grupo 9545" transform="translate(339.864 198.401)">
      <path id="Trazado_13194" data-name="Trazado 13194" d="M593.671,354.171a18.454,18.454,0,0,0,6.365-13.049l-.524.169a17.938,17.938,0,0,1-6.022,12.351C593.55,353.819,593.612,353.994,593.671,354.171Z" transform="translate(-563.091 -321.721)" fill="#fff"/>
      <path id="Trazado_13195" data-name="Trazado 13195" d="M551.958,342.593a17.965,17.965,0,0,1,16.228-32c.189-.109.386-.206.586-.3a18.478,18.478,0,0,0-16.446,33.084C552.206,343.122,552.086,342.86,551.958,342.593Z" transform="translate(-542.457 -308.553)" fill="#fff"/>
    </g>
    <g id="Grupo_9546" data-name="Grupo 9546" transform="translate(313.029 132.733)">
      <path id="Trazado_13196" data-name="Trazado 13196" d="M542.265,284.931l-13.187-47.163-.475-23.253a12.628,12.628,0,0,0-5.483-10.135,13.932,13.932,0,0,0-12.425-1.762,34.6,34.6,0,0,0-11.01,5.736l-2.278-2.754a38.11,38.11,0,0,1,12.145-6.369,17.522,17.522,0,0,1,15.622,2.225,16.163,16.163,0,0,1,7,12.986l.466,22.8,13.065,46.727Z" transform="translate(-497.408 -198.312)" fill="#0f787a"/>
    </g>
    <path id="Trazado_13197" data-name="Trazado 13197" d="M295.22,249.817h22.439a2.318,2.318,0,0,0,1.159-4.324c-7.437-4.422-18.589-5.474-23.474-5.724a2.318,2.318,0,0,0-2.44,2.314V247.5A2.316,2.316,0,0,0,295.22,249.817Z" transform="translate(-101.692 -82.339)" fill="#005558"/>
    <path id="Trazado_13198" data-name="Trazado 13198" d="M369.383,249.817h22.439a2.318,2.318,0,0,0,1.159-4.324c-7.437-4.422-18.589-5.474-23.475-5.724a2.318,2.318,0,0,0-2.44,2.314V247.5A2.316,2.316,0,0,0,369.383,249.817Z" transform="translate(-131.678 -82.339)" fill="#005558"/>
    <g id="Grupo_9547" data-name="Grupo 9547" transform="translate(249.711 176.204)">
      <rect id="Rectángulo_1973" data-name="Rectángulo 1973" width="3.574" height="45.894" transform="translate(0 1.611) rotate(-26.788)" fill="#0f787a"/>
    </g>
    <g id="Grupo_9548" data-name="Grupo 9548" transform="translate(296.001 174.671)">
      <rect id="Rectángulo_1974" data-name="Rectángulo 1974" width="3.574" height="44.284" transform="translate(0 1.092) rotate(-17.797)" fill="#0f787a"/>
    </g>
    <path id="Trazado_13199" data-name="Trazado 13199" d="M243.012,268.789H264.9a2.9,2.9,0,0,0,1.075-2.084c0-2.8-5.381-5.063-12.02-5.063s-12.02,2.267-12.02,5.063A2.9,2.9,0,0,0,243.012,268.789Z" transform="translate(-81.085 -91.184)" fill="#005558"/>
    <circle id="Elipse_507" data-name="Elipse 507" cx="9.136" cy="9.136" r="9.136" transform="translate(181.024 207.851)" fill="#0f787a"/>
    <circle id="Elipse_508" data-name="Elipse 508" cx="9.136" cy="9.136" r="9.136" transform="translate(348.985 207.851)" fill="#0f787a"/>
    <path id="Trazado_13200" data-name="Trazado 13200" d="M485.478,214.069l.579.968a2.765,2.765,0,0,0,3.691.954l7.18-4a2.565,2.565,0,0,0,.989-3.562l-.579-.967a2.764,2.764,0,0,0-3.691-.954l-7.18,4A2.565,2.565,0,0,0,485.478,214.069Z" transform="translate(-179.41 -68.752)" fill="#005558"/>
    <circle id="Elipse_509" data-name="Elipse 509" cx="5.659" cy="5.659" r="5.659" transform="translate(232.729 209.439)" fill="#005558"/>
    <circle id="Elipse_510" data-name="Elipse 510" cx="5.659" cy="5.659" r="5.659" transform="translate(267.952 210.035)" fill="#005558"/>
    <circle id="Elipse_511" data-name="Elipse 511" cx="5.659" cy="5.659" r="5.659" transform="translate(306.274 209.439)" fill="#005558"/>
    <g id="Grupo_9549" data-name="Grupo 9549" transform="translate(227.978 209.409)">
      <rect id="Rectángulo_1975" data-name="Rectángulo 1975" width="1.787" height="12.914" transform="translate(0 1.725) rotate(-74.952)" fill="#005558"/>
    </g>
    <g id="Grupo_9550" data-name="Grupo 9550" transform="translate(276.956 207.797)">
      <rect id="Rectángulo_1976" data-name="Rectángulo 1976" width="9.394" height="1.787" transform="translate(0 3.591) rotate(-22.472)" fill="#005558"/>
    </g>
    <path id="Trazado_13201" data-name="Trazado 13201" d="M451.273,249.817h22.439a2.319,2.319,0,0,0,1.159-4.324c-7.437-4.422-18.589-5.474-23.475-5.724a2.318,2.318,0,0,0-2.44,2.314V247.5A2.316,2.316,0,0,0,451.273,249.817Z" transform="translate(-164.788 -82.339)" fill="#005558"/>
    <g id="Grupo_9553" data-name="Grupo 9553" transform="translate(194.647 102.139)">
      <path id="Trazado_13202" data-name="Trazado 13202" d="M322.486,168.456l-1.405,5.326-4.15-2.663,1.44-7.17Z" transform="translate(-306.054 -153.824)" fill="#f18c72"/>
      <path id="Trazado_13203" data-name="Trazado 13203" d="M314.847,175.394s3.07,6.158,5.311,11.21a5.359,5.359,0,0,1-.1,4.569,43.684,43.684,0,0,0-4.17,15.74H300.7s6.122-8.324,4.435-16.451c-1.634-7.869,3.493-18.558,3.493-18.558Z" transform="translate(-299.49 -157.04)" fill="#0f787a"/>
      <path id="Trazado_13204" data-name="Trazado 13204" d="M320.511,150.328c-3.2.435-4.8,4.541-4.8,4.541l.036,12.151-5.553-4.8a43.277,43.277,0,0,1,.967-11.455c1.188-3.761,5.982-4.752,9.347-2.917a7.479,7.479,0,0,1,3.187,4.383,13.839,13.839,0,0,1,.329,7.254l-1.9,8.917-3.311-3.294s.332-1.332.929-3.522C320.961,157.108,322.661,150.036,320.511,150.328Z" transform="translate(-303.309 -146.951)" fill="#122043"/>
      <path id="Trazado_13205" data-name="Trazado 13205" d="M317.765,160.379a1.132,1.132,0,0,1,1.5.147.975.975,0,0,1,.2,1.405,1.133,1.133,0,0,1-1.5-.147A.975.975,0,0,1,317.765,160.379Z" transform="translate(-306.302 -152.29)" fill="#f7a57a"/>
      <g id="Grupo_9551" data-name="Grupo 9551" transform="translate(12.313 2.494)">
        <path id="Trazado_13206" data-name="Trazado 13206" d="M324.8,163.379a2.5,2.5,0,0,0,1.5-.389c1.789-2.85-.249-10.535-.249-10.535l-2.859-1.319-3.632,2.483-.207,5.149a4.327,4.327,0,0,0,1.622,3.552h0A6.941,6.941,0,0,0,324.8,163.379Z" transform="translate(-319.342 -151.137)" fill="#f7a57a"/>
      </g>
      <path id="Trazado_13207" data-name="Trazado 13207" d="M331.653,217.3l2.461,5.423h2.467a5.461,5.461,0,0,1,2.653.687l3.1,2.022-9.391-.183-6.05-6.86Z" transform="translate(-310.081 -175.394)" fill="#f18c72"/>
      <path id="Trazado_13208" data-name="Trazado 13208" d="M323.86,151.013c.684,2.3-5.4,4.961-5.4,4.961l-1.528-2.866,2.793-3.425,3.532.564A2.029,2.029,0,0,1,323.86,151.013Z" transform="translate(-306.054 -148.055)" fill="#122043"/>
      <path id="Trazado_13209" data-name="Trazado 13209" d="M328.619,152.4c.127.906,1.54,2.005,1.54,2.005l.133-1.083-.322-.761-.725-.4S328.492,151.5,328.619,152.4Z" transform="translate(-310.774 -148.963)" fill="#122043"/>
      <path id="Trazado_13210" data-name="Trazado 13210" d="M316.68,187.006a4.53,4.53,0,0,0-1.586-2.591,2.979,2.979,0,0,0-2.88-.564c-1.764.586-2.259,2.613-2.393,3.889a4.232,4.232,0,0,0,.213,1.825s2.482,16.047,6.439,17.763,21.939-10.275,21.939-10.275l2.709-1.716c.952-.6,2.2-1.412,2.392-2.519s-.665-2.1-.948-2.99c-.3-.944-.41-1.168-1.345-.853a3.669,3.669,0,0,0-2.015,1.705l-2.6,4.656-17.711,5.67Z" transform="translate(-303.17 -161.807)" fill="#f7a57a"/>
      <path id="Trazado_13211" data-name="Trazado 13211" d="M326.2,229.132" transform="translate(-309.802 -180.179)" fill="#f7a57a"/>
      <g id="Grupo_9552" data-name="Grupo 9552" transform="translate(17.879 50.016)">
        <path id="Trazado_13212" data-name="Trazado 13212" d="M339.077,315.539a3.023,3.023,0,0,0-1.166,2.552c.262,1.43.632,4.779.632,4.779h1.468l-.045-3.124c0-.2,3.147,3.124,3.679,3.124h7.765s.516-2.107-4.044-2.784S339.077,315.539,339.077,315.539Z" transform="translate(-332.403 -265.132)" fill="#122043"/>
        <path id="Trazado_13213" data-name="Trazado 13213" d="M331.747,241.772h5.44a31.977,31.977,0,0,0-1.591,9.661,27.617,27.617,0,0,0,.325,3.9c1.318,8.385-.562,25.991-.562,25.991s4.94,6.294,8.677,4.61c-4.151-1.894-5.225-4.479-5.586-5.714a3.084,3.084,0,0,1-.027-1.243c.329-2.753,2.812-14.7,7.613-40.633.452-2.444.813-4.786-.58-6.587-2.111-2.731-11.023,1.889-15.628,3.989C326.41,237.3,331.747,241.772,331.747,241.772Z" transform="translate(-328.685 -230.917)" fill="#f7a57a"/>
      </g>
      <path id="Trazado_13214" data-name="Trazado 13214" d="M299.878,230.663a8.289,8.289,0,0,0-.921,6.213,7.257,7.257,0,0,0,1.993,2.945c1.632,1.558,3.829,1.841,6.085,1.841h12.576s.727-5.96,4.176-7.585a30.586,30.586,0,0,1,5.5-1.8c1.576-.371,2.663-.36,3.661-1.635Z" transform="translate(-298.671 -180.79)" fill="#122043"/>
    </g>
    <g id="Grupo_9556" data-name="Grupo 9556" transform="translate(231.6 93.971)">
      <path id="Trazado_13215" data-name="Trazado 13215" d="M382.087,185.1s6.884,13.68,11.083,14.461,23.312-6.133,23.312-6.133V190.7l-19.112.457-4.535-9.381Z" transform="translate(-369.351 -152.863)" fill="#f18c72"/>
      <path id="Trazado_13216" data-name="Trazado 13216" d="M380.908,159.384c-22.641,1.146-20.073,39.646-20.073,39.646h24.273S389.34,184.959,380.908,159.384Z" transform="translate(-360.723 -143.81)" fill="#005558"/>
      <g id="Grupo_9554" data-name="Grupo 9554" transform="translate(15.002)">
        <path id="Trazado_13217" data-name="Trazado 13217" d="M387.032,149.015l-.769,7.13a4.392,4.392,0,0,0,3.19,2.137c2.177.235,2.346-1.335,2.346-1.335l.5-4.644-3.131-1.187Z" transform="translate(-386.042 -139.617)" fill="#f18c72"/>
        <path id="Trazado_13218" data-name="Trazado 13218" d="M392.947,148.981a2.717,2.717,0,0,0,1.661-.246c2.265-2.872.959-11.413.959-11.413l-7.15.5-.824,5.54a4.7,4.7,0,0,0,1.339,4.027h0A7.539,7.539,0,0,0,392.947,148.981Z" transform="translate(-386.559 -134.89)" fill="#f7a57a"/>
        <path id="Trazado_13219" data-name="Trazado 13219" d="M391.034,136.674a15.09,15.09,0,0,0,4.778.516c2.5-.172,1.221-3.04,1.221-3.04a9.69,9.69,0,0,1-5.073-.192c-2.14-.556-2.679-1.041-4.152-.448-2,.805-1.915,4.279-1.915,4.279l.264,7.357.4.511s.552-4.766.71-6.233c.481-.623.926-.575,1.25-.372a1.1,1.1,0,0,1,.474,1.058l-.811,7.52s4.566,2.581,5.826,2.339,1.045-5.9,1.045-5.9a2.25,2.25,0,0,0-2.56.341c-1.209,1.091-2.383-.306-2.383-.306Z" transform="translate(-385.892 -133.239)" fill="#122043"/>
        <path id="Trazado_13220" data-name="Trazado 13220" d="M388.674,142.571a1.23,1.23,0,0,1,1.03,1.275c.026.691-.393,1.24-.936,1.227a1.23,1.23,0,0,1-1.03-1.275C387.712,143.106,388.131,142.557,388.674,142.571Z" transform="translate(-386.638 -137.012)" fill="#f7a57a"/>
      </g>
      <path id="Trazado_13221" data-name="Trazado 13221" d="M439.278,196.755l3.419.547,3.208,3.475s-1.564.758-3.909-1.67c-4.63-.328-3.373-1.16-3.373-1.16Z" transform="translate(-392.147 -158.92)" fill="#f18c72"/>
      <g id="Grupo_9555" data-name="Grupo 9555" transform="translate(47.347 107.574)">
        <path id="Trazado_13222" data-name="Trazado 13222" d="M444.259,318.648a15.694,15.694,0,0,0,6.446,2.964c.986.251,2.05-.085,2.05,1.543h-5.437l-4.522-.782v.782h-2.442s-.68-3.994.746-4.506Z" transform="translate(-440.191 -315.779)" fill="#122043"/>
        <path id="Trazado_13223" data-name="Trazado 13223" d="M443.914,313.831l.48,2.869h0a2.762,2.762,0,0,1-2.992.1l-.167-.1-.709-2.869Z" transform="translate(-440.326 -313.831)" fill="#f7a57a"/>
      </g>
      <path id="Trazado_13224" data-name="Trazado 13224" d="M360.819,225.94s-3.532,14.859,29.039,19.967a5.709,5.709,0,0,1,4.638,4.263c2.794,11.034,13.653,29.273,13.653,29.273h4.209l-7.4-32.579a10.922,10.922,0,0,0-3.252-5.62l-16.612-15.3Z" transform="translate(-360.707 -170.72)" fill="#002f4c"/>
    </g>
    <g id="Grupo_9563" data-name="Grupo 9563" transform="translate(274.241 97.041)">
      <g id="Grupo_9557" data-name="Grupo 9557" transform="translate(29.789 42.417)">
        <path id="Trazado_13225" data-name="Trazado 13225" d="M482.3,210.461l3.534-.786a2.968,2.968,0,0,1,1.687.111c1.027.385,3.6.671,3.636,1.689.03.855-1.9,2.48-2.718,3.33a2.211,2.211,0,0,1-2.583.444l-3.448-1.716Z" transform="translate(-482.3 -209.601)" fill="#f7a57a"/>
      </g>
      <path id="Trazado_13226" data-name="Trazado 13226" d="M483.865,311.585l-1.3,3.008h0a3.149,3.149,0,0,1-3.263-.991l-.144-.17,1.054-3.092Z" transform="translate(-451.239 -207.915)" fill="#f7a57a"/>
      <g id="Grupo_9562" data-name="Grupo 9562" transform="translate(0 0)">
        <g id="Grupo_9561" data-name="Grupo 9561">
          <path id="Trazado_13227" data-name="Trazado 13227" d="M464.5,185.021c2.9,9.58,12.643,24.286,12.643,24.286l-7.693-3.149-5.438-12.563S461.593,175.442,464.5,185.021Z" transform="translate(-444.734 -156.117)" fill="#f99200"/>
          <g id="Grupo_9559" data-name="Grupo 9559" transform="translate(14.207)">
            <path id="Trazado_13228" data-name="Trazado 13228" d="M462.512,158.762l-2.013,5.211-4.358-3.153,2.941-6.144Z" transform="translate(-456.142 -144.976)" fill="#f18c72"/>
            <g id="Grupo_9558" data-name="Grupo 9558" transform="translate(2.937 2.184)">
              <path id="Trazado_13229" data-name="Trazado 13229" d="M466.148,154.526a2.959,2.959,0,0,0,1.7-.046c2.527-2.411,1.91-10.468,1.91-10.468l-2.824-1.951-4.448,1.63-1.289,5.042a4.219,4.219,0,0,0,1.022,3.878h0A8.23,8.23,0,0,0,466.148,154.526Z" transform="translate(-461.073 -142.06)" fill="#f7a57a"/>
            </g>
            <path id="Trazado_13230" data-name="Trazado 13230" d="M461.949,143.9a1.738,1.738,0,0,1,2.184-.867,13.78,13.78,0,0,0,2.086.639c1.745.366,5,.334,5.555-2.322s-2.9-2.428-2.9-2.428l-4.588.316a8.45,8.45,0,0,1-3.956-.725,1.863,1.863,0,0,0-2.318,1.227c-.518,1.5.022,4.061.474,5.7a8.335,8.335,0,0,0,1.266,2.645h0Z" transform="translate(-456.813 -138.393)" fill="#122043"/>
            <path id="Trazado_13231" data-name="Trazado 13231" d="M460.185,149.482a1.342,1.342,0,0,1,1.6.485c.42.53.388,1.173-.073,1.435a1.343,1.343,0,0,1-1.6-.486C459.692,150.386,459.725,149.744,460.185,149.482Z" transform="translate(-457.628 -142.831)" fill="#f7a57a"/>
          </g>
          <path id="Trazado_13232" data-name="Trazado 13232" d="M455.385,165.521s.555-.856-4.379-3.407c-7.437,7.438-9.879,35.91-9.879,35.91h19.448C461.232,181.775,455.385,165.521,455.385,165.521Z" transform="translate(-435.864 -147.984)" fill="#ffc630"/>
          <path id="Trazado_13233" data-name="Trazado 13233" d="M440.88,222.4l-.294,2.413-.011.1a9.513,9.513,0,0,0,6.974,10.126,85.7,85.7,0,0,0,20.026,3.543c-7.335,9.418-3.507,36.7-3.507,36.7L468.795,277l12.392-44.328a4.8,4.8,0,0,0-3.427-6.557L460.328,222.4Z" transform="translate(-435.617 -172.359)" fill="#002f4c"/>
          <path id="Trazado_13234" data-name="Trazado 13234" d="M449.713,176.507a39.057,39.057,0,0,0-5.752,6.715,2.537,2.537,0,0,0,.228,3.01c4.051,4.664,18.481,5.828,18.481,5.828l-.934,5.264s-20.479-.712-27.733-7.987c-7.443-7.465,11.8-23.057,11.8-23.057" transform="translate(-432.292 -149.668)" fill="#ffc630"/>
          <g id="Grupo_9560" data-name="Grupo 9560" transform="translate(5.903 26.626)">
            <path id="Trazado_13235" data-name="Trazado 13235" d="M451.664,190.173a2.234,2.234,0,0,0,.2,2.667c1.848,2.128,6.776,3.075,11.078,4.722-.006.265,0,.282,0,.6-4.516-1.7-9.5-2.617-11.514-4.94a2.808,2.808,0,0,1-.255-3.352,39.7,39.7,0,0,1,5.8-6.775l.39.426A39.061,39.061,0,0,0,451.664,190.173Z" transform="translate(-445.653 -183.091)" fill="#fff"/>
            <path id="Trazado_13236" data-name="Trazado 13236" d="M442.28,209.9c7.865,4.244,19.389,3.969,23.5,4.829a4.236,4.236,0,0,1-.123.557c-3.959-.81-15.375-.425-23.459-4.721A5.523,5.523,0,0,1,442.28,209.9Z" transform="translate(-442.202 -193.929)" fill="#fff"/>
          </g>
        </g>
        <path id="Trazado_13237" data-name="Trazado 13237" d="M480.959,316.707s-.274,3.5,6.7,5.588c1.431.428.966.851,1.235,1.453h-8.029l-3.143-3.534-.978.84-2.267-2.227s1.059-3.223,2.785-3.251C478.687,316.061,480.959,316.707,480.959,316.707Z" transform="translate(-449.349 -210.033)" fill="#122043"/>
      </g>
    </g>
    <path id="Trazado_13238" data-name="Trazado 13238" d="M375.986,191.861s6.884,13.68,11.084,14.462,22.562-8.2,22.562-8.2l.75-2.944-19.112,2.736-4.534-9.381Z" transform="translate(-135.285 -61.627)" fill="#f7a57a"/>
    <g id="Grupo_9564" data-name="Grupo 9564" transform="translate(274.142 132.404)">
      <path id="Trazado_13239" data-name="Trazado 13239" d="M432.125,198.618l3.534-.786a2.968,2.968,0,0,1,1.687.111c1.027.385,3.6.671,3.636,1.689.03.855-1.9,2.48-2.718,3.33a2.212,2.212,0,0,1-2.583.443l-3.449-1.716Z" transform="translate(-432.125 -197.759)" fill="#f7a57a"/>
    </g>
    <g id="Grupo_9565" data-name="Grupo 9565" transform="translate(301.448 207.623)">
      <rect id="Rectángulo_1977" data-name="Rectángulo 1977" width="1.787" height="15.516" transform="matrix(0.56, -0.829, 0.829, 0.56, 0, 1.481)" fill="#005558"/>
    </g>
    <path id="Trazado_13240" data-name="Trazado 13240" d="M133.314,290.382v5.058a11.253,11.253,0,0,1-11.252,11.253H103.4a10.072,10.072,0,0,0-10.073,10.072v.9A10.072,10.072,0,0,0,103.4,327.736h43.153a12.712,12.712,0,0,0,12.712-12.712v-4.991a12.511,12.511,0,0,1,12.511-12.511h0a12.511,12.511,0,0,1,12.511,12.511h0A10.364,10.364,0,0,0,194.655,320.4h16.506" transform="translate(-21 -102.805)" fill="none" stroke="#53b6b9" stroke-miterlimit="10" stroke-width="3"/>
    <path id="Trazado_13241" data-name="Trazado 13241" d="M285.5,338.054a3.36,3.36,0,1,0,3.36-3.36A3.36,3.36,0,0,0,285.5,338.054Z" transform="translate(-98.698 -120.721)" fill="#53b6b9"/>
    <path id="Trazado_13242" data-name="Trazado 13242" d="M545.949,89.48h-94.71s-5.136-6.5,0-10.87a8.967,8.967,0,0,1,8.613-1.455,2.834,2.834,0,0,0,3.512-2.219c.576-2.671,2.351-6.167,7.449-8.233,5.016-2.032,8.188,1.072,10.024,4.259a1.424,1.424,0,0,0,2.576-.262C485,65.667,490.543,59,508.749,59,531.9,59,529.33,71.3,527.261,76.42a1.18,1.18,0,0,0,1.339,1.609c3.572-.764,10.2-1.754,13.174.581C545.949,81.887,545.949,89.48,545.949,89.48Z" transform="translate(-164.788 -9.249)" fill="url(#linear-gradient-6)"/>
  </g>
</svg>
