<svg xmlns="http://www.w3.org/2000/svg" xmlns:xlink="http://www.w3.org/1999/xlink" width="394.289" height="331.717" viewBox="0 0 394.289 331.717">
  <defs>
    <linearGradient id="linear-gradient" x1="1.307" y1="0.5" x2="2.307" y2="0.5" gradientUnits="objectBoundingBox">
      <stop offset="0" stop-color="#daece5"/>
      <stop offset="1" stop-color="#b2deeb"/>
    </linearGradient>
    <linearGradient id="linear-gradient-2" x1="-0.243" y1="0.5" x2="0.757" y2="0.5" xlink:href="#linear-gradient"/>
    <linearGradient id="linear-gradient-3" x1="-3.91" y1="0.167" x2="-2.909" y2="0.167" gradientUnits="objectBoundingBox">
      <stop offset="0" stop-color="#eef7f6"/>
      <stop offset="1" stop-color="#b2deeb"/>
    </linearGradient>
    <linearGradient id="linear-gradient-4" x1="-5.867" y1="0.494" x2="-4.739" y2="0.494" xlink:href="#linear-gradient-3"/>
    <linearGradient id="linear-gradient-5" x1="3.075" y1="9.316" x2="4.031" y2="9.316" xlink:href="#linear-gradient-3"/>
    <linearGradient id="linear-gradient-6" x1="2.551" y1="4.395" x2="3.568" y2="4.395" xlink:href="#linear-gradient-3"/>
    <linearGradient id="linear-gradient-7" x1="9.188" y1="0.5" x2="10.188" y2="0.5" xlink:href="#linear-gradient"/>
  </defs>
  <g id="Grupo_9753" data-name="Grupo 9753" transform="translate(-4197 -2276)">
    <g id="Grupo_9752" data-name="Grupo 9752" transform="translate(4147.378 2240.222)">
      <path id="Trazado_18460" data-name="Trazado 18460" d="M65.222,141.551h206.2s11.182-14.146,0-23.665c-6.171-5.253-13.458-4.709-18.751-3.165a6.173,6.173,0,0,1-7.645-4.834c-1.254-5.815-5.118-13.425-16.217-17.923-10.92-4.423-17.827,2.333-21.823,9.273a3.1,3.1,0,0,1-5.609-.572c-3.462-10.957-15.525-25.483-55.16-25.483-50.411,0-44.81,26.8-40.305,37.938a2.568,2.568,0,0,1-2.914,3.5c-7.776-1.663-22.209-3.817-28.681,1.264C65.222,125.023,65.222,141.551,65.222,141.551Z" fill="url(#linear-gradient)"/>
      <path id="Trazado_18461" data-name="Trazado 18461" d="M443.563,253.638c5.1,22.16-47.16,25.009-68.694,25.25a84.532,84.532,0,0,1-17.761-1.687c-18.21-3.695-58.071-13.392-52.48-26.578,7.212-17.012,28.879-5.151,28.879-5.151s-2.719-12.843,34.149-21.326,36.721,19.784,36.721,19.784S437.158,225.8,443.563,253.638Z" fill="url(#linear-gradient-2)"/>
      <g id="Grupo_9662" data-name="Grupo 9662">
        <path id="Trazado_18462" data-name="Trazado 18462" d="M368.731,237.819a104.559,104.559,0,0,0,4.424-10.58q.912-2.61,1.66-5.276c.086-.3.231-.894.379-1.507.075-.421.141-.795.175-1.022q.39-2.594.625-5.209c.23-2.57.259-5.128.308-7.7-.178-1.574-.34-3.143-.576-4.712-.417-2.78-.971-5.543-1.648-8.271l-.01-.037c-2.616-5.93-.635-2.512,0,0,.164.371.344.775.545,1.222-.685-1.522-1.093-3.22-1.69-4.781q-1.514-3.962-3.353-7.79c-1.273-2.652-2.718-5.193-4.134-7.766-.678-1-1.361-2-2.07-2.982a131.942,131.942,0,0,0-12.3-14.631c-.214-.22-.731-.831-1.323-1.494-.208-.176-.45-.384-.728-.627q-3.622-3.176-7.45-6.107a152.147,152.147,0,0,0-15.949-10.625c-10.263-5.984-14.058-17.72-12.83-28.838-39.862-.37-58.384,24.072-64.009,33.429-6.41-10.651-29.558-41.1-81.794-31.754-73.512,13.161-62.819,85.457-62.819,85.457s-8.813,57.66,132.854,133.338c3.832,2.052,7.343,4.038,10.763,5.956v.674c.313-.027.6-.054.915-.08.031-.012.057-.026.081-.034.3.152.6.331.888.488a.419.419,0,0,0,.114-.034v-1.014c3.416-1.918,6.938-3.9,10.773-5.956,55.288-29.537,87.654-56.328,106.569-78.019C366.549,246.694,366.91,241.633,368.731,237.819Z" fill="#ffc630"/>
        <path id="Trazado_18463" data-name="Trazado 18463" d="M250.6,140.422c8.4-12.311,32.066-38.334,79.975-28.9,67.633,13.321,62.819,85.457,62.819,85.457s8.814,57.658-132.843,133.334c-3.527,1.887-6.789,3.721-9.951,5.494Z" fill="#f99200"/>
      </g>
      <g id="Grupo_9669" data-name="Grupo 9669">
        <g id="Grupo_9663" data-name="Grupo 9663">
          <path id="Trazado_18464" data-name="Trazado 18464" d="M86.576,269.179l-1.445,6.728,5.949-3.121,19.853-12.559Z" fill="#a4d1bb"/>
          <path id="Trazado_18465" data-name="Trazado 18465" d="M85.131,275.907l10.579-3.516-2.99-.642Z" fill="#53b6b9"/>
          <path id="Trazado_18466" data-name="Trazado 18466" d="M86.576,269.179,83.165,263.9l27.769-3.674Z" fill="url(#linear-gradient-3)"/>
          <path id="Trazado_18467" data-name="Trazado 18467" d="M110.934,260.227,91.08,272.786l5.433,7.472Z" fill="url(#linear-gradient-4)"/>
        </g>
        <g id="Grupo_9668" data-name="Grupo 9668">
          <g id="Grupo_9664" data-name="Grupo 9664">
            <path id="Trazado_18468" data-name="Trazado 18468" d="M89.086,281.245a.506.506,0,0,1-.184-.079.523.523,0,0,1-.14-.726,14.7,14.7,0,0,1,1.723-2.1.523.523,0,1,1,.743.737,13.655,13.655,0,0,0-1.6,1.948A.52.52,0,0,1,89.086,281.245Z" fill="#53b6b9"/>
          </g>
          <g id="Grupo_9666" data-name="Grupo 9666">
            <g id="Grupo_9665" data-name="Grupo 9665">
              <path id="Trazado_18469" data-name="Trazado 18469" d="M110.983,334.827a.166.166,0,0,1-.032-.008,15.755,15.755,0,0,1-4.889-2.39.524.524,0,0,1,.61-.852,14.734,14.734,0,0,0,4.562,2.235.523.523,0,0,1-.251,1.015Zm-7.131-4.378a.52.52,0,0,1-.263-.146,19.766,19.766,0,0,1-3.226-4.349.523.523,0,1,1,.918-.5,18.762,18.762,0,0,0,3.055,4.12.524.524,0,0,1-.484.878Zm-4.416-7.134a.525.525,0,0,1-.386-.342l-.08-.241a25.282,25.282,0,0,1-1.055-5.031.524.524,0,1,1,1.041-.113,24.163,24.163,0,0,0,1.01,4.821l.075.224a.524.524,0,0,1-.605.682Zm-1.276-8.323a.525.525,0,0,1-.413-.513,38.95,38.95,0,0,1,.392-5.342.522.522,0,0,1,.59-.446.528.528,0,0,1,.446.591,38.1,38.1,0,0,0-.381,5.2.525.525,0,0,1-.524.524A.675.675,0,0,1,98.16,314.992Zm.922-8.4a.523.523,0,0,1-.4-.614c.026-.126.051-.251.077-.377a16.872,16.872,0,0,1-2.536-.651.523.523,0,0,1,.34-.99,15.837,15.837,0,0,0,2.418.618c.266-1.188.578-2.429.948-3.775a.523.523,0,0,1,1.009.277c-.356,1.3-.658,2.5-.917,3.643.52.057,1.044.088,1.569.094a.524.524,0,0,1-.012,1.047,17.619,17.619,0,0,1-1.781-.112c-.03.143-.06.288-.088.432a.524.524,0,0,1-.616.41Zm-5.676-2.955a.5.5,0,0,1-.159-.063,14.2,14.2,0,0,1-4.062-3.639.523.523,0,0,1,.834-.632,13.17,13.17,0,0,0,3.766,3.374.523.523,0,0,1-.379.96Zm11.222,1.961a.523.523,0,0,1,.02-1.027,15.333,15.333,0,0,0,4.8-1.68.523.523,0,0,1,.508.915,16.368,16.368,0,0,1-5.132,1.8A.516.516,0,0,1,104.628,305.6Zm-16.759-8.184a.522.522,0,0,1-.366-.293,16.914,16.914,0,0,1-1.44-5.238.523.523,0,0,1,1.04-.115,15.913,15.913,0,0,0,1.35,4.915.524.524,0,0,1-.584.731Zm24.305,4.612a.516.516,0,0,1-.278-.162.523.523,0,0,1,.039-.739,12.9,12.9,0,0,0,.93-.926,10.127,10.127,0,0,0,1.934-3.16.523.523,0,1,1,.978.373,11.167,11.167,0,0,1-2.136,3.489,13.818,13.818,0,0,1-1.007,1A.523.523,0,0,1,112.174,302.028Zm-10.96-3.616-.052-.014a.524.524,0,0,1-.336-.66,20.386,20.386,0,0,1,2.224-4.932.523.523,0,1,1,.876.572,19.394,19.394,0,0,0-2.1,4.683A.525.525,0,0,1,101.214,298.412Zm-14.8-9.24a.526.526,0,0,1-.412-.55,18.005,18.005,0,0,1,.35-2.455,17.055,17.055,0,0,1,.872-2.835.523.523,0,0,1,.969.394,15.973,15.973,0,0,0-.817,2.66,16.7,16.7,0,0,0-.329,2.311.524.524,0,0,1-.56.485C86.459,289.18,86.435,289.176,86.411,289.172Zm29.358,5.468a.521.521,0,0,1-.413-.5,4.721,4.721,0,0,0-1.207-3.231,4.26,4.26,0,0,0-.946-.771.523.523,0,1,1,.538-.9,5.3,5.3,0,0,1,1.179.961,5.808,5.808,0,0,1,1.482,3.924.523.523,0,0,1-.516.531A.457.457,0,0,1,115.769,294.64Zm-10.314-3.419a.524.524,0,0,1-.224-.915,8.454,8.454,0,0,1,5.2-1.913.524.524,0,0,1,.011,1.047,7.491,7.491,0,0,0-4.542,1.672A.523.523,0,0,1,105.455,291.221Z" fill="#53b6b9"/>
            </g>
          </g>
          <g id="Grupo_9667" data-name="Grupo 9667">
            <path id="Trazado_18470" data-name="Trazado 18470" d="M114.165,335.308a.524.524,0,0,1,.12-1.036,11.186,11.186,0,0,0,2.485-.228.523.523,0,1,1,.212,1.024,12.307,12.307,0,0,1-2.717.252A.548.548,0,0,1,114.165,335.308Z" fill="#53b6b9"/>
          </g>
        </g>
      </g>
      <g id="Grupo_9672" data-name="Grupo 9672">
        <g id="Grupo_9670" data-name="Grupo 9670">
          <path id="Trazado_18471" data-name="Trazado 18471" d="M341.522,85.669l20.519-2.674,9.284,1.663,6.128,3.515Z" fill="url(#linear-gradient-5)"/>
          <path id="Trazado_18472" data-name="Trazado 18472" d="M341.522,85.669l34.762,4.3,1.169-1.8" fill="#a4d1bb"/>
          <path id="Trazado_18473" data-name="Trazado 18473" d="M375.055,95.741l-.066.05-3.253,4.38L341.6,85.7Z" fill="#53b6b9"/>
          <path id="Trazado_18474" data-name="Trazado 18474" d="M382.213,95.24l-3.066-5.427-37.4-4.116,29.427,10.576Z" fill="url(#linear-gradient-6)"/>
        </g>
        <g id="Grupo_9671" data-name="Grupo 9671">
          <path id="Trazado_18475" data-name="Trazado 18475" d="M428.623,185.717A25.318,25.318,0,0,1,426.1,183.2a.493.493,0,1,0-.742.649,26.3,26.3,0,0,0,2.616,2.61q.5.435,1.021.842a.492.492,0,1,0,.609-.774Q429.107,186.137,428.623,185.717Z" fill="#a4d1bc"/>
          <path id="Trazado_18476" data-name="Trazado 18476" d="M392.782,95.45c-1.5-.38-3.086-.73-4.839-1.071a.493.493,0,1,0-.188.968c1.734.337,3.3.683,4.785,1.059a.493.493,0,0,0,.6-.358A.492.492,0,0,0,392.782,95.45Z" fill="#a4d1bc"/>
          <path id="Trazado_18477" data-name="Trazado 18477" d="M400.293,98.809a.492.492,0,0,0,.056-.933c-1.466-.591-3.046-1.142-4.7-1.636a.493.493,0,0,0-.283.944c1.62.486,3.171,1.026,4.61,1.607A.487.487,0,0,0,400.293,98.809Z" fill="#a4d1bc"/>
          <path id="Trazado_18478" data-name="Trazado 18478" d="M421.948,176.707a.486.486,0,0,0-.651-.247.491.491,0,0,0-.247.652,27.512,27.512,0,0,0,2.463,4.364.492.492,0,0,0,.533.2.472.472,0,0,0,.153-.071.493.493,0,0,0,.125-.685A26.547,26.547,0,0,1,421.948,176.707Z" fill="#a4d1bc"/>
          <path id="Trazado_18479" data-name="Trazado 18479" d="M420.585,174.621A.493.493,0,0,0,420.9,174c-.134-.419-.26-.84-.374-1.264a25.5,25.5,0,0,1-.678-3.449.492.492,0,0,0-.55-.428.5.5,0,0,0-.428.55,26.5,26.5,0,0,0,.7,3.583q.177.66.389,1.311a.491.491,0,0,0,.6.324Z" fill="#a4d1bc"/>
          <path id="Trazado_18480" data-name="Trazado 18480" d="M419.167,166.892a.478.478,0,0,0,.121-.016.5.5,0,0,0,.364-.484,33.6,33.6,0,0,1,.293-4.842.493.493,0,1,0-.977-.126,34.421,34.421,0,0,0-.3,4.983A.492.492,0,0,0,419.167,166.892Z" fill="#a4d1bc"/>
          <path id="Trazado_18481" data-name="Trazado 18481" d="M422.4,122.974q.3.924.55,1.862c.254.943.473,1.9.651,2.85a.493.493,0,0,0,.575.394.262.262,0,0,0,.038-.009.492.492,0,0,0,.355-.566c-.182-.974-.407-1.958-.667-2.925q-.258-.961-.565-1.909a.469.469,0,0,0-.621-.318A.493.493,0,0,0,422.4,122.974Z" fill="#a4d1bc"/>
          <path id="Trazado_18482" data-name="Trazado 18482" d="M424.025,130.573a35.93,35.93,0,0,1,.19,4.854.494.494,0,0,0,.479.507.517.517,0,0,0,.142-.017.492.492,0,0,0,.364-.461,36.767,36.767,0,0,0-.194-4.988.493.493,0,0,0-.981.1Z" fill="#a4d1bc"/>
          <path id="Trazado_18483" data-name="Trazado 18483" d="M419.288,115.846a40.2,40.2,0,0,1,2.109,4.385.493.493,0,0,0,.583.291.605.605,0,0,0,.06-.02.493.493,0,0,0,.27-.642,41.005,41.005,0,0,0-2.161-4.494.493.493,0,1,0-.861.48Z" fill="#a4d1bc"/>
          <path id="Trazado_18484" data-name="Trazado 18484" d="M412.885,107.3a.493.493,0,1,0,.7-.693,38.955,38.955,0,0,0-3.726-3.317.493.493,0,0,0-.607.777A37.9,37.9,0,0,1,412.885,107.3Z" fill="#a4d1bc"/>
          <path id="Trazado_18485" data-name="Trazado 18485" d="M421.644,151.375a.491.491,0,0,0,.6-.349l.162-.6c.371-1.389.743-2.779,1.089-4.174a.493.493,0,1,0-.957-.237c-.344,1.389-.715,2.773-1.084,4.157l-.161.6A.491.491,0,0,0,421.644,151.375Z" fill="#a4d1bc"/>
          <path id="Trazado_18486" data-name="Trazado 18486" d="M417.774,113.348a.49.49,0,0,0,.539.205.485.485,0,0,0,.144-.064.493.493,0,0,0,.14-.683,41.06,41.06,0,0,0-2.989-3.991.493.493,0,0,0-.751.639A39.97,39.97,0,0,1,417.774,113.348Z" fill="#a4d1bc"/>
          <path id="Trazado_18487" data-name="Trazado 18487" d="M421.142,153.283a.491.491,0,0,0-.6.357c-.477,1.874-.826,3.411-1.1,4.835a.494.494,0,0,0,.392.576.483.483,0,0,0,.221-.008.492.492,0,0,0,.356-.383c.269-1.4.613-2.922,1.085-4.778A.492.492,0,0,0,421.142,153.283Z" fill="#a4d1bc"/>
          <path id="Trazado_18488" data-name="Trazado 18488" d="M431.981,188.21a.493.493,0,0,0-.531.83,39.863,39.863,0,0,0,4.367,2.4.493.493,0,0,0,.425-.89A39.216,39.216,0,0,1,431.981,188.21Z" fill="#a4d1bc"/>
          <path id="Trazado_18489" data-name="Trazado 18489" d="M424.55,137.9a.493.493,0,0,0-.545.434c-.169,1.492-.431,3.066-.8,4.813a.493.493,0,1,0,.964.2c.378-1.778.644-3.383.815-4.906A.492.492,0,0,0,424.55,137.9Z" fill="#a4d1bc"/>
          <path id="Trazado_18490" data-name="Trazado 18490" d="M404.63,99.874q-.767-.411-1.547-.789a.493.493,0,0,0-.429.888q.762.368,1.51.769c.923.5,1.839,1.043,2.72,1.624a.493.493,0,0,0,.542-.823C406.521,100.945,405.579,100.384,404.63,99.874Z" fill="#a4d1bc"/>
        </g>
      </g>
      <g id="Grupo_9680" data-name="Grupo 9680">
        <g id="Grupo_9679" data-name="Grupo 9679">
          <g id="Grupo_9673" data-name="Grupo 9673">
            <path id="Trazado_18491" data-name="Trazado 18491" d="M186.193,150.328l.475,2.836h0a2.729,2.729,0,0,1-2.958.1l-.166-.1-.7-2.836Z" fill="#f7a57a"/>
          </g>
          <path id="Trazado_18492" data-name="Trazado 18492" d="M163.461,84.708c2.519,8.317,10.975,21.083,10.975,21.083l-6.679-2.733-4.72-10.907S160.941,76.392,163.461,84.708Z" fill="#a4d1bb"/>
          <path id="Trazado_18493" data-name="Trazado 18493" d="M181.611,118.1l5.268,32.479H182.2s-10.516-29.222-11.621-37.814c0-4.867,10.631,0,10.631,0Z" fill="#122043"/>
          <g id="Grupo_9675" data-name="Grupo 9675">
            <path id="Trazado_18494" data-name="Trazado 18494" d="M164.169,71.584l-1.747,4.523-3.783-2.737,2.553-5.334Z" fill="#f18c72"/>
            <g id="Grupo_9674" data-name="Grupo 9674">
              <path id="Trazado_18495" data-name="Trazado 18495" d="M165.594,72.334a2.575,2.575,0,0,0,1.476-.039c2.194-2.094,1.659-9.088,1.659-9.088l-2.451-1.694-3.862,1.415L161.3,67.305a3.664,3.664,0,0,0,.887,3.367h0A7.141,7.141,0,0,0,165.594,72.334Z" fill="#f7a57a"/>
            </g>
            <path id="Trazado_18496" data-name="Trazado 18496" d="M163.1,64.4a1.508,1.508,0,0,1,1.895-.753,11.985,11.985,0,0,0,1.812.554c1.515.318,4.339.29,4.822-2.015s-2.515-2.108-2.515-2.108l-3.983.275a7.351,7.351,0,0,1-3.435-.63,1.617,1.617,0,0,0-2.012,1.065c-.449,1.3.019,3.525.411,4.951a7.247,7.247,0,0,0,1.1,2.3h0Z" fill="#122043"/>
            <path id="Trazado_18497" data-name="Trazado 18497" d="M160.859,65.39a1.164,1.164,0,0,1,1.385.421c.365.46.337,1.018-.063,1.245a1.164,1.164,0,0,1-1.385-.421C160.431,66.175,160.459,65.617,160.859,65.39Z" fill="#f7a57a"/>
          </g>
          <g id="Grupo_9676" data-name="Grupo 9676">
            <path id="Trazado_18498" data-name="Trazado 18498" d="M186.755,152.863s.013,3.016,6.069,4.826c1.243.371.839.739,1.072,1.261h-6.97l-2.729-3.068-.849.729-1.967-1.933s.341-2.8,1.84-2.823C184.457,152.277,186.755,152.863,186.755,152.863Z" fill="#122043"/>
            <path id="Trazado_18499" data-name="Trazado 18499" d="M169.544,149.444l-1.133,2.611h0a2.733,2.733,0,0,1-2.832-.861l-.125-.147.915-2.685Z" fill="#f7a57a"/>
          </g>
          <path id="Trazado_18500" data-name="Trazado 18500" d="M163.252,74.841s.482-.743-3.8-2.958c-6.457,6.457-8.576,31.175-8.576,31.175h16.882C168.328,88.952,163.252,74.841,163.252,74.841Z" fill="#0f787a"/>
          <path id="Trazado_18501" data-name="Trazado 18501" d="M179.934,102.389a.747.747,0,0,0-.351-.815l-2.752-1.6a3.2,3.2,0,0,0-2.254-.365l-2.984.119-.39.472-.62,2.637c.6-.144.95-.236.95-.236l1.895.053s3.575,3.32,5.347.432c.073,3.073.974,2.837.974,2.837Z" fill="#f7a57a"/>
          <path id="Trazado_18502" data-name="Trazado 18502" d="M150.875,103.058l-.255,2.094-.01.084a8.259,8.259,0,0,0,6.055,8.791,74.371,74.371,0,0,0,17.384,3.076c-6.367,8.175-8.129,31.116-8.129,31.116l4.1,1.489,15.843-37.736a4.169,4.169,0,0,0-2.976-5.692l-15.133-3.222Z" fill="#002f4c"/>
          <path id="Trazado_18503" data-name="Trazado 18503" d="M161.43,82.916a33.93,33.93,0,0,0-4.994,5.829,2.2,2.2,0,0,0,.2,2.613c3.516,4.049,16.044,7.939,16.044,7.939l-.811,4.569s-17.778-3.5-24.076-9.812c-6.461-6.481,10.243-20.017,10.243-20.017" fill="#0f787a"/>
          <g id="Grupo_9677" data-name="Grupo 9677">
            <path id="Trazado_18504" data-name="Trazado 18504" d="M156.649,88.879a1.937,1.937,0,0,0,.175,2.315c1.6,1.847,5.882,3.82,9.617,5.251,0,.229,0,.244,0,.517-3.921-1.473-8.246-3.423-10-5.439a2.438,2.438,0,0,1-.221-2.911,34.477,34.477,0,0,1,5.036-5.881l.339.37A33.854,33.854,0,0,0,156.649,88.879Z" fill="#53b6b9"/>
            <path id="Trazado_18505" data-name="Trazado 18505" d="M151.5,96.592c6.828,3.685,16.833,6.325,20.4,7.071a3.833,3.833,0,0,1-.106.484c-3.438-.7-13.348-3.247-20.367-6.977A5.1,5.1,0,0,1,151.5,96.592Z" fill="#53b6b9"/>
          </g>
          <g id="Grupo_9678" data-name="Grupo 9678">
            <path id="Trazado_18506" data-name="Trazado 18506" d="M186.576,107.9l5.262-18.814-.966-.27-5.018,17.941-15.107-2.625-.171.988Z" fill="#53b6b9"/>
          </g>
        </g>
        <path id="Trazado_18507" data-name="Trazado 18507" d="M168.662,151.476s-.238,3.041,5.819,4.852c1.242.371.838.739,1.072,1.261h-6.971l-2.729-3.068-.848.729-1.968-1.933s.919-2.8,2.417-2.823C166.69,150.916,168.662,151.476,168.662,151.476Z" fill="#122043"/>
      </g>
      <g id="Grupo_9692" data-name="Grupo 9692">
        <path id="Trazado_18508" data-name="Trazado 18508" d="M253.014,332.9c-23.572,12.323-28-29.615-28-29.615V203.135h24.961S253.014,277.5,253.014,332.9Z" fill="#ffc630"/>
        <path id="Trazado_18509" data-name="Trazado 18509" d="M266.492,327.1l-16.712,9.426L242.875,242h23.617Z" fill="#ffc630"/>
        <g id="Grupo_9691" data-name="Grupo 9691">
          <g id="Grupo_9683" data-name="Grupo 9683">
            <rect id="Rectángulo_2129" data-name="Rectángulo 2129" width="25.526" height="7.902" rx="2.918" transform="translate(237.469 238.048)" fill="#fea200"/>
            <path id="Trazado_18510" data-name="Trazado 18510" d="M262.995,242.8" fill="#fc9f07"/>
            <g id="Grupo_9682" data-name="Grupo 9682">
              <g id="Grupo_9681" data-name="Grupo 9681">
                <path id="Trazado_18511" data-name="Trazado 18511" d="M254.225,264.47a.542.542,0,0,1-.542-.543v-9.878a.541.541,0,0,1,.357-.509l11.369-4.128v-6.871h-2.414a.542.542,0,0,1,0-1.084h2.956a.542.542,0,0,1,.541.542v7.793a.54.54,0,0,1-.357.509l-11.368,4.128v9.5A.542.542,0,0,1,254.225,264.47Z" fill="#1a1a1f"/>
              </g>
            </g>
            <path id="Rectángulo_2130" data-name="Rectángulo 2130" d="M1,0h.161a1,1,0,0,1,1,1V11.8a1,1,0,0,1-1,1H1a1,1,0,0,1-1-1V1A1,1,0,0,1,1,0Z" transform="translate(253.141 256.159)" fill="#30323c"/>
          </g>
          <g id="Grupo_9690" data-name="Grupo 9690">
            <g id="Grupo_9686" data-name="Grupo 9686">
              <path id="Trazado_18512" data-name="Trazado 18512" d="M215.109,348.352l1.967,5.206a1.717,1.717,0,0,1-.56,2.03,6.579,6.579,0,0,1-1.031.473c-.358-.075-2.628-7.105-2.628-7.105l.021-.043A1.869,1.869,0,0,1,215.109,348.352Z" fill="#0f787a"/>
              <path id="Trazado_18513" data-name="Trazado 18513" d="M215.485,356.061l-2.628-7.105-.345.2,2.648,7.04Z" fill="#122043"/>
              <g id="Grupo_9684" data-name="Grupo 9684">
                <path id="Trazado_18514" data-name="Trazado 18514" d="M215.893,350.411l.172.471-.907.174-.171-.455Z" fill="#fff"/>
              </g>
              <g id="Grupo_9685" data-name="Grupo 9685">
                <path id="Trazado_18515" data-name="Trazado 18515" d="M216.271,351.416l.172.471-.907.175-.171-.455Z" fill="#fff"/>
              </g>
              <path id="Trazado_18516" data-name="Trazado 18516" d="M217.291,347.123l-2.182,1.229h0a1.4,1.4,0,0,0,.481,1.413l.076.061,2.408-.619Z" fill="#f7a57a"/>
            </g>
            <path id="Trazado_18517" data-name="Trazado 18517" d="M234.71,314.277a12.517,12.517,0,0,0-2.721,6.431c-.371,2.729.65,7.055.762,10.448a8.753,8.753,0,0,1-3.758,7.465l-11.7,8.5.783,2.084s16.017-2.4,20.222-9.575,5.2-23.414,5.2-23.414Z" fill="#122043"/>
            <path id="Trazado_18518" data-name="Trazado 18518" d="M225.392,305.438l-6.019,13.44a8.175,8.175,0,0,0-3.545,1.236,2.565,2.565,0,0,0-.383,2.32.829.829,0,0,0,1.359.479,5.7,5.7,0,0,1,2.074-1.314,2.5,2.5,0,0,0,1.929-1.3l8.635-13.543Z" fill="#f7a57a"/>
            <path id="Trazado_18519" data-name="Trazado 18519" d="M258.333,262.5l-.356-2.418a1.573,1.573,0,0,0-.286-.7,10.338,10.338,0,0,0-2.4-1.39v1.218c1.07.575.445,1.352.445,1.352a3.393,3.393,0,0,1-1.69-.124,1.072,1.072,0,0,0-1.319.413l3.71,1.9,2.391,13.028-3.084,2.637,4.692,1.918s2.68-1.918,2.68-3.318S258.333,262.5,258.333,262.5Z" fill="#f7a57a"/>
            <path id="Trazado_18520" data-name="Trazado 18520" d="M239.162,315.629s-1.855,2.235-.742,7.429c.711,3.316,3.831,7.489,5.927,10.363,1.5,2.06,1.534,4.652,1.083,7.162-1.717,9.54,1.029,21.188,1.029,21.188h2.227s3.339-17.069,4.328-29.066a34.6,34.6,0,0,0-3.834-18.923Z" fill="#002f4c"/>
            <path id="Trazado_18521" data-name="Trazado 18521" d="M233.7,289.258c-3.978,2.921-8.66,16.969-8.66,16.969l3.492,1.959,5.684-7.8s.554,9.029-.806,15.955c.618,2.6,3.568,2.3,8.351,1.4a23.732,23.732,0,0,0,7.915-2.968s.206-12.528.825-19.171-.6-7.352,1.071-7.132c3.736-2.122,9.859-8.955,9.859-8.955l-5.687-1.106L243.5,285.582A52.962,52.962,0,0,0,233.7,289.258Z" fill="#0f787a"/>
            <path id="Trazado_18522" data-name="Trazado 18522" d="M240.636,272.641l2.954,2.918a5.119,5.119,0,0,1,1.4,4.756l-.346,1.557Z" fill="#f7a57a"/>
            <path id="Trazado_18523" data-name="Trazado 18523" d="M237.06,271.538c-7.174,0-4.123,13.77-4.123,13.77s1.278,8.933,4.123,12.519c2.462,3.105,7.333,2.171,9.641.681a8.831,8.831,0,0,1,3.724-1.375c1.955-.235,4.28-1.1,4.28-4.624,0-3.319-3.962-5.885-6.57-7.719a8.6,8.6,0,0,1-3.38-5C243.92,276.394,241.884,271.538,237.06,271.538Z" fill="#122043"/>
            <g id="Grupo_9689" data-name="Grupo 9689">
              <path id="Trazado_18524" data-name="Trazado 18524" d="M246.841,364.245l5.565-.009c.739.1,1.565.384,1.7,1.239a6.588,6.588,0,0,1,.081,1.132c-.2.309-7.577-.041-7.577-.041l-.032-.036A1.87,1.87,0,0,1,246.841,364.245Z" fill="#0f787a"/>
              <path id="Trazado_18525" data-name="Trazado 18525" d="M254.19,366.607l-7.576-.041.066.394H254.2Z" fill="#002f4c"/>
              <g id="Grupo_9687" data-name="Grupo 9687">
                <path id="Trazado_18526" data-name="Trazado 18526" d="M249.044,364.236l.5,0-.156.91H248.9Z" fill="#fff"/>
              </g>
              <g id="Grupo_9688" data-name="Grupo 9688">
                <path id="Trazado_18527" data-name="Trazado 18527" d="M250.118,364.236l.5,0-.156.91h-.486Z" fill="#fff"/>
              </g>
              <path id="Trazado_18528" data-name="Trazado 18528" d="M246.459,361.771l.382,2.474h0a1.4,1.4,0,0,0,1.492.047l.084-.05.269-2.471Z" fill="#f7a57a"/>
            </g>
            <path id="Trazado_18529" data-name="Trazado 18529" d="M254.045,260.434a1.072,1.072,0,0,0-1.319.413l2.468,1.262c.035-.015.068-.032.1-.046a11.619,11.619,0,0,1,1.634-.6A20.547,20.547,0,0,0,254.045,260.434Z" fill="#f7a57a"/>
          </g>
        </g>
      </g>
      <g id="Grupo_9702" data-name="Grupo 9702">
        <g id="Grupo_9695" data-name="Grupo 9695">
          <path id="Trazado_18530" data-name="Trazado 18530" d="M324.281,363.654l-8.374-.01c-1.112.116-2.355.432-2.563,1.4a5.656,5.656,0,0,0-.121,1.276c.3.348,11.4-.046,11.4-.046l.048-.04A1.76,1.76,0,0,0,324.281,363.654Z" fill="#002b49"/>
          <path id="Trazado_18531" data-name="Trazado 18531" d="M313.223,366.316l11.4-.046-.1.444H313.207Z" fill="#122043"/>
          <g id="Grupo_9693" data-name="Grupo 9693">
            <path id="Trazado_18532" data-name="Trazado 18532" d="M320.966,363.644l-.754.005.235,1.026h.731Z" fill="#fff"/>
          </g>
          <g id="Grupo_9694" data-name="Grupo 9694">
            <path id="Trazado_18533" data-name="Trazado 18533" d="M319.35,363.644l-.754.005.235,1.026h.731Z" fill="#fff"/>
          </g>
          <path id="Trazado_18534" data-name="Trazado 18534" d="M324.856,360.864l-.575,2.79h0a2.717,2.717,0,0,1-2.245.053l-.127-.056-.4-2.787Z" fill="#f7a57a"/>
        </g>
        <g id="Grupo_9698" data-name="Grupo 9698">
          <path id="Trazado_18535" data-name="Trazado 18535" d="M343.854,363.654l-8.375-.01c-1.111.116-2.354.432-2.562,1.4a5.59,5.59,0,0,0-.121,1.276c.3.348,11.4-.046,11.4-.046l.048-.04A1.76,1.76,0,0,0,343.854,363.654Z" fill="#122043"/>
          <path id="Trazado_18536" data-name="Trazado 18536" d="M332.8,366.316l11.4-.046-.1.444H332.779Z" fill="#122043"/>
          <g id="Grupo_9696" data-name="Grupo 9696">
            <path id="Trazado_18537" data-name="Trazado 18537" d="M340.539,363.644l-.754.005.235,1.026h.731Z" fill="#fff"/>
          </g>
          <g id="Grupo_9697" data-name="Grupo 9697">
            <path id="Trazado_18538" data-name="Trazado 18538" d="M338.922,363.644l-.754.005.235,1.026h.731Z" fill="#fff"/>
          </g>
          <path id="Trazado_18539" data-name="Trazado 18539" d="M343.49,360.864l.364,2.79h0a2.718,2.718,0,0,1-2.245.053l-.128-.056-1.341-2.787Z" fill="#f7a57a"/>
        </g>
        <g id="Grupo_9699" data-name="Grupo 9699">
          <path id="Trazado_18540" data-name="Trazado 18540" d="M330.993,267.06l6.9,4.5-2.129,5.45c-.03.077-.07.149-.1.223-.151-.009-.3-.018-.456-.018-.025,0-.049,0-.074,0l-.072,0a5.321,5.321,0,0,0-4.4,2.665,9.192,9.192,0,0,1-3.256-.845,3.376,3.376,0,0,1-1.533-1.162C325.131,274,330.993,267.06,330.993,267.06Z" fill="#f7a57a"/>
        </g>
        <path id="Trazado_18541" data-name="Trazado 18541" d="M322.221,268.469s-.844,8.005.856,13.1c-.79.685-3.688,3.792-4.6-.235S319.5,267.06,319.5,267.06Z" fill="#f7a57a"/>
        <g id="Grupo_9701" data-name="Grupo 9701">
          <g id="Grupo_9700" data-name="Grupo 9700">
            <path id="Trazado_18542" data-name="Trazado 18542" d="M326.359,267.9l1.622,1.044-.579,1.211-1.741-.767Z" fill="#0f787a"/>
            <path id="Trazado_18543" data-name="Trazado 18543" d="M327.314,269.359c-.162.371-.174.724-.025.789s.4-.183.562-.553.174-.723.026-.788S327.477,268.989,327.314,269.359Z" fill="#005558"/>
          </g>
          <path id="Trazado_18544" data-name="Trazado 18544" d="M306.781,262c0-.016-.005-.03-.006-.046a16.208,16.208,0,0,1,1.569-2.816,14.176,14.176,0,0,0,1.507-2.462l16.755,10.966-1.085,2.048-18.742-6.926A5.268,5.268,0,0,0,306.781,262Z" fill="#005558"/>
        </g>
        <path id="Trazado_18545" data-name="Trazado 18545" d="M332.515,279.879l.6,3.763h-5.332l-.383-4.611Z" fill="#f18c72"/>
        <path id="Trazado_18546" data-name="Trazado 18546" d="M318.746,289.216s-6.3-2.005-8.271-4.7,1.366-17.454,1.366-17.454l-.432-2.656a2.473,2.473,0,0,1,2.419-2.869l1.682-.015a.963.963,0,0,1,.889,1.354l-2.213,4.979s-1.661,11.178.665,12.026a26.226,26.226,0,0,0,5.914,1.226Z" fill="#f7a57a"/>
        <path id="Trazado_18547" data-name="Trazado 18547" d="M330.577,279.879l1.62-3.593-1.053-.661a1.98,1.98,0,0,1-.821-2.315l1.153-3.386s-3.281-.4-3.182-3.459c0-1.574,2.166-1.583,2.166-1.583a3.15,3.15,0,0,0,2.657,1.574c.863-.108,3.232.209,4.83,3,1.075,1.876.6,4.814-.332,7.019-.839,1.976-2.979,3.079-5.1,3.4Z" fill="#122043"/>
        <path id="Trazado_18548" data-name="Trazado 18548" d="M336.98,310.059a118.563,118.563,0,0,1-1.991,15.963,14.269,14.269,0,0,0,.491,7.342c3.761,11.171,8.544,27.969,8.544,27.969h-4.2s-10.626-19.853-13.364-29.7-3.206-12.975-3.206-12.975l3.258-8.6Z" fill="#122043"/>
        <path id="Trazado_18549" data-name="Trazado 18549" d="M333.068,274.613a1.525,1.525,0,0,1-.871,1.673c-.675.358-1.378.19-1.571-.376a1.525,1.525,0,0,1,.872-1.674C332.172,273.878,332.875,274.047,333.068,274.613Z" fill="#f7a57a"/>
        <path id="Trazado_18550" data-name="Trazado 18550" d="M321.689,310.059H336.98V290.442a8.324,8.324,0,0,0-7.549-8.288L318.8,280.867s-1.25,1.914-4.734,6.361a35.868,35.868,0,0,0,9.033,3.779Z" fill="#ffc630"/>
        <path id="Trazado_18551" data-name="Trazado 18551" d="M336.98,310.059s-2.16,7.817-10.128,16.577a10.246,10.246,0,0,0-2.974,7.966l1.154,26.731h-3.778s-6.287-22.2-5.036-33.14a50.234,50.234,0,0,1,5.471-18.134Z" fill="#002b49"/>
        <path id="Trazado_18552" data-name="Trazado 18552" d="M309.347,260.181c-.822,1.706-1.938,2.873-2.492,2.606s-.337-1.867.486-3.573,1.938-2.873,2.492-2.606S310.17,258.475,309.347,260.181Z" fill="#fff"/>
        <path id="Trazado_18553" data-name="Trazado 18553" d="M322.882,265.2l-.142.068a2.13,2.13,0,0,1-1.6.1l-.094-.031a2.845,2.845,0,0,1-1.813-1.838h0a.528.528,0,0,1,.611-.677l1.06.222a1.6,1.6,0,0,1,1.005.685Z" fill="#f7a57a"/>
      </g>
      <g id="Grupo_9707" data-name="Grupo 9707">
        <path id="Trazado_18554" data-name="Trazado 18554" d="M308.029,60.324s6.7,3.54-.408,16.957c.309-1.491-.858-2.456-.814-3.759a52.454,52.454,0,0,0-.587-10.208Z" fill="#122043"/>
        <path id="Trazado_18555" data-name="Trazado 18555" d="M302.8,73.605v3.519l.029.021a4.187,4.187,0,0,0,4.79.136l.239-.157-.783-4.051Z" fill="#f18c72"/>
        <path id="Trazado_18556" data-name="Trazado 18556" d="M300.41,66.249s-.293,7.923,4.255,7.923,4.424-6.777,4.424-6.777-3.758-3.641-3.837-5.842C305.762,60.324,300.41,66.249,300.41,66.249Z" fill="#f7a57a"/>
        <path id="Trazado_18557" data-name="Trazado 18557" d="M308.063,69.148a1.033,1.033,0,0,1,.137-1.37.891.891,0,0,1,1.284-.181,1.033,1.033,0,0,1-.138,1.371A.89.89,0,0,1,308.063,69.148Z" fill="#f7a57a"/>
        <path id="Trazado_18558" data-name="Trazado 18558" d="M316.638,79s-.523,5.929-1.879,13.908a7.076,7.076,0,0,0,.106,2.876l3.277,13.3,2.971-.18,3.851,2.005-8.326.1-7.549-14.68-.316-14.305L311.649,79Z" fill="#f7a57a"/>
        <path id="Trazado_18559" data-name="Trazado 18559" d="M300.406,77.281s8.7-3.109,14.178-1.761c2.054.853,2.054,3.482,2.054,3.482s-3.3,1.118-5.1,5.881.7,17.71.7,17.71l-14.844-4.6Z" fill="#ffd159"/>
        <g id="Grupo_9704" data-name="Grupo 9704">
          <g id="Grupo_9703" data-name="Grupo 9703">
            <path id="Trazado_18560" data-name="Trazado 18560" d="M276.879,116.735s1.333.7,1.123,1.852l-.544,2.975h-.8l-.029-1.352a.2.2,0,0,0-.322-.16l-1.548,1.125a2.022,2.022,0,0,1-1.191.387h-6.235s0-1.995,3.665-2.539A13.4,13.4,0,0,0,276.879,116.735Z" fill="#122043"/>
            <path id="Trazado_18561" data-name="Trazado 18561" d="M275.584,114.524l-.881,2.211c-.167.486-.93,1-1.362,1.272A9.132,9.132,0,0,1,271,119.023c1.362,1.163,3.531,0,4.771-.863a3.031,3.031,0,0,0,1.212-1.757l.475-1.879Z" fill="#f7a57a"/>
          </g>
          <path id="Trazado_18562" data-name="Trazado 18562" d="M310.743,111.334c3.191-5.107-2.164-9.031-2.164-9.031s-11.646-8.841-19.9-10.333a4.165,4.165,0,0,0-4.312,1.938c-4.2,6.938-9.493,22.031-9.493,22.031h2.53a43.881,43.881,0,0,0,11.335-16.27S301.939,121.094,310.743,111.334Z" fill="#005558"/>
        </g>
        <path id="Trazado_18563" data-name="Trazado 18563" d="M308.5,62.326a15.871,15.871,0,0,1-5.539,5.183,3.258,3.258,0,0,0-1.158,4.43c1.2,2.076,2.434,4.86,1.923,6.9a9.035,9.035,0,0,1-1.842,3.539,4.582,4.582,0,0,0-.478,5.088l.059.11a7.328,7.328,0,0,1-4.073,10.414c-2.869.94-6.055.462-7.458-4.455-1.616-5.66,1.327-10.381,3.855-13.193a11.587,11.587,0,0,0,3.022-7.239c.166-3.977.9-9.491,3.6-11.554,3.379-2.589,5.669-2.069,7.387-1.355A1.488,1.488,0,0,1,308.5,62.326Z" fill="#122043"/>
        <g id="Grupo_9706" data-name="Grupo 9706">
          <g id="Grupo_9705" data-name="Grupo 9705">
            <path id="Trazado_18564" data-name="Trazado 18564" d="M280.537,117.025s1.333.7,1.122,1.852l-.544,2.975h-.8l-.028-1.353a.2.2,0,0,0-.323-.16l-1.548,1.126a2.019,2.019,0,0,1-1.19.387h-6.236s0-2,3.665-2.54A13.4,13.4,0,0,0,280.537,117.025Z" fill="#122043"/>
            <path id="Trazado_18565" data-name="Trazado 18565" d="M279.241,114.813l-.88,2.212c-.167.486-.93.995-1.363,1.272a9.085,9.085,0,0,1-2.341,1.015c1.363,1.164,3.531,0,4.772-.863a3.035,3.035,0,0,0,1.212-1.756l.474-1.88Z" fill="#f7a57a"/>
          </g>
          <path id="Trazado_18566" data-name="Trazado 18566" d="M312.2,111.623a7.855,7.855,0,0,0,.037-9.03s-11.646-8.841-19.9-10.333A4.162,4.162,0,0,0,288.02,94.2c-4.2,6.937-9.494,22.031-9.494,22.031h2.531a43.885,43.885,0,0,0,11.334-16.27S303.4,121.383,312.2,111.623Z" fill="#0f787a"/>
        </g>
      </g>
      <g id="Grupo_9720" data-name="Grupo 9720">
        <g id="Grupo_9708" data-name="Grupo 9708">
          <path id="Trazado_18567" data-name="Trazado 18567" d="M181.712,224.376c-3.646-2.959-6.742-1.591-7.694-1.041-.04-1.1-.537-4.428-4.977-5.96-6.194-2.137-8.522,3.931-8.522,3.931s-3.151,4.089,4.583,16.013c.209.323.4.627.579.922l-.043.078.007.008h.09l.005.006.067.046.029-.053c.347,0,.7-.005,1.088,0,14.212.2,16-4.642,16-4.642S186.843,228.542,181.712,224.376Z" fill="#f99200"/>
          <path id="Trazado_18568" data-name="Trazado 18568" d="M173.966,223.1c-.123-1.313-.843-4.341-4.957-5.661-5.809-1.863-8.523,3.931-8.523,3.931s-3.15,4.088,4.583,16.012c.193.3.367.579.536.851Z" fill="#f99200"/>
        </g>
        <g id="Grupo_9709" data-name="Grupo 9709">
          <path id="Trazado_18569" data-name="Trazado 18569" d="M180.66,254.224a4.017,4.017,0,0,0-4.741.456,4.03,4.03,0,0,0-3.807-2.862c-4-.409-4.539,3.54-4.539,3.54s-1.309,2.883,4.979,8.921c.17.164.325.32.476.47l-.015.053.005,0,.054-.013,0,0,.047.018.01-.035c.207-.051.419-.1.65-.153,8.515-1.87,8.9-5.013,8.9-5.013A4.053,4.053,0,0,0,180.66,254.224Z" fill="#f99200"/>
          <path id="Trazado_18570" data-name="Trazado 18570" d="M175.855,254.544a3.988,3.988,0,0,0-3.754-2.687c-3.729-.3-4.539,3.541-4.539,3.541s-1.309,2.883,4.979,8.921c.157.15.3.294.439.433Z" fill="#f99200"/>
        </g>
        <g id="Grupo_9719" data-name="Grupo 9719">
          <g id="Grupo_9718" data-name="Grupo 9718">
            <rect id="Rectángulo_2131" data-name="Rectángulo 2131" width="0.696" height="29.063" transform="translate(112.536 210.639) rotate(180)" fill="#53b6b9"/>
            <path id="Trazado_18571" data-name="Trazado 18571" d="M147.443,172.994c2.675,11.629-24.749,13.124-36.049,13.25a44.337,44.337,0,0,1-9.321-.885c-9.556-1.939-30.473-7.027-27.539-13.947,3.785-8.927,15.155-2.7,15.155-2.7s-1.427-6.74,17.92-11.192,19.27,10.383,19.27,10.383S144.081,158.386,147.443,172.994Z" fill="url(#linear-gradient-7)"/>
            <g id="Grupo_9717" data-name="Grupo 9717">
              <g id="Grupo_9710" data-name="Grupo 9710">
                <path id="Trazado_18572" data-name="Trazado 18572" d="M56.7,204.961a11.9,11.9,0,0,0-5.138,1.593c-.684.358-1.114,1.086-1.938.168l3.068-2.755,2.947-1.849-.4-.442,1.379-1.237s2.406,1.909,1.861,2.921Z" fill="#122043"/>
              </g>
              <g id="Grupo_9712" data-name="Grupo 9712">
                <path id="Trazado_18573" data-name="Trazado 18573" d="M144.157,204.114l-4.232,1.386-.252-4.281,5.277-1.284Z" fill="#f18c72"/>
                <g id="Grupo_9711" data-name="Grupo 9711">
                  <path id="Trazado_18574" data-name="Trazado 18574" d="M144.452,205.563a2.361,2.361,0,0,0,.886,1.027c2.764.343,7.427-4.1,7.427-4.1l-.219-2.728-3.251-1.923-3.764,1.747a3.366,3.366,0,0,0-1.879,2.588h0A6.568,6.568,0,0,0,144.452,205.563Z" fill="#f7a57a"/>
                </g>
                <path id="Trazado_18575" data-name="Trazado 18575" d="M148.643,199.177a1.385,1.385,0,0,1,1.637.911,11.1,11.1,0,0,0,.659,1.61c.655,1.262,1.961,2.572,3.881,1.575s.038-3.013.038-3.013-3.25-4.464-5.631-5.612c-1.139-.548-2.5,2.063-3.282,3.171a6.644,6.644,0,0,0-1,2.116h0Z" fill="#122043"/>
                <path id="Trazado_18576" data-name="Trazado 18576" d="M146.639,198.16a1.068,1.068,0,0,1,.5,1.23c-.115.527-.528.831-.922.678a1.069,1.069,0,0,1-.505-1.23C145.832,198.311,146.245,198.008,146.639,198.16Z" fill="#f7a57a"/>
              </g>
              <g id="Grupo_9713" data-name="Grupo 9713">
                <path id="Trazado_18577" data-name="Trazado 18577" d="M61.98,197.834a11.906,11.906,0,0,0-5.345.61c-.739.224-1.3.86-1.936-.2l3.527-2.136,3.24-1.269-.307-.508,1.585-.959s2.009,2.323,1.285,3.216Z" fill="#122043"/>
              </g>
              <g id="Grupo_9714" data-name="Grupo 9714">
                <path id="Trazado_18578" data-name="Trazado 18578" d="M62.984,199.647l-.964-1.958h0a2.094,2.094,0,0,1,1.909-1.228h.149l1.114,1.868Z" fill="#f7a57a"/>
              </g>
              <path id="Trazado_18579" data-name="Trazado 18579" d="M112.612,222.9s-27.989,10.44-37.262-2.85L62.1,198.962l2.476-2.319L79.4,214.14a21.127,21.127,0,0,0,2.734,2.666l26.882-5.87Z" fill="#122043"/>
              <g id="Grupo_9715" data-name="Grupo 9715">
                <path id="Trazado_18580" data-name="Trazado 18580" d="M58.022,206.557l-1.311-1.746h0a2.1,2.1,0,0,1,1.648-1.561l.145-.028,1.443,1.629Z" fill="#f7a57a"/>
              </g>
              <path id="Trazado_18581" data-name="Trazado 18581" d="M140.266,205.322c-3.583,8.232-27.709,17.646-27.709,17.646l-7.2-13.88c19.4-13,34.662-8.047,34.662-8.047Z" fill="#0f787a"/>
              <path id="Trazado_18582" data-name="Trazado 18582" d="M111.108,220.178s-25.559,15.462-37.142,4.128l-16.935-18.26,2-2.739,17.817,14.437a21.211,21.211,0,0,0,3.183,2.11l25.321-10.766Z" fill="#002f4c"/>
              <path id="Trazado_18583" data-name="Trazado 18583" d="M141.19,205.02l.051-4.277-1.714.162.127,5.546Z" fill="#fff"/>
              <g id="Grupo_9716" data-name="Grupo 9716">
                <path id="Trazado_18584" data-name="Trazado 18584" d="M160.213,227.645l3.307,2.13c1.406.761,3.56-.714,4.715-2.085a.359.359,0,0,0-.2-.58,49.838,49.838,0,0,0-5.985-1.063Z" fill="#f7a57a"/>
                <path id="Trazado_18585" data-name="Trazado 18585" d="M132.458,202.039c4.552-3.246,12.036,7.986,14.129,11.344a5.659,5.659,0,0,0,1.489,1.591l13.972,11.073-1.835,1.6L143.5,220.023a7.652,7.652,0,0,1-1.954-1.34C138.326,215.649,127.924,205.273,132.458,202.039Z" fill="#0f787a"/>
              </g>
            </g>
          </g>
        </g>
      </g>
      <g id="Grupo_9728" data-name="Grupo 9728">
        <g id="Grupo_9727" data-name="Grupo 9727">
          <g id="Grupo_9722" data-name="Grupo 9722">
            <path id="Trazado_18586" data-name="Trazado 18586" d="M150.128,254.314l.258,18.4-4.993-1.329,2.818-17.936Z" fill="#f18c72"/>
            <g id="Grupo_9721" data-name="Grupo 9721">
              <path id="Trazado_18587" data-name="Trazado 18587" d="M147.446,249.789a2.675,2.675,0,0,0,.12,1.906l.649,2.412.457.232,1.464.528c-.229-.462-.092.037-.092.037l.531-3.719s1.564-2.186-1.879-3.117a.822.822,0,0,0-.894.292A2.1,2.1,0,0,0,147.446,249.789Z" fill="#f18c72"/>
            </g>
            <path id="Trazado_18588" data-name="Trazado 18588" d="M147.608,287.184a108.032,108.032,0,0,0,2.778-14.471l-4.817-2.45-2.174,6.356Z" fill="#005558"/>
          </g>
          <path id="Trazado_18589" data-name="Trazado 18589" d="M137.769,361.605l2.094.364c.433-2.6,6.946-14.912,7.475-21.309a144.467,144.467,0,0,1,2.238-15.005l-7.005-2.084s-1.774,0,.174,14.472C138.365,343.793,137.191,356.84,137.769,361.605Z" fill="#f18c72"/>
          <path id="Trazado_18590" data-name="Trazado 18590" d="M142.927,318.308s1.645,9.9,3.934,20.487c-2.39,6.393,1.253,24.234,1.32,24.171.275-.258,1.533,1.292,1.533,1.292s2.657-15.745,3.244-22.846.734-15.757.734-15.757Z" fill="#f7a57a"/>
          <path id="Trazado_18591" data-name="Trazado 18591" d="M147.884,361.969a2.337,2.337,0,0,0-.815,1.923c.183,1.078.442,3.6.442,3.6h1.025l-.031-2.355c0-.154,2.2,2.355,2.57,2.355H156.5s.36-1.589-2.826-2.1S147.884,361.969,147.884,361.969Z" fill="#002f4c"/>
          <g id="Grupo_9723" data-name="Grupo 9723">
            <path id="Trazado_18592" data-name="Trazado 18592" d="M140.1,360.174l-.144,2.247a2.09,2.09,0,0,0,.37,1.329,8.445,8.445,0,0,0,1.631,1.7c-1.573.5-3-1.258-3.753-2.431a2.8,2.8,0,0,1-.408-1.925l.265-1.768Z" fill="#f18c72"/>
            <path id="Trazado_18593" data-name="Trazado 18593" d="M137.769,361.41s-1.384.124-1.614,1.176-.883,3.182-.883,3.182l.755.6,1.064-2.112a31.424,31.424,0,0,0,2.652,3.237h5.921s0-1.96-3.705-2.049C138.544,365.364,137.769,361.41,137.769,361.41Z" fill="#122043"/>
          </g>
          <g id="Grupo_9725" data-name="Grupo 9725">
            <path id="Trazado_18594" data-name="Trazado 18594" d="M167.832,256.692l-6.576,17.185-4.146-3.085,9.263-15.616Z" fill="#f7a57a"/>
            <g id="Grupo_9724" data-name="Grupo 9724">
              <path id="Trazado_18595" data-name="Trazado 18595" d="M167.018,251.5a2.673,2.673,0,0,0-.6,1.815l-.291,2.481.339.384,1.164,1.033c-.041-.514-.1,0-.1,0l1.871-3.257s2.262-1.451-.591-3.592a.823.823,0,0,0-.938-.06A2.1,2.1,0,0,0,167.018,251.5Z" fill="#f7a57a"/>
            </g>
          </g>
          <path id="Trazado_18596" data-name="Trazado 18596" d="M149.576,278.09h-4.238l1.692-4.981,3.314,2.037Z" fill="#f18c72"/>
          <path id="Trazado_18597" data-name="Trazado 18597" d="M155.206,283.448c-.021-.126-.05-.231-.075-.346a64.012,64.012,0,0,0,6.125-9.224l-3.567-4.061-6.473,7.7-2.379.01a4.766,4.766,0,0,0-6.02.774c-1.026,1.057-1.709,3.926-1.023,6.957,1.888,8.358.41,12.78.41,12.78l10.935,4.077s.249-7.268.42-12.366v-.017a5.7,5.7,0,0,1,.888-2.79A4.979,4.979,0,0,0,155.206,283.448Z" fill="#0f787a"/>
          <g id="Grupo_9726" data-name="Grupo 9726">
            <path id="Trazado_18598" data-name="Trazado 18598" d="M151.066,264.156l-6.951,2.433.686,5.188c.009.073.029.144.043.216.133.024.267.049.4.082l.064.018.063.013a4.758,4.758,0,0,1,3.249,3.253,8.2,8.2,0,0,0,3.008-.039,3.016,3.016,0,0,0,1.58-.681C154.675,271.439,151.066,264.156,151.066,264.156Z" fill="#f7a57a"/>
          </g>
          <path id="Trazado_18599" data-name="Trazado 18599" d="M150.906,268.571c-1.872.915-1.431,10.558-1.754,17.125a7.462,7.462,0,0,1-6.319,6.98c-2.477.4-5.2.468-6.837-.466,1.084-.888,6.931-9.49,5.058-20.882-.246-1.5-.276-5.673,2.249-7.939,2.8-2.517,8.592.767,8.592.767S153.476,267.315,150.906,268.571Z" fill="#002b49"/>
          <path id="Trazado_18600" data-name="Trazado 18600" d="M153.362,297.783a81.2,81.2,0,0,1,1.455,11.818c0,2.422-.593,17.678-.593,17.678s-10.389.752-12.407.752c-.5-12.5-3.35-12.887-3.35-18.717,0-2.534,1.3-5.4,2.3-7.224a10.545,10.545,0,0,0,1.441-4.053l.068-.237Z" fill="#53b6b9"/>
          <path id="Trazado_18601" data-name="Trazado 18601" d="M141.317,325.683" fill="#ffc630"/>
        </g>
      </g>
      <g id="Grupo_9729" data-name="Grupo 9729">
        <path id="Trazado_18602" data-name="Trazado 18602" d="M279.514,36.837c-5.735,2.72-5.873,7.293-5.757,8.775-1.363-.592-5.712-1.927-10.169,2.594-6.218,6.306-.177,12.684-.177,12.684s3.149,6.226,22.2,3.749c.516-.067,1-.118,1.463-.169l.07.1.014,0c.017-.035.034-.074.052-.109l.01,0,.1-.056-.047-.065c.2-.425.4-.862.634-1.328,8.533-17.212,3.667-22.213,3.667-22.213S287.584,33.01,279.514,36.837Z" fill="#ffc630"/>
        <path id="Trazado_18603" data-name="Trazado 18603" d="M273.434,45.535c-1.672-.615-5.785-1.5-9.794,2.744-5.658,6-.176,12.685-.176,12.685s3.148,6.226,22.2,3.748c.474-.061.919-.109,1.35-.156Z" fill="#ffc630"/>
      </g>
      <g id="Grupo_9730" data-name="Grupo 9730">
        <path id="Trazado_18604" data-name="Trazado 18604" d="M202.581,61.3c-2.478-3.247-5.375-2.723-6.292-2.452.19-.937.451-3.853-2.99-6.055-4.8-3.072-8.007,1.581-8.007,1.581s-3.5,2.813.6,14.473c.111.316.208.612.3.9l-.053.058,0,.008c.024.006.051.011.075.018l0,.006.048.052.035-.038c.294.069.6.139.92.222,11.973,3.073,14.471-.656,14.471-.656S206.067,65.867,202.581,61.3Z" fill="#53b6b9"/>
        <path id="Trazado_18605" data-name="Trazado 18605" d="M196.294,58.632a5.652,5.652,0,0,0-3.034-5.8c-4.53-2.762-8.008,1.581-8.008,1.581s-3.5,2.813.6,14.473c.1.29.192.564.279.829Z" fill="#53b6b9"/>
      </g>
      <g id="Grupo_9743" data-name="Grupo 9743">
        <g id="Grupo_9742" data-name="Grupo 9742">
          <g id="Grupo_9731" data-name="Grupo 9731">
            <path id="Trazado_18606" data-name="Trazado 18606" d="M410.747,366.934l-50.33-156.466h2.866l50.33,156.466Z" fill="#ffc630"/>
          </g>
          <g id="Grupo_9732" data-name="Grupo 9732">
            <path id="Trazado_18607" data-name="Trazado 18607" d="M384.723,366.934l-50.33-156.466h2.866l50.331,156.466Z" fill="#ffc630"/>
          </g>
          <g id="Grupo_9733" data-name="Grupo 9733">
            <path id="Trazado_18608" data-name="Trazado 18608" d="M376.322,251.1v2.333l-26.966-.015-.461-2.333Z" fill="#ffc630"/>
          </g>
          <g id="Grupo_9734" data-name="Grupo 9734">
            <path id="Trazado_18609" data-name="Trazado 18609" d="M370.747,235.94v2.333l-26.966-.015-.461-2.333Z" fill="#ffc630"/>
          </g>
          <g id="Grupo_9735" data-name="Grupo 9735">
            <path id="Trazado_18610" data-name="Trazado 18610" d="M366.138,220.779v2.333l-26.966-.015-.461-2.333Z" fill="#ffc630"/>
          </g>
          <g id="Grupo_9736" data-name="Grupo 9736">
            <path id="Trazado_18611" data-name="Trazado 18611" d="M381.234,266.456v2.333l-26.966-.015-.461-2.333Z" fill="#ffc630"/>
          </g>
          <g id="Grupo_9737" data-name="Grupo 9737">
            <path id="Trazado_18612" data-name="Trazado 18612" d="M385.844,281.811v2.333l-26.966-.015-.461-2.333Z" fill="#ffc630"/>
          </g>
          <g id="Grupo_9738" data-name="Grupo 9738">
            <path id="Trazado_18613" data-name="Trazado 18613" d="M390.612,297.764l1.09,2.334-26.966-.015-.461-2.333Z" fill="#ffc630"/>
          </g>
          <g id="Grupo_9739" data-name="Grupo 9739">
            <path id="Trazado_18614" data-name="Trazado 18614" d="M395.668,313.718l1.09,2.333-26.966-.015-.461-2.333Z" fill="#ffc630"/>
          </g>
          <g id="Grupo_9740" data-name="Grupo 9740">
            <path id="Trazado_18615" data-name="Trazado 18615" d="M400.4,329.316l1.09,2.333-26.966-.015-.461-2.333Z" fill="#ffc630"/>
          </g>
          <g id="Grupo_9741" data-name="Grupo 9741">
            <path id="Trazado_18616" data-name="Trazado 18616" d="M404.326,345.254l1.09,2.333-26.966-.015-.461-2.333Z" fill="#ffc630"/>
          </g>
        </g>
      </g>
      <g id="Grupo_9751" data-name="Grupo 9751">
        <g id="Grupo_9744" data-name="Grupo 9744">
          <path id="Trazado_18617" data-name="Trazado 18617" d="M354.386,247.392s-.708.979-4.045,1.83c-.735.187-1.527.315-1.527,1.527h3.3l3.368-.583v.583H357.3s.506-2.976-.556-3.357Z" fill="#122043"/>
          <path id="Trazado_18618" data-name="Trazado 18618" d="M354.213,245.255l.173,2.137h0a2.06,2.06,0,0,0,2.229.075l.125-.075v-2.137Z" fill="#f7a57a"/>
        </g>
        <g id="Grupo_9745" data-name="Grupo 9745">
          <path id="Trazado_18619" data-name="Trazado 18619" d="M371.283,247.818s-.708.98-4.046,1.829c-.734.188-1.526.315-1.526,1.527h3.294l3.368-.582v.582h1.819s.507-2.975-.556-3.356Z" fill="#122043"/>
          <path id="Trazado_18620" data-name="Trazado 18620" d="M371.11,245.681l.173,2.137h0a2.056,2.056,0,0,0,2.228.074l.125-.074v-2.137Z" fill="#f7a57a"/>
        </g>
        <path id="Trazado_18621" data-name="Trazado 18621" d="M352.871,192.738l.82,53.677H357.6s5.952-43.337,4.681-53.677S352.871,192.738,352.871,192.738Z" fill="#122043"/>
        <path id="Trazado_18622" data-name="Trazado 18622" d="M357,192.726s1.362,16.489,4.489,25.617,8.773,28.072,8.773,28.072h4.047s-6.759-39.588-5.214-53.689H357Z" fill="#002f4c"/>
        <path id="Trazado_18623" data-name="Trazado 18623" d="M353.48,165.4s-4.819,11.24-6.043,11.24c-.978,0,.367-9.178.367-9.178h-4.036s-5.076,15.73-1.04,18.6,12.9-8.134,12.9-8.134Z" fill="#53b6b9"/>
        <path id="Trazado_18624" data-name="Trazado 18624" d="M367.852,194.153l-1.461,3.611c-.7,1.419-3.288,1.455-5.005,1a.356.356,0,0,1-.168-.585,49.511,49.511,0,0,1,4.236-4.276Z" fill="#f7a57a"/>
        <path id="Trazado_18625" data-name="Trazado 18625" d="M357.47,163.056a4.53,4.53,0,0,0-3.88,2.151,3.052,3.052,0,0,0-.475,1.541v25.978h14.749V168.439s-.3-5.4-5.581-5.4C360.036,163.038,358.5,163.047,357.47,163.056Z" fill="#53b6b9"/>
        <g id="Grupo_9746" data-name="Grupo 9746">
          <path id="Trazado_18626" data-name="Trazado 18626" d="M353.36,192.737V169.406l-.489.016v23.315Z" fill="#fff"/>
        </g>
        <path id="Trazado_18627" data-name="Trazado 18627" d="M362.864,158.081,361.291,164a3.744,3.744,0,0,1-3.121.618c-1.779-.473-1.438-1.755-1.438-1.755l1.007-3.795,2.815.013Z" fill="#f18c72"/>
        <path id="Trazado_18628" data-name="Trazado 18628" d="M357.214,160.136a2.284,2.284,0,0,1-1.229-.694c-.911-2.937,2.69-9.243,2.69-9.243l5.458,2.549-1.025,4.6a3.949,3.949,0,0,1-2.265,2.756h0A6.334,6.334,0,0,1,357.214,160.136Z" fill="#f7a57a"/>
        <path id="Trazado_18629" data-name="Trazado 18629" d="M361.4,152.151a12.67,12.67,0,0,1-3.9-1.036c-1.907-.888-.041-2.753-.041-2.753a8.154,8.154,0,0,0,4.037,1.38c1.846.209,2.415-.009,3.393.9,1.328,1.236.211,3.934.211,3.934l-2.425,5.691-.32-.084s.856-3.541,1.174-4.739c-.189-.634-.552-.73-.868-.668a.924.924,0,0,0-.69.687l-1.632,6.144s-4.361.648-5.276.078.96-4.947.96-4.947a1.892,1.892,0,0,1,1.906,1.039c.619,1.222,1.961.479,1.961.479Z" fill="#122043"/>
        <path id="Trazado_18630" data-name="Trazado 18630" d="M344.543,167.466l.142-.775a6.457,6.457,0,0,1,3.607-4.411h1.714l-.531,3.661-2.418,1.525Z" fill="#f7a57a"/>
        <path id="Trazado_18631" data-name="Trazado 18631" d="M363.2,154.754a1.036,1.036,0,0,0-1.193.69.893.893,0,0,0,.365,1.245,1.035,1.035,0,0,0,1.193-.69A.893.893,0,0,0,363.2,154.754Z" fill="#f7a57a"/>
        <path id="Trazado_18632" data-name="Trazado 18632" d="M348.769,165.535l-3.338,1.931s2.1-.021,2.129,0l3.533-2.956s-.256-.517-1.057-.081A4.056,4.056,0,0,0,348.769,165.535Z" fill="#f7a57a"/>
        <path id="Trazado_18633" data-name="Trazado 18633" d="M366.294,164.664s8.339,9.263,8.339,14.815-6.769,15.337-6.769,15.337l-3.343-.978s3.017-12.109,3.017-15.331-6.2-7.944-6.2-7.944" fill="#53b6b9"/>
        <g id="Grupo_9747" data-name="Grupo 9747">
          <path id="Trazado_18634" data-name="Trazado 18634" d="M367.294,178.507c0,2.774-2.455,12.913-3.032,15.276.169.045.239.058.5.124.709-2.918,3.025-12.674,3.025-15.4,0-3.3-6.037-7.942-6.294-8.138l-.3.389C361.254,170.8,367.294,175.443,367.294,178.507Z" fill="#fff"/>
        </g>
        <g id="Grupo_9750" data-name="Grupo 9750">
          <path id="Trazado_18635" data-name="Trazado 18635" d="M350.951,160a8.845,8.845,0,0,1-2.321,6.23.964.964,0,0,1-.661.266,2.442,2.442,0,0,1-1.121-.333,1.065,1.065,0,0,1-.63-.583.463.463,0,0,1,.108-.474c.529-.608,2.193-2.719,1.819-4.818A3.628,3.628,0,0,1,350.951,160Z" fill="#005558"/>
          <path id="Trazado_18636" data-name="Trazado 18636" d="M346.559,166a.706.706,0,0,1-.341-.421.463.463,0,0,1,.108-.474c.529-.608,2.193-2.719,1.819-4.818a3.052,3.052,0,0,1,1.376-.435C349.313,162.08,348.651,163.5,346.559,166Z" fill="#0f787a"/>
          <g id="Grupo_9749" data-name="Grupo 9749">
            <g id="Grupo_9748" data-name="Grupo 9748">
              <path id="Trazado_18637" data-name="Trazado 18637" d="M348.619,162.689c-.169.5-.463.846-.658.779s-.217-.522-.049-1.019.464-.845.659-.779S348.788,162.193,348.619,162.689Z" fill="#005558"/>
              <path id="Trazado_18638" data-name="Trazado 18638" d="M348.609,161.69l-.2-.076,0,.108.133.073Z" fill="#f4872e"/>
              <path id="Trazado_18639" data-name="Trazado 18639" d="M348.008,163.475l-.249-.081.3-.006Z" fill="#de1d4c"/>
            </g>
            <path id="Trazado_18640" data-name="Trazado 18640" d="M348.453,162.633c-.169.5-.464.845-.659.779s-.217-.523-.048-1.019.463-.846.659-.779S348.621,162.136,348.453,162.633Z" fill="#53b6b9"/>
          </g>
          <path id="Trazado_18641" data-name="Trazado 18641" d="M352.221,157.111l.392.049a1.345,1.345,0,0,1,1.2,1.469l-.129,1.032a1.346,1.346,0,0,1-1.526,1.127l-.392-.049Z" fill="#005558"/>
          <path id="Trazado_18642" data-name="Trazado 18642" d="M340.1,156.629c-.353,2.815.008,5.178.806,5.278s1.732-2.1,2.085-4.916-.009-5.178-.807-5.278S340.456,153.814,340.1,156.629Z" fill="#122043"/>
          <path id="Trazado_18643" data-name="Trazado 18643" d="M343.293,155.121l-1.236.6-.207,1.649,1.044,1.216.676-2.093Z" fill="#fff"/>
          <path id="Trazado_18644" data-name="Trazado 18644" d="M342.994,156.991c.3-2.365.087-4.406-.46-5.059l0,0a23.475,23.475,0,0,0,9.907,5.247l-.451,3.6s-7.538-1.379-10.692,1.01l0,0C341.989,161.286,342.7,159.359,342.994,156.991Z" fill="#0f787a"/>
          <path id="Trazado_18645" data-name="Trazado 18645" d="M341.8,156.522c-.057.458-.034.837.052.848s.2-.351.26-.809.034-.836-.052-.847S341.855,156.065,341.8,156.522Z" fill="#ffc630"/>
        </g>
        <path id="Trazado_18646" data-name="Trazado 18646" d="M346.4,164.808a3.93,3.93,0,0,0,1.864.3c.971,0,1.408-1.193,1.574-1.842.058-.229.11-.553-.176-.7l-1.559-.216Z" fill="#f7a57a"/>
      </g>
    </g>
  </g>
</svg>
