<svg xmlns="http://www.w3.org/2000/svg" xmlns:xlink="http://www.w3.org/1999/xlink" width="428.375" height="314.265" viewBox="0 0 428.375 314.265">
  <defs>
    <linearGradient id="linear-gradient" x1="-23.543" y1="0.5" x2="-22.543" y2="0.5" gradientUnits="objectBoundingBox">
      <stop offset="0" stop-color="#f1f8f7"/>
      <stop offset="1" stop-color="#bfe3ee"/>
    </linearGradient>
    <linearGradient id="linear-gradient-2" x1="-29.194" y1="0.5" x2="-28.194" y2="0.5" xlink:href="#linear-gradient"/>
    <linearGradient id="linear-gradient-3" x1="25.207" y1="11.683" x2="26.171" y2="11.683" xlink:href="#linear-gradient"/>
    <linearGradient id="linear-gradient-4" x1="21.582" y1="10.483" x2="22.572" y2="10.483" xlink:href="#linear-gradient"/>
    <linearGradient id="linear-gradient-5" y1="0.5" x2="1" y2="0.5" gradientUnits="objectBoundingBox">
      <stop offset="0" stop-color="#dfefea"/>
      <stop offset="1" stop-color="#bfe3ee"/>
    </linearGradient>
  </defs>
  <g id="Grupo_8744" data-name="Grupo 8744" transform="translate(-208.754 -220.026)">
    <g id="Grupo_8659" data-name="Grupo 8659" transform="translate(562.703 297.135)">
      <path id="Trazado_12375" data-name="Trazado 12375" d="M2340.781,708.911l5.678,14.838,3.579-2.663-8-13.482Z" transform="translate(-2338.687 -703.288)" fill="#f39f85"/>
      <g id="Grupo_8658" data-name="Grupo 8658" transform="translate(0 0)">
        <path id="Trazado_12376" data-name="Trazado 12376" d="M2331.04,682.9a2.309,2.309,0,0,1,.513,1.567l.251,2.142-.292.332-1.005.892c.036-.444.086,0,.086,0l-1.615-2.812s-1.953-1.253.51-3.1a.708.708,0,0,1,.81-.052A1.811,1.811,0,0,1,2331.04,682.9Z" transform="translate(-2328.242 -681.765)" fill="#f39f85"/>
      </g>
      <path id="Trazado_12377" data-name="Trazado 12377" d="M2381.638,797.514a93.253,93.253,0,0,1-6.856-10.716l3.079-3.506,3.777,4.4Z" transform="translate(-2367.01 -766.337)" fill="#00666b"/>
    </g>
    <g id="Grupo_8666" data-name="Grupo 8666" transform="translate(607.291 282.921)">
      <g id="Grupo_8660" data-name="Grupo 8660">
        <path id="Trazado_12378" data-name="Trazado 12378" d="M2618.067,617.595l2.755,5.419-5.787-1.32-19.8-6.238Z" transform="translate(-2595.24 -612.315)" fill="#afd8c7"/>
        <path id="Trazado_12379" data-name="Trazado 12379" d="M2699.4,651.558l-9.831-.611,2.409-1.225Z" transform="translate(-2673.813 -640.86)" fill="#63c0c4"/>
        <path id="Trazado_12380" data-name="Trazado 12380" d="M2618.067,601.929l1.72-5.28-24.548,3.141Z" transform="translate(-2595.24 -596.649)" fill="url(#linear-gradient)"/>
        <path id="Trazado_12381" data-name="Trazado 12381" d="M2595.24,615.456l19.8,6.238-2.951,7.61Z" transform="translate(-2595.24 -612.315)" fill="url(#linear-gradient-2)"/>
      </g>
      <g id="Grupo_8665" data-name="Grupo 8665" transform="translate(2.816 13.925)">
        <g id="Grupo_8661" data-name="Grupo 8661" transform="translate(18.048)">
          <path id="Trazado_12382" data-name="Trazado 12382" d="M2722.725,682.26a.462.462,0,0,0,.094-.761,13,13,0,0,0-1.946-1.4.462.462,0,1,0-.468.8,12.039,12.039,0,0,1,1.807,1.3A.462.462,0,0,0,2722.725,682.26Z" transform="translate(-2720.177 -680.032)" fill="#63c0c4"/>
        </g>
        <g id="Grupo_8663" data-name="Grupo 8663" transform="translate(0 3.403)">
          <g id="Grupo_8662" data-name="Grupo 8662">
            <path id="Trazado_12383" data-name="Trazado 12383" d="M2625.5,749.771a.463.463,0,0,1,.164-.633,13.01,13.01,0,0,0,3.391-2.94.463.463,0,0,1,.713.59,13.928,13.928,0,0,1-3.635,3.147l-.026.014A.463.463,0,0,1,2625.5,749.771Zm5.27-5.185a.462.462,0,0,1-.173-.63,16.55,16.55,0,0,0,1.677-4.21.463.463,0,1,1,.9.222,17.452,17.452,0,0,1-1.772,4.444.455.455,0,0,1-.192.184A.462.462,0,0,1,2630.774,744.586Zm2.355-7.032a.463.463,0,0,1-.429-.494l.013-.208a21.339,21.339,0,0,0-.227-4.346.462.462,0,0,1,.914-.139,22.3,22.3,0,0,1,.237,4.535l-.014.224a.464.464,0,0,1-.494.429Zm-.642-7.411a.462.462,0,0,1-.565-.328,33.623,33.623,0,0,0-1.5-4.354.466.466,0,0,1,.248-.605.462.462,0,0,1,.6.247,34.484,34.484,0,0,1,1.542,4.474.462.462,0,0,1-.237.531A.5.5,0,0,1,2632.488,730.143Zm-2.6-7a.463.463,0,0,1-.619-.211c-.057-.116-.115-.233-.173-.349a15.492,15.492,0,0,1-1.5.5.463.463,0,0,1-.248-.891q.671-.186,1.319-.435c-.48-.92-1.01-1.876-1.607-2.9a.462.462,0,0,1,.8-.464c.62,1.066,1.167,2.056,1.663,3.009a14.018,14.018,0,0,0,1.926-1.074.462.462,0,1,1,.514.769,15.038,15.038,0,0,1-2.019,1.13c.051.1.1.2.151.3a.462.462,0,0,1-.205.616Zm3.653-3.891a.462.462,0,0,1-.009-.654,11.618,11.618,0,0,0,2.454-3.733.462.462,0,0,1,.855.351,12.543,12.543,0,0,1-2.647,4.026.445.445,0,0,1-.122.089A.462.462,0,0,1,2633.541,719.256Zm-8.78,4.342a14.449,14.449,0,0,1-4.789-.374.462.462,0,1,1,.227-.9,13.518,13.518,0,0,0,4.483.349.462.462,0,0,1,.079.922Zm12.345-10.785a.463.463,0,0,1-.376-.535,14.028,14.028,0,0,0,.042-4.5.462.462,0,0,1,.914-.137,14.957,14.957,0,0,1-.045,4.8.462.462,0,0,1-.535.376Zm-19.848,9.391a12.008,12.008,0,0,1-1.086-.629,9.873,9.873,0,0,1-2.614-2.5.462.462,0,1,1,.751-.54,8.962,8.962,0,0,0,2.367,2.261,11.236,11.236,0,0,0,1,.581.462.462,0,1,1-.421.823Zm8.366-5.728a17.155,17.155,0,0,0-2.857-3.524.462.462,0,1,1,.619-.687,18.043,18.043,0,0,1,3.015,3.71.463.463,0,0,1-.138.639l-.041.024A.462.462,0,0,1,2625.624,716.476Zm11.092-11.051a.462.462,0,0,1-.587-.287,14.814,14.814,0,0,0-.8-1.9,14.131,14.131,0,0,0-1.3-2.087.462.462,0,0,1,.739-.556,14.987,14.987,0,0,1,1.386,2.224,15.734,15.734,0,0,1,.854,2.018.462.462,0,0,1-.287.587Zm-23.875,11.32a.462.462,0,0,1-.561-.337,5.135,5.135,0,0,1,.379-3.687,4.7,4.7,0,0,1,.789-1.087.462.462,0,1,1,.663.645,3.76,3.76,0,0,0-.634.872,4.174,4.174,0,0,0-.3,3.033.462.462,0,0,1-.239.524A.452.452,0,0,1,2612.841,716.744Zm7.73-5.281a6.618,6.618,0,0,0-4.258-.4.462.462,0,1,1-.227-.9,7.465,7.465,0,0,1,4.873.458.462.462,0,1,1-.388.839Z" transform="translate(-2612.103 -700.409)" fill="#63c0c4"/>
          </g>
        </g>
        <g id="Grupo_8664" data-name="Grupo 8664" transform="translate(8.452 53.197)">
          <path id="Trazado_12384" data-name="Trazado 12384" d="M2665.664,999.459a.463.463,0,0,0-.337-.857,9.919,9.919,0,0,1-2.174.367.462.462,0,1,0,.051.922,10.851,10.851,0,0,0,2.377-.4A.506.506,0,0,0,2665.664,999.459Z" transform="translate(-2662.716 -998.585)" fill="#63c0c4"/>
        </g>
      </g>
    </g>
    <g id="Grupo_8669" data-name="Grupo 8669" transform="translate(258.712 249.813)">
      <g id="Grupo_8667" data-name="Grupo 8667" transform="translate(65.093)">
        <path id="Trazado_12385" data-name="Trazado 12385" d="M961.814,404.939l-17.194-6.212-8.326-.332-5.956,1.866Z" transform="translate(-924.887 -398.394)" fill="url(#linear-gradient-3)"/>
        <path id="Trazado_12386" data-name="Trazado 12386" d="M961.814,414.246l-30.809-2.905-.667-1.773" transform="translate(-924.887 -407.701)" fill="#afd8c7"/>
        <path id="Trazado_12387" data-name="Trazado 12387" d="M934.1,439.96l.048.056,1.972,4.4,28.752-6.747Z" transform="translate(-928.023 -431.108)" fill="#63c0c4"/>
        <path id="Trazado_12388" data-name="Trazado 12388" d="M897.694,420.208l3.679-4.1,33.049,3.567-27.4,3.523Z" transform="translate(-897.694 -413.151)" fill="url(#linear-gradient-4)"/>
      </g>
      <g id="Grupo_8668" data-name="Grupo 8668" transform="translate(0 5.195)">
        <path id="Trazado_12389" data-name="Trazado 12389" d="M548.56,846.344a22.406,22.406,0,0,0,2.652-1.689.436.436,0,0,1,.518.7,23.316,23.316,0,0,1-2.754,1.754q-.515.28-1.041.532a.435.435,0,0,1-.378-.784Q548.063,846.613,548.56,846.344Z" transform="translate(-540.729 -775.255)" fill="#63c0c4"/>
        <path id="Trazado_12390" data-name="Trazado 12390" d="M840.745,429.535c1.369-.041,2.8-.042,4.378,0a.435.435,0,0,1-.022.871c-1.561-.039-2.977-.038-4.33,0a.436.436,0,0,1-.026-.871Z" transform="translate(-784.81 -429.503)" fill="#63c0c4"/>
        <path id="Trazado_12391" data-name="Trazado 12391" d="M799.044,431.829a.435.435,0,0,1,.129-.816c1.377-.232,2.846-.406,4.363-.518a.435.435,0,0,1,.064.869c-1.49.111-2.931.282-4.283.509A.432.432,0,0,1,799.044,431.829Z" transform="translate(-750.23 -430.328)" fill="#63c0c4"/>
        <path id="Trazado_12392" data-name="Trazado 12392" d="M584.645,815.362a.429.429,0,0,1,.609-.089.434.434,0,0,1,.089.609,24.249,24.249,0,0,1-2.956,3.3.435.435,0,0,1-.5.067.419.419,0,0,1-.118-.09.435.435,0,0,1,.023-.615A23.522,23.522,0,0,0,584.645,815.362Z" transform="translate(-569.34 -750.776)" fill="#63c0c4"/>
        <path id="Trazado_12393" data-name="Trazado 12393" d="M607.9,783.321a.435.435,0,0,1-.156-.6q.294-.5.563-1.02a22.6,22.6,0,0,0,1.241-2.846.435.435,0,0,1,.556-.265.44.44,0,0,1,.265.556,23.391,23.391,0,0,1-1.289,2.957q-.279.536-.584,1.057a.435.435,0,0,1-.577.167Z" transform="translate(-591.02 -720.276)" fill="#63c0c4"/>
        <path id="Trazado_12394" data-name="Trazado 12394" d="M623.439,743a.434.434,0,0,1-.323-.524,29.737,29.737,0,0,0,.669-4.233.435.435,0,1,1,.867.077,30.348,30.348,0,0,1-.689,4.357A.435.435,0,0,1,623.439,743Z" transform="translate(-603.867 -686.356)" fill="#63c0c4"/>
        <path id="Trazado_12395" data-name="Trazado 12395" d="M644.659,534.817q-.433.741-.829,1.5c-.4.765-.77,1.551-1.1,2.336a.436.436,0,0,1-.571.23l-.031-.015a.435.435,0,0,1-.2-.556c.342-.805.723-1.612,1.132-2.4q.406-.78.851-1.54a.414.414,0,0,1,.6-.156A.435.435,0,0,1,644.659,534.817Z" transform="translate(-619.515 -516.676)" fill="#63c0c4"/>
        <path id="Trazado_12396" data-name="Trazado 12396" d="M631.674,572.674a31.734,31.734,0,0,0-1.088,4.151.435.435,0,1,1-.855-.162,32.533,32.533,0,0,1,1.117-4.266.436.436,0,1,1,.826.277Z" transform="translate(-609.38 -548.286)" fill="#63c0c4"/>
        <path id="Trazado_12397" data-name="Trazado 12397" d="M665.466,501.236a35.385,35.385,0,0,0-2.655,3.382.436.436,0,0,1-.559.139.489.489,0,0,1-.047-.029.435.435,0,0,1-.111-.605,36.43,36.43,0,0,1,2.719-3.466.436.436,0,0,1,.652.578Z" transform="translate(-636.282 -488.653)" fill="#63c0c4"/>
        <path id="Trazado_12398" data-name="Trazado 12398" d="M722.134,453.409a.435.435,0,0,1-.473-.731,34.478,34.478,0,0,1,3.846-2.153.435.435,0,1,1,.375.786A33.633,33.633,0,0,0,722.134,453.409Z" transform="translate(-685.799 -446.979)" fill="#63c0c4"/>
        <path id="Trazado_12399" data-name="Trazado 12399" d="M626.887,659.675a.435.435,0,0,1-.454-.416l-.025-.551c-.056-1.269-.112-2.539-.145-3.809a.436.436,0,1,1,.871-.022c.033,1.264.089,2.529.144,3.793l.024.551A.435.435,0,0,1,626.887,659.675Z" transform="translate(-606.498 -616.886)" fill="#63c0c4"/>
        <path id="Trazado_12400" data-name="Trazado 12400" d="M689.649,475.786a.435.435,0,1,1-.607-.624,36.164,36.164,0,0,1,3.339-2.874.436.436,0,1,1,.527.694A35.11,35.11,0,0,0,689.649,475.786Z" transform="translate(-658.683 -465.069)" fill="#63c0c4"/>
        <path id="Trazado_12401" data-name="Trazado 12401" d="M628.316,696.15a.434.434,0,0,1,.449.422c.055,1.708.063,3.1.028,4.381a.436.436,0,0,1-.871-.025c.036-1.262.028-2.638-.027-4.329A.435.435,0,0,1,628.316,696.15Z" transform="translate(-607.857 -651.621)" fill="#63c0c4"/>
        <path id="Trazado_12402" data-name="Trazado 12402" d="M512.368,864.107a.435.435,0,0,1,.3.817,35.159,35.159,0,0,1-4.225,1.243.436.436,0,1,1-.2-.849A34.649,34.649,0,0,0,512.368,864.107Z" transform="translate(-507.909 -791.507)" fill="#63c0c4"/>
        <path id="Trazado_12403" data-name="Trazado 12403" d="M626.811,612.786a.436.436,0,0,1,.387.479c-.138,1.319-.212,2.727-.225,4.3a.435.435,0,1,1-.871-.007c.013-1.606.089-3.041.23-4.388A.435.435,0,0,1,626.811,612.786Z" transform="translate(-606.365 -582.176)" fill="#63c0c4"/>
        <path id="Trazado_12404" data-name="Trazado 12404" d="M761.583,437.061q.739-.209,1.485-.386a.436.436,0,0,1,.2.848q-.728.172-1.449.376c-.892.252-1.785.549-2.656.883a.435.435,0,1,1-.311-.813C759.747,437.626,760.667,437.321,761.583,437.061Z" transform="translate(-716.712 -435.468)" fill="#63c0c4"/>
      </g>
    </g>
    <rect id="Rectángulo_1877" data-name="Rectángulo 1877" width="74.622" height="74.622" transform="translate(208.754 454.747)" fill="#fdac29"/>
    <rect id="Rectángulo_1878" data-name="Rectángulo 1878" width="74.622" height="74.622" transform="translate(301.323 454.747)" fill="#053c5e"/>
    <rect id="Rectángulo_1879" data-name="Rectángulo 1879" width="74.622" height="74.622" transform="translate(301.323 380.084)" fill="#afd8c8"/>
    <rect id="Rectángulo_1880" data-name="Rectángulo 1880" width="74.622" height="74.622" transform="translate(397.671 454.747)" fill="#053c5e"/>
    <rect id="Rectángulo_1881" data-name="Rectángulo 1881" width="74.622" height="74.622" transform="translate(397.671 379.917)" fill="#21b1b4"/>
    <rect id="Rectángulo_1882" data-name="Rectángulo 1882" width="74.622" height="74.622" transform="translate(387.851 305.836)" fill="#63c0c4"/>
    <rect id="Rectángulo_1883" data-name="Rectángulo 1883" width="74.622" height="74.622" transform="translate(496.852 454.747)" fill="#212b53"/>
    <rect id="Rectángulo_1884" data-name="Rectángulo 1884" width="74.622" height="74.622" transform="translate(511.878 380.251)" fill="#053c5e"/>
    <rect id="Rectángulo_1885" data-name="Rectángulo 1885" width="74.622" height="74.622" transform="translate(487.501 306.17)" fill="#21b1b4"/>
    <rect id="Rectángulo_1886" data-name="Rectángulo 1886" width="74.622" height="74.622" transform="translate(514.577 220.026) rotate(16.288)" fill="#fed147"/>
    <g id="Grupo_8678" data-name="Grupo 8678" transform="translate(399.086 271.458)">
      <g id="Grupo_8671" data-name="Grupo 8671" transform="translate(40.647 10.89)">
        <path id="Trazado_12405" data-name="Trazado 12405" d="M1591.884,593.214s1.257,7.2,3.154,10.824,9.939,10.43,9.939,10.43l.792-2.371-5.943-8.4-2.691-8.962Z" transform="translate(-1591.884 -593.214)" fill="#f39f85"/>
        <g id="Grupo_8670" data-name="Grupo 8670" transform="translate(11.165 17.286)">
          <path id="Trazado_12406" data-name="Trazado 12406" d="M1661.456,698.443a4.311,4.311,0,0,0,1.512,1.86c1.049.865,3.759,2.026,2.543,2.812-1.466-.164-3.207-.181-3.207-.181a4.762,4.762,0,0,1-2.365-2.14l-1.2-2.71s.632-1.292.651-1.358l.61.136A6.978,6.978,0,0,0,1661.456,698.443Z" transform="translate(-1658.74 -696.725)" fill="#f39f85"/>
          <path id="Trazado_12407" data-name="Trazado 12407" d="M1663.606,702.507a1.078,1.078,0,0,0,.031.219c-.189-.043-.378-.075-.567-.1-.594-.389-1.2-.759-1.8-1.142.269-.311.646-.749.667-.785l4.415,1.726s.03.612-.961.561A4.717,4.717,0,0,1,1663.606,702.507Z" transform="translate(-1660.848 -700.035)" fill="#f39f85"/>
        </g>
      </g>
      <g id="Grupo_8673" data-name="Grupo 8673" transform="translate(46.46 0.205)">
        <path id="Trazado_12408" data-name="Trazado 12408" d="M1631.211,552.155l-3.6,1.082-.915-3.905,5.845-.31Z" transform="translate(-1626.696 -545.716)" fill="#f39f85"/>
        <g id="Grupo_8672" data-name="Grupo 8672" transform="translate(3.952 2.644)">
          <path id="Trazado_12409" data-name="Trazado 12409" d="M1650.484,550.2a2.012,2.012,0,0,0,.474,1.052c2.172.949,7.052-1.55,7.052-1.55l.481-2.279-2.187-2.356-3.494.516a2.863,2.863,0,0,0-2.159,1.657h0A5.587,5.587,0,0,0,1650.484,550.2Z" transform="translate(-1650.358 -545.064)" fill="#f7b58e"/>
        </g>
        <path id="Trazado_12410" data-name="Trazado 12410" d="M1663.869,532.674c.61.035,1.938-.3,1.955.31.013.446.237,1.939.333,2.437.229,1.188,1.1,3.216,2.91,2.867a2.374,2.374,0,0,0,1.329-3.523c-.709-1.22-2.053-2.76-2.047-3.479.009-1.209-.9-2.238-1.883-2.031a10.073,10.073,0,0,0-3.445,1.793,5.651,5.651,0,0,0-1.323,1.486h0Z" transform="translate(-1655.854 -529.229)" fill="#212b53"/>
        <path id="Trazado_12411" data-name="Trazado 12411" d="M1667.262,542.29a.911.911,0,0,1,.115,1.126c-.222.4-.632.55-.917.33a.91.91,0,0,1-.115-1.126C1666.566,542.218,1666.977,542.07,1667.262,542.29Z" transform="translate(-1659.609 -540.024)" fill="#f7b58e"/>
      </g>
      <path id="Trazado_12412" data-name="Trazado 12412" d="M1617.444,579.6l.174,6.682-2.862,2.126V579.6Z" transform="translate(-1570.289 -570.981)" fill="#0e4546"/>
      <g id="Grupo_8674" data-name="Grupo 8674" transform="translate(34.81 28.97)">
        <path id="Trazado_12413" data-name="Trazado 12413" d="M1560.057,714.685a12.067,12.067,0,0,0,4.954,2.278c.758.193,1.576-.065,1.576,1.186h-4.179l-3.476-.6v.6h-1.877s-.523-3.07.574-3.464Z" transform="translate(-1556.93 -712.48)" fill="#212b53"/>
        <path id="Trazado_12414" data-name="Trazado 12414" d="M1563.172,701.48l.369,2.205h0a2.123,2.123,0,0,1-2.3.077l-.129-.077.187-2.205Z" transform="translate(-1560.414 -701.48)" fill="#f7b58e"/>
      </g>
      <g id="Grupo_8675" data-name="Grupo 8675" transform="translate(3.21 26.371)">
        <path id="Trazado_12415" data-name="Trazado 12415" d="M1369.97,688.569l-2.027-.4h0a1.983,1.983,0,0,1,.174-2.142l.085-.111,2.046.235Z" transform="translate(-1367.708 -685.915)" fill="#f7b58e"/>
      </g>
      <path id="Trazado_12416" data-name="Trazado 12416" d="M1516.379,596.391s2.613-.105,7.776-3.294c-3.493,6.219-2.354,14.687-2.354,14.687h2.961l7.289-19.095-17.464-.907v8.808Z" transform="translate(-1486.849 -577.798)" fill="#212b53"/>
      <path id="Trazado_12417" data-name="Trazado 12417" d="M1503.578,531.543s-9.112-9.438-27.183,2.509l7.745,9.249,9.415-3.189,7.137,1.974Z" transform="translate(-1455.035 -528.003)" fill="#37b9bc"/>
      <g id="Grupo_8677" data-name="Grupo 8677" transform="translate(38.521 12.109)">
        <path id="Trazado_12418" data-name="Trazado 12418" d="M1579.153,600.512s.456,7.9,1.974,11.693,8.888,10.782,8.888,10.782l1.029-2.278-5.057-8.96.3-9.263Z" transform="translate(-1579.153 -600.512)" fill="#f7b58e"/>
        <g id="Grupo_8676" data-name="Grupo 8676" transform="translate(9.21 18.399)">
          <path id="Trazado_12419" data-name="Trazado 12419" d="M1636.969,712.6a4.308,4.308,0,0,0,1.314,2c.956.968,3.533,2.4,2.243,3.056-1.442-.312-3.172-.506-3.172-.506a4.762,4.762,0,0,1-2.135-2.37l-.916-2.818s.76-1.221.785-1.285l.594.2A6.965,6.965,0,0,0,1636.969,712.6Z" transform="translate(-1634.303 -710.685)" fill="#f7b58e"/>
          <path id="Trazado_12420" data-name="Trazado 12420" d="M1638.984,716.875a1.084,1.084,0,0,0,.009.221c-.184-.062-.369-.113-.554-.158-.552-.447-1.117-.877-1.673-1.319.3-.282.719-.68.744-.713l4.217,2.167s-.033.612-1.013.46A4.717,4.717,0,0,1,1638.984,716.875Z" transform="translate(-1636.355 -714.201)" fill="#f7b58e"/>
        </g>
      </g>
      <path id="Trazado_12421" data-name="Trazado 12421" d="M1393.827,564.225s-4.86,3.735-5.163,8.49,4.556,13.638,4.556,13.638-5.44-4.552-15.325-1.944a20.035,20.035,0,0,0-.621,3.145s20.5,7.466,23.539,3.768.759-17.847.759-17.847Z" transform="translate(-1372.467 -558.176)" fill="#053c5e"/>
      <path id="Trazado_12422" data-name="Trazado 12422" d="M1352.171,681.784s-1.53.474-1.88,5.051c-.072.939-.395.709-.73.955-.307-1.411-1.075-4.338-1.075-4.338l1.149-3.017-.648-.49,1.068-1.695s2.127.22,2.376,1.28Z" transform="translate(-1348.486 -653.16)" fill="#212b53"/>
    </g>
    <g id="Grupo_8688" data-name="Grupo 8688" transform="translate(410.414 444.339)">
      <g id="Grupo_8687" data-name="Grupo 8687" transform="translate(0 0.412)">
        <g id="Grupo_8681" data-name="Grupo 8681" transform="translate(9.911 2.369)">
          <g id="Grupo_8680" data-name="Grupo 8680">
            <path id="Trazado_12423" data-name="Trazado 12423" d="M1479.81,1610.789l-1.577,3.524-2.568-2.314,1.811-5.134Z" transform="translate(-1475.665 -1602.361)" fill="#f39f85"/>
            <g id="Grupo_8679" data-name="Grupo 8679" transform="translate(1.749)">
              <path id="Trazado_12424" data-name="Trazado 12424" d="M1489.447,1588.542a1.753,1.753,0,0,0,1.079-.1c1.561-1.768,1.025-6.977,1.025-6.977l-1.827-1.575-2.795,1.3-.728,2.862a4.577,4.577,0,0,0,.718,3.317h0A4.864,4.864,0,0,0,1489.447,1588.542Z" transform="translate(-1486.138 -1579.891)" fill="#f7b58e"/>
            </g>
          </g>
        </g>
        <path id="Trazado_12425" data-name="Trazado 12425" d="M1497.357,1697.353a4.039,4.039,0,0,0,1.894,1.35c1.263.434,10.664-1.539,10.664-1.539l1.888.2a4.8,4.8,0,0,0,2.991-.155l2.765-1.069-16.221-.338-6.209-7.711Z" transform="translate(-1481.968 -1667.651)" fill="#f7b58e"/>
        <path id="Trazado_12426" data-name="Trazado 12426" d="M1446.662,1637.607s-3.748,4.8-4.624,7.957-1.191,11.857-1.191,11.857h7.887s2.264-4.1,4.022-7.829a4.26,4.26,0,0,0,.049-3.538c-1.288-2.916-3.221-6.928-3.221-6.928Z" transform="translate(-1436.751 -1625.599)" fill="#fff"/>
        <g id="Grupo_8683" data-name="Grupo 8683" transform="translate(11.204 84.338)">
          <g id="Grupo_8682" data-name="Grupo 8682" transform="translate(0.576)">
            <path id="Trazado_12427" data-name="Trazado 12427" d="M1488.989,2070.729l.625,1.628a2.091,2.091,0,0,0,.852,1.082,8.2,8.2,0,0,0,2.154.978c-1.254,1.07-3.249-.048-4.39-.838a2.794,2.794,0,0,1-1.115-1.616l-.261-1.233Z" transform="translate(-1486.854 -2070.729)" fill="#f7b58e"/>
          </g>
          <path id="Trazado_12428" data-name="Trazado 12428" d="M1484.119,2075.8a1.8,1.8,0,0,0-.693,1.516c.156.85.376,2.839.376,2.839h.872l-.027-1.855c0-.122,1.87,1.855,2.186,1.855h4.614s.307-1.251-2.4-1.654A9.994,9.994,0,0,1,1484.119,2075.8Z" transform="translate(-1483.407 -2074.952)" fill="#053c5e"/>
        </g>
        <g id="Grupo_8685" data-name="Grupo 8685" transform="translate(2.236 84.338)">
          <g id="Grupo_8684" data-name="Grupo 8684" transform="translate(0.576)">
            <path id="Trazado_12429" data-name="Trazado 12429" d="M1435.289,2070.729l.625,1.628a2.091,2.091,0,0,0,.852,1.082,8.193,8.193,0,0,0,2.154.978c-1.254,1.07-3.249-.048-4.39-.838a2.793,2.793,0,0,1-1.115-1.616l-.261-1.233Z" transform="translate(-1433.154 -2070.729)" fill="#f7b58e"/>
          </g>
          <path id="Trazado_12430" data-name="Trazado 12430" d="M1430.419,2075.8a1.8,1.8,0,0,0-.693,1.516c.156.85.376,2.839.376,2.839h.872l-.027-1.855c0-.122,1.87,1.855,2.186,1.855h4.613s.307-1.251-2.4-1.654A9.994,9.994,0,0,1,1430.419,2075.8Z" transform="translate(-1429.707 -2074.952)" fill="#053c5e"/>
        </g>
        <path id="Trazado_12431" data-name="Trazado 12431" d="M1459.924,1756.393s3.914,5.866.564,29.252c.526,8.839,1.508,23.385,1.508,23.385h-2.222s-6.158-15.494-4.092-23.212c.491-7.644-1.4-29.563-1.4-29.563Z" transform="translate(-1447.94 -1724.433)" fill="#01888b"/>
        <path id="Trazado_12432" data-name="Trazado 12432" d="M1420.413,1756.255s-4.1,3.295-4.1,8.188c0,3.838,1.85,11.789,2.911,16.993a12.071,12.071,0,0,1-.536,5.694c-2.166,7.548.466,21.9.466,21.9h2.209s.121-7.382,3.144-23.931c3.471-19.007,3.789-28.845,3.789-28.845Z" transform="translate(-1416.317 -1724.433)" fill="#63c0c4"/>
        <g id="Grupo_8686" data-name="Grupo 8686" transform="translate(23.15 17.14)">
          <path id="Trazado_12433" data-name="Trazado 12433" d="M1567.828,1679.687h-12.885v-.947h12.313l5.47-10.4.838.441Z" transform="translate(-1554.943 -1668.34)" fill="url(#linear-gradient-5)"/>
        </g>
        <path id="Trazado_12434" data-name="Trazado 12434" d="M1454.28,1675.471s4.115,9.58,6.093,9.58,12.928-4.683,12.928-4.683l-.291-1.635-11.18,1.894a49.029,49.029,0,0,1-1.678-5.67,3.12,3.12,0,0,0-2.412-2.408C1455.1,1672.05,1454.28,1675.471,1454.28,1675.471Z" transform="translate(-1447.94 -1654.665)" fill="#f7b58e"/>
        <path id="Trazado_12435" data-name="Trazado 12435" d="M1434.213,1571.306s1.22.738,4.956-1.657c.572.149-.341-5.235-5.175-3.653-3.383,1.107-3.221,4.382-3.065,6.194.168,1.957-.85,3.249-2.2,4.681-1.129,1.2-1.111,3.409-1.863,4.6-.925,1.462-1.906,1.377-2.64,2.86a4.685,4.685,0,0,0,.155,4.844c.584.792,1.947,2.7,4.1,2.022,1.21-.382,1.536-2.495,1.59-4.275a5.391,5.391,0,0,1,2.055-4.044,7.653,7.653,0,0,0,2.773-3.518C1435.573,1576.758,1434.213,1571.306,1434.213,1571.306Z" transform="translate(-1422.411 -1565.704)" fill="#ffd147"/>
        <path id="Trazado_12436" data-name="Trazado 12436" d="M1483.251,1599.393a.794.794,0,0,1,1.021.272.684.684,0,0,1-.021.995.793.793,0,0,1-1.021-.272A.684.684,0,0,1,1483.251,1599.393Z" transform="translate(-1471.888 -1593.687)" fill="#f7b58e"/>
        <path id="Trazado_12437" data-name="Trazado 12437" d="M1569.91,1706.58a.537.537,0,0,0-.319-.554l-2.1-.914a2.3,2.3,0,0,0-1.644-.073l-2.084.692-.282.011-.224,1.94c.417-.153.661-.248.661-.248l1.319-.479s2.877,2.439,3.906.224c.308,2.194.933,1.95.933,1.95Z" transform="translate(-1538.715 -1681.673)" fill="#f7b58e"/>
      </g>
      <path id="Trazado_12438" data-name="Trazado 12438" d="M1475.528,1567.366c.414,1.5,2.544,2.218,4.757,1.606s3.415-2.274,3.258-3.82c-.205-2.032-2.544-2.218-4.757-1.606S1475.114,1565.867,1475.528,1567.366Z" transform="translate(-1465.581 -1563.238)" fill="#ffd147"/>
    </g>
    <g id="Grupo_8698" data-name="Grupo 8698" transform="translate(230.236 363.012)">
      <g id="Grupo_8691" data-name="Grupo 8691" transform="translate(16.248 86.581)">
        <path id="Trazado_12439" data-name="Trazado 12439" d="M435.376,1608.528l6.952-.008c.923.1,1.955.359,2.127,1.159a4.649,4.649,0,0,1,.1,1.059c-.246.289-9.464-.039-9.464-.039l-.04-.033A1.462,1.462,0,0,1,435.376,1608.528Z" transform="translate(-434.688 -1606.212)" fill="#12375a"/>
        <path id="Trazado_12440" data-name="Trazado 12440" d="M446.569,1621.613l-9.464-.038.082.368h9.4Z" transform="translate(-436.701 -1617.087)" fill="#212b53"/>
        <g id="Grupo_8689" data-name="Grupo 8689" transform="translate(3.264 2.308)">
          <path id="Trazado_12441" data-name="Trazado 12441" d="M454.408,1608.52l.626,0-.195.852h-.607Z" transform="translate(-454.232 -1608.52)" fill="#fff"/>
        </g>
        <g id="Grupo_8690" data-name="Grupo 8690" transform="translate(4.606 2.308)">
          <path id="Trazado_12442" data-name="Trazado 12442" d="M462.445,1608.52l.626,0-.195.852h-.607Z" transform="translate(-462.269 -1608.52)" fill="#fff"/>
        </g>
        <path id="Trazado_12443" data-name="Trazado 12443" d="M435.951,1594.7l.477,2.316h0a2.254,2.254,0,0,0,1.864.044l.106-.046.335-2.313Z" transform="translate(-435.74 -1594.702)" fill="#f7b58e"/>
      </g>
      <g id="Grupo_8694" data-name="Grupo 8694" transform="translate(0 86.581)">
        <path id="Trazado_12444" data-name="Trazado 12444" d="M338.08,1608.528l6.952-.008c.923.1,1.955.359,2.127,1.159a4.649,4.649,0,0,1,.1,1.059c-.246.289-9.464-.039-9.464-.039l-.04-.033A1.461,1.461,0,0,1,338.08,1608.528Z" transform="translate(-337.392 -1606.212)" fill="#212b53"/>
        <path id="Trazado_12445" data-name="Trazado 12445" d="M349.273,1621.613l-9.464-.038.082.368h9.4Z" transform="translate(-339.405 -1617.087)" fill="#212b53"/>
        <g id="Grupo_8692" data-name="Grupo 8692" transform="translate(3.264 2.308)">
          <path id="Trazado_12446" data-name="Trazado 12446" d="M357.111,1608.52l.626,0-.195.852h-.607Z" transform="translate(-356.935 -1608.52)" fill="#fff"/>
        </g>
        <g id="Grupo_8693" data-name="Grupo 8693" transform="translate(4.606 2.308)">
          <path id="Trazado_12447" data-name="Trazado 12447" d="M365.149,1608.52l.626,0-.195.852h-.607Z" transform="translate(-364.973 -1608.52)" fill="#fff"/>
        </g>
        <path id="Trazado_12448" data-name="Trazado 12448" d="M341.813,1594.7l-.3,2.316h0a2.254,2.254,0,0,0,1.864.044l.106-.046,1.114-2.313Z" transform="translate(-340.823 -1594.702)" fill="#f7b58e"/>
      </g>
      <g id="Grupo_8695" data-name="Grupo 8695" transform="translate(5.639 8.708)">
        <path id="Trazado_12449" data-name="Trazado 12449" d="M376.884,1128.387l-5.725,3.733,1.767,4.524c.025.064.058.123.087.185.126-.008.251-.015.379-.015l.062,0,.06,0a4.417,4.417,0,0,1,3.649,2.212,7.612,7.612,0,0,0,2.7-.7,2.8,2.8,0,0,0,1.273-.964C381.751,1134.152,376.884,1128.387,376.884,1128.387Z" transform="translate(-371.159 -1128.387)" fill="#f7b58e"/>
      </g>
      <path id="Trazado_12450" data-name="Trazado 12450" d="M445.506,1129.557s.7,6.645-.71,10.877c.655.569,3.061,3.148,3.818-.195s-.849-11.852-.849-11.852Z" transform="translate(-426.86 -1119.679)" fill="#f7b58e"/>
      <g id="Grupo_8697" data-name="Grupo 8697" transform="translate(13.864 0.087)">
        <g id="Grupo_8696" data-name="Grupo 8696" transform="translate(0 9.321)">
          <path id="Trazado_12451" data-name="Trazado 12451" d="M421.761,1132.578l-1.347.867.481,1.006,1.445-.637Z" transform="translate(-420.414 -1132.578)" fill="#212b53"/>
          <path id="Trazado_12452" data-name="Trazado 12452" d="M420.968,1137.487c.135.307.145.6.021.655s-.332-.151-.467-.459-.145-.6-.022-.654S420.833,1137.179,420.968,1137.487Z" transform="translate(-420.414 -1136.278)" fill="#212b53"/>
        </g>
        <path id="Trazado_12453" data-name="Trazado 12453" d="M443.707,1081.185c0-.013,0-.025.005-.038a13.486,13.486,0,0,0-1.3-2.338,11.754,11.754,0,0,1-1.251-2.044l-13.91,9.1.9,1.7,15.559-5.75A4.323,4.323,0,0,1,443.707,1081.185Z" transform="translate(-426.107 -1076.765)" fill="#053c5e"/>
      </g>
      <path id="Trazado_12454" data-name="Trazado 12454" d="M395.382,1188.6l-.5,3.124h4.426l.318-3.828Z" transform="translate(-385.281 -1169.25)" fill="#f39f85"/>
      <path id="Trazado_12455" data-name="Trazado 12455" d="M457.963,1123.842s5.228-1.665,6.866-3.9-1.134-14.49-1.134-14.49l.358-2.2a2.053,2.053,0,0,0-2.008-2.382l-1.4-.012a.8.8,0,0,0-.737,1.124l1.837,4.133s1.379,9.28-.552,9.984a21.756,21.756,0,0,1-4.91,1.018Z" transform="translate(-436.432 -1096.74)" fill="#f7b58e"/>
      <path id="Trazado_12456" data-name="Trazado 12456" d="M374.437,1130.013l-1.345-2.983.874-.549a1.644,1.644,0,0,0,.682-1.922l-.957-2.811s2.724-.333,2.642-2.871c0-1.307-1.8-1.314-1.8-1.314a2.615,2.615,0,0,1-2.206,1.307,4.339,4.339,0,0,0-4.009,2.489c-.892,1.557-.5,4,.276,5.827a5.315,5.315,0,0,0,4.234,2.827Z" transform="translate(-362.728 -1110.663)" fill="#12375a"/>
      <path id="Trazado_12457" data-name="Trazado 12457" d="M344.488,1342.145a98.359,98.359,0,0,0,1.653,13.252,11.845,11.845,0,0,1-.408,6.094c-3.122,9.274-7.5,23.219-7.5,23.219h3.893s8.821-16.481,11.094-24.657,2.662-10.771,2.662-10.771l-2.7-7.137Z" transform="translate(-338.094 -1297.74)" fill="#212b53"/>
      <path id="Trazado_12458" data-name="Trazado 12458" d="M394.923,1163.6a1.266,1.266,0,0,0,.724,1.389c.56.3,1.143.157,1.3-.313a1.266,1.266,0,0,0-.724-1.389C395.667,1162.987,395.083,1163.127,394.923,1163.6Z" transform="translate(-385.281 -1148.619)" fill="#f7b58e"/>
      <path id="Trazado_12459" data-name="Trazado 12459" d="M388.373,1221.261H375.679v-16.286a6.91,6.91,0,0,1,6.268-6.88l8.827-1.068s1.038,1.589,3.93,5.281a29.8,29.8,0,0,1-7.5,3.137Z" transform="translate(-369.285 -1176.856)" fill="#ffd147"/>
      <path id="Trazado_12460" data-name="Trazado 12460" d="M375.679,1342.145s1.793,6.489,8.408,13.761a8.506,8.506,0,0,1,2.469,6.613l-1.365,22.191h3.949s4.813-18.428,3.775-27.512a41.69,41.69,0,0,0-4.542-15.054Z" transform="translate(-369.285 -1297.74)" fill="#053c5e"/>
      <path id="Trazado_12461" data-name="Trazado 12461" d="M509.765,1079.24c.683,1.416,1.609,2.385,2.069,2.163s.279-1.55-.4-2.966-1.609-2.385-2.069-2.163S509.082,1077.824,509.765,1079.24Z" transform="translate(-480.431 -1076.243)" fill="#63c0c4"/>
      <path id="Trazado_12462" data-name="Trazado 12462" d="M445.763,1109.262l.118.056a1.769,1.769,0,0,0,1.325.083l.078-.026a2.364,2.364,0,0,0,1.505-1.526h0a.439.439,0,0,0-.508-.562l-.879.185a1.324,1.324,0,0,0-.835.569Z" transform="translate(-427.665 -1102.094)" fill="#f7b58e"/>
    </g>
    <g id="Grupo_8723" data-name="Grupo 8723" transform="translate(516.089 388.642)">
      <g id="Grupo_8710" data-name="Grupo 8710" transform="translate(0)">
        <g id="Grupo_8699" data-name="Grupo 8699">
          <path id="Trazado_12463" data-name="Trazado 12463" d="M2051.757,1374.084l46.438-144.367h-2.645l-46.439,144.367Z" transform="translate(-2049.112 -1229.717)" fill="#ffd147"/>
        </g>
        <g id="Grupo_8700" data-name="Grupo 8700" transform="translate(24.012)">
          <path id="Trazado_12464" data-name="Trazado 12464" d="M2195.542,1374.084l46.439-144.367h-2.645L2192.9,1374.084Z" transform="translate(-2192.897 -1229.717)" fill="#ffd147"/>
        </g>
        <g id="Grupo_8701" data-name="Grupo 8701" transform="translate(34.408 37.477)">
          <path id="Trazado_12465" data-name="Trazado 12465" d="M2255.148,1454.145v2.152l24.881-.014.425-2.152Z" transform="translate(-2255.148 -1454.131)" fill="#ffd147"/>
        </g>
        <g id="Grupo_8702" data-name="Grupo 8702" transform="translate(39.552 23.488)">
          <path id="Trazado_12466" data-name="Trazado 12466" d="M2285.951,1370.381v2.152l24.881-.014.425-2.153Z" transform="translate(-2285.951 -1370.367)" fill="#ffd147"/>
        </g>
        <g id="Grupo_8703" data-name="Grupo 8703" transform="translate(43.805 9.5)">
          <path id="Trazado_12467" data-name="Trazado 12467" d="M2311.421,1286.618v2.152l24.881-.014.425-2.153Z" transform="translate(-2311.421 -1286.604)" fill="#ffd147"/>
        </g>
        <g id="Grupo_8704" data-name="Grupo 8704" transform="translate(29.876 51.645)">
          <path id="Trazado_12468" data-name="Trazado 12468" d="M2228.011,1538.987v2.152l24.881-.014.425-2.152Z" transform="translate(-2228.011 -1538.973)" fill="#ffd147"/>
        </g>
        <g id="Grupo_8705" data-name="Grupo 8705" transform="translate(25.622 65.813)">
          <path id="Trazado_12469" data-name="Trazado 12469" d="M2202.542,1623.825v2.152l24.881-.014.425-2.153Z" transform="translate(-2202.542 -1623.811)" fill="#ffd147"/>
        </g>
        <g id="Grupo_8706" data-name="Grupo 8706" transform="translate(20.217 80.533)">
          <path id="Trazado_12470" data-name="Trazado 12470" d="M2171.181,1711.969l-1.005,2.153,24.881-.014.425-2.152Z" transform="translate(-2170.175 -1711.956)" fill="#ffd147"/>
        </g>
        <g id="Grupo_8707" data-name="Grupo 8707" transform="translate(15.552 95.253)">
          <path id="Trazado_12471" data-name="Trazado 12471" d="M2143.247,1800.114l-1.005,2.153,24.881-.014.425-2.153Z" transform="translate(-2142.242 -1800.101)" fill="#ffd147"/>
        </g>
        <g id="Grupo_8708" data-name="Grupo 8708" transform="translate(11.184 109.645)">
          <path id="Trazado_12472" data-name="Trazado 12472" d="M2117.087,1886.294l-1.005,2.153,24.881-.014.425-2.153Z" transform="translate(-2116.082 -1886.281)" fill="#ffd147"/>
        </g>
        <g id="Grupo_8709" data-name="Grupo 8709" transform="translate(7.564 124.35)">
          <path id="Trazado_12473" data-name="Trazado 12473" d="M2095.413,1974.355l-1.005,2.153,24.881-.014.426-2.152Z" transform="translate(-2094.407 -1974.342)" fill="#ffd147"/>
        </g>
      </g>
      <g id="Grupo_8722" data-name="Grupo 8722" transform="translate(47.945)">
        <g id="Grupo_8711" data-name="Grupo 8711" transform="translate(24.012)">
          <path id="Trazado_12474" data-name="Trazado 12474" d="M2526.435,1374.084,2480,1229.717h2.645l46.439,144.367Z" transform="translate(-2479.996 -1229.717)" fill="#fed247"/>
        </g>
        <g id="Grupo_8712" data-name="Grupo 8712">
          <path id="Trazado_12475" data-name="Trazado 12475" d="M2382.649,1374.084l-46.439-144.367h2.645l46.439,144.367Z" transform="translate(-2336.21 -1229.717)" fill="#fed247"/>
        </g>
        <g id="Grupo_8713" data-name="Grupo 8713" transform="translate(13.381 37.477)">
          <path id="Trazado_12476" data-name="Trazado 12476" d="M2441.645,1454.145v2.152l-24.881-.014-.425-2.152Z" transform="translate(-2416.339 -1454.131)" fill="#fed247"/>
        </g>
        <g id="Grupo_8714" data-name="Grupo 8714" transform="translate(8.237 23.488)">
          <path id="Trazado_12477" data-name="Trazado 12477" d="M2410.842,1370.381v2.152l-24.881-.014-.425-2.153Z" transform="translate(-2385.536 -1370.367)" fill="#fed247"/>
        </g>
        <g id="Grupo_8715" data-name="Grupo 8715" transform="translate(3.984 9.5)">
          <path id="Trazado_12478" data-name="Trazado 12478" d="M2385.374,1286.618v2.152l-24.881-.014-.425-2.153Z" transform="translate(-2360.067 -1286.604)" fill="#fed247"/>
        </g>
        <g id="Grupo_8716" data-name="Grupo 8716" transform="translate(17.913 51.645)">
          <path id="Trazado_12479" data-name="Trazado 12479" d="M2468.783,1538.987v2.152l-24.881-.014-.425-2.152Z" transform="translate(-2443.477 -1538.973)" fill="#fed247"/>
        </g>
        <g id="Grupo_8717" data-name="Grupo 8717" transform="translate(22.166 65.813)">
          <path id="Trazado_12480" data-name="Trazado 12480" d="M2494.252,1623.825v2.152l-24.881-.014-.425-2.153Z" transform="translate(-2468.946 -1623.811)" fill="#fed247"/>
        </g>
        <g id="Grupo_8718" data-name="Grupo 8718" transform="translate(27.572 80.533)">
          <path id="Trazado_12481" data-name="Trazado 12481" d="M2525.614,1711.969l1.006,2.153-24.881-.014-.425-2.152Z" transform="translate(-2501.313 -1711.956)" fill="#fed247"/>
        </g>
        <g id="Grupo_8719" data-name="Grupo 8719" transform="translate(32.236 95.253)">
          <path id="Trazado_12482" data-name="Trazado 12482" d="M2553.547,1800.114l1.005,2.153-24.881-.014-.425-2.153Z" transform="translate(-2529.246 -1800.101)" fill="#fed247"/>
        </g>
        <g id="Grupo_8720" data-name="Grupo 8720" transform="translate(36.605 109.645)">
          <path id="Trazado_12483" data-name="Trazado 12483" d="M2579.707,1886.294l1.005,2.153-24.881-.014-.425-2.153Z" transform="translate(-2555.406 -1886.281)" fill="#fed247"/>
        </g>
        <g id="Grupo_8721" data-name="Grupo 8721" transform="translate(40.225 124.35)">
          <path id="Trazado_12484" data-name="Trazado 12484" d="M2601.381,1974.355l1.006,2.153-24.881-.014-.425-2.152Z" transform="translate(-2577.08 -1974.342)" fill="#fed247"/>
        </g>
      </g>
    </g>
    <g id="Grupo_8727" data-name="Grupo 8727" transform="translate(556.738 296.418)">
      <path id="Trazado_12485" data-name="Trazado 12485" d="M2418.1,1089.748l-1.808.314c-.374-2.242-6-12.875-6.454-18.4a124.686,124.686,0,0,0-1.932-12.956l6.048-1.8s1.532,0-.15,12.495C2417.583,1074.369,2418.6,1085.633,2418.1,1089.748Z" transform="translate(-2388.635 -993.545)" fill="#f39f85"/>
      <path id="Trazado_12486" data-name="Trazado 12486" d="M2395.917,1029.7s-1.42,8.547-3.4,17.688c2.064,5.52-1.082,20.923-1.14,20.869-.237-.223-1.323,1.116-1.323,1.116s-2.294-13.594-2.8-19.725-.634-13.6-.634-13.6Z" transform="translate(-2370.908 -970.875)" fill="#f7b58e"/>
      <path id="Trazado_12487" data-name="Trazado 12487" d="M2379.489,1255.425a2.018,2.018,0,0,1,.7,1.661c-.158.931-.381,3.11-.381,3.11h-.885l.027-2.033c0-.133-1.9,2.033-2.22,2.033h-4.684s-.311-1.371,2.44-1.812A10.022,10.022,0,0,0,2379.489,1255.425Z" transform="translate(-2358.759 -1158.908)" fill="#212b53"/>
      <g id="Grupo_8724" data-name="Grupo 8724" transform="translate(22.646 94.232)">
        <path id="Trazado_12488" data-name="Trazado 12488" d="M2448.887,1242.479l.125,1.939a1.809,1.809,0,0,1-.32,1.148,7.265,7.265,0,0,1-1.408,1.464c1.358.436,2.593-1.087,3.24-2.1a2.417,2.417,0,0,0,.352-1.662l-.229-1.526Z" transform="translate(-2444.085 -1241.743)" fill="#f39f85"/>
        <path id="Trazado_12489" data-name="Trazado 12489" d="M2434.943,1252.536s1.195.107,1.393,1.016.763,2.747.763,2.747l-.652.52-.919-1.823a27.138,27.138,0,0,1-2.29,2.794h-5.113s0-1.692,3.2-1.769C2434.274,1255.95,2434.943,1252.536,2434.943,1252.536Z" transform="translate(-2428.126 -1250.734)" fill="#212b53"/>
      </g>
      <path id="Trazado_12490" data-name="Trazado 12490" d="M2305.061,704.617l5.678,14.838,3.579-2.663-8-13.482Z" transform="translate(-2302.967 -698.994)" fill="#f7b58e"/>
      <g id="Grupo_8725" data-name="Grupo 8725">
        <path id="Trazado_12491" data-name="Trazado 12491" d="M2295.318,678.608a2.308,2.308,0,0,1,.513,1.567l.251,2.142-.292.332-1,.892c.036-.443.085,0,.085,0l-1.615-2.812s-1.953-1.253.51-3.1a.708.708,0,0,1,.81-.052A1.811,1.811,0,0,1,2295.318,678.608Z" transform="translate(-2292.521 -677.471)" fill="#f7b58e"/>
      </g>
      <path id="Trazado_12492" data-name="Trazado 12492" d="M2404.6,800.317h3.659l-1.46-4.3-2.861,1.758Z" transform="translate(-2385.33 -776.22)" fill="#f39f85"/>
      <path id="Trazado_12493" data-name="Trazado 12493" d="M2345.7,790.766c.018-.108.043-.2.065-.3-3.624-4.673-6.7-7.964-6.7-7.964l3.08-3.506,7,6.647,2.054.009a4.115,4.115,0,0,1,5.2.668c.885.913,1.475,3.389.883,6.007-1.631,7.216-.354,11.034-.354,11.034l-9.441,3.52s-.215-6.275-.362-10.676v-.015a4.909,4.909,0,0,0-.766-2.408A4.3,4.3,0,0,1,2345.7,790.766Z" transform="translate(-2331.29 -762.043)" fill="#63c0c4"/>
      <g id="Grupo_8726" data-name="Grupo 8726" transform="translate(15.83 12.066)">
        <path id="Trazado_12494" data-name="Trazado 12494" d="M2389.464,749.727l6,2.1-.591,4.479c-.009.063-.025.124-.037.187-.115.021-.231.042-.345.07l-.055.016-.054.011a4.109,4.109,0,0,0-2.805,2.808,7.078,7.078,0,0,1-2.6-.033,2.6,2.6,0,0,1-1.364-.588C2386.348,756.015,2389.464,749.727,2389.464,749.727Z" transform="translate(-2387.312 -749.727)" fill="#f7b58e"/>
      </g>
      <path id="Trazado_12495" data-name="Trazado 12495" d="M2394.7,746.149c1.615.79,1.235,9.115,1.514,14.785a6.444,6.444,0,0,0,5.456,6.026c2.139.341,4.487.4,5.9-.4-.937-.766-5.984-8.194-4.368-18.029.213-1.295.239-4.9-1.941-6.855-2.421-2.173-7.418.662-7.418.662S2392.478,745.064,2394.7,746.149Z" transform="translate(-2376.576 -730.27)" fill="#212b53"/>
      <path id="Trazado_12496" data-name="Trazado 12496" d="M2382.061,923.583a70.1,70.1,0,0,0-1.256,10.2c0,2.091.512,15.263.512,15.263s8.97.649,10.712.649c.432-10.794,2.893-11.126,2.893-16.16a14.36,14.36,0,0,0-1.983-6.237,9.121,9.121,0,0,1-1.244-3.5l-.059-.2Z" transform="translate(-2366.062 -882.483)" fill="#00666b"/>
      <path id="Trazado_12497" data-name="Trazado 12497" d="M2450.6,1067.829" transform="translate(-2424.205 -1002.64)" fill="#ffd147"/>
    </g>
    <g id="Grupo_8731" data-name="Grupo 8731" transform="translate(471.045 444.159)">
      <g id="Grupo_8728" data-name="Grupo 8728" transform="translate(12.86)">
        <path id="Trazado_12498" data-name="Trazado 12498" d="M1861.164,1608.33l-1.214,2.692-3.56-1.663,3.073-4.422Z" transform="translate(-1856.391 -1597.793)" fill="#f39f85"/>
        <path id="Trazado_12499" data-name="Trazado 12499" d="M1872.809,1581.263s-.783,6.971-2.371,7.645-3.459-1.685-3.459-1.685l-1.782-4.13,5.656-2.436Z" transform="translate(-1863.726 -1577.567)" fill="#f7b58e"/>
        <path id="Trazado_12500" data-name="Trazado 12500" d="M1874.686,1564.472s-1.209,2.418-4.7,1.335c-.986.021-1.516,1.012-1.793,1.892-.322,1.02-.43.239-1.243.934l-1.422,2.038s-3.265-6.136,1.138-7.987S1874.686,1564.472,1874.686,1564.472Z" transform="translate(-1863.031 -1562.16)" fill="#212b53"/>
        <path id="Trazado_12501" data-name="Trazado 12501" d="M1879.558,1594.479a.877.877,0,0,1,.928.572c.178.4.05.805-.285.894a.877.877,0,0,1-.928-.572C1879.1,1594.969,1879.223,1594.568,1879.558,1594.479Z" transform="translate(-1875.385 -1589.067)" fill="#f7b58e"/>
      </g>
      <path id="Trazado_12502" data-name="Trazado 12502" d="M1817.61,1627.122c-8.783,5.205-5.436,26.7-5.436,26.7h13.356s.154-5.622.33-11.562c.134-4.5.558-9.177-.648-11.734C1823.531,1627.005,1819.791,1625.829,1817.61,1627.122Z" transform="translate(-1806.176 -1615.849)" fill="#37aeb1"/>
      <path id="Trazado_12503" data-name="Trazado 12503" d="M1875.306,1698.192s1.991,6.906,4.667,9.2,10.373,8.482,10.373,8.482l2.528-.53-8.46-10.212-3.063-9.929Z" transform="translate(-1859.287 -1672.987)" fill="#f7b58e"/>
      <path id="Trazado_12504" data-name="Trazado 12504" d="M1865.54,1661.243l7.344-2.987-3.677-8.187-4.845,2.522Z" transform="translate(-1850.171 -1635.389)" fill="#37aeb1"/>
      <g id="Grupo_8729" data-name="Grupo 8729" transform="translate(0 82.607)">
        <path id="Trazado_12505" data-name="Trazado 12505" d="M1782.44,2069.737a11.8,11.8,0,0,0,4.845,2.228c.741.189,1.541-.063,1.541,1.16h-4.087l-3.4-.588v.588H1779.5s-.511-3,.561-3.388Z" transform="translate(-1779.382 -2067.58)" fill="#212b53"/>
        <path id="Trazado_12506" data-name="Trazado 12506" d="M1785.486,2056.822l.361,2.157h0a2.077,2.077,0,0,1-2.249.075l-.126-.075.183-2.157Z" transform="translate(-1782.789 -2056.822)" fill="#f7b58e"/>
      </g>
      <path id="Trazado_12507" data-name="Trazado 12507" d="M1786.9,1789.569s-1.312,4.495-1.577,15.473a15.579,15.579,0,0,1-1.623,6.383c-3.839,7.947-2.1,23.315-2.1,23.315h2.651l10.6-37.76-3.731-7.411Z" transform="translate(-1780.9 -1751.592)" fill="#212b53"/>
      <g id="Grupo_8730" data-name="Grupo 8730" transform="translate(14.422 83.906)">
        <path id="Trazado_12508" data-name="Trazado 12508" d="M1868.8,2077.513a11.8,11.8,0,0,0,4.845,2.228c.741.189,1.541-.063,1.541,1.16H1871.1l-3.4-.588v.588h-1.836s-.511-3,.561-3.388Z" transform="translate(-1865.742 -2075.356)" fill="#212b53"/>
        <path id="Trazado_12509" data-name="Trazado 12509" d="M1871.845,2064.6l.361,2.157h0a2.077,2.077,0,0,1-2.249.075l-.126-.075.183-2.157Z" transform="translate(-1869.148 -2064.597)" fill="#f7b58e"/>
      </g>
      <path id="Trazado_12510" data-name="Trazado 12510" d="M1965.37,1815.577l2.007,2.962c.9,1.139,3.233.674,4.688-.062a.327.327,0,0,0,.038-.558,45.5,45.5,0,0,0-4.628-3.025Z" transform="translate(-1934.31 -1772.689)" fill="#f7b58e"/>
      <path id="Trazado_12511" data-name="Trazado 12511" d="M1836.559,1789.569l-1.313,46.578h-2.794s-3.934-12.954-3.074-21.891a14.46,14.46,0,0,0-1.06-7.126,40.344,40.344,0,0,1-3.492-17.561Z" transform="translate(-1817.206 -1751.592)" fill="#053c5e"/>
    </g>
    <g id="Grupo_8735" data-name="Grupo 8735" transform="translate(320.052 433.997)">
      <path id="Trazado_12512" data-name="Trazado 12512" d="M934.023,1891.8a108.111,108.111,0,0,0,.177,27.086,6.16,6.16,0,0,1,1.489,0s2.064-16.242,2.549-21.664,0-5.783,0-5.783S935.891,1878.442,934.023,1891.8Z" transform="translate(-923.547 -1821.566)" fill="#f39f85"/>
      <path id="Trazado_12513" data-name="Trazado 12513" d="M902.6,1676.179l-4.569,2.913-1.928-4.016,5.9-6.766Z" transform="translate(-892.615 -1640.421)" fill="#fff"/>
      <g id="Grupo_8733" data-name="Grupo 8733" transform="translate(24.934 0)">
        <path id="Trazado_12514" data-name="Trazado 12514" d="M1033.691,1547.738l-5.594,14.617-3.572-2.658,7.982-13.456Z" transform="translate(-1024.525 -1538.737)" fill="#f7b58e"/>
        <g id="Grupo_8732" data-name="Grupo 8732" transform="translate(7.982)">
          <path id="Trazado_12515" data-name="Trazado 12515" d="M1073.83,1505.346a2.3,2.3,0,0,0-.824,1.425l-.686,2.04.217.384.967,1.113a1.468,1.468,0,0,1,.382-.764l1.522-1.7s2.5-2.911.167-3.9c1.367-2.7.388-2.635.388-2.635l-1.224,2.317Z" transform="translate(-1072.321 -1501.307)" fill="#f7b58e"/>
          <path id="Trazado_12516" data-name="Trazado 12516" d="M1075.114,1515.449s-.5-.475-.055-1.6-.23-1.049-.23-1.049-1.868,4.4-1.268,4.9S1075.114,1515.449,1075.114,1515.449Z" transform="translate(-1073.254 -1510.876)" fill="#f7b58e"/>
        </g>
      </g>
      <path id="Trazado_12517" data-name="Trazado 12517" d="M936.219,1628.288l1.675.131,5.692-6.634,3.073,3.5a92.865,92.865,0,0,1-6.946,10.836c-.235,1.121-1.457,12.4-1.457,12.4h-9.868s1.572-8.275-1.2-12.88S936.219,1628.288,936.219,1628.288Z" transform="translate(-918.152 -1601.665)" fill="#fff"/>
      <path id="Trazado_12518" data-name="Trazado 12518" d="M960.106,1891.8a108.111,108.111,0,0,0,.177,27.086,6.162,6.162,0,0,1,1.49,0s2.064-16.242,2.549-21.664,0-5.783,0-5.783S961.975,1878.442,960.106,1891.8Z" transform="translate(-945.275 -1821.566)" fill="#f7b58e"/>
      <g id="Grupo_8734" data-name="Grupo 8734" transform="translate(12.741 16.303)">
        <path id="Trazado_12519" data-name="Trazado 12519" d="M957.2,1598.932l-5.684,1.99.56,4.243c.008.06.024.118.035.177.109.02.218.04.327.067l.053.015.051.01a3.892,3.892,0,0,1,2.657,2.66,6.707,6.707,0,0,0,2.46-.031,2.466,2.466,0,0,0,1.292-.557C960.147,1604.889,957.2,1598.932,957.2,1598.932Z" transform="translate(-951.511 -1598.932)" fill="#f7b58e"/>
      </g>
      <path id="Trazado_12520" data-name="Trazado 12520" d="M933.749,1593.461a3.741,3.741,0,0,0-.117,3.267,5.491,5.491,0,0,1,.19,4.479,5.979,5.979,0,0,1-2.082,1.88,3.214,3.214,0,0,0-1.51,2.433c-.126,1.38-.258,3.075-1.44,3.482-3.431,1.182-4.688,1.068-5.146-1.792a5.811,5.811,0,0,1,.3-2.8,5.011,5.011,0,0,0-.106-3.755,6.546,6.546,0,0,1-.648-2.241,4.728,4.728,0,0,1,1.217-2.337,4.8,4.8,0,0,0,1.01-3.444,4.42,4.42,0,0,1,1.318-3.891c2.344-2,7.547,1.148,7.547,1.148A5.018,5.018,0,0,1,933.749,1593.461Z" transform="translate(-915.176 -1573.586)" fill="#212b53"/>
      <path id="Trazado_12521" data-name="Trazado 12521" d="M878.706,1708.827l-2.195,2.272c-1.458,1.509-1.909,3.61-.157,4.765l7.171,5.7-.659,1.234a3.009,3.009,0,0,0,.263,3.244l.758.993,1.678-5.758-5.2-6.492a1.246,1.246,0,0,1,.268-1.937h0Z" transform="translate(-875.219 -1674.172)" fill="#f7b58e"/>
      <path id="Trazado_12522" data-name="Trazado 12522" d="M932.528,1781.867a24.075,24.075,0,0,1,1.446,7.548c0,2.087-1.808,17.825-1.808,17.825h-9.395c.636-11.623-2.887-13.048-2.887-18.073,0-3.544,2.776-7.3,2.776-7.3Z" transform="translate(-912.425 -1735.014)" fill="#63c0c4"/>
      <path id="Trazado_12523" data-name="Trazado 12523" d="M935.563,2073.627a1.74,1.74,0,0,0-.671,1.469c.151.823.364,2.75.364,2.75h.845l-.026-1.8c0-.117,1.812,1.8,2.118,1.8h4.47s.3-1.213-2.328-1.6A9.683,9.683,0,0,1,935.563,2073.627Z" transform="translate(-924.912 -1978.051)" fill="#212b53"/>
      <path id="Trazado_12524" data-name="Trazado 12524" d="M964.147,2073.627a1.739,1.739,0,0,0-.671,1.469c.15.823.364,2.75.364,2.75h.845l-.026-1.8c0-.117,1.812,1.8,2.118,1.8h4.47s.3-1.213-2.328-1.6A9.682,9.682,0,0,1,964.147,2073.627Z" transform="translate(-948.722 -1978.051)" fill="#12375a"/>
      <path id="Trazado_12525" data-name="Trazado 12525" d="M935.008,1921.9" transform="translate(-925.023 -1851.664)" fill="#ffd147"/>
    </g>
    <g id="Grupo_8743" data-name="Grupo 8743" transform="translate(550.959 445.422)">
      <g id="Grupo_8736" data-name="Grupo 8736" transform="translate(7.817 83.451)">
        <path id="Trazado_12526" data-name="Trazado 12526" d="M2309.567,2080.557s-.615.851-3.515,1.59c-.638.163-1.327.274-1.327,1.327h2.863l2.927-.506v.506h1.581s.44-2.585-.483-2.917Z" transform="translate(-2304.725 -2078.7)" fill="#212b53"/>
        <path id="Trazado_12527" data-name="Trazado 12527" d="M2332.82,2069.437l.15,1.857h0a1.787,1.787,0,0,0,1.936.065l.109-.065v-1.857Z" transform="translate(-2328.128 -2069.437)" fill="#f7b58e"/>
      </g>
      <g id="Grupo_8737" data-name="Grupo 8737" transform="translate(22.499 83.821)">
        <path id="Trazado_12528" data-name="Trazado 12528" d="M2397.489,2082.773s-.615.851-3.515,1.59c-.638.163-1.327.274-1.327,1.327h2.863l2.927-.506v.506h1.581s.44-2.585-.483-2.917Z" transform="translate(-2392.647 -2080.916)" fill="#212b53"/>
        <path id="Trazado_12529" data-name="Trazado 12529" d="M2420.742,2071.653l.15,1.857h0a1.789,1.789,0,0,0,1.937.065l.108-.065v-1.857Z" transform="translate(-2416.05 -2071.653)" fill="#f7b58e"/>
      </g>
      <path id="Trazado_12530" data-name="Trazado 12530" d="M2325.833,1776.235l.713,46.645h3.4s5.173-37.659,4.068-46.645S2325.833,1776.235,2325.833,1776.235Z" transform="translate(-2314.491 -1738.422)" fill="#00666b"/>
      <path id="Trazado_12531" data-name="Trazado 12531" d="M2347.342,1796.1s1.183,14.329,3.9,22.261,7.624,24.394,7.624,24.394h3.517s-5.874-34.4-4.53-46.655h-10.511Z" transform="translate(-2332.408 -1758.292)" fill="#045d5f"/>
      <path id="Trazado_12532" data-name="Trazado 12532" d="M2275.64,1653.925s-4.188,9.767-5.251,9.767c-.851,0,.319-7.975.319-7.975H2267.2s-4.411,13.669-.9,16.167,11.214-7.069,11.214-7.069Z" transform="translate(-2263.769 -1639.864)" fill="#aae4e6"/>
      <path id="Trazado_12533" data-name="Trazado 12533" d="M2374.625,1802.457l-1.269,3.138c-.612,1.233-2.858,1.264-4.35.873a.31.31,0,0,1-.146-.509,43.11,43.11,0,0,1,3.682-3.715Z" transform="translate(-2350.266 -1763.413)" fill="#f7b58e"/>
      <path id="Trazado_12534" data-name="Trazado 12534" d="M2329.293,1641.651s-2.187,1.483-2.187,3.184v22.574h12.817V1646.3s-.262-4.693-4.85-4.693S2329.293,1641.651,2329.293,1641.651Z" transform="translate(-2315.552 -1629.606)" fill="#aae4e6"/>
      <path id="Trazado_12536" data-name="Trazado 12536" d="M2347.656,1611.664v5.324a3.253,3.253,0,0,1-2.484,1.215c-1.6,0-1.6-1.153-1.6-1.153v-3.412l2.367-.616Z" transform="translate(-2329.269 -1604.66)" fill="#f39f85"/>
      <path id="Trazado_12537" data-name="Trazado 12537" d="M2333.519,1586.287a1.983,1.983,0,0,1-1.187-.309c-1.42-2.263.2-8.363.2-8.363l5.153.924.164,4.088a3.431,3.431,0,0,1-1.288,2.82h0A5.5,5.5,0,0,1,2333.519,1586.287Z" transform="translate(-2319.419 -1576.297)" fill="#f7b58e"/>
      <path id="Trazado_12538" data-name="Trazado 12538" d="M2330.216,1572.073a11.027,11.027,0,0,1-3.51,0c-1.8-.32-.648-2.3-.648-2.3a7.079,7.079,0,0,0,3.7.258c1.6-.236,2.027-.546,3.051,0,1.391.742,1.055,3.257,1.055,3.257l-.768,5.321h-.287s-.071-3.164-.071-4.241c-.3-.49-.627-.49-.878-.368a.8.8,0,0,0-.427.731v5.525s-3.518,1.517-4.414,1.242-.3-4.369-.3-4.369a1.643,1.643,0,0,1,1.832.448c.792.887,1.754-.036,1.754-.036Z" transform="translate(-2314.376 -1569.724)" fill="#212b53"/>
      <path id="Trazado_12539" data-name="Trazado 12539" d="M2282.5,1642.172l.124-.674a5.61,5.61,0,0,1,3.135-3.833h1.489l-.461,3.181-2.1,1.326Z" transform="translate(-2278.392 -1626.319)" fill="#f7b58e"/>
      <path id="Trazado_12540" data-name="Trazado 12540" d="M2360.985,1594.47a.9.9,0,0,0-.848.845.774.774,0,0,0,.583.964.9.9,0,0,0,.848-.845A.775.775,0,0,0,2360.985,1594.47Z" transform="translate(-2343.056 -1590.336)" fill="#f7b58e"/>
      <path id="Trazado_12541" data-name="Trazado 12541" d="M2290.021,1649.053l-2.9,1.678s1.82-.018,1.85,0l3.07-2.569s-.223-.449-.918-.07A3.53,3.53,0,0,0,2290.021,1649.053Z" transform="translate(-2282.243 -1634.879)" fill="#f7b58e"/>
      <path id="Trazado_12542" data-name="Trazado 12542" d="M2374.213,1650.07s7.246,8.05,7.246,12.874-5.882,13.328-5.882,13.328l-2.906-.85s2.622-10.523,2.622-13.322-5.385-6.9-5.385-6.9" transform="translate(-2351.207 -1636.653)" fill="#aae4e6"/>
      <g id="Grupo_8742" data-name="Grupo 8742" transform="translate(0 2.708)">
        <path id="Trazado_12544" data-name="Trazado 12544" d="M2298.557,1622.826a7.687,7.687,0,0,1-1.328,5.622.838.838,0,0,1-.542.3,2.13,2.13,0,0,1-1-.166.932.932,0,0,1-.606-.435.4.4,0,0,1,.042-.42c.391-.582,1.6-2.582,1.048-4.351A3.15,3.15,0,0,1,2298.557,1622.826Z" transform="translate(-2288.838 -1616.628)" fill="#f49b42"/>
        <path id="Trazado_12545" data-name="Trazado 12545" d="M2295.418,1628.834a.616.616,0,0,1-.34-.326.4.4,0,0,1,.042-.42c.391-.582,1.6-2.582,1.048-4.351a2.658,2.658,0,0,1,1.139-.524C2297.369,1625.157,2296.952,1626.456,2295.418,1628.834Z" transform="translate(-2288.838 -1616.988)" fill="#f9b646"/>
        <g id="Grupo_8741" data-name="Grupo 8741" transform="translate(7.173 7.862)">
          <g id="Grupo_8740" data-name="Grupo 8740" transform="translate(0.15 0.003)">
            <path id="Trazado_12546" data-name="Trazado 12546" d="M2302.441,1634.077c-.092.446-.308.779-.484.743s-.243-.427-.152-.874.309-.779.484-.743S2302.533,1633.631,2302.441,1634.077Z" transform="translate(-2301.765 -1633.173)" fill="#f49b42"/>
            <path id="Trazado_12547" data-name="Trazado 12547" d="M2304.2,1633.077l-.185-.044.014.093.123.048Z" transform="translate(-2303.635 -1633.033)" fill="#f49b42"/>
            <path id="Trazado_12548" data-name="Trazado 12548" d="M2302.053,1642.5l-.223-.043.254-.037Z" transform="translate(-2301.819 -1640.853)" fill="#e7365e"/>
          </g>
          <path id="Trazado_12549" data-name="Trazado 12549" d="M2301.545,1633.893c-.092.446-.308.779-.484.743s-.243-.427-.151-.873.308-.779.483-.743S2301.637,1633.447,2301.545,1633.893Z" transform="translate(-2300.869 -1633.017)" fill="#ffd147"/>
        </g>
        <path id="Trazado_12550" data-name="Trazado 12550" d="M2320.8,1607.313h.344a1.17,1.17,0,0,1,1.194,1.137v.9a1.17,1.17,0,0,1-1.194,1.137h-.344Z" transform="translate(-2310.296 -1603.743)" fill="#ffd147"/>
        <path id="Trazado_12551" data-name="Trazado 12551" d="M2257.918,1590.4c0,2.465.567,4.464,1.266,4.464s1.266-2,1.266-4.464-.566-4.464-1.266-4.464S2257.918,1587.937,2257.918,1590.4Z" transform="translate(-2257.918 -1585.938)" fill="#212b53"/>
        <path id="Trazado_12552" data-name="Trazado 12552" d="M2268.422,1602.819l-1,.651v1.444l1.031.936.356-1.878Z" transform="translate(-2265.834 -1600)" fill="#fff"/>
        <path id="Trazado_12553" data-name="Trazado 12553" d="M2268.366,1591.144c0-2.072-.4-3.809-.943-4.313l0,0a20.4,20.4,0,0,0,9.11,3.453v3.151s-6.649-.374-9.11,2.027l0,0C2267.964,1594.956,2268.366,1593.218,2268.366,1591.144Z" transform="translate(-2265.834 -1586.68)" fill="#f6a505"/>
        <path id="Trazado_12554" data-name="Trazado 12554" d="M2266.6,1607.4c0,.4.061.725.137.725s.137-.325.137-.725-.061-.725-.137-.725S2266.6,1607,2266.6,1607.4Z" transform="translate(-2265.153 -1603.215)" fill="#ffd147"/>
      </g>
      <path id="Trazado_12555" data-name="Trazado 12555" d="M2292.15,1640.188a3.417,3.417,0,0,0,1.62.264c.844,0,1.223-1.037,1.367-1.6.051-.2.1-.48-.153-.607l-1.355-.188Z" transform="translate(-2286.433 -1626.646)" fill="#f7b58e"/>
    </g>
  </g>
</svg>
