<svg xmlns="http://www.w3.org/2000/svg" xmlns:xlink="http://www.w3.org/1999/xlink" width="449.406" height="453.65" viewBox="0 0 449.406 453.65">
  <defs>
    <linearGradient id="linear-gradient" x1="-17.067" y1="0.411" x2="-16.074" y2="0.411" gradientUnits="objectBoundingBox">
      <stop offset="0" stop-color="#eef7f6"/>
      <stop offset="1" stop-color="#b2deeb"/>
    </linearGradient>
    <linearGradient id="linear-gradient-2" x1="-23.295" y1="0.599" x2="-22.218" y2="0.599" xlink:href="#linear-gradient"/>
    <linearGradient id="linear-gradient-3" x1="1.082" y1="0.5" x2="2.082" y2="0.5" xlink:href="#linear-gradient"/>
    <linearGradient id="linear-gradient-4" x1="0.727" y1="0.5" x2="1.727" y2="0.5" xlink:href="#linear-gradient"/>
    <linearGradient id="linear-gradient-5" y1="0.5" x2="1" y2="0.5" gradientUnits="objectBoundingBox">
      <stop offset="0" stop-color="#daece5"/>
      <stop offset="1" stop-color="#b2deeb"/>
    </linearGradient>
    <linearGradient id="linear-gradient-6" x1="0.795" y1="0.5" x2="1.795" y2="0.5" xlink:href="#linear-gradient-5"/>
    <linearGradient id="linear-gradient-7" x1="1.614" y1="0.5" x2="2.614" y2="0.5" xlink:href="#linear-gradient-5"/>
    <linearGradient id="linear-gradient-8" x1="0.297" y1="0.83" x2="1.536" y2="-0.523" xlink:href="#linear-gradient-5"/>
    <linearGradient id="linear-gradient-9" x1="-1.875" y1="0.535" x2="2.631" y2="-2.429" xlink:href="#linear-gradient-5"/>
  </defs>
  <g id="Grupo_9661" data-name="Grupo 9661" transform="translate(-60.883 -66.191)">
    <g id="Grupo_9581" data-name="Grupo 9581" transform="translate(334.479 233.235)">
      <g id="Grupo_9578" data-name="Grupo 9578" transform="translate(22.041 7.621)">
        <path id="Trazado_18270" data-name="Trazado 18270" d="M429.174,368.988s-37.6,2.191-81.54-45.416-29.87-109.907-29.87-109.907,55.34-9.629,93.982,53.5C447.353,325.335,429.174,368.988,429.174,368.988Z" transform="translate(-315.62 -213.139)" fill="#a4d1bb"/>
        <path id="Trazado_18271" data-name="Trazado 18271" d="M323.307,284.047l15.766-37.82c8.089,11.925,16.172,23.671,24.022,34.922l-10.421,47.937q.628.634,1.257,1.256l10.33-47.523c11.082,15.86,21.67,30.688,31.116,43.577l.5,34.082q.759.352,1.5.687l-.482-32.691c13.956,18.981,25.265,33.493,31.744,40.477.157,0,.239-.009.239-.009s.2-.476.508-1.383c-8.766-9.547-25.966-32.249-46.508-60.967l47.827,7.2c-.114-.52-.227-1.04-.348-1.564L381.675,304.9c-9.127-12.781-18.883-26.709-28.833-41.165l57.7,1.933c-.32-.511-.639-1.027-.961-1.528l-57.8-1.936c-8-11.635-16.11-23.6-24.107-35.569l40.455-2.426q-1.293-.7-2.574-1.343l-38.842,2.329q-3.931-5.891-7.808-11.766c-.937.1-1.438.19-1.438.19l-.057.265c6.785,10.272,13.716,20.628,20.652,30.864l-15.507,37.2C322.8,282.645,323.05,283.345,323.307,284.047Z" transform="translate(-315.331 -213.092)" fill="#fff"/>
      </g>
      <g id="Grupo_9579" data-name="Grupo 9579" transform="translate(0 39.837)">
        <path id="Trazado_18272" data-name="Trazado 18272" d="M314.964,391.217s-21.828-20.9-17.852-72.728S345.385,240.9,345.385,240.9s35.888,27.263,19.9,84.456C350.548,378.054,314.964,391.217,314.964,391.217Z" transform="translate(-296.628 -240.897)" fill="#0f787a"/>
        <path id="Trazado_18273" data-name="Trazado 18273" d="M307.171,282.8,338.009,271.4c-2.588,11.268-5.076,22.435-7.4,33.194l-33.864,20.061c-.019.477-.037.953-.051,1.424l33.57-19.889c-3.267,15.177-6.2,29.5-8.611,42.09L301.9,367.2q.207.637.419,1.259l18.947-18.141c-3.53,18.57-5.882,33.143-6.447,40.766.088.089.136.136.136.136s.388-.145,1.091-.457c.823-10.366,4.768-32.876,10.423-60.635l21.9,32.037c.244-.35.487-.7.729-1.06L326.8,328.488c2.527-12.345,5.382-25.688,8.442-39.431l30.385,34.966c.125-.467.255-.935.374-1.4L335.567,287.6c2.47-11.056,5.068-22.357,7.734-33.6l23.526,22.449q-.3-1.144-.617-2.247l-22.587-21.554q1.314-5.527,2.65-11.016c-.572-.493-.9-.74-.9-.74l-.187.111c-2.33,9.6-4.629,19.328-6.857,29L308,281.213C307.72,281.736,307.443,282.263,307.171,282.8Z" transform="translate(-296.617 -240.897)" fill="#005558"/>
      </g>
      <g id="Grupo_9580" data-name="Grupo 9580" transform="translate(41.793)">
        <path id="Trazado_18274" data-name="Trazado 18274" d="M466.656,268.942s-21.882,17.4-68.9,7.3S332.639,222.3,332.639,222.3s29.47-29.5,79.909-7.708C459.026,234.676,466.656,268.942,466.656,268.942Z" transform="translate(-332.639 -206.572)" fill="#002f4c"/>
        <path id="Trazado_18275" data-name="Trazado 18275" d="M366.288,262.486l-6.6-29.693c10.008,3.779,19.935,7.451,29.51,10.923l14.169,33.548c.435.077.869.152,1.3.224l-14.046-33.257c13.507,4.888,26.27,9.36,37.513,13.145l14.876,20.469q.611-.11,1.207-.226l-14.268-19.633c16.584,5.553,29.651,9.525,36.569,10.994.094-.07.14-.107.14-.107s-.084-.374-.282-1.057c-9.4-2.047-29.546-8.471-54.29-17.118l32.1-16.078c-.291-.267-.583-.534-.88-.8l-32.681,16.37c-11-3.857-22.878-8.138-35.1-12.657l35.845-23.5c-.412-.172-.826-.349-1.236-.515l-35.9,23.534c-9.828-3.643-19.864-7.435-29.837-11.281L367.913,207q-1.085.127-2.137.286L343.2,225.308q-4.906-1.894-9.77-3.8c-.523.462-.792.729-.792.729l.079.186c8.509,3.334,17.143,6.655,25.728,9.9l6.492,29.207C365.384,261.85,365.832,262.169,366.288,262.486Z" transform="translate(-332.639 -206.502)" fill="#005558"/>
      </g>
    </g>
    <g id="Grupo_9584" data-name="Grupo 9584" transform="translate(159.294 96.515)">
      <path id="Trazado_18276" data-name="Trazado 18276" d="M438.622,258.45c-1.1-3.114-12-9.528-25.325-14.173a122.76,122.76,0,0,0-3.164-35.71c11.226-5.131,22.529-11.716,23.465-17.754,1.9-12.253-16.782-40.329-21.523-42.593-3.034-1.448-15.67,1.867-28.624,8.228a122.709,122.709,0,0,0-26.828-23.266c4.328-11.589,7.69-24.293,4.074-29.238-7.318-10.009-40.384-16.651-45.336-14.9-3.1,1.1-9.488,11.927-14.129,25.2a122.639,122.639,0,0,0-36.314,2.082c-5.045-10.815-11.373-21.352-17.195-22.256-12.253-1.9-40.328,16.783-42.593,21.524-1.347,2.821,1.423,13.948,6.933,25.912a122.728,122.728,0,0,0-25.459,28.281c-10.555-3.667-21.3-6.071-25.749-2.816-10.009,7.32-16.649,40.384-14.9,45.336.986,2.79,9.839,8.232,21.259,12.676a122.671,122.671,0,0,0,2.443,39.494c-9.456,4.719-17.877,10.294-18.679,15.468-1.9,12.253,16.782,40.329,21.523,42.593,2.609,1.245,12.319-1.033,23.225-5.739a122.7,122.7,0,0,0,30.394,25.955c-3.332,9.994-5.324,19.846-2.241,24.06,7.318,10.009,40.383,16.649,45.336,14.9,2.8-.989,8.257-9.883,12.707-21.344a122.735,122.735,0,0,0,38.818-3.657c4.85,9.974,10.7,19.139,16.112,19.979,12.252,1.9,40.328-16.782,42.591-21.523,1.354-2.836-1.451-14.059-7.016-26.091a122.646,122.646,0,0,0,23.677-28.762c11.132,4.026,22.9,6.923,27.616,3.475C433.733,296.467,440.373,263.4,438.622,258.45ZM272.816,289.6A55.2,55.2,0,1,1,342.488,254.4,55.2,55.2,0,0,1,272.816,289.6Z" transform="translate(-145.679 -88.766)" fill="#53b6b9"/>
      <g id="Grupo_9582" data-name="Grupo 9582" transform="translate(66.609 68.818)">
        <path id="Trazado_18277" data-name="Trazado 18277" d="M257.108,301.249a78.552,78.552,0,1,1,99.15-50.1A78.641,78.641,0,0,1,257.108,301.249Zm48.7-148.193A77.438,77.438,0,1,0,355.2,250.8,77.525,77.525,0,0,0,305.807,153.056Z" transform="translate(-203.072 -148.064)" fill="#fff"/>
      </g>
      <g id="Grupo_9583" data-name="Grupo 9583" transform="translate(33.527 34.684)">
        <path id="Trazado_18278" data-name="Trazado 18278" d="M399.211,227.236c-.473-.218-.943-.443-1.407-.682a112.592,112.592,0,0,1-221.688,14.481H176.1c-.514-.052-1.026-.124-1.537-.211a114.054,114.054,0,0,0,224.644-13.587Z" transform="translate(-174.567 -101.327)" fill="#fff"/>
        <path id="Trazado_18279" data-name="Trazado 18279" d="M237.98,126.661a112.032,112.032,0,0,1,72.783-.919c.483.159.947.345,1.426.508-.02-.516-.01-1.035,0-1.554-.325-.109-.638-.237-.964-.344a113.476,113.476,0,0,0-73.446.827C237.855,125.672,237.922,126.166,237.98,126.661Z" transform="translate(-164.418 -118.652)" fill="#fff"/>
      </g>
    </g>
    <g id="Grupo_9588" data-name="Grupo 9588" transform="translate(93.529 151.339)">
      <g id="Grupo_9587" data-name="Grupo 9587" transform="translate(0 0)">
        <rect id="Rectángulo_2116" data-name="Rectángulo 2116" width="80.216" height="14.527" transform="matrix(0.628, -0.778, 0.778, 0.628, 100.261, 218.796)" fill="#0f787a"/>
        <path id="Trazado_18280" data-name="Trazado 18280" d="M183.29,340.721l.328.261S232.4,284.5,234,278.56s-.642-14.759-3.922-3.166S183.29,340.721,183.29,340.721Z" transform="translate(-73.876 -114.536)" fill="#005558"/>
        <g id="Grupo_9586" data-name="Grupo 9586" transform="translate(117.668)">
          <path id="Trazado_18281" data-name="Trazado 18281" d="M375.365,212.522c-8.486-14.905-16.681-30.055-26.928-43.818-1.645-2.207-7.764-12.081-3.85-5.427l-4.613-4.1c-7.1-3.122-14.514-4.975-21.379-8.79a77.758,77.758,0,0,1-16.929-12.627,93.261,93.261,0,0,0-92.747,147.287,45.979,45.979,0,0,1,9.156,6.209,25.111,25.111,0,0,1,3.173,2.371,123.066,123.066,0,0,1,13.814,8.9,51.428,51.428,0,0,1,11.347,12.207,93.222,93.222,0,0,0,128.957-102.22Z" transform="translate(-190.402 -136.003)" fill="#a4d1bb"/>
          <path id="Trazado_18282" data-name="Trazado 18282" d="M203.606,272.546a44.731,44.731,0,0,1,14.876,14.007,106.261,106.261,0,0,0,7.776,11.219c.176.168.321.357.494.526L341.418,156.352A93.232,93.232,0,0,0,203.606,272.546Z" transform="translate(-189.718 -135.452)" fill="#fff"/>
          <g id="Grupo_9585" data-name="Grupo 9585">
            <path id="Trazado_18283" data-name="Trazado 18283" d="M342.252,156.72a93.25,93.25,0,1,0,13.941,131.135A93.249,93.249,0,0,0,342.252,156.72ZM231.634,293.655a82.783,82.783,0,1,1,116.417-12.377A82.786,82.786,0,0,1,231.634,293.655Z" transform="translate(-190.402 -136.006)" fill="#005558"/>
          </g>
        </g>
        <path id="Trazado_18284" data-name="Trazado 18284" d="M99.749,458.943a4.7,4.7,0,0,0,6.615-.707L215.6,322.887a4.489,4.489,0,0,0-.456-6.325l-9.572-7.726a4.492,4.492,0,0,0-6.28.889L90.056,445.074a4.7,4.7,0,0,0,.707,6.615Z" transform="translate(-89.013 -108.402)" fill="#005558"/>
      </g>
      <path id="Trazado_18285" data-name="Trazado 18285" d="M313.045,212.52a12.025,12.025,0,1,0,16.912-1.791A12.024,12.024,0,0,0,313.045,212.52Z" transform="translate(-53.472 -124.437)" fill="#fff"/>
      <path id="Trazado_18286" data-name="Trazado 18286" d="M306.076,235.889a5.724,5.724,0,1,0,8.05-.853A5.723,5.723,0,0,0,306.076,235.889Z" transform="translate(-54.365 -120.31)" fill="#fff"/>
    </g>
    <g id="Grupo_9598" data-name="Grupo 9598" transform="translate(450.566 371.579)">
      <g id="Grupo_9591" data-name="Grupo 9591" transform="translate(8.866 138.866)">
        <path id="Trazado_18287" data-name="Trazado 18287" d="M419.037,448.632l-11.151-.013c-1.48.156-3.135.576-3.412,1.859a7.485,7.485,0,0,0-.161,1.7c.395.463,15.18-.062,15.18-.062l.064-.053C421.123,450.178,419.037,448.632,419.037,448.632Z" transform="translate(-404.291 -444.918)" fill="#002b49"/>
        <path id="Trazado_18288" data-name="Trazado 18288" d="M404.315,451.694l15.18-.062-.131.591h-15.07Z" transform="translate(-404.294 -444.434)" fill="#122043"/>
        <g id="Grupo_9589" data-name="Grupo 9589" transform="translate(9.328 3.701)">
          <path id="Trazado_18289" data-name="Trazado 18289" d="M413.335,448.619l-1,.007.312,1.367h.974Z" transform="translate(-412.331 -448.619)" fill="#fff"/>
        </g>
        <g id="Grupo_9590" data-name="Grupo 9590" transform="translate(7.175 3.701)">
          <path id="Trazado_18290" data-name="Trazado 18290" d="M411.48,448.619l-1,.007.313,1.367h.974Z" transform="translate(-410.476 -448.619)" fill="#fff"/>
        </g>
        <path id="Trazado_18291" data-name="Trazado 18291" d="M418.275,445.43l-.765,3.714h0a3.616,3.616,0,0,1-2.99.072l-.169-.075-.536-3.71Z" transform="translate(-402.765 -445.43)" fill="#f7a57a"/>
      </g>
      <g id="Grupo_9594" data-name="Grupo 9594" transform="translate(34.926 138.866)">
        <path id="Trazado_18292" data-name="Trazado 18292" d="M441.492,448.632l-11.151-.013c-1.48.156-3.135.576-3.412,1.859a7.487,7.487,0,0,0-.161,1.7c.395.463,15.18-.062,15.18-.062l.064-.053C443.578,450.178,441.492,448.632,441.492,448.632Z" transform="translate(-426.746 -444.918)" fill="#122043"/>
        <path id="Trazado_18293" data-name="Trazado 18293" d="M426.77,451.694l15.18-.062-.131.591h-15.07Z" transform="translate(-426.749 -444.434)" fill="#122043"/>
        <g id="Grupo_9592" data-name="Grupo 9592" transform="translate(9.328 3.701)">
          <path id="Trazado_18294" data-name="Trazado 18294" d="M435.79,448.619l-1,.007.313,1.367h.974Z" transform="translate(-434.786 -448.619)" fill="#fff"/>
        </g>
        <g id="Grupo_9593" data-name="Grupo 9593" transform="translate(7.175 3.701)">
          <path id="Trazado_18295" data-name="Trazado 18295" d="M433.935,448.619l-1,.007.313,1.367h.974Z" transform="translate(-432.931 -448.619)" fill="#fff"/>
        </g>
        <path id="Trazado_18296" data-name="Trazado 18296" d="M439.654,445.43l.484,3.714h0a3.616,3.616,0,0,1-2.99.072l-.169-.075-1.786-3.71Z" transform="translate(-425.393 -445.43)" fill="#f7a57a"/>
      </g>
      <g id="Grupo_9595" data-name="Grupo 9595" transform="translate(25.639 13.967)">
        <path id="Trazado_18297" data-name="Trazado 18297" d="M425.655,337.81l9.182,5.987L432,351.053c-.039.1-.094.2-.139.3-.2-.013-.4-.024-.607-.024-.034,0-.066,0-.1,0s-.063,0-.1,0a7.083,7.083,0,0,0-5.853,3.547,12.2,12.2,0,0,1-4.335-1.125,4.493,4.493,0,0,1-2.043-1.547C417.849,347.056,425.655,337.81,425.655,337.81Z" transform="translate(-418.746 -337.81)" fill="#f7a57a"/>
      </g>
      <path id="Trazado_18298" data-name="Trazado 18298" d="M415.37,339.687s-1.125,10.659,1.14,17.446c-1.051.912-4.91,5.048-6.124-.313s1.363-19.009,1.363-19.009Z" transform="translate(-394.502 -323.843)" fill="#f7a57a"/>
      <g id="Grupo_9597" data-name="Grupo 9597" transform="translate(0.302 0.14)">
        <g id="Grupo_9596" data-name="Grupo 9596" transform="translate(25.147 14.949)">
          <path id="Trazado_18299" data-name="Trazado 18299" d="M419.511,338.777l2.16,1.39-.771,1.613-2.318-1.022Z" transform="translate(-418.582 -338.777)" fill="#122043"/>
          <path id="Trazado_18300" data-name="Trazado 18300" d="M420.5,340.552c-.217.493-.232.963-.035,1.05s.533-.243.75-.736.231-.963.034-1.05S420.719,340.058,420.5,340.552Z" transform="translate(-418.302 -338.613)" fill="#122043"/>
        </g>
        <path id="Trazado_18301" data-name="Trazado 18301" d="M396.922,332.985c0-.021-.006-.041-.008-.062A21.64,21.64,0,0,1,399,329.175a18.9,18.9,0,0,0,2.007-3.279l22.309,14.6-1.444,2.727L396.92,334A6.916,6.916,0,0,0,396.922,332.985Z" transform="translate(-396.914 -325.896)" fill="#002f4c"/>
      </g>
      <path id="Trazado_18302" data-name="Trazado 18302" d="M427.387,352.673l.8,5.011h-7.1l-.511-6.14Z" transform="translate(-392.813 -321.638)" fill="#f18c72"/>
      <path id="Trazado_18303" data-name="Trazado 18303" d="M412.286,368.332s-8.385-2.671-11.013-6.261,1.819-23.24,1.819-23.24l-.575-3.536a3.293,3.293,0,0,1,3.221-3.821l2.24-.02a1.282,1.282,0,0,1,1.183,1.8l-2.947,6.629S404,354.77,407.1,355.9a34.892,34.892,0,0,0,7.874,1.633Z" transform="translate(-396.046 -324.864)" fill="#f7a57a"/>
      <path id="Trazado_18304" data-name="Trazado 18304" d="M424.643,355.279,426.8,350.5l-1.4-.88a2.639,2.639,0,0,1-1.093-3.084l1.535-4.508s-4.368-.535-4.237-4.605c0-2.1,2.885-2.108,2.885-2.108a4.194,4.194,0,0,0,3.537,2.1c1.149-.145,4.3.279,6.431,3.992,1.431,2.5.8,6.41-.442,9.346-1.116,2.63-3.967,4.1-6.79,4.533Z" transform="translate(-392.649 -324.244)" fill="#002b49"/>
      <path id="Trazado_18305" data-name="Trazado 18305" d="M434.1,387.143a157.815,157.815,0,0,1-2.651,21.255,19,19,0,0,0,.653,9.774c5.007,14.875,12.027,37.241,12.027,37.241h-6.245s-14.147-26.434-17.793-39.546-4.27-17.276-4.27-17.276l4.338-11.448Z" transform="translate(-393.577 -315.922)" fill="#122043"/>
      <path id="Trazado_18306" data-name="Trazado 18306" d="M427.539,346.579a2.031,2.031,0,0,1-1.161,2.228c-.9.477-1.834.252-2.091-.5a2.032,2.032,0,0,1,1.161-2.228C426.346,345.6,427.281,345.826,427.539,346.579Z" transform="translate(-392.228 -322.556)" fill="#f7a57a"/>
      <path id="Trazado_18307" data-name="Trazado 18307" d="M415.43,392.52h20.36V366.4a11.082,11.082,0,0,0-10.052-11.035l-14.159-1.714s-1.665,2.549-6.3,8.47a47.808,47.808,0,0,0,12.028,5.031Z" transform="translate(-395.27 -321.3)" fill="#53b6b9"/>
      <path id="Trazado_18308" data-name="Trazado 18308" d="M435.425,387.143s-2.876,10.407-13.486,22.072a13.645,13.645,0,0,0-3.96,10.606l2.189,35.592h-6.333s-7.72-29.556-6.055-44.126a66.875,66.875,0,0,1,7.285-24.144Z" transform="translate(-394.905 -315.922)" fill="#002f4c"/>
      <path id="Trazado_18309" data-name="Trazado 18309" d="M400.38,330.583c-1.094,2.272-2.581,3.825-3.318,3.469s-.448-2.485.646-4.757,2.581-3.824,3.319-3.469S401.476,328.312,400.38,330.583Z" transform="translate(-396.654 -325.775)" fill="#0f787a"/>
      <path id="Trazado_18310" data-name="Trazado 18310" d="M416.07,336.121l-.189.091a2.839,2.839,0,0,1-2.125.132l-.125-.042a3.794,3.794,0,0,1-2.414-2.448h0a.7.7,0,0,1,.815-.9l1.41.3a2.128,2.128,0,0,1,1.339.912Z" transform="translate(-394.321 -324.625)" fill="#f7a57a"/>
    </g>
    <g id="Grupo_9611" data-name="Grupo 9611" transform="translate(204.837 315.406)">
      <g id="Grupo_9610" data-name="Grupo 9610">
        <g id="Grupo_9599" data-name="Grupo 9599">
          <path id="Trazado_18311" data-name="Trazado 18311" d="M188.519,473.754l63.17-196.38h-3.6l-63.17,196.38Z" transform="translate(-184.921 -277.374)" fill="#002f4c"/>
        </g>
        <g id="Grupo_9600" data-name="Grupo 9600" transform="translate(32.663)">
          <path id="Trazado_18312" data-name="Trazado 18312" d="M216.663,473.754l63.17-196.38h-3.6l-63.17,196.38Z" transform="translate(-213.065 -277.374)" fill="#002f4c"/>
        </g>
        <g id="Grupo_9601" data-name="Grupo 9601" transform="translate(46.804 50.979)">
          <path id="Trazado_18313" data-name="Trazado 18313" d="M225.25,321.319v2.928l33.845-.019.578-2.928Z" transform="translate(-225.25 -321.3)" fill="#002f4c"/>
        </g>
        <g id="Grupo_9602" data-name="Grupo 9602" transform="translate(53.802 31.95)">
          <path id="Trazado_18314" data-name="Trazado 18314" d="M231.279,304.923v2.928l33.845-.019.578-2.928Z" transform="translate(-231.279 -304.904)" fill="#002f4c"/>
        </g>
        <g id="Grupo_9603" data-name="Grupo 9603" transform="translate(59.587 12.923)">
          <path id="Trazado_18315" data-name="Trazado 18315" d="M236.264,288.528v2.928l33.845-.019.578-2.928Z" transform="translate(-236.264 -288.509)" fill="#002f4c"/>
        </g>
        <g id="Grupo_9604" data-name="Grupo 9604" transform="translate(40.64 70.252)">
          <path id="Trazado_18316" data-name="Trazado 18316" d="M219.938,337.926v2.928l33.845-.019.578-2.928Z" transform="translate(-219.938 -337.907)" fill="#002f4c"/>
        </g>
        <g id="Grupo_9605" data-name="Grupo 9605" transform="translate(34.854 89.524)">
          <path id="Trazado_18317" data-name="Trazado 18317" d="M214.953,354.531v2.928l33.845-.019.578-2.928Z" transform="translate(-214.953 -354.513)" fill="#002f4c"/>
        </g>
        <g id="Grupo_9606" data-name="Grupo 9606" transform="translate(27.501 109.547)">
          <path id="Trazado_18318" data-name="Trazado 18318" d="M209.985,371.784l-1.368,2.929,33.845-.019.578-2.928Z" transform="translate(-208.618 -371.766)" fill="#002f4c"/>
        </g>
        <g id="Grupo_9607" data-name="Grupo 9607" transform="translate(21.156 129.57)">
          <path id="Trazado_18319" data-name="Trazado 18319" d="M204.518,389.037l-1.368,2.929L237,391.947l.578-2.928Z" transform="translate(-203.15 -389.019)" fill="#002f4c"/>
        </g>
        <g id="Grupo_9608" data-name="Grupo 9608" transform="translate(15.213 149.148)">
          <path id="Trazado_18320" data-name="Trazado 18320" d="M199.4,405.906l-1.368,2.929,33.845-.019.578-2.928Z" transform="translate(-198.03 -405.887)" fill="#002f4c"/>
        </g>
        <g id="Grupo_9609" data-name="Grupo 9609" transform="translate(10.289 169.152)">
          <path id="Trazado_18321" data-name="Trazado 18321" d="M195.155,423.142l-1.368,2.929,33.845-.019.578-2.928Z" transform="translate(-193.787 -423.124)" fill="#002f4c"/>
        </g>
      </g>
    </g>
    <g id="Grupo_9618" data-name="Grupo 9618" transform="translate(121.976 240.067)">
      <g id="Grupo_9612" data-name="Grupo 9612" transform="translate(0 0)">
        <path id="Trazado_18322" data-name="Trazado 18322" d="M117.571,222.376l-2.831,9.4,8.819-3.751,29.677-15.566Z" transform="translate(-113.329 -212.458)" fill="#a4d1bb"/>
        <path id="Trazado_18323" data-name="Trazado 18323" d="M114.74,229.8l15.448-3.778-4.178-1.259Z" transform="translate(-113.329 -210.482)" fill="#53b6b9"/>
        <path id="Trazado_18324" data-name="Trazado 18324" d="M117.766,222.376l-4.242-7.9,39.907-2.019Z" transform="translate(-113.524 -212.458)" fill="url(#linear-gradient)"/>
        <path id="Trazado_18325" data-name="Trazado 18325" d="M152.016,212.458l-29.677,15.566,6.862,11.251Z" transform="translate(-112.109 -212.458)" fill="url(#linear-gradient-2)"/>
      </g>
      <g id="Grupo_9617" data-name="Grupo 9617" transform="translate(0.891 23.216)">
        <g id="Grupo_9613" data-name="Grupo 9613" transform="translate(4.995)">
          <path id="Trazado_18326" data-name="Trazado 18326" d="M119.126,236.61a.748.748,0,0,1-.366-1.183,20.936,20.936,0,0,1,2.691-2.784.747.747,0,0,1,.971,1.134,19.388,19.388,0,0,0-2.5,2.586A.748.748,0,0,1,119.126,236.61Z" transform="translate(-118.596 -232.462)" fill="#53b6b9"/>
        </g>
        <g id="Grupo_9615" data-name="Grupo 9615" transform="translate(0 6.488)">
          <g id="Grupo_9614" data-name="Grupo 9614">
            <path id="Trazado_18327" data-name="Trazado 18327" d="M144.768,314.424l-.045-.015a22.5,22.5,0,0,1-6.674-3.963.747.747,0,0,1,.966-1.141,20.99,20.99,0,0,0,6.229,3.7.746.746,0,0,1-.475,1.415Zm-9.634-7.049a.737.737,0,0,1-.357-.237,28.2,28.2,0,0,1-4.084-6.556.747.747,0,0,1,1.364-.609,26.734,26.734,0,0,0,3.867,6.21.746.746,0,0,1-.789,1.192Zm-5.456-10.653a.745.745,0,0,1-.508-.53l-.086-.352a35.98,35.98,0,0,1-.919-7.274.746.746,0,1,1,1.491-.041,34.468,34.468,0,0,0,.881,6.971l.08.327a.746.746,0,0,1-.939.9Zm-.853-11.98a.748.748,0,0,1-.528-.776,55.584,55.584,0,0,1,1.173-7.551.746.746,0,0,1,1.457.325,54.4,54.4,0,0,0-1.142,7.349.746.746,0,0,1-.8.682A.857.857,0,0,1,128.826,284.741Zm2.279-11.833a.747.747,0,0,1-.5-.92c.051-.176.1-.352.153-.527a24.371,24.371,0,0,1-3.53-1.217.747.747,0,0,1,.6-1.369,22.674,22.674,0,0,0,3.367,1.157c.516-1.657,1.1-3.385,1.784-5.257a.746.746,0,1,1,1.4.509c-.656,1.806-1.223,3.476-1.725,5.075q1.1.211,2.221.315a.747.747,0,0,1-.139,1.488,25.446,25.446,0,0,1-2.518-.366c-.059.2-.117.4-.175.6a.747.747,0,0,1-.924.512Zm-7.729-4.857a.71.71,0,0,1-.218-.108A20.272,20.272,0,0,1,117.8,262.3a.747.747,0,0,1,1.259-.8,18.75,18.75,0,0,0,4.965,5.232.747.747,0,0,1-.65,1.322Zm15.73,4.084a.747.747,0,0,1,.146-1.459,21.83,21.83,0,0,0,7.025-1.835.747.747,0,0,1,.616,1.36,23.348,23.348,0,0,1-7.5,1.961A.748.748,0,0,1,139.106,272.135Zm-22.885-13.572a.746.746,0,0,1-.486-.458,24.194,24.194,0,0,1-1.443-7.614.747.747,0,0,1,1.492-.043,22.648,22.648,0,0,0,1.352,7.143.747.747,0,0,1-.916.973Zm34.026,9.362a.746.746,0,0,1-.236-1.308,18.22,18.22,0,0,0,1.429-1.21,14.441,14.441,0,0,0,3.115-4.27.747.747,0,1,1,1.347.644,15.941,15.941,0,0,1-3.44,4.714,19.394,19.394,0,0,1-1.547,1.309A.743.743,0,0,1,150.247,267.926Zm-15.166-6.406-.072-.026a.749.749,0,0,1-.4-.977,29.12,29.12,0,0,1,3.732-6.756.747.747,0,1,1,1.18.915,27.71,27.71,0,0,0-3.534,6.416A.746.746,0,0,1,135.081,261.52ZM115.1,246.674a.748.748,0,0,1-.521-.829,25.32,25.32,0,0,1,.781-3.452,24.164,24.164,0,0,1,1.567-3.93.746.746,0,0,1,1.332.672,22.7,22.7,0,0,0-1.469,3.688,23.987,23.987,0,0,0-.736,3.248.745.745,0,0,1-.851.624A.964.964,0,0,1,115.1,246.674Zm41.112,11.163a.745.745,0,0,1-.529-.765,6.735,6.735,0,0,0-1.344-4.734,6.062,6.062,0,0,0-1.256-1.2.747.747,0,1,1,.869-1.214,7.531,7.531,0,0,1,1.564,1.5,8.283,8.283,0,0,1,1.655,5.751.745.745,0,0,1-.795.7A.7.7,0,0,1,156.212,257.837Zm-14.271-6.052a.737.737,0,0,1-.395-.287.746.746,0,0,1,.183-1.04,12.051,12.051,0,0,1,7.612-2.119.746.746,0,1,1-.1,1.489,10.689,10.689,0,0,0-6.652,1.853A.744.744,0,0,1,141.94,251.785Z" transform="translate(-114.292 -238.052)" fill="#53b6b9"/>
          </g>
        </g>
        <g id="Grupo_9616" data-name="Grupo 9616" transform="translate(34.414 82.408)">
          <path id="Trazado_18328" data-name="Trazado 18328" d="M144.475,304.971a.747.747,0,0,1,.291-1.458,16.007,16.007,0,0,0,3.559-.038.746.746,0,1,1,.182,1.481,17.516,17.516,0,0,1-3.891.044A.829.829,0,0,1,144.475,304.971Z" transform="translate(-143.945 -303.469)" fill="#53b6b9"/>
        </g>
      </g>
    </g>
    <g id="Grupo_9621" data-name="Grupo 9621" transform="translate(298.487 66.191)">
      <g id="Grupo_9619" data-name="Grupo 9619">
        <path id="Trazado_18329" data-name="Trazado 18329" d="M265.615,79.54l25.843-14.263,13.193-2.639,9.97,1.466Z" transform="translate(-265.615 -62.638)" fill="url(#linear-gradient-3)"/>
        <path id="Trazado_18330" data-name="Trazado 18330" d="M265.615,79.338,314.007,66.9l.613-3" transform="translate(-265.615 -62.435)" fill="#a4d1bb"/>
        <path id="Trazado_18331" data-name="Trazado 18331" d="M315.371,73.637l-.062.1-2.031,7.513L265.72,77.777Z" transform="translate(-265.598 -60.872)" fill="#53b6b9"/>
        <path id="Trazado_18332" data-name="Trazado 18332" d="M324.586,70.618l-6.9-5.6-51.8,14.063,44.587-1.325Z" transform="translate(-265.571 -62.256)" fill="url(#linear-gradient-4)"/>
      </g>
      <g id="Grupo_9620" data-name="Grupo 9620" transform="translate(65.597 2.391)">
        <path id="Trazado_18333" data-name="Trazado 18333" d="M411.043,152.747a36.308,36.308,0,0,1-4.655-2.021.7.7,0,0,0-.648,1.249,37.637,37.637,0,0,0,4.836,2.1q.893.315,1.8.585a.7.7,0,1,0,.4-1.346Q411.905,153.052,411.043,152.747Z" transform="translate(-308.774 -50.897)" fill="#53b6b9"/>
        <path id="Trazado_18334" data-name="Trazado 18334" d="M329.695,65.33c-2.195.281-4.479.642-6.983,1.1a.7.7,0,0,0,.255,1.383c2.479-.458,4.739-.816,6.907-1.093a.716.716,0,0,0,.328-.132.7.7,0,0,0-.507-1.263Z" transform="translate(-322.137 -64.597)" fill="#53b6b9"/>
        <path id="Trazado_18335" data-name="Trazado 18335" d="M339.88,65.968a.7.7,0,0,0-.413-1.267c-2.255-.021-4.641.074-7.089.279a.7.7,0,0,0,.118,1.4c2.4-.2,4.746-.294,6.959-.275A.69.69,0,0,0,339.88,65.968Z" transform="translate(-320.595 -64.698)" fill="#53b6b9"/>
        <path id="Trazado_18336" data-name="Trazado 18336" d="M398.733,145.182a.692.692,0,0,0-.993.013.7.7,0,0,0,.013.993,39.17,39.17,0,0,0,5.549,4.506.7.7,0,0,0,.81-.019.67.67,0,0,0,.165-.173.7.7,0,0,0-.193-.976A37.9,37.9,0,0,1,398.733,145.182Z" transform="translate(-310.03 -51.808)" fill="#53b6b9"/>
        <path id="Trazado_18337" data-name="Trazado 18337" d="M396.774,144.357a.7.7,0,0,0,.1-.99q-.6-.728-1.157-1.483a36.427,36.427,0,0,1-2.7-4.224.7.7,0,0,0-.953-.281.711.711,0,0,0-.281.955,37.713,37.713,0,0,0,2.805,4.388q.58.783,1.2,1.537a.7.7,0,0,0,.961.12Z" transform="translate(-310.968 -53.042)" fill="#53b6b9"/>
        <path id="Trazado_18338" data-name="Trazado 18338" d="M391.407,136.289a.682.682,0,0,0,.151-.085.705.705,0,0,0,.231-.833,47.836,47.836,0,0,1-2.139-6.58.7.7,0,0,0-1.363.344,49.052,49.052,0,0,0,2.2,6.772A.7.7,0,0,0,391.407,136.289Z" transform="translate(-311.519 -54.492)" fill="#53b6b9"/>
        <path id="Trazado_18339" data-name="Trazado 18339" d="M374.931,83.649q.879,1.072,1.7,2.184c.83,1.119,1.621,2.278,2.352,3.445a.7.7,0,0,0,.97.222l.045-.03a.7.7,0,0,0,.175-.938c-.75-1.2-1.562-2.386-2.413-3.535q-.844-1.14-1.747-2.239a.668.668,0,0,0-.99-.1A.7.7,0,0,0,374.931,83.649Z" transform="translate(-313.685 -61.842)" fill="#53b6b9"/>
        <path id="Trazado_18340" data-name="Trazado 18340" d="M380.2,91.591a51.264,51.264,0,0,1,2.786,6.344.7.7,0,0,0,.9.424.721.721,0,0,0,.18-.1.7.7,0,0,0,.244-.8,52.563,52.563,0,0,0-2.863-6.52.7.7,0,1,0-1.246.652Z" transform="translate(-312.827 -60.545)" fill="#53b6b9"/>
        <path id="Trazado_18341" data-name="Trazado 18341" d="M368.18,76.907a57.2,57.2,0,0,1,5.09,4.721.7.7,0,0,0,.926.08.8.8,0,0,0,.068-.057.7.7,0,0,0,.022-.993,58.815,58.815,0,0,0-5.213-4.838.7.7,0,0,0-.894,1.087Z" transform="translate(-314.785 -62.938)" fill="#53b6b9"/>
        <path id="Trazado_18342" data-name="Trazado 18342" d="M357.946,70.362a.7.7,0,0,0,.569-1.286,55.909,55.909,0,0,0-6.679-2.458.7.7,0,0,0-.4,1.349A54.3,54.3,0,0,1,357.946,70.362Z" transform="translate(-317.513 -64.394)" fill="#53b6b9"/>
        <path id="Trazado_18343" data-name="Trazado 18343" d="M387.048,117.475a.7.7,0,0,0,.619-.779l-.1-.884c-.232-2.038-.465-4.078-.735-6.11a.7.7,0,0,0-1.394.185c.268,2.024.5,4.055.731,6.085l.1.884A.7.7,0,0,0,387.048,117.475Z" transform="translate(-311.974 -57.57)" fill="#53b6b9"/>
        <path id="Trazado_18344" data-name="Trazado 18344" d="M366.156,75.245a.7.7,0,0,0,.824-.009.7.7,0,0,0-.013-1.14,58.369,58.369,0,0,0-6.052-3.737.7.7,0,0,0-.664,1.239A56.774,56.774,0,0,1,366.156,75.245Z" transform="translate(-316.076 -63.802)" fill="#53b6b9"/>
        <path id="Trazado_18345" data-name="Trazado 18345" d="M387.193,118.723a.7.7,0,0,0-.609.787c.346,2.738.685,4.96,1.067,6.994a.7.7,0,0,0,.822.559.686.686,0,0,0,.288-.125.7.7,0,0,0,.273-.7c-.376-2-.711-4.2-1.054-6.909A.7.7,0,0,0,387.193,118.723Z" transform="translate(-311.79 -56.024)" fill="#53b6b9"/>
        <path id="Trazado_18346" data-name="Trazado 18346" d="M415.335,153.8a.7.7,0,0,0-.27,1.38,56.946,56.946,0,0,0,7.052.911.693.693,0,0,0,.469-.137.7.7,0,0,0-.369-1.266A55.776,55.776,0,0,1,415.335,153.8Z" transform="translate(-307.307 -50.393)" fill="#53b6b9"/>
        <path id="Trazado_18347" data-name="Trazado 18347" d="M384.157,99.6a.707.707,0,0,0-.5.862c.555,2.068,1.029,4.294,1.451,6.806a.7.7,0,1,0,1.386-.232c-.427-2.557-.911-4.827-1.479-6.938A.7.7,0,0,0,384.157,99.6Z" transform="translate(-312.262 -59.098)" fill="#53b6b9"/>
        <path id="Trazado_18348" data-name="Trazado 18348" d="M344.638,65.092q-1.233-.146-2.465-.239a.7.7,0,0,0-.107,1.4q1.2.089,2.406.232c1.486.176,2.986.424,4.459.736a.7.7,0,1,0,.291-1.375C347.707,65.528,346.165,65.275,344.638,65.092Z" transform="translate(-319.041 -64.673)" fill="#53b6b9"/>
      </g>
    </g>
    <g id="Grupo_9622" data-name="Grupo 9622" transform="translate(236.017 207.796)">
      <path id="Trazado_18349" data-name="Trazado 18349" d="M284.741,190.755H229.365a3.06,3.06,0,0,1-3.051-3.051h0a3.061,3.061,0,0,1,3.051-3.052h55.376a3.062,3.062,0,0,1,3.052,3.052h0A3.061,3.061,0,0,1,284.741,190.755Z" transform="translate(-209.456 -184.652)" fill="#0f787a"/>
      <path id="Trazado_18350" data-name="Trazado 18350" d="M270.215,209.688H214.839a3.061,3.061,0,0,1-3.051-3.052h0a3.06,3.06,0,0,1,3.051-3.051h55.376a3.061,3.061,0,0,1,3.052,3.051h0A3.062,3.062,0,0,1,270.215,209.688Z" transform="translate(-211.788 -181.612)" fill="#0f787a"/>
      <path id="Trazado_18351" data-name="Trazado 18351" d="M307.929,226.264H228.375a3.06,3.06,0,0,1-3.051-3.051h0a3.061,3.061,0,0,1,3.051-3.052h79.554a3.061,3.061,0,0,1,3.051,3.052h0A3.06,3.06,0,0,1,307.929,226.264Z" transform="translate(-209.615 -178.951)" fill="#0f787a"/>
      <path id="Trazado_18352" data-name="Trazado 18352" d="M331.436,200.221H241.326a3.06,3.06,0,0,1-3.051-3.051h0a3.061,3.061,0,0,1,3.051-3.052h90.109a3.062,3.062,0,0,1,3.052,3.052h0A3.061,3.061,0,0,1,331.436,200.221Z" transform="translate(-207.535 -183.132)" fill="#005558"/>
    </g>
    <g id="Grupo_9631" data-name="Grupo 9631" transform="translate(259.48 220.307)">
      <g id="Grupo_9625" data-name="Grupo 9625" transform="translate(60.606 120.071)">
        <path id="Trazado_18353" data-name="Trazado 18353" d="M288.048,300.346l-2.647,7c-.219.98-.258,2.153.754,2.732a8.912,8.912,0,0,0,1.387.637c.482-.1,3.537-9.561,3.537-9.561l-.03-.057A2.515,2.515,0,0,0,288.048,300.346Z" transform="translate(-284.058 -298.692)" fill="#0f787a"/>
        <path id="Trazado_18354" data-name="Trazado 18354" d="M287.228,310.577l3.537-9.561.465.269-3.563,9.472Z" transform="translate(-283.744 -298.55)" fill="#122043"/>
        <g id="Grupo_9623" data-name="Grupo 9623" transform="translate(2.704 4.424)">
          <path id="Trazado_18355" data-name="Trazado 18355" d="M286.788,302.7l-.232.633,1.221.235.23-.612Z" transform="translate(-286.556 -302.703)" fill="#fff"/>
        </g>
        <g id="Grupo_9624" data-name="Grupo 9624" transform="translate(2.195 5.777)">
          <path id="Trazado_18356" data-name="Trazado 18356" d="M286.349,303.869l-.232.633,1.221.235.23-.612Z" transform="translate(-286.117 -303.869)" fill="#fff"/>
        </g>
        <path id="Trazado_18357" data-name="Trazado 18357" d="M285.281,298.891l2.935,1.654h0a1.883,1.883,0,0,1-.648,1.9l-.1.082-3.24-.833Z" transform="translate(-284.226 -298.891)" fill="#f7a57a"/>
      </g>
      <path id="Trazado_18358" data-name="Trazado 18358" d="M266.575,260.809a16.859,16.859,0,0,1,3.662,8.653c.5,3.673-.876,9.492-1.026,14.059-.138,4.176,1.747,7.494,5.057,10.044l15.746,11.441-1.055,2.8s-21.552-3.232-27.21-12.885-7-31.5-7-31.5Z" transform="translate(-228.353 -184.935)" fill="#122043"/>
      <path id="Trazado_18359" data-name="Trazado 18359" d="M276.495,250.56l8.1,18.085s3.329.388,4.771,1.664c.753.666.72,2,.515,3.121a1.117,1.117,0,0,1-1.829.645,7.673,7.673,0,0,0-2.791-1.769,3.358,3.358,0,0,1-2.595-1.748l-11.62-18.223Z" transform="translate(-225.737 -186.58)" fill="#f7a57a"/>
      <path id="Trazado_18360" data-name="Trazado 18360" d="M241.924,223.042l-4.15-3.549,3.218-17.529,4.993-2.552a1.443,1.443,0,0,0-1.776-.555,4.583,4.583,0,0,1-2.275.167s-.934-1.157.837-1.938c.995-.67,1.66,0,4.545-.115,0-.443-3.8-1.5-3.8-1.5-1.186-.382-4.212,1.961-4.212,1.961a2.132,2.132,0,0,0-.385.942l-.478,3.253S232,219.273,232,221.157s3.606,4.465,3.606,4.465Z" transform="translate(-232.005 -195.432)" fill="#f7a57a"/>
      <path id="Trazado_18361" data-name="Trazado 18361" d="M262.377,262.72s2.5,3.007,1,10c-.956,4.462-5.155,10.076-7.975,13.943-2.022,2.774-2.063,6.26-1.457,9.637,2.31,12.837-1.386,28.509-1.386,28.509h-3s-4.494-22.965-5.825-39.109a46.585,46.585,0,0,1,5.159-25.463Z" transform="translate(-230.146 -185.027)" fill="#002f4c"/>
      <g id="Grupo_9627" data-name="Grupo 9627" transform="translate(4.388 0.864)">
        <g id="Grupo_9626" data-name="Grupo 9626">
          <rect id="Rectángulo_2117" data-name="Rectángulo 2117" width="9.509" height="2.512" transform="matrix(0.989, -0.145, 0.145, 0.989, 1.466, 1.38)" fill="#f99200"/>
          <rect id="Rectángulo_2118" data-name="Rectángulo 2118" width="2.513" height="0.869" transform="matrix(-0.145, -0.989, 0.989, -0.145, 1.288, 3.946)" fill="#fff"/>
          <path id="Trazado_18362" data-name="Trazado 18362" d="M237.254,199.9c-.688.1-1.27.05-1.434-1.075-.18-1.228.378-1.336,1.065-1.441Z" transform="translate(-235.786 -195.982)" fill="#122043"/>
          <path id="Trazado_18363" data-name="Trazado 18363" d="M245.52,198.662l1.826-1.1-.133-.9-2.058-.483Z" transform="translate(-234.281 -196.176)" fill="#fff"/>
          <path id="Trazado_18364" data-name="Trazado 18364" d="M247.061,197.5l.794-.572-.927-.332Z" transform="translate(-233.997 -196.109)" fill="#002f4c"/>
        </g>
        <rect id="Rectángulo_2119" data-name="Rectángulo 2119" width="9.189" height="0.571" transform="translate(2.008 2.871) rotate(-8.337)" fill="#ef7100"/>
        <rect id="Rectángulo_2120" data-name="Rectángulo 2120" width="9.189" height="0.571" transform="translate(1.832 1.672) rotate(-8.338)" fill="#ef7100"/>
      </g>
      <path id="Trazado_18365" data-name="Trazado 18365" d="M271.273,233.821c5.352,3.932,11.652,22.834,11.652,22.834l-4.7,2.636L270.578,248.8s-.745,12.15,1.085,21.469c-.832,3.5-4.8,3.1-11.237,1.881a31.91,31.91,0,0,1-10.65-3.993s-.279-16.857-1.111-25.8.812-9.893-1.441-9.6c-5.028-2.856-13.265-12.05-13.265-12.05l7.652-1.488,16.476,9.654S266.144,231,271.273,233.821Z" transform="translate(-231.691 -191.612)" fill="#0f787a"/>
      <path id="Trazado_18366" data-name="Trazado 18366" d="M258.9,212.536l-3.975,3.926a6.891,6.891,0,0,0-1.885,6.4l.465,2.1Z" transform="translate(-228.654 -192.685)" fill="#f7a57a"/>
      <path id="Trazado_18367" data-name="Trazado 18367" d="M265.5,211.256c9.652,0,5.547,18.53,5.547,18.53s-1.72,12.019-5.547,16.846c-3.312,4.178-9.867,2.921-12.973.916a11.871,11.871,0,0,0-5.011-1.85c-2.63-.316-5.759-1.477-5.759-6.222,0-4.466,5.332-7.92,8.84-10.386a11.572,11.572,0,0,0,4.548-6.727C256.268,217.79,259.008,211.256,265.5,211.256Z" transform="translate(-230.439 -192.891)" fill="#122043"/>
      <g id="Grupo_9630" data-name="Grupo 9630" transform="translate(11.996 139.779)">
        <path id="Trazado_18368" data-name="Trazado 18368" d="M252.241,318.745l-7.488-.013c-.993.139-2.105.516-2.291,1.667a8.879,8.879,0,0,0-.108,1.524c.265.415,10.193-.056,10.193-.056l.044-.048A2.514,2.514,0,0,0,252.241,318.745Z" transform="translate(-242.339 -315.414)" fill="#0f787a"/>
        <path id="Trazado_18369" data-name="Trazado 18369" d="M242.356,321.489l10.194-.055-.088.53h-10.12Z" transform="translate(-242.341 -314.98)" fill="#002f4c"/>
        <g id="Grupo_9628" data-name="Grupo 9628" transform="translate(6.264 3.318)">
          <path id="Trazado_18370" data-name="Trazado 18370" d="M248.413,318.732l-.674.006.21,1.225h.654Z" transform="translate(-247.739 -318.732)" fill="#fff"/>
        </g>
        <g id="Grupo_9629" data-name="Grupo 9629" transform="translate(4.818 3.318)">
          <path id="Trazado_18371" data-name="Trazado 18371" d="M247.167,318.732l-.674.006.21,1.225h.654Z" transform="translate(-246.493 -318.732)" fill="#fff"/>
        </g>
        <path id="Trazado_18372" data-name="Trazado 18372" d="M251.73,315.873l-.514,3.331h0a1.885,1.885,0,0,1-2.007.063l-.114-.066-.361-3.327Z" transform="translate(-241.315 -315.873)" fill="#f7a57a"/>
      </g>
      <path id="Trazado_18373" data-name="Trazado 18373" d="M243.058,198.4a1.443,1.443,0,0,1,1.776.555l-3.322,1.7-.138-.062a15.817,15.817,0,0,0-2.2-.8A27.684,27.684,0,0,1,243.058,198.4Z" transform="translate(-230.854 -194.972)" fill="#f7a57a"/>
    </g>
    <g id="Grupo_9637" data-name="Grupo 9637" transform="translate(355.388 380.222)">
      <path id="Trazado_18374" data-name="Trazado 18374" d="M319.884,346.7a4.471,4.471,0,0,1,.193,3.194l-.583,4.143-.711.478-2.648,1.094a2.857,2.857,0,0,0,0-1.658l-1.164-4.286s-1.809-7.233,3.1-6.923c-.026-5.891,1.616-4.918,1.616-4.918l.114,5.093Z" transform="translate(-314.644 -332.494)" fill="#f7a57a"/>
      <path id="Trazado_18375" data-name="Trazado 18375" d="M331.957,358.831s-3.433,13.1-6.36,13.335-5.972-20.754-5.972-20.754l-3.982.48s-1.546,30.183,7.385,30.732,10.108-6.125,10.108-6.125Z" transform="translate(-314.5 -330.302)" fill="#ffd159"/>
      <path id="Trazado_18376" data-name="Trazado 18376" d="M330.06,394.65h23.362V359.168c-6.676-10.185-14.993-7.41-14.993-7.41s-7.563.135-8.742,7.074C329.686,363.852,330.06,394.65,330.06,394.65Z" transform="translate(-312.229 -330.302)" fill="#f99200"/>
      <g id="Grupo_9632" data-name="Grupo 9632" transform="translate(23.123 16.742)">
        <path id="Trazado_18377" data-name="Trazado 18377" d="M340.375,347.649l.346,5.016-.165.157a4.35,4.35,0,0,1-5.91.082h0l-.079-3.774Z" transform="translate(-334.568 -347.649)" fill="#f18c72"/>
      </g>
      <g id="Grupo_9633" data-name="Grupo 9633" transform="translate(15.738)">
        <path id="Trazado_18378" data-name="Trazado 18378" d="M342.831,338.618l-.424,8.292a1.281,1.281,0,0,0-1.151,1.628,1.554,1.554,0,0,0-.138.61,9.51,9.51,0,0,1-7.388,1.72c-5.247-1-2.081-11.147-2.081-11.147Z" transform="translate(-327.804 -332.357)" fill="#f7a57a"/>
        <path id="Trazado_18379" data-name="Trazado 18379" d="M345.87,345.713a5.072,5.072,0,0,1,1.329-2.3c2.971-2.571.313-4.445-.629-5.051-1.043-.67-.838-2.56-2.188-3.617-2.062-1.613-4.048.059-5.369-.186s-2.139-2-4.059-1.07-1.708,2.437-2.323,3.073-1.745-1.121-3.617.886c-2.847,3.053,2.738,4.36,2.738,4.36a10.133,10.133,0,0,0,7.1-.323,1.326,1.326,0,0,1,1.566.384c.966,1.321.977,8.238.977,8.238l1.35-1.122S345.69,348.5,345.87,345.713Z" transform="translate(-328.205 -333.223)" fill="#122043"/>
        <path id="Trazado_18380" data-name="Trazado 18380" d="M341.052,344.813a1.273,1.273,0,1,1-.7-1.661A1.273,1.273,0,0,1,341.052,344.813Z" transform="translate(-326.536 -331.644)" fill="#f7a57a"/>
      </g>
      <g id="Grupo_9634" data-name="Grupo 9634" transform="translate(12.762 127.275)">
        <path id="Trazado_18381" data-name="Trazado 18381" d="M336,446.315s-1.317,1.822-7.523,3.4c-1.367.348-2.84.586-2.84,2.84h6.127l6.264-1.083v1.083h3.384s.941-5.534-1.034-6.243Z" transform="translate(-325.641 -442.34)" fill="#122043"/>
        <path id="Trazado_18382" data-name="Trazado 18382" d="M334.293,442.89l.321,3.975h0a3.828,3.828,0,0,0,4.144.139l.233-.139V442.89Z" transform="translate(-324.252 -442.89)" fill="#f7a57a"/>
      </g>
      <g id="Grupo_9635" data-name="Grupo 9635" transform="translate(30.166 127.275)">
        <path id="Trazado_18383" data-name="Trazado 18383" d="M351,446.315s-1.317,1.822-7.523,3.4c-1.367.348-2.84.586-2.84,2.84h6.127l6.264-1.083v1.083h3.384s.941-5.534-1.034-6.243Z" transform="translate(-340.637 -442.34)" fill="#122043"/>
        <path id="Trazado_18384" data-name="Trazado 18384" d="M349.289,442.89l.321,3.975h0a3.83,3.83,0,0,0,4.146.139l.232-.139V442.89Z" transform="translate(-339.248 -442.89)" fill="#f7a57a"/>
      </g>
      <path id="Trazado_18385" data-name="Trazado 18385" d="M353.305,358.1s7,16.16-1.931,24.416-21.064,6.851-21.064,6.851v-4.655s10.964-.927,14.477-8.256-1.405-13.671-1.405-13.671" transform="translate(-312.129 -329.229)" fill="#f99200"/>
      <path id="Trazado_18386" data-name="Trazado 18386" d="M332.277,385.386l-5.593.117c-2.27-.125-3.781-3.517-4.158-6.037a.511.511,0,0,1,.677-.554,71.39,71.39,0,0,1,8.042,3.171Z" transform="translate(-313.38 -325.892)" fill="#f7a57a"/>
      <path id="Trazado_18387" data-name="Trazado 18387" d="M330.33,388.668c-6.968,19.674,3.923,63.236,3.923,63.236h6.207s-2.928-61.771,5.153-63.236Z" transform="translate(-312.5 -324.32)" fill="#005558"/>
      <path id="Trazado_18388" data-name="Trazado 18388" d="M346.112,369.7a12.568,12.568,0,0,1-1.246,4.888c-3.513,7.329-15.047,8.3-15.047,8.3v4.7s12.7,1.315,21.634-6.941c3.239-2.993,4.378-7.025,4.52-10.949Z" transform="translate(-312.208 -327.366)" fill="#ffd159"/>
      <g id="Grupo_9636" data-name="Grupo 9636" transform="translate(31.248 33.159)">
        <path id="Trazado_18389" data-name="Trazado 18389" d="M344.172,371.677c.245-.111.492-.217.735-.334a15.012,15.012,0,0,0-2.786-9.549l-.551.436A14.173,14.173,0,0,1,344.172,371.677Z" transform="translate(-341.569 -361.794)" fill="#ef7100"/>
      </g>
      <path id="Trazado_18390" data-name="Trazado 18390" d="M318.26,346.617s1.288-.388,1.49-2.739,1.313-1.625,1.313-1.625-.578,9.272-2.055,9.62S318.26,346.617,318.26,346.617Z" transform="translate(-314.093 -331.79)" fill="#f7a57a"/>
      <path id="Trazado_18391" data-name="Trazado 18391" d="M335.949,388.668c-1.9,24.123,13.507,63.236,13.507,63.236h7.378s-5.014-25.009-5.116-48.481a125.193,125.193,0,0,1,.724-14.754Z" transform="translate(-311.25 -324.32)" fill="#0f787a"/>
    </g>
    <g id="Grupo_9644" data-name="Grupo 9644" transform="translate(297.786 378.654)">
      <path id="Trazado_18392" data-name="Trazado 18392" d="M286.041,355.464l6.33,11.922-6.975-.336-.49-11.97Z" transform="translate(-261.817 -328.146)" fill="#f7a57a"/>
      <path id="Trazado_18393" data-name="Trazado 18393" d="M277.624,350.86l5.847-.008,2.423,37.793H275.416Z" transform="translate(-263.34 -328.825)" fill="#fff"/>
      <g id="Grupo_9639" data-name="Grupo 9639" transform="translate(2.336 131.534)">
        <path id="Trazado_18394" data-name="Trazado 18394" d="M268.237,446.452a3.061,3.061,0,0,0-1.18,2.583c.265,1.448.641,4.84.641,4.84h1.486l-.046-3.162c0-.208,3.187,3.162,3.727,3.162h7.863s.522-2.133-4.1-2.819S268.237,446.452,268.237,446.452Z" transform="translate(-267.024 -445.009)" fill="#002f4c"/>
        <g id="Grupo_9638" data-name="Grupo 9638" transform="translate(0.982)">
          <path id="Trazado_18395" data-name="Trazado 18395" d="M271.508,445.209l1.067,2.774a3.563,3.563,0,0,0,1.452,1.843,13.936,13.936,0,0,0,3.671,1.667c-2.137,1.824-5.537-.08-7.482-1.427a4.761,4.761,0,0,1-1.9-2.754l-.444-2.1Z" transform="translate(-267.87 -445.209)" fill="#f7a57a"/>
        </g>
      </g>
      <g id="Grupo_9641" data-name="Grupo 9641" transform="translate(17.315 131.534)">
        <path id="Trazado_18396" data-name="Trazado 18396" d="M281.143,446.452a3.061,3.061,0,0,0-1.18,2.583c.266,1.448.641,4.84.641,4.84h1.485l-.045-3.162c0-.208,3.186,3.162,3.725,3.162h7.863s.522-2.133-4.094-2.819S281.143,446.452,281.143,446.452Z" transform="translate(-279.93 -445.009)" fill="#002f4c"/>
        <g id="Grupo_9640" data-name="Grupo 9640" transform="translate(0.982)">
          <path id="Trazado_18397" data-name="Trazado 18397" d="M284.415,445.209l1.065,2.774a3.563,3.563,0,0,0,1.452,1.843,13.934,13.934,0,0,0,3.671,1.667c-2.137,1.824-5.537-.08-7.482-1.427a4.771,4.771,0,0,1-1.9-2.754l-.444-2.1Z" transform="translate(-280.776 -445.209)" fill="#f7a57a"/>
        </g>
      </g>
      <path id="Trazado_18398" data-name="Trazado 18398" d="M273.464,383.416s-.983,5.648,4.667,33.413c-4.574,14.469,2.749,38.679,2.749,38.679h5.339l3.634-72.092Z" transform="translate(-263.664 -323.596)" fill="#122043"/>
      <path id="Trazado_18399" data-name="Trazado 18399" d="M281.8,350.859l1.9,45.854,6.283-2.69a67.437,67.437,0,0,1-2.562-20.565c-.961-8.648,3.946-4.092-2.066-20.743C283.118,350.851,281.8,350.859,281.8,350.859Z" transform="translate(-262.315 -328.823)" fill="#a4d1bb"/>
      <path id="Trazado_18400" data-name="Trazado 18400" d="M283.485,347.682l-.737,3.866a2.46,2.46,0,0,1-3.723,1.625l-2.579-1.617,4.6-10.408Z" transform="translate(-263.175 -330.383)" fill="#f18c72"/>
      <path id="Trazado_18401" data-name="Trazado 18401" d="M269.52,383.416s-6.995,5.648-1.345,33.413c-4.573,14.469-.539,38.679-.539,38.679h4.792l13.48-72.092Z" transform="translate(-264.857 -323.596)" fill="#002f4c"/>
      <path id="Trazado_18402" data-name="Trazado 18402" d="M279.3,347.511s-5.9,3.317-7.739,6.28c-1.748,2.823-2.354,9.249-2.522,14.969-.231,7.855-4.024,28.491-4.024,28.491h15.825l.395-44.923Z" transform="translate(-265.011 -329.361)" fill="#a4d1bb"/>
      <path id="Trazado_18403" data-name="Trazado 18403" d="M289.274,337.574c-3.579-.906-7.021,2.762-7.021,2.762l-2.693,14.5-4.142-6.382s-.236-8.672,3.767-14.414c2.867-3.478,8.368-2.48,11.15.9a8.541,8.541,0,0,1,1.5,6c-.176,2.806-.971,18.91-.971,18.91l-8.2-6.073a38.222,38.222,0,0,1,.982-4.616C285,344.046,291.678,338.183,289.274,337.574Z" transform="translate(-263.34 -331.872)" fill="#122043"/>
      <path id="Trazado_18404" data-name="Trazado 18404" d="M280.458,338.983a1.292,1.292,0,0,1,1.527.8,1.114,1.114,0,0,1-.388,1.575,1.3,1.3,0,0,1-1.527-.8A1.114,1.114,0,0,1,280.458,338.983Z" transform="translate(-262.618 -330.74)" fill="#f7a57a"/>
      <g id="Grupo_9642" data-name="Grupo 9642" transform="translate(17.439 4.32)">
        <path id="Trazado_18405" data-name="Trazado 18405" d="M284.28,349.254a2.848,2.848,0,0,0,1.75.226c3.113-2.256,4.237-11.268,4.237-11.268l-2.465-2.618-4.909,1.078-2.42,5.368a4.943,4.943,0,0,0,.2,4.457h0A7.933,7.933,0,0,0,284.28,349.254Z" transform="translate(-280.037 -335.594)" fill="#f7a57a"/>
      </g>
      <path id="Trazado_18406" data-name="Trazado 18406" d="M289.2,337.063c-.255,2.726-7.842,2.949-7.842,2.949l-.4-3.689,4.423-2.435,3.5,2.106A2.325,2.325,0,0,1,289.2,337.063Z" transform="translate(-262.449 -331.548)" fill="#122043"/>
      <path id="Trazado_18407" data-name="Trazado 18407" d="M287.926,337.142c-.252,1.014.776,2.782.776,2.782l.6-1.09-.017-.945-.6-.736S288.178,336.128,287.926,337.142Z" transform="translate(-261.338 -331.098)" fill="#122043"/>
      <path id="Trazado_18408" data-name="Trazado 18408" d="M272.692,352.927c-7.657.894-4.04,20.648-2.4,28.758a3.433,3.433,0,0,0,4.388,2.6c6.663-2.1,16.4-10.827,16.4-10.827l-1.542-1.943-12.931,3.019S281.569,351.89,272.692,352.927Z" transform="translate(-264.532 -328.497)" fill="#f7a57a"/>
      <path id="Trazado_18409" data-name="Trazado 18409" d="M285.589,365.029l-2.5,15.477a.737.737,0,0,0,.728.854h9.9a.737.737,0,0,0,.729-.621l2.456-15.477a.737.737,0,0,0-.728-.853h-9.855A.737.737,0,0,0,285.589,365.029Z" transform="translate(-262.11 -326.648)" fill="#ffc631"/>
      <g id="Grupo_9643" data-name="Grupo 9643" transform="translate(30.976 40.3)">
        <path id="Trazado_18410" data-name="Trazado 18410" d="M295.192,371.53a6.769,6.769,0,0,0-.173-2.011c-.236-1.463-.174-3.757-1.669-2.614a7.534,7.534,0,0,0-1.577,3.657,4.371,4.371,0,0,0,.944,3.268l1.028,2.24A6.472,6.472,0,0,0,295.192,371.53Z" transform="translate(-291.702 -366.597)" fill="#f7a57a"/>
      </g>
      <path id="Trazado_18411" data-name="Trazado 18411" d="M289.128,369.7a.756.756,0,1,0,.756-.755A.756.756,0,0,0,289.128,369.7Z" transform="translate(-261.139 -325.92)" fill="url(#linear-gradient-5)"/>
    </g>
    <g id="Grupo_9654" data-name="Grupo 9654" transform="translate(60.883 372.144)">
      <g id="Grupo_9646" data-name="Grupo 9646" transform="translate(14.13)">
        <path id="Trazado_18412" data-name="Trazado 18412" d="M81.037,341.623l-.5,6.367-6.248.27,2.517-9.87Z" transform="translate(-72.86 -324.315)" fill="#f18c72"/>
        <g id="Grupo_9645" data-name="Grupo 9645" transform="translate(3.877 4.193)">
          <path id="Trazado_18413" data-name="Trazado 18413" d="M83.369,344.155a3.424,3.424,0,0,0,1.911-.454c2.286-3.325-.318-12.287-.318-12.287l-3.653-1.539-4.643,2.9-.263,6.006a4.873,4.873,0,0,0,2.073,4.143h0A9.516,9.516,0,0,0,83.369,344.155Z" transform="translate(-76.398 -329.875)" fill="#f7a57a"/>
        </g>
        <path id="Trazado_18414" data-name="Trazado 18414" d="M77.935,336.755c.254-1.009.122-3.337,1.149-3.168.75.123,3.317.229,4.181.229,2.059,0,5.731-.807,5.731-3.94a4.04,4.04,0,0,0-5.46-3.356c-2.268.792-5.276,2.542-6.475,2.3-2.018-.406-4.031.778-4,2.492a17.169,17.169,0,0,0,1.886,6.337A9.636,9.636,0,0,0,77,340.337h0Z" transform="translate(-73.058 -326.262)" fill="#122043"/>
        <path id="Trazado_18415" data-name="Trazado 18415" d="M75.5,335.534a1.55,1.55,0,0,1,1.918.172c.6.5.715,1.234.256,1.639a1.548,1.548,0,0,1-1.918-.171C75.155,336.674,75.04,335.94,75.5,335.534Z" transform="translate(-72.711 -324.815)" fill="#f7a57a"/>
      </g>
      <g id="Grupo_9647" data-name="Grupo 9647" transform="translate(35.91 15.632)">
        <path id="Trazado_18416" data-name="Trazado 18416" d="M95.792,346.341a6.257,6.257,0,0,1,2.284-2.636c1.566-1.21,5.559-2.774,3.828-3.974-2.14.172-4.672.116-4.672.116-1.285.231-2.79,1.83-3.539,3l-1.867,3.886s.859,1.908.883,2.005l.895-.171A10.113,10.113,0,0,1,95.792,346.341Z" transform="translate(-91.825 -339.732)" fill="#f7a57a"/>
        <path id="Trazado_18417" data-name="Trazado 18417" d="M95.8,344.568a1.61,1.61,0,0,1,.056-.318c-.277.055-.554.093-.83.121-.882.539-1.78,1.049-2.668,1.578.377.464.905,1.119.934,1.172l6.5-2.308s.072-.888-1.372-.859A6.849,6.849,0,0,0,95.8,344.568Z" transform="translate(-91.739 -339.054)" fill="#f7a57a"/>
      </g>
      <path id="Trazado_18418" data-name="Trazado 18418" d="M87.78,358.8l10.027-9.318-3.461-5.176L80.63,350.784,86.6,361.278Z" transform="translate(-57.712 -323.365)" fill="url(#linear-gradient-6)"/>
      <path id="Trazado_18419" data-name="Trazado 18419" d="M78.851,343.41c-14.3-2.965-11.806,44.382-11.806,44.382H89.663s.325-8.242,1.151-18.7C91.515,360.234,86.544,350.223,78.851,343.41Z" transform="translate(-59.92 -323.53)" fill="url(#linear-gradient-7)"/>
      <g id="Grupo_9648" data-name="Grupo 9648" transform="translate(21.766 139.334)">
        <path id="Trazado_18420" data-name="Trazado 18420" d="M84.251,449.123s2.227,2.067,7.307,3.361c1.119.284,2.325-.1,2.325,1.749H87.718l-5.127-.887v.887H79.821s-.771-4.529.847-5.11Z" transform="translate(-79.638 -445.87)" fill="#122043"/>
        <path id="Trazado_18421" data-name="Trazado 18421" d="M83.876,446.32l.312,3.253h0a3.131,3.131,0,0,1-3.392.114l-.19-.114-.576-3.253Z" transform="translate(-79.575 -446.32)" fill="#f7a57a"/>
      </g>
      <g id="Grupo_9649" data-name="Grupo 9649" transform="translate(55.412 29.656)">
        <path id="Trazado_18422" data-name="Trazado 18422" d="M111.66,356.873a6.257,6.257,0,0,0,3.079-1.638c1.53-1.256,3.946-4.8,4.728-2.843-.645,2.047-1.157,4.53-1.157,4.53-.512,1.2-2.407,2.31-3.718,2.777l-4.2.952s-1.668-1.264-1.758-1.309l.367-.833A10.129,10.129,0,0,0,111.66,356.873Z" transform="translate(-108.629 -351.815)" fill="#f7a57a"/>
        <path id="Trazado_18423" data-name="Trazado 18423" d="M112.6,356.85a1.568,1.568,0,0,0,.323.017c-.115.259-.214.519-.3.782-.722.739-1.421,1.5-2.134,2.248-.369-.472-.889-1.133-.934-1.173l3.7-5.82s.882.128.532,1.529A6.843,6.843,0,0,1,112.6,356.85Z" transform="translate(-108.481 -351.64)" fill="#f7a57a"/>
      </g>
      <g id="Grupo_9650" data-name="Grupo 9650" transform="translate(0.001 134.783)">
        <path id="Trazado_18424" data-name="Trazado 18424" d="M65.5,445.2s2.228,2.067,7.308,3.361c1.118.284,2.323-.1,2.323,1.749H68.964l-5.127-.887v.887H61.067s-.772-4.529.846-5.11Z" transform="translate(-60.883 -441.948)" fill="#122043"/>
        <path id="Trazado_18425" data-name="Trazado 18425" d="M65.121,442.4l.312,3.253h0a3.131,3.131,0,0,1-3.392.114l-.19-.114-.576-3.253Z" transform="translate(-60.821 -442.398)" fill="#f7a57a"/>
      </g>
      <path id="Trazado_18426" data-name="Trazado 18426" d="M68.008,381.634s1.81,9.587.19,29.439A36.258,36.258,0,0,1,65.839,421.3c-4.358,11.165-4.956,31.77-4.956,31.77h4.985l17.564-50.222Z" transform="translate(-60.883 -317.372)" fill="#122043"/>
      <path id="Trazado_18427" data-name="Trazado 18427" d="M74.286,357.978S78.2,372.546,88.8,373.887s28.046-12.076,28.046-12.076l-1.917-3.833-18.4,5.153a6.235,6.235,0,0,1-7.163-3.03l-5.544-10.213Z" transform="translate(-58.731 -322.469)" fill="url(#linear-gradient-8)"/>
      <path id="Trazado_18428" data-name="Trazado 18428" d="M89.64,381.634l-3.289,75.941H81.895s-5-17.7-4.623-31.664a32.308,32.308,0,0,0-2.283-12.929,119.226,119.226,0,0,1-7.967-31.349Z" transform="translate(-59.897 -317.372)" fill="#002f4c"/>
      <path id="Trazado_18429" data-name="Trazado 18429" d="M124.788,351.734l-16.006,12.047L90.476,349.473l14.952-11.082Z" transform="translate(-56.132 -324.315)" fill="#53b6b9"/>
      <path id="Trazado_18430" data-name="Trazado 18430" d="M101.846,363.827a11.468,11.468,0,0,0-.969-4.229l9.781-2.739,1.917,3.833a92.546,92.546,0,0,1-11.177,7.162A14.17,14.17,0,0,0,101.846,363.827Z" transform="translate(-54.462 -321.35)" fill="url(#linear-gradient-9)"/>
      <g id="Grupo_9651" data-name="Grupo 9651" transform="translate(15.278 35.434)">
        <path id="Trazado_18431" data-name="Trazado 18431" d="M74.6,356.794c.038.144,3.983,14.4,14.27,15.7,9.594,1.214,25.128-10,27.515-11.78.121.151.244.3.371.443-2.3,1.726-16.4,12-26.348,12a12.829,12.829,0,0,1-1.611-.1c-10.67-1.35-14.714-15.973-14.753-16.12Z" transform="translate(-74.047 -356.794)" fill="#53b6b9"/>
      </g>
      <g id="Grupo_9652" data-name="Grupo 9652" transform="translate(56.471 30.919)">
        <path id="Trazado_18432" data-name="Trazado 18432" d="M114.245,359.27l-3.446.78a11.391,11.391,0,0,0-1.258-2.336,10.319,10.319,0,0,0,1.973-1.315,6.252,6.252,0,0,0,3.071-1.631,14.106,14.106,0,0,0-.388,3.8Q114.211,358.921,114.245,359.27Z" transform="translate(-109.541 -352.605)" fill="#f7a57a"/>
        <path id="Trazado_18433" data-name="Trazado 18433" d="M109.745,358.371l3.478-5.467s.882.128.532,1.529a6.843,6.843,0,0,1-1.185,2.417,1.568,1.568,0,0,0,.323.017c-.115.259-.214.519-.3.782-.694.711-1.368,1.443-2.053,2.162A11.615,11.615,0,0,0,109.745,358.371Z" transform="translate(-109.508 -352.904)" fill="#f7a57a"/>
      </g>
      <g id="Grupo_9653" data-name="Grupo 9653" transform="translate(38.427 19.106)">
        <path id="Trazado_18434" data-name="Trazado 18434" d="M96.551,342.725c.039,0,.079.006.12.008a5,5,0,0,0-1.354,1.835,10.5,10.5,0,0,0-1.145,1c-.042-.355-.1-.7-.176-1.041A11.839,11.839,0,0,0,96.551,342.725Z" transform="translate(-93.994 -342.725)" fill="#f7a57a"/>
        <path id="Trazado_18435" data-name="Trazado 18435" d="M95.925,343.245a6.771,6.771,0,0,1,2.108-.4c1.443-.029,1.371.86,1.371.86l-5.232,1.857c-.042-.359-.1-.708-.173-1.053A11.575,11.575,0,0,0,95.925,343.245Z" transform="translate(-93.993 -342.707)" fill="#f7a57a"/>
      </g>
      <path id="Trazado_18436" data-name="Trazado 18436" d="M81.089,347.046v-3.13l-5.226-2.172-1.9,2.408Z" transform="translate(-58.783 -323.777)" fill="#fff"/>
    </g>
    <g id="Grupo_9660" data-name="Grupo 9660" transform="translate(144.007 371.839)">
      <g id="Grupo_9656" data-name="Grupo 9656" transform="translate(3.611)">
        <path id="Trazado_18437" data-name="Trazado 18437" d="M144.615,339.527l1.238,5.874,6.174-1.705-4.037-8.43Z" transform="translate(-134.174 -324.512)" fill="#f18c72"/>
        <g id="Grupo_9655" data-name="Grupo 9655" transform="translate(3.842 3.307)">
          <path id="Trazado_18438" data-name="Trazado 18438" d="M143.988,342.2a3.223,3.223,0,0,1-1.838.14c-2.991-2.319-3.221-11.071-3.221-11.071l2.826-2.416,4.974,1.263,1.95,5.291a4.568,4.568,0,0,1-.671,4.293h0A8.917,8.917,0,0,1,143.988,342.2Z" transform="translate(-138.929 -328.849)" fill="#f7a57a"/>
        </g>
        <path id="Trazado_18439" data-name="Trazado 18439" d="M147.579,333.819c-.516-.829-1.061-2.947-1.931-2.5-.635.324-2.9,1.151-3.671,1.4-1.841.587-5.351.914-6.245-1.886a3.789,3.789,0,0,1,3.922-4.556c2.253.06,5.438.766,6.442.208,1.686-.938,3.823-.455,4.287,1.085a16.086,16.086,0,0,1,.122,6.2,9.018,9.018,0,0,1-1.07,2.991h0Z" transform="translate(-135.619 -326)" fill="#122043"/>
        <path id="Trazado_18440" data-name="Trazado 18440" d="M147.85,332.409a1.455,1.455,0,0,0-1.665.7c-.395.619-.288,1.307.238,1.538a1.454,1.454,0,0,0,1.665-.7C148.483,333.329,148.376,332.641,147.85,332.409Z" transform="translate(-133.96 -324.983)" fill="#f7a57a"/>
      </g>
      <path id="Trazado_18441" data-name="Trazado 18441" d="M150.5,341.409c11.492-.643,12.466,9.579,13.43,20.687a209.609,209.609,0,0,1,.253,26.663H137.44s.007-11.845.287-23.689C138,353.579,138.35,342.089,150.5,341.409Z" transform="translate(-131.715 -323.53)" fill="#ffc631"/>
      <path id="Trazado_18442" data-name="Trazado 18442" d="M139.244,377.354s-2.626-1.813-3.6-1.381-.208,2.257-.208,2.257Z" transform="translate(-132.083 -317.987)" fill="#f18c72"/>
      <path id="Trazado_18443" data-name="Trazado 18443" d="M157.545,360.678l1.25,8.471-20.479,10.208,2.233,2.219s23-4.14,26.245-7.178,1-15.187,1-15.187Z" transform="translate(-131.575 -320.667)" fill="#f7a57a"/>
      <path id="Trazado_18444" data-name="Trazado 18444" d="M135.5,374.465c-4.689-1.656-1.827-17.784-1.827-17.784l2.771-.027S140.188,376.121,135.5,374.465Z" transform="translate(-132.459 -321.078)" fill="#f18c72"/>
      <path id="Trazado_18445" data-name="Trazado 18445" d="M142.732,378.422l-4.823,3.1c-1.942.891-3.66-.5-5.059-2.469a1.816,1.816,0,0,1,1.515-2.871c1.735.026,3.839.378,4.885.451Z" transform="translate(-132.507 -317.943)" fill="#f7a57a"/>
      <path id="Trazado_18446" data-name="Trazado 18446" d="M132.918,358.825l3.274,1.966s13.814-22.348,6.984-16.463A40.028,40.028,0,0,0,132.918,358.825Z" transform="translate(-132.441 -323.216)" fill="#ffc630"/>
      <g id="Grupo_9657" data-name="Grupo 9657" transform="translate(9.143 136.217)">
        <path id="Trazado_18447" data-name="Trazado 18447" d="M147.968,446.9s-.014,3.2-6.446,5.124c-1.32.395-.89.785-1.137,1.339h7.4l2.9-3.258.9.774,2.09-2.053s-.976-2.971-2.567-3Z" transform="translate(-140.385 -442.977)" fill="#122043"/>
        <path id="Trazado_18448" data-name="Trazado 18448" d="M145.883,444.521l1.2,2.774h0a2.9,2.9,0,0,0,3.007-.915l.133-.157-.973-2.852Z" transform="translate(-139.502 -443.372)" fill="#f7a57a"/>
      </g>
      <path id="Trazado_18449" data-name="Trazado 18449" d="M166.264,361.969s-4.386-20.4-14.754-19.93,4.506,21.4,4.506,21.4Z" transform="translate(-130.046 -323.426)" fill="#ffc631"/>
      <path id="Trazado_18450" data-name="Trazado 18450" d="M135.434,376.818c-6.5-5.249,6.267-32.679,6.267-32.679l3.094.311S144.557,380.822,135.434,376.818Z" transform="translate(-132.333 -323.087)" fill="#f7a57a"/>
      <path id="Trazado_18451" data-name="Trazado 18451" d="M144.615,342.7l.393-2.01,5.31-1.057,1.709,2.123Z" transform="translate(-130.563 -323.811)" fill="#fff"/>
      <path id="Trazado_18452" data-name="Trazado 18452" d="M140.633,345.293l-.393-5.229s2.609-4,5.077-2.928c.454,1.1-.334,3.305-.334,3.305l-1.256,5.163Z" transform="translate(-131.266 -324.241)" fill="#f7a57a"/>
      <path id="Trazado_18453" data-name="Trazado 18453" d="M137.853,382.2s-3.725,23.37-2.849,34.18,12.722,39.054,12.722,39.054l5.158-1.5s.39-18.894-4.672-31.3a11.537,11.537,0,0,1,0-8.515,142.977,142.977,0,0,0,5.78-17.925l-.395-14Z" transform="translate(-132.128 -316.976)" fill="#122043"/>
      <g id="Grupo_9658" data-name="Grupo 9658" transform="translate(8.719 12.46)">
        <path id="Trazado_18454" data-name="Trazado 18454" d="M140.994,345.109l-.092-.009-.37-4.934c.346-.5,2.568-3.577,4.626-2.806a6.3,6.3,0,0,1-.383,3.057l-.015.059a3.291,3.291,0,0,1,.55-.091,5.939,5.939,0,0,0,.275-3.312l-.039-.093-.093-.041c-2.626-1.139-5.276,2.85-5.386,3.021l-.046.071.415,5.523.306.031A3.53,3.53,0,0,1,140.994,345.109Z" transform="translate(-140.02 -336.736)" fill="#f18c72"/>
      </g>
      <g id="Grupo_9659" data-name="Grupo 9659" transform="translate(16.787 138.462)">
        <path id="Trazado_18455" data-name="Trazado 18455" d="M156.952,448.21s-2.308,2.141-7.572,3.482c-1.158.3-2.408-.1-2.408,1.813h6.388l5.311-.919v.919h2.87s.8-4.692-.877-5.294Z" transform="translate(-146.972 -444.84)" fill="#122043"/>
        <path id="Trazado_18456" data-name="Trazado 18456" d="M156.135,445.306l-.564,3.37h0a3.246,3.246,0,0,0,3.514.118l.2-.118-.285-3.37Z" transform="translate(-145.591 -445.306)" fill="#f7a57a"/>
      </g>
      <path id="Trazado_18457" data-name="Trazado 18457" d="M144.224,382.2l12.406,74.234H161.6s4.277-20,.974-36.147a24.382,24.382,0,0,1-.221-8.515c3.145-20.852.747-29.572.747-29.572Z" transform="translate(-130.626 -316.976)" fill="#002f4c"/>
    </g>
  </g>
</svg>
