<svg xmlns="http://www.w3.org/2000/svg" width="1070.749" height="264.006" viewBox="0 0 1070.749 264.006">
  <g id="Grupo_9662" data-name="Grupo 9662" transform="translate(-429 -818)">
    <circle id="Elipse_501" data-name="Elipse 501" cx="92.5" cy="92.5" r="92.5" transform="translate(429 818)" fill="#148e9f"/>
    <circle id="Elipse_502" data-name="Elipse 502" cx="92.5" cy="92.5" r="92.5" transform="translate(868 818)" fill="#148e9f"/>
    <circle id="Elipse_503" data-name="Elipse 503" cx="92.5" cy="92.5" r="92.5" transform="translate(1294 818)" fill="#148e9f"/>
    <path id="Trazado_18460" data-name="Trazado 18460" d="M-25.555-4.846a4.492,4.492,0,0,1-1.721,3.735A7.491,7.491,0,0,1-32.025.244,11.33,11.33,0,0,1-36.981-.7V-3.455a13.471,13.471,0,0,0,2.594.9,11,11,0,0,0,2.557.33,4.068,4.068,0,0,0,2.557-.659,2.15,2.15,0,0,0,.824-1.77,2.218,2.218,0,0,0-.757-1.7A11.394,11.394,0,0,0-32.33-8a8.267,8.267,0,0,1-3.442-2.258,4.778,4.778,0,0,1-1-3.052,4.274,4.274,0,0,1,1.587-3.516,6.583,6.583,0,0,1,4.26-1.282,12.517,12.517,0,0,1,5.1,1.123l-.928,2.38A11.148,11.148,0,0,0-31-15.6a3.26,3.26,0,0,0-2.148.616,2.025,2.025,0,0,0-.732,1.63,2.294,2.294,0,0,0,.293,1.19,2.992,2.992,0,0,0,.964.934,16.312,16.312,0,0,0,2.417,1.16,13.225,13.225,0,0,1,2.881,1.526,4.488,4.488,0,0,1,1.343,1.6A4.81,4.81,0,0,1-25.555-4.846ZM-16.51.244a6.531,6.531,0,0,1-4.926-1.837,6.974,6.974,0,0,1-1.776-5.06,7.652,7.652,0,0,1,1.648-5.2,5.692,5.692,0,0,1,4.529-1.892,5.563,5.563,0,0,1,4.224,1.624,6.2,6.2,0,0,1,1.55,4.468V-6.1h-9A4.434,4.434,0,0,0-19.2-3.082a3.7,3.7,0,0,0,2.82,1.056,10.41,10.41,0,0,0,2.228-.226A11.677,11.677,0,0,0-11.932-3V-.671a8.808,8.808,0,0,1-2.124.708A13.024,13.024,0,0,1-16.51.244Zm-.525-11.816a2.882,2.882,0,0,0-2.191.867,4.13,4.13,0,0,0-.983,2.527h6.128a3.737,3.737,0,0,0-.806-2.533A2.756,2.756,0,0,0-17.035-11.572ZM-2.557.244A5.911,5.911,0,0,1-7.214-1.544,7.472,7.472,0,0,1-8.807-6.677a7.514,7.514,0,0,1,1.666-5.237,6.181,6.181,0,0,1,4.816-1.831,9.025,9.025,0,0,1,3.845.793L.653-10.645a8.688,8.688,0,0,0-3-.708q-3.5,0-3.5,4.651A5.57,5.57,0,0,0-4.98-3.29,3.021,3.021,0,0,0-2.423-2.148,7.337,7.337,0,0,0,1.2-3.1V-.6A5.665,5.665,0,0,1-.439.049,9.852,9.852,0,0,1-2.557.244ZM9.406-2.075a6.976,6.976,0,0,0,2.1-.33V-.244A5.791,5.791,0,0,1,10.278.1a8.452,8.452,0,0,1-1.556.14q-4.077,0-4.077-4.3v-7.275H2.8V-12.6l1.978-1.05L5.756-16.5h1.77v3h3.845v2.173H7.526V-4.1A2.027,2.027,0,0,0,8.044-2.57,1.891,1.891,0,0,0,9.406-2.075Zm16.772-4.7a7.369,7.369,0,0,1-1.7,5.164A6.08,6.08,0,0,1,19.757.244,6.473,6.473,0,0,1,16.412-.61a5.641,5.641,0,0,1-2.234-2.454A8.357,8.357,0,0,1,13.4-6.775,7.319,7.319,0,0,1,15.082-11.9a6.108,6.108,0,0,1,4.749-1.843,5.948,5.948,0,0,1,4.639,1.886A7.285,7.285,0,0,1,26.178-6.775Zm-9.827,0q0,4.675,3.455,4.675,3.418,0,3.418-4.675,0-4.626-3.442-4.626a2.935,2.935,0,0,0-2.618,1.2A6.088,6.088,0,0,0,16.351-6.775Zm19.971-6.97a6.906,6.906,0,0,1,1.428.122l-.281,2.673A5.422,5.422,0,0,0,36.2-11.1a3.674,3.674,0,0,0-2.789,1.123,4.059,4.059,0,0,0-1.068,2.917V0H29.474V-13.5H31.72l.378,2.38h.146A5.349,5.349,0,0,1,34-13.037,4.164,4.164,0,0,1,36.322-13.745ZM-35.406,30.244A4.729,4.729,0,0,1-39.386,28.4h-.171q.171,1.709.171,2.075v5.53h-2.869V16.5h2.319q.1.378.4,1.807h.146a4.494,4.494,0,0,1,4.028-2.051,4.686,4.686,0,0,1,3.937,1.831,8.256,8.256,0,0,1,1.41,5.139,8.262,8.262,0,0,1-1.434,5.164A4.729,4.729,0,0,1-35.406,30.244ZM-36.1,18.6a2.982,2.982,0,0,0-2.5,1,5.188,5.188,0,0,0-.787,3.2v.427A6.315,6.315,0,0,0-38.6,26.8a2.906,2.906,0,0,0,2.551,1.1,2.59,2.59,0,0,0,2.295-1.221,6.3,6.3,0,0,0,.806-3.479,6.083,6.083,0,0,0-.8-3.436A2.667,2.667,0,0,0-36.1,18.6ZM-17.157,30l-.4-1.77h-.146a4.07,4.07,0,0,1-1.7,1.477,5.694,5.694,0,0,1-2.521.537,4.948,4.948,0,0,1-3.662-1.221,5.06,5.06,0,0,1-1.208-3.7V16.5h2.893v8.325a3.612,3.612,0,0,0,.635,2.325,2.423,2.423,0,0,0,1.99.775,3.168,3.168,0,0,0,2.655-1.08,5.953,5.953,0,0,0,.848-3.619V16.5H-14.9V30Zm-5.457-15.149v-.305q.7-.854,1.434-1.9t1.166-1.794h3.333V11.1a25.067,25.067,0,0,1-1.9,1.923,26.764,26.764,0,0,1-2.13,1.825Zm18.7,1.4A4.686,4.686,0,0,1,.024,18.086a8.256,8.256,0,0,1,1.41,5.139,8.282,8.282,0,0,1-1.428,5.17,4.731,4.731,0,0,1-3.967,1.849A4.729,4.729,0,0,1-7.941,28.4h-.2L-8.661,30h-2.148V11.006h2.869v4.517q0,.5-.049,1.489t-.073,1.257h.122A4.556,4.556,0,0,1-3.912,16.255ZM-4.657,18.6a2.916,2.916,0,0,0-2.5,1.019,5.93,5.93,0,0,0-.787,3.412v.2A6.315,6.315,0,0,0-7.159,26.8a2.906,2.906,0,0,0,2.551,1.1,2.586,2.586,0,0,0,2.313-1.208A6.41,6.41,0,0,0-1.508,23.2Q-1.508,18.6-4.657,18.6ZM7.635,30H4.767V11.006H7.635Zm6.97,0H11.737V16.5h2.869Zm-3.04-17.078a1.588,1.588,0,0,1,.421-1.184,1.641,1.641,0,0,1,1.2-.415,1.606,1.606,0,0,1,1.178.415,1.588,1.588,0,0,1,.421,1.184,1.559,1.559,0,0,1-.421,1.154,1.592,1.592,0,0,1-1.178.421,1.627,1.627,0,0,1-1.2-.421A1.559,1.559,0,0,1,11.566,12.922ZM24.152,30.244a5.911,5.911,0,0,1-4.657-1.788A7.472,7.472,0,0,1,17.9,23.323a7.514,7.514,0,0,1,1.666-5.237,6.181,6.181,0,0,1,4.816-1.831,9.025,9.025,0,0,1,3.845.793l-.867,2.307a8.688,8.688,0,0,0-3-.708q-3.5,0-3.5,4.651a5.57,5.57,0,0,0,.873,3.412,3.021,3.021,0,0,0,2.557,1.141,7.337,7.337,0,0,0,3.625-.952v2.5a5.665,5.665,0,0,1-1.642.647A9.852,9.852,0,0,1,24.152,30.244ZM43.06,23.225a7.369,7.369,0,0,1-1.7,5.164,6.08,6.08,0,0,1-4.724,1.855,6.473,6.473,0,0,1-3.345-.854,5.641,5.641,0,0,1-2.234-2.454,8.357,8.357,0,0,1-.781-3.711A7.319,7.319,0,0,1,31.964,18.1a6.108,6.108,0,0,1,4.749-1.843,5.948,5.948,0,0,1,4.639,1.886A7.285,7.285,0,0,1,43.06,23.225Zm-9.827,0q0,4.675,3.455,4.675,3.418,0,3.418-4.675,0-4.626-3.442-4.626a2.935,2.935,0,0,0-2.618,1.2A6.088,6.088,0,0,0,33.234,23.225Z" transform="translate(522 904)" fill="#fff"/>
    <path id="Trazado_18461" data-name="Trazado 18461" d="M-25.555-4.846a4.492,4.492,0,0,1-1.721,3.735A7.491,7.491,0,0,1-32.025.244,11.33,11.33,0,0,1-36.981-.7V-3.455a13.471,13.471,0,0,0,2.594.9,11,11,0,0,0,2.557.33,4.068,4.068,0,0,0,2.557-.659,2.15,2.15,0,0,0,.824-1.77,2.218,2.218,0,0,0-.757-1.7A11.394,11.394,0,0,0-32.33-8a8.267,8.267,0,0,1-3.442-2.258,4.778,4.778,0,0,1-1-3.052,4.274,4.274,0,0,1,1.587-3.516,6.583,6.583,0,0,1,4.26-1.282,12.517,12.517,0,0,1,5.1,1.123l-.928,2.38A11.148,11.148,0,0,0-31-15.6a3.26,3.26,0,0,0-2.148.616,2.025,2.025,0,0,0-.732,1.63,2.294,2.294,0,0,0,.293,1.19,2.992,2.992,0,0,0,.964.934,16.312,16.312,0,0,0,2.417,1.16,13.225,13.225,0,0,1,2.881,1.526,4.488,4.488,0,0,1,1.343,1.6A4.81,4.81,0,0,1-25.555-4.846ZM-16.51.244a6.531,6.531,0,0,1-4.926-1.837,6.974,6.974,0,0,1-1.776-5.06,7.652,7.652,0,0,1,1.648-5.2,5.692,5.692,0,0,1,4.529-1.892,5.563,5.563,0,0,1,4.224,1.624,6.2,6.2,0,0,1,1.55,4.468V-6.1h-9A4.434,4.434,0,0,0-19.2-3.082a3.7,3.7,0,0,0,2.82,1.056,10.41,10.41,0,0,0,2.228-.226A11.677,11.677,0,0,0-11.932-3V-.671a8.808,8.808,0,0,1-2.124.708A13.024,13.024,0,0,1-16.51.244Zm-.525-11.816a2.882,2.882,0,0,0-2.191.867,4.13,4.13,0,0,0-.983,2.527h6.128a3.737,3.737,0,0,0-.806-2.533A2.756,2.756,0,0,0-17.035-11.572ZM-2.557.244A5.911,5.911,0,0,1-7.214-1.544,7.472,7.472,0,0,1-8.807-6.677a7.514,7.514,0,0,1,1.666-5.237,6.181,6.181,0,0,1,4.816-1.831,9.025,9.025,0,0,1,3.845.793L.653-10.645a8.688,8.688,0,0,0-3-.708q-3.5,0-3.5,4.651A5.57,5.57,0,0,0-4.98-3.29,3.021,3.021,0,0,0-2.423-2.148,7.337,7.337,0,0,0,1.2-3.1V-.6A5.665,5.665,0,0,1-.439.049,9.852,9.852,0,0,1-2.557.244ZM9.406-2.075a6.976,6.976,0,0,0,2.1-.33V-.244A5.791,5.791,0,0,1,10.278.1a8.452,8.452,0,0,1-1.556.14q-4.077,0-4.077-4.3v-7.275H2.8V-12.6l1.978-1.05L5.756-16.5h1.77v3h3.845v2.173H7.526V-4.1A2.027,2.027,0,0,0,8.044-2.57,1.891,1.891,0,0,0,9.406-2.075Zm16.772-4.7a7.369,7.369,0,0,1-1.7,5.164A6.08,6.08,0,0,1,19.757.244,6.473,6.473,0,0,1,16.412-.61a5.641,5.641,0,0,1-2.234-2.454A8.357,8.357,0,0,1,13.4-6.775,7.319,7.319,0,0,1,15.082-11.9a6.108,6.108,0,0,1,4.749-1.843,5.948,5.948,0,0,1,4.639,1.886A7.285,7.285,0,0,1,26.178-6.775Zm-9.827,0q0,4.675,3.455,4.675,3.418,0,3.418-4.675,0-4.626-3.442-4.626a2.935,2.935,0,0,0-2.618,1.2A6.088,6.088,0,0,0,16.351-6.775Zm19.971-6.97a6.906,6.906,0,0,1,1.428.122l-.281,2.673A5.422,5.422,0,0,0,36.2-11.1a3.674,3.674,0,0,0-2.789,1.123,4.059,4.059,0,0,0-1.068,2.917V0H29.474V-13.5H31.72l.378,2.38h.146A5.349,5.349,0,0,1,34-13.037,4.164,4.164,0,0,1,36.322-13.745Zm-73.45,43.989A4.729,4.729,0,0,1-41.107,28.4h-.171q.171,1.709.171,2.075v5.53h-2.869V16.5h2.319q.1.378.4,1.807h.146a4.494,4.494,0,0,1,4.028-2.051,4.686,4.686,0,0,1,3.937,1.831,8.256,8.256,0,0,1,1.41,5.139,8.262,8.262,0,0,1-1.434,5.164A4.729,4.729,0,0,1-37.128,30.244Zm-.7-11.646a2.982,2.982,0,0,0-2.5,1,5.188,5.188,0,0,0-.787,3.2v.427a6.315,6.315,0,0,0,.781,3.571,2.906,2.906,0,0,0,2.551,1.1A2.59,2.59,0,0,0-35.48,26.68a6.3,6.3,0,0,0,.806-3.479,6.083,6.083,0,0,0-.8-3.436A2.667,2.667,0,0,0-37.823,18.6Zm16.272-2.344a6.905,6.905,0,0,1,1.428.122L-20.4,19.05a5.422,5.422,0,0,0-1.27-.146,3.674,3.674,0,0,0-2.789,1.123,4.059,4.059,0,0,0-1.068,2.917V30H-28.4V16.5h2.246l.378,2.38h.146a5.349,5.349,0,0,1,1.752-1.917A4.164,4.164,0,0,1-21.552,16.255ZM-14.752,30h-2.869V16.5h2.869Zm-3.04-17.078a1.588,1.588,0,0,1,.421-1.184,1.641,1.641,0,0,1,1.2-.415,1.606,1.606,0,0,1,1.178.415,1.588,1.588,0,0,1,.421,1.184,1.559,1.559,0,0,1-.421,1.154,1.592,1.592,0,0,1-1.178.421,1.627,1.627,0,0,1-1.2-.421A1.559,1.559,0,0,1-17.792,12.922ZM-7.574,30-12.7,16.5h3.027l2.747,7.849a15.553,15.553,0,0,1,.854,3.2h.1a21.475,21.475,0,0,1,.854-3.2L-2.374,16.5H.677L-4.474,30Zm18.75,0L10.6,28.12h-.1A5.531,5.531,0,0,1,8.539,29.8,6.215,6.215,0,0,1,6,30.244,4.3,4.3,0,0,1,2.893,29.17a4.02,4.02,0,0,1-1.117-3.04,3.569,3.569,0,0,1,1.55-3.149,8.939,8.939,0,0,1,4.724-1.16l2.332-.073v-.72a2.73,2.73,0,0,0-.6-1.935A2.464,2.464,0,0,0,7.9,18.452a6.479,6.479,0,0,0-1.99.305,15.015,15.015,0,0,0-1.831.72l-.928-2.051a9.984,9.984,0,0,1,2.4-.873,11.067,11.067,0,0,1,2.466-.3,5.84,5.84,0,0,1,3.888,1.123,4.4,4.4,0,0,1,1.312,3.528V30ZM6.9,28.047a3.553,3.553,0,0,0,2.509-.873,3.164,3.164,0,0,0,.946-2.448V23.555l-1.733.073a5.931,5.931,0,0,0-2.948.677,2.058,2.058,0,0,0-.922,1.849,1.8,1.8,0,0,0,.537,1.4A2.308,2.308,0,0,0,6.9,28.047Zm14.88,2.2a4.7,4.7,0,0,1-3.943-1.831,8.23,8.23,0,0,1-1.416-5.139,8.257,8.257,0,0,1,1.434-5.17,4.747,4.747,0,0,1,3.973-1.849,4.654,4.654,0,0,1,4.053,1.965h.146a17.2,17.2,0,0,1-.208-2.295V11.006H28.7V30H26.459l-.5-1.77h-.134A4.586,4.586,0,0,1,21.783,30.244Zm.769-2.319a3.122,3.122,0,0,0,2.576-.995,5.238,5.238,0,0,0,.83-3.229v-.4a6.051,6.051,0,0,0-.83-3.625,3.079,3.079,0,0,0-2.6-1.074A2.638,2.638,0,0,0,20.2,19.825a6.287,6.287,0,0,0-.818,3.5,6.13,6.13,0,0,0,.793,3.424A2.679,2.679,0,0,0,22.552,27.925Zm22.229-4.7a7.369,7.369,0,0,1-1.7,5.164,6.08,6.08,0,0,1-4.724,1.855,6.473,6.473,0,0,1-3.345-.854,5.641,5.641,0,0,1-2.234-2.454A8.357,8.357,0,0,1,32,23.225,7.319,7.319,0,0,1,33.685,18.1a6.108,6.108,0,0,1,4.749-1.843,5.948,5.948,0,0,1,4.639,1.886A7.285,7.285,0,0,1,44.781,23.225Zm-9.827,0q0,4.675,3.455,4.675,3.418,0,3.418-4.675,0-4.626-3.442-4.626a2.935,2.935,0,0,0-2.618,1.2A6.088,6.088,0,0,0,34.955,23.225Z" transform="translate(960 904)" fill="#fff"/>
    <path id="Trazado_18462" data-name="Trazado 18462" d="M-25.555-4.846a4.492,4.492,0,0,1-1.721,3.735A7.491,7.491,0,0,1-32.025.244,11.33,11.33,0,0,1-36.981-.7V-3.455a13.471,13.471,0,0,0,2.594.9,11,11,0,0,0,2.557.33,4.068,4.068,0,0,0,2.557-.659,2.15,2.15,0,0,0,.824-1.77,2.218,2.218,0,0,0-.757-1.7A11.394,11.394,0,0,0-32.33-8a8.267,8.267,0,0,1-3.442-2.258,4.778,4.778,0,0,1-1-3.052,4.274,4.274,0,0,1,1.587-3.516,6.583,6.583,0,0,1,4.26-1.282,12.517,12.517,0,0,1,5.1,1.123l-.928,2.38A11.148,11.148,0,0,0-31-15.6a3.26,3.26,0,0,0-2.148.616,2.025,2.025,0,0,0-.732,1.63,2.294,2.294,0,0,0,.293,1.19,2.992,2.992,0,0,0,.964.934,16.312,16.312,0,0,0,2.417,1.16,13.225,13.225,0,0,1,2.881,1.526,4.488,4.488,0,0,1,1.343,1.6A4.81,4.81,0,0,1-25.555-4.846ZM-16.51.244a6.531,6.531,0,0,1-4.926-1.837,6.974,6.974,0,0,1-1.776-5.06,7.652,7.652,0,0,1,1.648-5.2,5.692,5.692,0,0,1,4.529-1.892,5.563,5.563,0,0,1,4.224,1.624,6.2,6.2,0,0,1,1.55,4.468V-6.1h-9A4.434,4.434,0,0,0-19.2-3.082a3.7,3.7,0,0,0,2.82,1.056,10.41,10.41,0,0,0,2.228-.226A11.677,11.677,0,0,0-11.932-3V-.671a8.808,8.808,0,0,1-2.124.708A13.024,13.024,0,0,1-16.51.244Zm-.525-11.816a2.882,2.882,0,0,0-2.191.867,4.13,4.13,0,0,0-.983,2.527h6.128a3.737,3.737,0,0,0-.806-2.533A2.756,2.756,0,0,0-17.035-11.572ZM-2.557.244A5.911,5.911,0,0,1-7.214-1.544,7.472,7.472,0,0,1-8.807-6.677a7.514,7.514,0,0,1,1.666-5.237,6.181,6.181,0,0,1,4.816-1.831,9.025,9.025,0,0,1,3.845.793L.653-10.645a8.688,8.688,0,0,0-3-.708q-3.5,0-3.5,4.651A5.57,5.57,0,0,0-4.98-3.29,3.021,3.021,0,0,0-2.423-2.148,7.337,7.337,0,0,0,1.2-3.1V-.6A5.665,5.665,0,0,1-.439.049,9.852,9.852,0,0,1-2.557.244ZM9.406-2.075a6.976,6.976,0,0,0,2.1-.33V-.244A5.791,5.791,0,0,1,10.278.1a8.452,8.452,0,0,1-1.556.14q-4.077,0-4.077-4.3v-7.275H2.8V-12.6l1.978-1.05L5.756-16.5h1.77v3h3.845v2.173H7.526V-4.1A2.027,2.027,0,0,0,8.044-2.57,1.891,1.891,0,0,0,9.406-2.075Zm16.772-4.7a7.369,7.369,0,0,1-1.7,5.164A6.08,6.08,0,0,1,19.757.244,6.473,6.473,0,0,1,16.412-.61a5.641,5.641,0,0,1-2.234-2.454A8.357,8.357,0,0,1,13.4-6.775,7.319,7.319,0,0,1,15.082-11.9a6.108,6.108,0,0,1,4.749-1.843,5.948,5.948,0,0,1,4.639,1.886A7.285,7.285,0,0,1,26.178-6.775Zm-9.827,0q0,4.675,3.455,4.675,3.418,0,3.418-4.675,0-4.626-3.442-4.626a2.935,2.935,0,0,0-2.618,1.2A6.088,6.088,0,0,0,16.351-6.775Zm19.971-6.97a6.906,6.906,0,0,1,1.428.122l-.281,2.673A5.422,5.422,0,0,0,36.2-11.1a3.674,3.674,0,0,0-2.789,1.123,4.059,4.059,0,0,0-1.068,2.917V0H29.474V-13.5H31.72l.378,2.38h.146A5.349,5.349,0,0,1,34-13.037,4.164,4.164,0,0,1,36.322-13.745Zm-77.441,39.9a3.533,3.533,0,0,1-1.44,3.033,6.9,6.9,0,0,1-4.126,1.056,9.746,9.746,0,0,1-4.333-.818V26.948a10.639,10.639,0,0,0,4.431,1.1q2.649,0,2.649-1.6a1.267,1.267,0,0,0-.293-.854,3.467,3.467,0,0,0-.964-.708,16.6,16.6,0,0,0-1.868-.83,8.639,8.639,0,0,1-3.156-1.807,3.343,3.343,0,0,1-.824-2.344,3.078,3.078,0,0,1,1.4-2.692,6.633,6.633,0,0,1,3.8-.958,10.77,10.77,0,0,1,4.5.964l-.928,2.161a10.018,10.018,0,0,0-3.674-.9q-2.271,0-2.271,1.294a1.3,1.3,0,0,0,.592,1.074,13.02,13.02,0,0,0,2.582,1.208,11.8,11.8,0,0,1,2.429,1.184,3.539,3.539,0,0,1,1.123,1.239A3.586,3.586,0,0,1-41.119,26.155Zm15.076-2.93a7.369,7.369,0,0,1-1.7,5.164,6.08,6.08,0,0,1-4.724,1.855,6.473,6.473,0,0,1-3.345-.854,5.641,5.641,0,0,1-2.234-2.454,8.357,8.357,0,0,1-.781-3.711A7.319,7.319,0,0,1-37.14,18.1a6.108,6.108,0,0,1,4.749-1.843,5.948,5.948,0,0,1,4.639,1.886A7.285,7.285,0,0,1-26.044,23.225Zm-9.827,0q0,4.675,3.455,4.675Q-29,27.9-29,23.225-29,18.6-32.44,18.6a2.935,2.935,0,0,0-2.618,1.2A6.088,6.088,0,0,0-35.87,23.225ZM-19.879,30h-2.869V11.006h2.869Zm6.97,0h-2.869V16.5h2.869Zm-3.04-17.078a1.588,1.588,0,0,1,.421-1.184,1.641,1.641,0,0,1,1.2-.415,1.606,1.606,0,0,1,1.178.415,1.588,1.588,0,0,1,.421,1.184,1.559,1.559,0,0,1-.421,1.154,1.592,1.592,0,0,1-1.178.421,1.627,1.627,0,0,1-1.2-.421A1.559,1.559,0,0,1-15.948,12.922ZM-4.254,30.244A4.7,4.7,0,0,1-8.2,28.413a8.23,8.23,0,0,1-1.416-5.139A8.257,8.257,0,0,1-8.179,18.1a4.747,4.747,0,0,1,3.973-1.849A4.654,4.654,0,0,1-.153,18.22h.146a17.2,17.2,0,0,1-.208-2.295V11.006H2.667V30H.421l-.5-1.77H-.214A4.586,4.586,0,0,1-4.254,30.244Zm.769-2.319A3.122,3.122,0,0,0-.909,26.93,5.238,5.238,0,0,0-.079,23.7v-.4a6.051,6.051,0,0,0-.83-3.625A3.079,3.079,0,0,0-3.51,18.6a2.638,2.638,0,0,0-2.332,1.227,6.287,6.287,0,0,0-.818,3.5,6.13,6.13,0,0,0,.793,3.424A2.679,2.679,0,0,0-3.485,27.925ZM15.216,30l-.574-1.88h-.1A5.531,5.531,0,0,1,12.579,29.8a6.215,6.215,0,0,1-2.539.446A4.3,4.3,0,0,1,6.934,29.17a4.02,4.02,0,0,1-1.117-3.04,3.569,3.569,0,0,1,1.55-3.149,8.939,8.939,0,0,1,4.724-1.16l2.332-.073v-.72a2.73,2.73,0,0,0-.6-1.935,2.464,2.464,0,0,0-1.874-.641,6.479,6.479,0,0,0-1.99.305,15.015,15.015,0,0,0-1.831.72L7.2,17.427a9.984,9.984,0,0,1,2.4-.873,11.067,11.067,0,0,1,2.466-.3,5.84,5.84,0,0,1,3.888,1.123,4.4,4.4,0,0,1,1.312,3.528V30Zm-4.272-1.953a3.553,3.553,0,0,0,2.509-.873,3.164,3.164,0,0,0,.946-2.448V23.555l-1.733.073a5.931,5.931,0,0,0-2.948.677A2.058,2.058,0,0,0,8.8,26.155a1.8,1.8,0,0,0,.537,1.4A2.308,2.308,0,0,0,10.944,28.047ZM28.119,16.255a6.905,6.905,0,0,1,1.428.122l-.281,2.673A5.422,5.422,0,0,0,28,18.9a3.674,3.674,0,0,0-2.789,1.123,4.059,4.059,0,0,0-1.068,2.917V30H21.271V16.5h2.246l.378,2.38h.146a5.349,5.349,0,0,1,1.752-1.917A4.164,4.164,0,0,1,28.119,16.255ZM34.918,30H32.05V16.5h2.869Zm-3.04-17.078a1.588,1.588,0,0,1,.421-1.184,1.641,1.641,0,0,1,1.2-.415,1.606,1.606,0,0,1,1.178.415,1.588,1.588,0,0,1,.421,1.184,1.559,1.559,0,0,1-.421,1.154A1.592,1.592,0,0,1,33.5,14.5a1.627,1.627,0,0,1-1.2-.421A1.559,1.559,0,0,1,31.879,12.922Zm19.116,10.3a7.369,7.369,0,0,1-1.7,5.164,6.08,6.08,0,0,1-4.724,1.855,6.473,6.473,0,0,1-3.345-.854A5.641,5.641,0,0,1,39,26.936a8.357,8.357,0,0,1-.781-3.711A7.319,7.319,0,0,1,39.9,18.1a6.108,6.108,0,0,1,4.749-1.843,5.948,5.948,0,0,1,4.639,1.886A7.285,7.285,0,0,1,50.995,23.225Zm-9.827,0q0,4.675,3.455,4.675,3.418,0,3.418-4.675,0-4.626-3.442-4.626a2.935,2.935,0,0,0-2.618,1.2A6.088,6.088,0,0,0,41.168,23.225Z" transform="translate(1387 904)" fill="#fff"/>
    <path id="Trazado_18463" data-name="Trazado 18463" d="M-49.274,0h-10.1V-17.847h10.1v2.466h-7.178v4.858h6.726v2.441h-6.726v5.6h7.178Zm14.929,0h-2.881V-8.325a3.775,3.775,0,0,0-.586-2.313,2.162,2.162,0,0,0-1.831-.763,2.793,2.793,0,0,0-2.435,1.08,6.338,6.338,0,0,0-.775,3.595V0h-2.869V-13.5h2.246l.4,1.77h.146A3.74,3.74,0,0,1-41.3-13.22a5.255,5.255,0,0,1,2.35-.525q3.113,0,4.126,2.124h.2a4.116,4.116,0,0,1,1.685-1.562,5.346,5.346,0,0,1,2.49-.562,4.535,4.535,0,0,1,3.522,1.221,5.406,5.406,0,0,1,1.1,3.723V0h-2.869V-8.325a3.746,3.746,0,0,0-.592-2.313,2.18,2.18,0,0,0-1.837-.763,2.847,2.847,0,0,0-2.448,1.044,5.38,5.38,0,0,0-.775,3.2Zm19.373.244A4.729,4.729,0,0,1-18.951-1.6h-.171q.171,1.709.171,2.075v5.53H-21.82V-13.5H-19.5q.1.378.4,1.807h.146a4.494,4.494,0,0,1,4.028-2.051,4.686,4.686,0,0,1,3.937,1.831,8.256,8.256,0,0,1,1.41,5.139,8.262,8.262,0,0,1-1.434,5.164A4.729,4.729,0,0,1-14.972.244Zm-.7-11.646a2.982,2.982,0,0,0-2.5,1,5.188,5.188,0,0,0-.787,3.2v.427A6.315,6.315,0,0,0-18.17-3.2a2.906,2.906,0,0,0,2.551,1.1A2.59,2.59,0,0,0-13.324-3.32,6.3,6.3,0,0,0-12.518-6.8a6.083,6.083,0,0,0-.8-3.436A2.667,2.667,0,0,0-15.668-11.4ZM.6-13.745a6.906,6.906,0,0,1,1.428.122L1.752-10.95A5.422,5.422,0,0,0,.482-11.1,3.674,3.674,0,0,0-2.307-9.973,4.059,4.059,0,0,0-3.375-7.056V0H-6.244V-13.5H-4l.378,2.38h.146a5.349,5.349,0,0,1,1.752-1.917A4.164,4.164,0,0,1,.6-13.745ZM9.93.244A6.531,6.531,0,0,1,5-1.593a6.974,6.974,0,0,1-1.776-5.06,7.652,7.652,0,0,1,1.648-5.2,5.692,5.692,0,0,1,4.529-1.892,5.563,5.563,0,0,1,4.224,1.624,6.2,6.2,0,0,1,1.55,4.468V-6.1h-9A4.434,4.434,0,0,0,7.245-3.082a3.7,3.7,0,0,0,2.82,1.056,10.41,10.41,0,0,0,2.228-.226A11.677,11.677,0,0,0,14.508-3V-.671a8.808,8.808,0,0,1-2.124.708A13.024,13.024,0,0,1,9.93.244ZM9.406-11.572a2.882,2.882,0,0,0-2.191.867,4.13,4.13,0,0,0-.983,2.527H12.36a3.737,3.737,0,0,0-.806-2.533A2.756,2.756,0,0,0,9.406-11.572Zm18.1,7.727a3.533,3.533,0,0,1-1.44,3.033A6.9,6.9,0,0,1,21.942.244a9.746,9.746,0,0,1-4.333-.818V-3.052a10.639,10.639,0,0,0,4.431,1.1q2.649,0,2.649-1.6a1.267,1.267,0,0,0-.293-.854,3.467,3.467,0,0,0-.964-.708,16.6,16.6,0,0,0-1.868-.83,8.639,8.639,0,0,1-3.156-1.807,3.343,3.343,0,0,1-.824-2.344,3.078,3.078,0,0,1,1.4-2.692,6.633,6.633,0,0,1,3.8-.958,10.77,10.77,0,0,1,4.5.964l-.928,2.161a10.018,10.018,0,0,0-3.674-.9q-2.271,0-2.271,1.294a1.3,1.3,0,0,0,.592,1.074A13.02,13.02,0,0,0,23.59-7.947a11.8,11.8,0,0,1,2.429,1.184,3.539,3.539,0,0,1,1.123,1.239A3.586,3.586,0,0,1,27.509-3.845ZM39.056,0l-.574-1.88h-.1A5.531,5.531,0,0,1,36.42-.2a6.215,6.215,0,0,1-2.539.446A4.3,4.3,0,0,1,30.774-.83a4.02,4.02,0,0,1-1.117-3.04,3.569,3.569,0,0,1,1.55-3.149,8.939,8.939,0,0,1,4.724-1.16l2.332-.073v-.72a2.73,2.73,0,0,0-.6-1.935,2.464,2.464,0,0,0-1.874-.641,6.479,6.479,0,0,0-1.99.305,15.015,15.015,0,0,0-1.831.72l-.928-2.051a9.984,9.984,0,0,1,2.4-.873,11.067,11.067,0,0,1,2.466-.3,5.84,5.84,0,0,1,3.888,1.123,4.4,4.4,0,0,1,1.312,3.528V0ZM34.784-1.953a3.553,3.553,0,0,0,2.509-.873,3.164,3.164,0,0,0,.946-2.448V-6.445l-1.733.073a5.931,5.931,0,0,0-2.948.677,2.058,2.058,0,0,0-.922,1.849,1.8,1.8,0,0,0,.537,1.4A2.308,2.308,0,0,0,34.784-1.953Zm19.4-1.892A3.533,3.533,0,0,1,52.74-.812,6.9,6.9,0,0,1,48.615.244a9.746,9.746,0,0,1-4.333-.818V-3.052a10.639,10.639,0,0,0,4.431,1.1q2.649,0,2.649-1.6a1.267,1.267,0,0,0-.293-.854,3.467,3.467,0,0,0-.964-.708,16.6,16.6,0,0,0-1.868-.83,8.639,8.639,0,0,1-3.156-1.807,3.343,3.343,0,0,1-.824-2.344,3.078,3.078,0,0,1,1.4-2.692,6.633,6.633,0,0,1,3.8-.958,10.77,10.77,0,0,1,4.5.964l-.928,2.161a10.018,10.018,0,0,0-3.674-.9q-2.271,0-2.271,1.294a1.3,1.3,0,0,0,.592,1.074,13.02,13.02,0,0,0,2.582,1.208,11.8,11.8,0,0,1,2.429,1.184,3.539,3.539,0,0,1,1.123,1.239A3.586,3.586,0,0,1,54.181-3.845ZM-46.442,30.244a6.531,6.531,0,0,1-4.926-1.837,6.974,6.974,0,0,1-1.776-5.06,7.652,7.652,0,0,1,1.648-5.2,5.692,5.692,0,0,1,4.529-1.892,5.563,5.563,0,0,1,4.224,1.624,6.2,6.2,0,0,1,1.55,4.468V23.9h-9a4.434,4.434,0,0,0,1.062,3.021,3.7,3.7,0,0,0,2.82,1.056,10.41,10.41,0,0,0,2.228-.226A11.677,11.677,0,0,0-41.864,27v2.332a8.808,8.808,0,0,1-2.124.708A13.024,13.024,0,0,1-46.442,30.244Zm-.525-11.816a2.882,2.882,0,0,0-2.191.867,4.13,4.13,0,0,0-.983,2.527h6.128a3.737,3.737,0,0,0-.806-2.533A2.756,2.756,0,0,0-46.967,18.428Zm18.1,7.727a3.533,3.533,0,0,1-1.44,3.033,6.9,6.9,0,0,1-4.126,1.056,9.746,9.746,0,0,1-4.333-.818V26.948a10.639,10.639,0,0,0,4.431,1.1q2.649,0,2.649-1.6a1.267,1.267,0,0,0-.293-.854,3.467,3.467,0,0,0-.964-.708,16.6,16.6,0,0,0-1.868-.83,8.639,8.639,0,0,1-3.156-1.807,3.343,3.343,0,0,1-.824-2.344,3.078,3.078,0,0,1,1.4-2.692,6.633,6.633,0,0,1,3.8-.958,10.77,10.77,0,0,1,4.5.964l-.928,2.161a10.018,10.018,0,0,0-3.674-.9q-2.271,0-2.271,1.294a1.3,1.3,0,0,0,.592,1.074,13.02,13.02,0,0,0,2.582,1.208,11.8,11.8,0,0,1,2.429,1.184,3.539,3.539,0,0,1,1.123,1.239A3.586,3.586,0,0,1-28.864,26.155Zm8.13,1.77a6.976,6.976,0,0,0,2.1-.33v2.161a5.791,5.791,0,0,1-1.227.348,8.452,8.452,0,0,1-1.556.14q-4.077,0-4.077-4.3V18.672h-1.843V17.4l1.978-1.05.977-2.856h1.77v3h3.845v2.173h-3.845V25.9a2.027,2.027,0,0,0,.519,1.532A1.891,1.891,0,0,0-20.734,27.925ZM-7.489,30l-.574-1.88h-.1A5.531,5.531,0,0,1-10.126,29.8a6.215,6.215,0,0,1-2.539.446,4.3,4.3,0,0,1-3.107-1.074,4.02,4.02,0,0,1-1.117-3.04,3.569,3.569,0,0,1,1.55-3.149,8.939,8.939,0,0,1,4.724-1.16l2.332-.073v-.72a2.73,2.73,0,0,0-.6-1.935,2.464,2.464,0,0,0-1.874-.641,6.479,6.479,0,0,0-1.99.305,15.015,15.015,0,0,0-1.831.72l-.928-2.051a9.984,9.984,0,0,1,2.4-.873,11.067,11.067,0,0,1,2.466-.3A5.84,5.84,0,0,1-6.75,17.378a4.4,4.4,0,0,1,1.312,3.528V30Zm-4.272-1.953a3.553,3.553,0,0,0,2.509-.873,3.164,3.164,0,0,0,.946-2.448V23.555l-1.733.073a5.931,5.931,0,0,0-2.948.677,2.058,2.058,0,0,0-.922,1.849,1.8,1.8,0,0,0,.537,1.4A2.308,2.308,0,0,0-11.761,28.047Zm15.356-.122a6.976,6.976,0,0,0,2.1-.33v2.161a5.791,5.791,0,0,1-1.227.348,8.452,8.452,0,0,1-1.556.14q-4.077,0-4.077-4.3V18.672H-3.009V17.4l1.978-1.05L-.055,13.5h1.77v3H5.56v2.173H1.715V25.9a2.027,2.027,0,0,0,.519,1.532A1.891,1.891,0,0,0,3.595,27.925ZM16.84,30l-.574-1.88h-.1A5.531,5.531,0,0,1,14.2,29.8a6.215,6.215,0,0,1-2.539.446A4.3,4.3,0,0,1,8.557,29.17,4.02,4.02,0,0,1,7.44,26.13a3.569,3.569,0,0,1,1.55-3.149,8.939,8.939,0,0,1,4.724-1.16l2.332-.073v-.72a2.73,2.73,0,0,0-.6-1.935,2.464,2.464,0,0,0-1.874-.641,6.479,6.479,0,0,0-1.99.305,15.015,15.015,0,0,0-1.831.72L8.82,17.427a9.984,9.984,0,0,1,2.4-.873,11.067,11.067,0,0,1,2.466-.3,5.84,5.84,0,0,1,3.888,1.123,4.4,4.4,0,0,1,1.312,3.528V30Zm-4.272-1.953a3.553,3.553,0,0,0,2.509-.873,3.164,3.164,0,0,0,.946-2.448V23.555l-1.733.073a5.931,5.931,0,0,0-2.948.677,2.058,2.058,0,0,0-.922,1.849,1.8,1.8,0,0,0,.537,1.4A2.308,2.308,0,0,0,12.567,28.047ZM25.763,30H22.894V11.006h2.869Zm10,.244a6.531,6.531,0,0,1-4.926-1.837,6.974,6.974,0,0,1-1.776-5.06,7.652,7.652,0,0,1,1.648-5.2,5.692,5.692,0,0,1,4.529-1.892,5.563,5.563,0,0,1,4.224,1.624,6.2,6.2,0,0,1,1.55,4.468V23.9h-9a4.434,4.434,0,0,0,1.062,3.021,3.7,3.7,0,0,0,2.82,1.056,10.41,10.41,0,0,0,2.228-.226A11.677,11.677,0,0,0,40.338,27v2.332a8.808,8.808,0,0,1-2.124.708A13.024,13.024,0,0,1,35.76,30.244Zm-.525-11.816a2.882,2.882,0,0,0-2.191.867,4.13,4.13,0,0,0-.983,2.527H38.19a3.737,3.737,0,0,0-.806-2.533A2.756,2.756,0,0,0,35.236,18.428Zm18.1,7.727a3.533,3.533,0,0,1-1.44,3.033,6.9,6.9,0,0,1-4.126,1.056,9.746,9.746,0,0,1-4.333-.818V26.948a10.639,10.639,0,0,0,4.431,1.1q2.649,0,2.649-1.6a1.267,1.267,0,0,0-.293-.854,3.467,3.467,0,0,0-.964-.708,16.6,16.6,0,0,0-1.868-.83,8.639,8.639,0,0,1-3.156-1.807,3.343,3.343,0,0,1-.824-2.344,3.078,3.078,0,0,1,1.4-2.692,6.633,6.633,0,0,1,3.8-.958,10.77,10.77,0,0,1,4.5.964l-.928,2.161a10.018,10.018,0,0,0-3.674-.9q-2.271,0-2.271,1.294a1.3,1.3,0,0,0,.592,1.074,13.02,13.02,0,0,0,2.582,1.208,11.8,11.8,0,0,1,2.429,1.184,3.539,3.539,0,0,1,1.123,1.239A3.586,3.586,0,0,1,53.339,26.155Z" transform="translate(519 1046)" fill="#212b53"/>
    <path id="Trazado_18464" data-name="Trazado 18464" d="M-74.28,0h-10.1V-17.847h10.1v2.466h-7.178v4.858h6.726v2.441h-6.726v5.6h7.178Zm14.929,0h-2.881V-8.325a3.775,3.775,0,0,0-.586-2.313,2.162,2.162,0,0,0-1.831-.763,2.793,2.793,0,0,0-2.435,1.08,6.338,6.338,0,0,0-.775,3.595V0h-2.869V-13.5h2.246l.4,1.77h.146A3.74,3.74,0,0,1-66.3-13.22a5.255,5.255,0,0,1,2.35-.525q3.113,0,4.126,2.124h.2a4.116,4.116,0,0,1,1.685-1.562,5.346,5.346,0,0,1,2.49-.562,4.535,4.535,0,0,1,3.522,1.221A5.406,5.406,0,0,1-50.83-8.8V0H-53.7V-8.325a3.746,3.746,0,0,0-.592-2.313,2.18,2.18,0,0,0-1.837-.763,2.847,2.847,0,0,0-2.448,1.044,5.38,5.38,0,0,0-.775,3.2Zm19.373.244A4.729,4.729,0,0,1-43.958-1.6h-.171q.171,1.709.171,2.075v5.53h-2.869V-13.5h2.319q.1.378.4,1.807h.146a4.494,4.494,0,0,1,4.028-2.051,4.686,4.686,0,0,1,3.937,1.831,8.256,8.256,0,0,1,1.41,5.139,8.262,8.262,0,0,1-1.434,5.164A4.729,4.729,0,0,1-39.978.244Zm-.7-11.646a2.982,2.982,0,0,0-2.5,1,5.188,5.188,0,0,0-.787,3.2v.427A6.315,6.315,0,0,0-43.176-3.2a2.906,2.906,0,0,0,2.551,1.1A2.59,2.59,0,0,0-38.33-3.32,6.3,6.3,0,0,0-37.524-6.8a6.083,6.083,0,0,0-.8-3.436A2.667,2.667,0,0,0-40.674-11.4ZM-24.4-13.745a6.906,6.906,0,0,1,1.428.122l-.281,2.673a5.422,5.422,0,0,0-1.27-.146,3.674,3.674,0,0,0-2.789,1.123,4.059,4.059,0,0,0-1.068,2.917V0H-31.25V-13.5H-29l.378,2.38h.146a5.349,5.349,0,0,1,1.752-1.917A4.164,4.164,0,0,1-24.4-13.745ZM-15.076.244A6.531,6.531,0,0,1-20-1.593a6.974,6.974,0,0,1-1.776-5.06,7.652,7.652,0,0,1,1.648-5.2A5.692,5.692,0,0,1-15.6-13.745a5.563,5.563,0,0,1,4.224,1.624,6.2,6.2,0,0,1,1.55,4.468V-6.1h-9a4.434,4.434,0,0,0,1.062,3.021,3.7,3.7,0,0,0,2.82,1.056,10.41,10.41,0,0,0,2.228-.226A11.677,11.677,0,0,0-10.5-3V-.671a8.808,8.808,0,0,1-2.124.708A13.024,13.024,0,0,1-15.076.244ZM-15.6-11.572a2.882,2.882,0,0,0-2.191.867,4.13,4.13,0,0,0-.983,2.527h6.128a3.737,3.737,0,0,0-.806-2.533A2.756,2.756,0,0,0-15.6-11.572ZM2.5-3.845A3.533,3.533,0,0,1,1.062-.812,6.9,6.9,0,0,1-3.064.244,9.746,9.746,0,0,1-7.4-.574V-3.052a10.639,10.639,0,0,0,4.431,1.1q2.649,0,2.649-1.6A1.267,1.267,0,0,0-.61-4.407a3.467,3.467,0,0,0-.964-.708,16.6,16.6,0,0,0-1.868-.83A8.639,8.639,0,0,1-6.6-7.751,3.343,3.343,0,0,1-7.422-10.1a3.078,3.078,0,0,1,1.4-2.692,6.633,6.633,0,0,1,3.8-.958,10.77,10.77,0,0,1,4.5.964L1.355-10.62a10.018,10.018,0,0,0-3.674-.9q-2.271,0-2.271,1.294A1.3,1.3,0,0,0-4-9.155,13.02,13.02,0,0,0-1.416-7.947,11.8,11.8,0,0,1,1.013-6.763,3.539,3.539,0,0,1,2.136-5.524,3.586,3.586,0,0,1,2.5-3.845ZM14.05,0l-.574-1.88h-.1A5.531,5.531,0,0,1,11.414-.2,6.215,6.215,0,0,1,8.875.244,4.3,4.3,0,0,1,5.768-.83,4.02,4.02,0,0,1,4.651-3.87,3.569,3.569,0,0,1,6.2-7.019a8.939,8.939,0,0,1,4.724-1.16l2.332-.073v-.72a2.73,2.73,0,0,0-.6-1.935,2.464,2.464,0,0,0-1.874-.641,6.479,6.479,0,0,0-1.99.305,15.015,15.015,0,0,0-1.831.72L6.03-12.573a9.984,9.984,0,0,1,2.4-.873,11.067,11.067,0,0,1,2.466-.3,5.84,5.84,0,0,1,3.888,1.123A4.4,4.4,0,0,1,16.1-9.094V0ZM9.778-1.953a3.553,3.553,0,0,0,2.509-.873,3.164,3.164,0,0,0,.946-2.448V-6.445L11.5-6.372a5.931,5.931,0,0,0-2.948.677,2.058,2.058,0,0,0-.922,1.849,1.8,1.8,0,0,0,.537,1.4A2.308,2.308,0,0,0,9.778-1.953Zm19.4-1.892a3.533,3.533,0,0,1-1.44,3.033A6.9,6.9,0,0,1,23.608.244a9.746,9.746,0,0,1-4.333-.818V-3.052a10.639,10.639,0,0,0,4.431,1.1q2.649,0,2.649-1.6a1.267,1.267,0,0,0-.293-.854,3.467,3.467,0,0,0-.964-.708,16.6,16.6,0,0,0-1.868-.83,8.639,8.639,0,0,1-3.156-1.807A3.343,3.343,0,0,1,19.25-10.1a3.078,3.078,0,0,1,1.4-2.692,6.633,6.633,0,0,1,3.8-.958,10.77,10.77,0,0,1,4.5.964l-.928,2.161a10.018,10.018,0,0,0-3.674-.9q-2.271,0-2.271,1.294a1.3,1.3,0,0,0,.592,1.074,13.02,13.02,0,0,0,2.582,1.208,11.8,11.8,0,0,1,2.429,1.184,3.539,3.539,0,0,1,1.123,1.239A3.586,3.586,0,0,1,29.175-3.845ZM44.214.244a5.911,5.911,0,0,1-4.657-1.788,7.472,7.472,0,0,1-1.593-5.133,7.514,7.514,0,0,1,1.666-5.237,6.181,6.181,0,0,1,4.816-1.831,9.025,9.025,0,0,1,3.845.793l-.867,2.307a8.688,8.688,0,0,0-3-.708q-3.5,0-3.5,4.651a5.57,5.57,0,0,0,.873,3.412,3.021,3.021,0,0,0,2.557,1.141A7.337,7.337,0,0,0,47.974-3.1V-.6a5.665,5.665,0,0,1-1.642.647A9.852,9.852,0,0,1,44.214.244ZM63.123-6.775a7.369,7.369,0,0,1-1.7,5.164A6.08,6.08,0,0,1,56.7.244,6.473,6.473,0,0,1,53.357-.61a5.641,5.641,0,0,1-2.234-2.454,8.357,8.357,0,0,1-.781-3.711A7.319,7.319,0,0,1,52.026-11.9a6.108,6.108,0,0,1,4.749-1.843,5.948,5.948,0,0,1,4.639,1.886A7.285,7.285,0,0,1,63.123-6.775Zm-9.827,0Q53.3-2.1,56.75-2.1q3.418,0,3.418-4.675,0-4.626-3.442-4.626a2.935,2.935,0,0,0-2.618,1.2A6.088,6.088,0,0,0,53.3-6.775ZM78.3,0H75.415V-8.3a3.633,3.633,0,0,0-.629-2.332,2.43,2.43,0,0,0-2-.769,3.174,3.174,0,0,0-2.661,1.074,5.931,5.931,0,0,0-.842,3.6V0H66.418V-13.5h2.246l.4,1.77h.146a3.994,3.994,0,0,1,1.733-1.489,5.809,5.809,0,0,1,2.49-.525q4.858,0,4.858,4.944ZM-79.626,30l-.574-1.88h-.1A5.531,5.531,0,0,1-82.263,29.8a6.215,6.215,0,0,1-2.539.446,4.3,4.3,0,0,1-3.107-1.074,4.02,4.02,0,0,1-1.117-3.04,3.569,3.569,0,0,1,1.55-3.149,8.939,8.939,0,0,1,4.724-1.16l2.332-.073v-.72a2.73,2.73,0,0,0-.6-1.935,2.464,2.464,0,0,0-1.874-.641,6.479,6.479,0,0,0-1.99.305,15.015,15.015,0,0,0-1.831.72l-.928-2.051a9.984,9.984,0,0,1,2.4-.873,11.067,11.067,0,0,1,2.466-.3,5.84,5.84,0,0,1,3.888,1.123,4.4,4.4,0,0,1,1.312,3.528V30ZM-83.9,28.047a3.553,3.553,0,0,0,2.509-.873,3.164,3.164,0,0,0,.946-2.448V23.555l-1.733.073a5.931,5.931,0,0,0-2.948.677,2.058,2.058,0,0,0-.922,1.849,1.8,1.8,0,0,0,.537,1.4A2.308,2.308,0,0,0-83.9,28.047Zm-.879-13.2v-.305q.7-.854,1.434-1.9t1.166-1.794h3.333V11.1a25.067,25.067,0,0,1-1.9,1.923,26.764,26.764,0,0,1-2.13,1.825ZM-61.694,30h-2.881V21.7a3.633,3.633,0,0,0-.629-2.332,2.43,2.43,0,0,0-2-.769,3.174,3.174,0,0,0-2.661,1.074,5.931,5.931,0,0,0-.842,3.6V30h-2.869V16.5h2.246l.4,1.77h.146a3.994,3.994,0,0,1,1.733-1.489,5.809,5.809,0,0,1,2.49-.525q4.858,0,4.858,4.944Zm6.86,0H-57.7V16.5h2.869Zm-3.04-17.078a1.588,1.588,0,0,1,.421-1.184,1.641,1.641,0,0,1,1.2-.415,1.606,1.606,0,0,1,1.178.415,1.588,1.588,0,0,1,.421,1.184,1.559,1.559,0,0,1-.421,1.154,1.592,1.592,0,0,1-1.178.421,1.627,1.627,0,0,1-1.2-.421A1.559,1.559,0,0,1-57.874,12.922ZM-39.355,30h-2.881V21.675a3.775,3.775,0,0,0-.586-2.313,2.162,2.162,0,0,0-1.831-.763,2.793,2.793,0,0,0-2.435,1.08,6.338,6.338,0,0,0-.775,3.595V30h-2.869V16.5h2.246l.4,1.77h.146a3.74,3.74,0,0,1,1.63-1.489,5.255,5.255,0,0,1,2.35-.525q3.113,0,4.126,2.124h.2a4.116,4.116,0,0,1,1.685-1.562,5.346,5.346,0,0,1,2.49-.562,4.535,4.535,0,0,1,3.522,1.221,5.406,5.406,0,0,1,1.1,3.723V30H-33.7V21.675a3.746,3.746,0,0,0-.592-2.313,2.18,2.18,0,0,0-1.837-.763,2.847,2.847,0,0,0-2.448,1.044,5.38,5.38,0,0,0-.775,3.2Zm24.5-6.775a7.369,7.369,0,0,1-1.7,5.164,6.08,6.08,0,0,1-4.724,1.855,6.473,6.473,0,0,1-3.345-.854,5.641,5.641,0,0,1-2.234-2.454,8.357,8.357,0,0,1-.781-3.711A7.319,7.319,0,0,1-25.952,18.1,6.108,6.108,0,0,1-21.2,16.255a5.948,5.948,0,0,1,4.639,1.886A7.285,7.285,0,0,1-14.856,23.225Zm-9.827,0q0,4.675,3.455,4.675,3.418,0,3.418-4.675,0-4.626-3.442-4.626a2.935,2.935,0,0,0-2.618,1.2A6.088,6.088,0,0,0-24.683,23.225Zm24.17,7.019a4.7,4.7,0,0,1-3.943-1.831,8.23,8.23,0,0,1-1.416-5.139A8.257,8.257,0,0,1-4.437,18.1,4.747,4.747,0,0,1-.464,16.255,4.654,4.654,0,0,1,3.589,18.22h.146a17.2,17.2,0,0,1-.208-2.295V11.006H6.409V30H4.163l-.5-1.77H3.528A4.586,4.586,0,0,1-.513,30.244Zm.769-2.319a3.122,3.122,0,0,0,2.576-.995,5.238,5.238,0,0,0,.83-3.229v-.4a6.051,6.051,0,0,0-.83-3.625A3.079,3.079,0,0,0,.232,18.6,2.638,2.638,0,0,0-2.1,19.825a6.287,6.287,0,0,0-.818,3.5,6.13,6.13,0,0,0,.793,3.424A2.679,2.679,0,0,0,.256,27.925Zm16.15,2.319a6.531,6.531,0,0,1-4.926-1.837A6.974,6.974,0,0,1,9.7,23.347a7.652,7.652,0,0,1,1.648-5.2,5.692,5.692,0,0,1,4.529-1.892A5.563,5.563,0,0,1,20.1,17.878a6.2,6.2,0,0,1,1.55,4.468V23.9h-9a4.434,4.434,0,0,0,1.062,3.021,3.7,3.7,0,0,0,2.82,1.056,10.41,10.41,0,0,0,2.228-.226A11.677,11.677,0,0,0,20.984,27v2.332a8.808,8.808,0,0,1-2.124.708A13.024,13.024,0,0,1,16.406,30.244Zm-.525-11.816a2.882,2.882,0,0,0-2.191.867,4.13,4.13,0,0,0-.983,2.527h6.128a3.737,3.737,0,0,0-.806-2.533A2.756,2.756,0,0,0,15.881,18.428ZM34.277,30H31.409V11.006h2.869ZM47.9,30l-.4-1.77h-.146a4.07,4.07,0,0,1-1.7,1.477,5.694,5.694,0,0,1-2.521.537,4.948,4.948,0,0,1-3.662-1.221,5.06,5.06,0,0,1-1.208-3.7V16.5H41.15v8.325a3.612,3.612,0,0,0,.635,2.325,2.423,2.423,0,0,0,1.99.775,3.168,3.168,0,0,0,2.655-1.08,5.953,5.953,0,0,0,.848-3.619V16.5h2.881V30Zm11.792.244a5.911,5.911,0,0,1-4.657-1.788,7.472,7.472,0,0,1-1.593-5.133,7.514,7.514,0,0,1,1.666-5.237,6.181,6.181,0,0,1,4.816-1.831,9.025,9.025,0,0,1,3.845.793L62.9,19.355a8.688,8.688,0,0,0-3-.708q-3.5,0-3.5,4.651a5.57,5.57,0,0,0,.873,3.412,3.021,3.021,0,0,0,2.557,1.141,7.337,7.337,0,0,0,3.625-.952v2.5a5.665,5.665,0,0,1-1.642.647A9.852,9.852,0,0,1,59.692,30.244ZM73.474,16.255a6.906,6.906,0,0,1,1.428.122l-.281,2.673a5.422,5.422,0,0,0-1.27-.146,3.674,3.674,0,0,0-2.789,1.123,4.059,4.059,0,0,0-1.068,2.917V30H66.626V16.5h2.246l.378,2.38H69.4a5.349,5.349,0,0,1,1.752-1.917A4.164,4.164,0,0,1,73.474,16.255Zm15.405,6.97a7.369,7.369,0,0,1-1.7,5.164,6.08,6.08,0,0,1-4.724,1.855,6.473,6.473,0,0,1-3.345-.854,5.641,5.641,0,0,1-2.234-2.454,8.357,8.357,0,0,1-.781-3.711A7.319,7.319,0,0,1,77.783,18.1a6.108,6.108,0,0,1,4.749-1.843,5.948,5.948,0,0,1,4.639,1.886A7.285,7.285,0,0,1,88.879,23.225Zm-9.827,0q0,4.675,3.455,4.675,3.418,0,3.418-4.675,0-4.626-3.442-4.626a2.935,2.935,0,0,0-2.618,1.2A6.088,6.088,0,0,0,79.053,23.225Z" transform="translate(960 1046)" fill="#212b53"/>
    <path id="Trazado_18465" data-name="Trazado 18465" d="M-118.842,0h-10.1V-17.847h10.1v2.466h-7.178v4.858h6.726v2.441h-6.726v5.6h7.178Zm14.929,0h-2.881V-8.325a3.775,3.775,0,0,0-.586-2.313,2.162,2.162,0,0,0-1.831-.763,2.793,2.793,0,0,0-2.435,1.08,6.338,6.338,0,0,0-.775,3.595V0h-2.869V-13.5h2.246l.4,1.77h.146a3.74,3.74,0,0,1,1.63-1.489,5.255,5.255,0,0,1,2.35-.525q3.113,0,4.126,2.124h.2a4.116,4.116,0,0,1,1.685-1.562,5.346,5.346,0,0,1,2.49-.562A4.535,4.535,0,0,1-96.5-12.524a5.406,5.406,0,0,1,1.1,3.723V0H-98.26V-8.325a3.746,3.746,0,0,0-.592-2.313,2.18,2.18,0,0,0-1.837-.763,2.847,2.847,0,0,0-2.448,1.044,5.38,5.38,0,0,0-.775,3.2ZM-84.54.244A4.729,4.729,0,0,1-88.519-1.6h-.171q.171,1.709.171,2.075v5.53h-2.869V-13.5h2.319q.1.378.4,1.807h.146a4.494,4.494,0,0,1,4.028-2.051,4.686,4.686,0,0,1,3.937,1.831,8.256,8.256,0,0,1,1.41,5.139,8.262,8.262,0,0,1-1.434,5.164A4.729,4.729,0,0,1-84.54.244Zm-.7-11.646a2.982,2.982,0,0,0-2.5,1,5.188,5.188,0,0,0-.787,3.2v.427A6.315,6.315,0,0,0-87.738-3.2a2.906,2.906,0,0,0,2.551,1.1A2.59,2.59,0,0,0-82.892-3.32,6.3,6.3,0,0,0-82.086-6.8a6.083,6.083,0,0,0-.8-3.436A2.667,2.667,0,0,0-85.236-11.4Zm16.272-2.344a6.906,6.906,0,0,1,1.428.122l-.281,2.673a5.422,5.422,0,0,0-1.27-.146,3.674,3.674,0,0,0-2.789,1.123,4.059,4.059,0,0,0-1.068,2.917V0h-2.869V-13.5h2.246l.378,2.38h.146a5.349,5.349,0,0,1,1.752-1.917A4.164,4.164,0,0,1-68.964-13.745ZM-59.637.244a6.531,6.531,0,0,1-4.926-1.837,6.974,6.974,0,0,1-1.776-5.06,7.652,7.652,0,0,1,1.648-5.2,5.692,5.692,0,0,1,4.529-1.892,5.563,5.563,0,0,1,4.224,1.624,6.2,6.2,0,0,1,1.55,4.468V-6.1h-9a4.434,4.434,0,0,0,1.062,3.021A3.7,3.7,0,0,0-59.5-2.026a10.41,10.41,0,0,0,2.228-.226A11.677,11.677,0,0,0-55.06-3V-.671a8.808,8.808,0,0,1-2.124.708A13.024,13.024,0,0,1-59.637.244Zm-.525-11.816a2.882,2.882,0,0,0-2.191.867,4.13,4.13,0,0,0-.983,2.527h6.128a3.737,3.737,0,0,0-.806-2.533A2.756,2.756,0,0,0-60.162-11.572Zm18.1,7.727A3.533,3.533,0,0,1-43.5-.812,6.9,6.9,0,0,1-47.626.244a9.746,9.746,0,0,1-4.333-.818V-3.052a10.639,10.639,0,0,0,4.431,1.1q2.649,0,2.649-1.6a1.267,1.267,0,0,0-.293-.854,3.467,3.467,0,0,0-.964-.708A16.6,16.6,0,0,0-48-5.945,8.639,8.639,0,0,1-51.16-7.751a3.343,3.343,0,0,1-.824-2.344,3.078,3.078,0,0,1,1.4-2.692,6.633,6.633,0,0,1,3.8-.958,10.77,10.77,0,0,1,4.5.964l-.928,2.161a10.018,10.018,0,0,0-3.674-.9q-2.271,0-2.271,1.294a1.3,1.3,0,0,0,.592,1.074,13.02,13.02,0,0,0,2.582,1.208,11.8,11.8,0,0,1,2.429,1.184,3.539,3.539,0,0,1,1.123,1.239A3.586,3.586,0,0,1-42.059-3.845ZM-30.511,0l-.574-1.88h-.1A5.531,5.531,0,0,1-33.148-.2a6.215,6.215,0,0,1-2.539.446A4.3,4.3,0,0,1-38.794-.83a4.02,4.02,0,0,1-1.117-3.04,3.569,3.569,0,0,1,1.55-3.149,8.939,8.939,0,0,1,4.724-1.16l2.332-.073v-.72a2.73,2.73,0,0,0-.6-1.935,2.464,2.464,0,0,0-1.874-.641,6.479,6.479,0,0,0-1.99.305,15.015,15.015,0,0,0-1.831.72l-.928-2.051a9.984,9.984,0,0,1,2.4-.873,11.067,11.067,0,0,1,2.466-.3,5.84,5.84,0,0,1,3.888,1.123,4.4,4.4,0,0,1,1.312,3.528V0Zm-4.272-1.953a3.553,3.553,0,0,0,2.509-.873,3.164,3.164,0,0,0,.946-2.448V-6.445l-1.733.073a5.931,5.931,0,0,0-2.948.677,2.058,2.058,0,0,0-.922,1.849,1.8,1.8,0,0,0,.537,1.4A2.308,2.308,0,0,0-34.784-1.953Zm19.4-1.892a3.533,3.533,0,0,1-1.44,3.033A6.9,6.9,0,0,1-20.953.244a9.746,9.746,0,0,1-4.333-.818V-3.052a10.639,10.639,0,0,0,4.431,1.1q2.649,0,2.649-1.6a1.267,1.267,0,0,0-.293-.854,3.467,3.467,0,0,0-.964-.708,16.6,16.6,0,0,0-1.868-.83,8.639,8.639,0,0,1-3.156-1.807,3.343,3.343,0,0,1-.824-2.344,3.078,3.078,0,0,1,1.4-2.692,6.633,6.633,0,0,1,3.8-.958,10.77,10.77,0,0,1,4.5.964l-.928,2.161a10.018,10.018,0,0,0-3.674-.9q-2.271,0-2.271,1.294a1.3,1.3,0,0,0,.592,1.074,13.02,13.02,0,0,0,2.582,1.208,11.8,11.8,0,0,1,2.429,1.184,3.539,3.539,0,0,1,1.123,1.239A3.586,3.586,0,0,1-15.387-3.845ZM2.655,0,2.081-1.88h-.1A5.531,5.531,0,0,1,.018-.2,6.215,6.215,0,0,1-2.521.244,4.3,4.3,0,0,1-5.627-.83,4.02,4.02,0,0,1-6.744-3.87a3.569,3.569,0,0,1,1.55-3.149A8.939,8.939,0,0,1-.47-8.179l2.332-.073v-.72a2.73,2.73,0,0,0-.6-1.935,2.464,2.464,0,0,0-1.874-.641,6.479,6.479,0,0,0-1.99.305,15.015,15.015,0,0,0-1.831.72l-.928-2.051a9.984,9.984,0,0,1,2.4-.873,11.067,11.067,0,0,1,2.466-.3,5.84,5.84,0,0,1,3.888,1.123A4.4,4.4,0,0,1,4.706-9.094V0ZM-1.617-1.953A3.553,3.553,0,0,0,.891-2.826a3.164,3.164,0,0,0,.946-2.448V-6.445L.1-6.372a5.931,5.931,0,0,0-2.948.677,2.058,2.058,0,0,0-.922,1.849,1.8,1.8,0,0,0,.537,1.4A2.308,2.308,0,0,0-1.617-1.953Zm19.4-1.892a3.533,3.533,0,0,1-1.44,3.033A6.9,6.9,0,0,1,12.213.244,9.746,9.746,0,0,1,7.88-.574V-3.052a10.639,10.639,0,0,0,4.431,1.1q2.649,0,2.649-1.6a1.267,1.267,0,0,0-.293-.854,3.467,3.467,0,0,0-.964-.708,16.6,16.6,0,0,0-1.868-.83A8.639,8.639,0,0,1,8.679-7.751,3.343,3.343,0,0,1,7.855-10.1a3.078,3.078,0,0,1,1.4-2.692,6.633,6.633,0,0,1,3.8-.958,10.77,10.77,0,0,1,4.5.964l-.928,2.161a10.018,10.018,0,0,0-3.674-.9q-2.271,0-2.271,1.294a1.3,1.3,0,0,0,.592,1.074,13.02,13.02,0,0,0,2.582,1.208A11.8,11.8,0,0,1,16.29-6.763a3.539,3.539,0,0,1,1.123,1.239A3.586,3.586,0,0,1,17.78-3.845Zm15.076-2.93a7.369,7.369,0,0,1-1.7,5.164A6.08,6.08,0,0,1,26.434.244,6.473,6.473,0,0,1,23.09-.61a5.641,5.641,0,0,1-2.234-2.454,8.357,8.357,0,0,1-.781-3.711A7.319,7.319,0,0,1,21.759-11.9a6.108,6.108,0,0,1,4.749-1.843,5.948,5.948,0,0,1,4.639,1.886A7.285,7.285,0,0,1,32.855-6.775Zm-9.827,0q0,4.675,3.455,4.675Q29.9-2.1,29.9-6.775q0-4.626-3.442-4.626a2.935,2.935,0,0,0-2.618,1.2A6.088,6.088,0,0,0,23.029-6.775ZM41.6.244a5.911,5.911,0,0,1-4.657-1.788,7.472,7.472,0,0,1-1.593-5.133,7.514,7.514,0,0,1,1.666-5.237,6.181,6.181,0,0,1,4.816-1.831,9.025,9.025,0,0,1,3.845.793l-.867,2.307a8.688,8.688,0,0,0-3-.708q-3.5,0-3.5,4.651a5.57,5.57,0,0,0,.873,3.412A3.021,3.021,0,0,0,41.73-2.148,7.337,7.337,0,0,0,45.355-3.1V-.6a5.665,5.665,0,0,1-1.642.647A9.852,9.852,0,0,1,41.6.244ZM51.4,0H48.529V-13.5H51.4Zm-3.04-17.078a1.588,1.588,0,0,1,.421-1.184,1.641,1.641,0,0,1,1.2-.415,1.606,1.606,0,0,1,1.178.415,1.588,1.588,0,0,1,.421,1.184,1.559,1.559,0,0,1-.421,1.154,1.592,1.592,0,0,1-1.178.421,1.627,1.627,0,0,1-1.2-.421A1.559,1.559,0,0,1,48.358-17.078ZM63.947,0l-.574-1.88h-.1A5.531,5.531,0,0,1,61.31-.2a6.215,6.215,0,0,1-2.539.446A4.3,4.3,0,0,1,55.664-.83a4.02,4.02,0,0,1-1.117-3.04A3.569,3.569,0,0,1,56.1-7.019a8.939,8.939,0,0,1,4.724-1.16l2.332-.073v-.72a2.73,2.73,0,0,0-.6-1.935,2.464,2.464,0,0,0-1.874-.641,6.479,6.479,0,0,0-1.99.305,15.015,15.015,0,0,0-1.831.72l-.928-2.051a9.984,9.984,0,0,1,2.4-.873,11.067,11.067,0,0,1,2.466-.3,5.84,5.84,0,0,1,3.888,1.123A4.4,4.4,0,0,1,66-9.094V0ZM59.674-1.953a3.553,3.553,0,0,0,2.509-.873,3.164,3.164,0,0,0,.946-2.448V-6.445L61.4-6.372a5.931,5.931,0,0,0-2.948.677,2.058,2.058,0,0,0-.922,1.849,1.8,1.8,0,0,0,.537,1.4A2.308,2.308,0,0,0,59.674-1.953Zm15.356-.122a6.976,6.976,0,0,0,2.1-.33V-.244A5.791,5.791,0,0,1,75.9.1a8.452,8.452,0,0,1-1.556.14q-4.077,0-4.077-4.3v-7.275H68.427V-12.6l1.978-1.05.977-2.856h1.77v3H77v2.173H73.151V-4.1a2.027,2.027,0,0,0,.519,1.532A1.891,1.891,0,0,0,75.031-2.075ZM82.7,0H79.828V-13.5H82.7Zm-3.04-17.078a1.588,1.588,0,0,1,.421-1.184,1.641,1.641,0,0,1,1.2-.415,1.606,1.606,0,0,1,1.178.415,1.588,1.588,0,0,1,.421,1.184,1.559,1.559,0,0,1-.421,1.154,1.592,1.592,0,0,1-1.178.421,1.627,1.627,0,0,1-1.2-.421A1.559,1.559,0,0,1,79.657-17.078ZM89.874,0,84.747-13.5h3.027l2.747,7.849a15.553,15.553,0,0,1,.854,3.2h.1a21.475,21.475,0,0,1,.854-3.2L95.074-13.5h3.052L92.975,0Zm18.75,0-.574-1.88h-.1A5.531,5.531,0,0,1,105.988-.2a6.215,6.215,0,0,1-2.539.446A4.3,4.3,0,0,1,100.342-.83a4.02,4.02,0,0,1-1.117-3.04,3.569,3.569,0,0,1,1.55-3.149,8.939,8.939,0,0,1,4.724-1.16l2.332-.073v-.72a2.73,2.73,0,0,0-.6-1.935,2.464,2.464,0,0,0-1.874-.641,6.479,6.479,0,0,0-1.99.305,15.015,15.015,0,0,0-1.831.72l-.928-2.051a9.984,9.984,0,0,1,2.4-.873,11.067,11.067,0,0,1,2.466-.3,5.84,5.84,0,0,1,3.888,1.123,4.4,4.4,0,0,1,1.312,3.528V0Zm-4.272-1.953a3.553,3.553,0,0,0,2.509-.873,3.164,3.164,0,0,0,.946-2.448V-6.445l-1.733.073a5.931,5.931,0,0,0-2.948.677,2.058,2.058,0,0,0-.922,1.849,1.8,1.8,0,0,0,.537,1.4A2.308,2.308,0,0,0,104.352-1.953Zm19.4-1.892a3.533,3.533,0,0,1-1.44,3.033A6.9,6.9,0,0,1,118.182.244a9.746,9.746,0,0,1-4.333-.818V-3.052a10.639,10.639,0,0,0,4.431,1.1q2.649,0,2.649-1.6a1.267,1.267,0,0,0-.293-.854,3.467,3.467,0,0,0-.964-.708,16.6,16.6,0,0,0-1.868-.83,8.64,8.64,0,0,1-3.156-1.807,3.343,3.343,0,0,1-.824-2.344,3.078,3.078,0,0,1,1.4-2.692,6.633,6.633,0,0,1,3.8-.958,10.77,10.77,0,0,1,4.5.964L122.6-10.62a10.018,10.018,0,0,0-3.674-.9q-2.271,0-2.271,1.294a1.3,1.3,0,0,0,.592,1.074,13.02,13.02,0,0,0,2.582,1.208,11.8,11.8,0,0,1,2.429,1.184,3.539,3.539,0,0,1,1.123,1.239A3.586,3.586,0,0,1,123.749-3.845ZM-90.747,16.5h3.125l2.747,7.654a14.522,14.522,0,0,1,.83,3.076h.1a12.831,12.831,0,0,1,.4-1.63q.293-.958,3.1-9.1h3.1l-5.774,15.3q-1.575,4.211-5.249,4.211a8.26,8.26,0,0,1-1.855-.208V33.528a6.723,6.723,0,0,0,1.477.146q2.075,0,2.917-2.4l.5-1.27Zm27.393,13.745a5.911,5.911,0,0,1-4.657-1.788A7.472,7.472,0,0,1-69.6,23.323a7.514,7.514,0,0,1,1.666-5.237,6.181,6.181,0,0,1,4.816-1.831,9.025,9.025,0,0,1,3.845.793l-.867,2.307a8.688,8.688,0,0,0-3-.708q-3.5,0-3.5,4.651a5.57,5.57,0,0,0,.873,3.412,3.021,3.021,0,0,0,2.557,1.141,7.337,7.337,0,0,0,3.625-.952v2.5a5.665,5.665,0,0,1-1.642.647A9.852,9.852,0,0,1-63.354,30.244Zm18.909-7.019a7.369,7.369,0,0,1-1.7,5.164,6.08,6.08,0,0,1-4.724,1.855,6.473,6.473,0,0,1-3.345-.854,5.641,5.641,0,0,1-2.234-2.454,8.357,8.357,0,0,1-.781-3.711A7.319,7.319,0,0,1-55.542,18.1a6.108,6.108,0,0,1,4.749-1.843,5.948,5.948,0,0,1,4.639,1.886A7.285,7.285,0,0,1-44.446,23.225Zm-9.827,0q0,4.675,3.455,4.675,3.418,0,3.418-4.675,0-4.626-3.442-4.626a2.935,2.935,0,0,0-2.618,1.2A6.088,6.088,0,0,0-54.272,23.225ZM-38.281,30H-41.15V11.006h2.869Zm12.549,0-.574-1.88h-.1A5.531,5.531,0,0,1-28.369,29.8a6.215,6.215,0,0,1-2.539.446,4.3,4.3,0,0,1-3.107-1.074,4.02,4.02,0,0,1-1.117-3.04,3.569,3.569,0,0,1,1.55-3.149,8.939,8.939,0,0,1,4.724-1.16l2.332-.073v-.72a2.73,2.73,0,0,0-.6-1.935A2.464,2.464,0,0,0-29,18.452a6.479,6.479,0,0,0-1.99.305,15.015,15.015,0,0,0-1.831.72l-.928-2.051a9.984,9.984,0,0,1,2.4-.873,11.067,11.067,0,0,1,2.466-.3,5.84,5.84,0,0,1,3.888,1.123,4.4,4.4,0,0,1,1.312,3.528V30ZM-30,28.047a3.553,3.553,0,0,0,2.509-.873,3.164,3.164,0,0,0,.946-2.448V23.555l-1.733.073a5.931,5.931,0,0,0-2.948.677,2.058,2.058,0,0,0-.922,1.849,1.8,1.8,0,0,0,.537,1.4A2.308,2.308,0,0,0-30,28.047Zm17.224-11.792a4.686,4.686,0,0,1,3.937,1.831,8.256,8.256,0,0,1,1.41,5.139,8.282,8.282,0,0,1-1.428,5.17,4.731,4.731,0,0,1-3.967,1.849A4.729,4.729,0,0,1-16.809,28.4H-17l-.525,1.6h-2.148V11.006h2.869v4.517q0,.5-.049,1.489t-.073,1.257h.122A4.556,4.556,0,0,1-12.781,16.255Zm-.745,2.344a2.916,2.916,0,0,0-2.5,1.019,5.93,5.93,0,0,0-.787,3.412v.2a6.315,6.315,0,0,0,.781,3.571,2.906,2.906,0,0,0,2.551,1.1,2.586,2.586,0,0,0,2.313-1.208,6.41,6.41,0,0,0,.787-3.491Q-10.376,18.6-13.525,18.6Zm21.4,4.626a7.369,7.369,0,0,1-1.7,5.164,6.08,6.08,0,0,1-4.724,1.855,6.473,6.473,0,0,1-3.345-.854,5.641,5.641,0,0,1-2.234-2.454,8.357,8.357,0,0,1-.781-3.711A7.319,7.319,0,0,1-3.223,18.1a6.108,6.108,0,0,1,4.749-1.843,5.948,5.948,0,0,1,4.639,1.886A7.285,7.285,0,0,1,7.874,23.225Zm-9.827,0q0,4.675,3.455,4.675,3.418,0,3.418-4.675,0-4.626-3.442-4.626a2.935,2.935,0,0,0-2.618,1.2A6.088,6.088,0,0,0-1.953,23.225Zm19.971-6.97a6.905,6.905,0,0,1,1.428.122l-.281,2.673A5.422,5.422,0,0,0,17.9,18.9a3.674,3.674,0,0,0-2.789,1.123,4.059,4.059,0,0,0-1.068,2.917V30H11.169V16.5h2.246l.378,2.38h.146a5.349,5.349,0,0,1,1.752-1.917A4.164,4.164,0,0,1,18.018,16.255ZM29.9,30l-.574-1.88h-.1A5.531,5.531,0,0,1,27.258,29.8a6.215,6.215,0,0,1-2.539.446,4.3,4.3,0,0,1-3.107-1.074A4.02,4.02,0,0,1,20.5,26.13a3.569,3.569,0,0,1,1.55-3.149,8.939,8.939,0,0,1,4.724-1.16l2.332-.073v-.72a2.73,2.73,0,0,0-.6-1.935,2.464,2.464,0,0,0-1.874-.641,6.479,6.479,0,0,0-1.99.305,15.015,15.015,0,0,0-1.831.72l-.928-2.051a9.984,9.984,0,0,1,2.4-.873,11.067,11.067,0,0,1,2.466-.3,5.84,5.84,0,0,1,3.888,1.123,4.4,4.4,0,0,1,1.312,3.528V30Zm-4.272-1.953a3.553,3.553,0,0,0,2.509-.873,3.164,3.164,0,0,0,.946-2.448V23.555l-1.733.073a5.931,5.931,0,0,0-2.948.677,2.058,2.058,0,0,0-.922,1.849,1.8,1.8,0,0,0,.537,1.4A2.308,2.308,0,0,0,25.623,28.047Zm15.356-.122a6.976,6.976,0,0,0,2.1-.33v2.161a5.791,5.791,0,0,1-1.227.348,8.452,8.452,0,0,1-1.556.14q-4.077,0-4.077-4.3V18.672H34.375V17.4l1.978-1.05.977-2.856H39.1v3h3.845v2.173H39.1V25.9a2.027,2.027,0,0,0,.519,1.532A1.891,1.891,0,0,0,40.979,27.925ZM48.645,30H45.776V16.5h2.869Zm-3.04-17.078a1.588,1.588,0,0,1,.421-1.184,1.641,1.641,0,0,1,1.2-.415,1.606,1.606,0,0,1,1.178.415,1.588,1.588,0,0,1,.421,1.184,1.559,1.559,0,0,1-.421,1.154,1.592,1.592,0,0,1-1.178.421,1.627,1.627,0,0,1-1.2-.421A1.559,1.559,0,0,1,45.605,12.922ZM55.823,30,50.7,16.5h3.027l2.747,7.849a15.553,15.553,0,0,1,.854,3.2h.1a21.475,21.475,0,0,1,.854-3.2L61.023,16.5h3.052L58.923,30Zm18.75,0L74,28.12h-.1A5.531,5.531,0,0,1,71.936,29.8a6.215,6.215,0,0,1-2.539.446A4.3,4.3,0,0,1,66.29,29.17a4.02,4.02,0,0,1-1.117-3.04,3.569,3.569,0,0,1,1.55-3.149,8.939,8.939,0,0,1,4.724-1.16l2.332-.073v-.72a2.73,2.73,0,0,0-.6-1.935,2.464,2.464,0,0,0-1.874-.641,6.479,6.479,0,0,0-1.99.305,15.015,15.015,0,0,0-1.831.72l-.928-2.051a9.984,9.984,0,0,1,2.4-.873,11.067,11.067,0,0,1,2.466-.3,5.84,5.84,0,0,1,3.888,1.123,4.4,4.4,0,0,1,1.312,3.528V30ZM70.3,28.047a3.553,3.553,0,0,0,2.509-.873,3.164,3.164,0,0,0,.946-2.448V23.555l-1.733.073a5.931,5.931,0,0,0-2.948.677,2.058,2.058,0,0,0-.922,1.849,1.8,1.8,0,0,0,.537,1.4A2.308,2.308,0,0,0,70.3,28.047Zm19.4-1.892a3.533,3.533,0,0,1-1.44,3.033,6.9,6.9,0,0,1-4.126,1.056,9.746,9.746,0,0,1-4.333-.818V26.948a10.639,10.639,0,0,0,4.431,1.1q2.649,0,2.649-1.6a1.267,1.267,0,0,0-.293-.854,3.467,3.467,0,0,0-.964-.708,16.6,16.6,0,0,0-1.868-.83A8.64,8.64,0,0,1,80.6,22.249a3.343,3.343,0,0,1-.824-2.344,3.078,3.078,0,0,1,1.4-2.692,6.633,6.633,0,0,1,3.8-.958,10.77,10.77,0,0,1,4.5.964L88.55,19.38a10.018,10.018,0,0,0-3.674-.9q-2.271,0-2.271,1.294a1.3,1.3,0,0,0,.592,1.074,13.02,13.02,0,0,0,2.582,1.208,11.8,11.8,0,0,1,2.429,1.184,3.539,3.539,0,0,1,1.123,1.239A3.586,3.586,0,0,1,89.7,26.155Z" transform="translate(1376 1046)" fill="#212b53"/>
  </g>
</svg>
