<svg xmlns="http://www.w3.org/2000/svg" width="656.841" height="613.697" viewBox="0 0 656.841 613.697">
  <g id="Grupo_9360" data-name="Grupo 9360" transform="translate(-238.404 -121.187)">
    <g id="Grupo_8966" data-name="Grupo 8966" transform="translate(240.718 261.85)">
      <path id="Trazado_12673" data-name="Trazado 12673" d="M272.048,825.67H245.509v-7.136h23.583l39.853-39.853,28.978,28.977,69.221-69.221,21.292,21.292,70.183-70.183L540.676,731.6h47.95l74.01-74.01h63.828l47.186-47.186h57.759l57.311-57.31,5.047,5.047-59.4,59.4H776.607l-47.186,47.186H665.592l-74.009,74.01H537.72l-39.1-39.1L428.436,769.82l-21.292-21.292L337.923,817.75l-28.978-28.977Z" transform="translate(-245.509 -553.095)" fill="#ffd236"/>
    </g>
    <g id="Grupo_8967" data-name="Grupo 8967" transform="translate(238.404 296.348)">
      <path id="Trazado_12674" data-name="Trazado 12674" d="M243.032,945.32l-4.628-5.432L315.2,874.465h46.639l105.82-90.15L533.84,840.7h48.806l24.669,21.016,76.641-65.293h38.9l161.282-137.4,4.628,5.433-163.282,139.1h-38.9l-79.268,67.531-27.3-23.254H531.213l-63.557-54.145L364.465,881.6H317.825Z" transform="translate(-238.404 -659.021)" fill="#ffaa3f"/>
    </g>
    <rect id="Rectángulo_1890" data-name="Rectángulo 1890" width="84.738" height="342.864" transform="translate(289.269 349.821)" fill="#fff"/>
    <rect id="Rectángulo_1891" data-name="Rectángulo 1891" width="84.738" height="194.246" transform="translate(289.269 498.438)" fill="#00c0c2"/>
    <rect id="Rectángulo_1892" data-name="Rectángulo 1892" width="84.738" height="171.432" transform="translate(289.269 521.252)" fill="#00858a"/>
    <rect id="Rectángulo_1893" data-name="Rectángulo 1893" width="84.739" height="439.335" transform="translate(405.295 253.349)" fill="#fff"/>
    <rect id="Rectángulo_1894" data-name="Rectángulo 1894" width="84.739" height="248.901" transform="translate(405.295 443.783)" fill="#00c0c2"/>
    <rect id="Rectángulo_1895" data-name="Rectángulo 1895" width="84.739" height="219.667" transform="translate(405.295 473.017)" fill="#00858a"/>
    <rect id="Rectángulo_1896" data-name="Rectángulo 1896" width="84.738" height="514.947" transform="translate(521.321 177.737)" fill="#fff"/>
    <rect id="Rectángulo_1897" data-name="Rectángulo 1897" width="84.738" height="291.738" transform="translate(521.321 400.946)" fill="#00c0c2"/>
    <rect id="Rectángulo_1898" data-name="Rectángulo 1898" width="84.738" height="257.474" transform="translate(521.321 435.21)" fill="#00858a"/>
    <rect id="Rectángulo_1899" data-name="Rectángulo 1899" width="84.738" height="439.335" transform="translate(637.347 253.349)" fill="#fff"/>
    <rect id="Rectángulo_1900" data-name="Rectángulo 1900" width="84.738" height="248.901" transform="translate(637.347 443.783)" fill="#00c0c2"/>
    <rect id="Rectángulo_1901" data-name="Rectángulo 1901" width="84.738" height="219.667" transform="translate(637.347 473.017)" fill="#00858a"/>
    <rect id="Rectángulo_1902" data-name="Rectángulo 1902" width="84.738" height="554.057" transform="translate(753.374 138.627)" fill="#fff"/>
    <rect id="Rectángulo_1903" data-name="Rectángulo 1903" width="84.738" height="313.896" transform="translate(753.374 378.789)" fill="#00c0c2"/>
    <rect id="Rectángulo_1904" data-name="Rectángulo 1904" width="84.738" height="277.029" transform="translate(753.374 415.656)" fill="#00858a"/>
    <g id="Grupo_8982" data-name="Grupo 8982" transform="translate(461.029 140.968)">
      <g id="Grupo_8974" data-name="Grupo 8974">
        <g id="Grupo_8968" data-name="Grupo 8968">
          <path id="Rectángulo_1905" data-name="Rectángulo 1905" d="M3.565,0H20.1a3.566,3.566,0,0,1,3.566,3.566v0A3.565,3.565,0,0,1,20.1,7.132H3.565A3.565,3.565,0,0,1,0,3.566v0A3.565,3.565,0,0,1,3.565,0Z" fill="#ffaa3f"/>
        </g>
        <g id="Grupo_8969" data-name="Grupo 8969" transform="translate(0 17.101)">
          <path id="Rectángulo_1906" data-name="Rectángulo 1906" d="M3.565,0H20.1a3.566,3.566,0,0,1,3.566,3.566v0A3.565,3.565,0,0,1,20.1,7.132H3.565A3.565,3.565,0,0,1,0,3.566v0A3.565,3.565,0,0,1,3.565,0Z" fill="#fff"/>
        </g>
        <g id="Grupo_8970" data-name="Grupo 8970" transform="translate(0 34.201)">
          <path id="Rectángulo_1907" data-name="Rectángulo 1907" d="M3.565,0H20.1a3.566,3.566,0,0,1,3.566,3.566v0A3.566,3.566,0,0,1,20.1,7.132H3.565A3.565,3.565,0,0,1,0,3.567v0A3.565,3.565,0,0,1,3.565,0Z" fill="#fff"/>
        </g>
        <g id="Grupo_8971" data-name="Grupo 8971" transform="translate(0 51.302)">
          <path id="Rectángulo_1908" data-name="Rectángulo 1908" d="M3.565,0H20.1a3.566,3.566,0,0,1,3.566,3.566v0A3.566,3.566,0,0,1,20.1,7.132H3.565A3.565,3.565,0,0,1,0,3.567v0A3.565,3.565,0,0,1,3.565,0Z" fill="#fff"/>
        </g>
        <g id="Grupo_8972" data-name="Grupo 8972" transform="translate(0 68.402)">
          <path id="Rectángulo_1909" data-name="Rectángulo 1909" d="M3.565,0H20.1a3.566,3.566,0,0,1,3.566,3.566v0A3.565,3.565,0,0,1,20.1,7.132H3.565A3.565,3.565,0,0,1,0,3.566v0A3.565,3.565,0,0,1,3.565,0Z" fill="#fff"/>
        </g>
        <g id="Grupo_8973" data-name="Grupo 8973" transform="translate(0 85.503)">
          <path id="Rectángulo_1910" data-name="Rectángulo 1910" d="M3.565,0H20.1a3.566,3.566,0,0,1,3.566,3.566v0A3.565,3.565,0,0,1,20.1,7.132H3.565A3.565,3.565,0,0,1,0,3.566v0A3.565,3.565,0,0,1,3.565,0Z" fill="#fff"/>
        </g>
      </g>
      <g id="Grupo_8981" data-name="Grupo 8981" transform="translate(33.435)">
        <g id="Grupo_8975" data-name="Grupo 8975">
          <rect id="Rectángulo_1911" data-name="Rectángulo 1911" width="6.733" height="7.132" rx="3.367" fill="#ffaa3f"/>
        </g>
        <g id="Grupo_8976" data-name="Grupo 8976" transform="translate(0 17.101)">
          <rect id="Rectángulo_1912" data-name="Rectángulo 1912" width="6.733" height="7.132" rx="3.367" fill="#fff"/>
        </g>
        <g id="Grupo_8977" data-name="Grupo 8977" transform="translate(0 34.201)">
          <rect id="Rectángulo_1913" data-name="Rectángulo 1913" width="6.733" height="7.132" rx="3.367" fill="#fff"/>
        </g>
        <g id="Grupo_8978" data-name="Grupo 8978" transform="translate(0 51.302)">
          <rect id="Rectángulo_1914" data-name="Rectángulo 1914" width="6.733" height="7.132" rx="3.367" fill="#fff"/>
        </g>
        <g id="Grupo_8979" data-name="Grupo 8979" transform="translate(0 68.402)">
          <rect id="Rectángulo_1915" data-name="Rectángulo 1915" width="6.733" height="7.132" rx="3.367" fill="#fff"/>
        </g>
        <g id="Grupo_8980" data-name="Grupo 8980" transform="translate(0 85.503)">
          <rect id="Rectángulo_1916" data-name="Rectángulo 1916" width="6.733" height="7.132" rx="3.367" fill="#fff"/>
        </g>
      </g>
    </g>
    <g id="Grupo_9021" data-name="Grupo 9021" transform="translate(470.531 540.186)">
      <g id="Grupo_8985" data-name="Grupo 8985" transform="translate(4.455 44.326)">
        <g id="Grupo_8984" data-name="Grupo 8984">
          <g id="Grupo_8983" data-name="Grupo 8983">
            <path id="Trazado_12675" data-name="Trazado 12675" d="M971.465,1682.917l-5.5-137.991h95.067l5.5,138.034,1.092-.044-5.54-139.083H964.831l5.542,139.127Z" transform="translate(-964.831 -1543.833)" fill="#00c0c2"/>
          </g>
        </g>
      </g>
      <g id="Grupo_8988" data-name="Grupo 8988" transform="translate(0 44.326)">
        <g id="Grupo_8987" data-name="Grupo 8987">
          <g id="Grupo_8986" data-name="Grupo 8986">
            <path id="Trazado_12676" data-name="Trazado 12676" d="M957.743,1544.926h95.067l-5.5,137.991,1.092.044,5.542-139.127H956.693l-5.54,139.083,1.092.044Z" transform="translate(-951.153 -1543.833)" fill="#00c0c2"/>
          </g>
        </g>
      </g>
      <g id="Grupo_8990" data-name="Grupo 8990" transform="translate(0.546)">
        <g id="Grupo_8989" data-name="Grupo 8989">
          <path id="Trazado_12677" data-name="Trazado 12677" d="M1048.991,1546.289H952.83l5.519-138.559h96.161Z" transform="translate(-952.83 -1407.731)" fill="#b1e2e3"/>
        </g>
      </g>
      <g id="Grupo_8992" data-name="Grupo 8992" transform="translate(7.735)">
        <g id="Grupo_8991" data-name="Grupo 8991">
          <path id="Trazado_12678" data-name="Trazado 12678" d="M980.423,1546.289h96.161l-5.519-138.559H974.9Z" transform="translate(-974.904 -1407.731)" fill="#00c0c2"/>
        </g>
      </g>
      <g id="Grupo_8995" data-name="Grupo 8995" transform="translate(89.099 84.929)">
        <g id="Grupo_8994" data-name="Grupo 8994">
          <g id="Grupo_8993" data-name="Grupo 8993">
            <rect id="Rectángulo_1917" data-name="Rectángulo 1917" width="4.833" height="36.783" fill="#b1e2e3"/>
          </g>
        </g>
      </g>
      <g id="Grupo_8998" data-name="Grupo 8998" transform="translate(79.55 89.052)">
        <g id="Grupo_8997" data-name="Grupo 8997">
          <g id="Grupo_8996" data-name="Grupo 8996">
            <rect id="Rectángulo_1918" data-name="Rectángulo 1918" width="4.833" height="32.661" fill="#b1e2e3"/>
          </g>
        </g>
      </g>
      <g id="Grupo_9001" data-name="Grupo 9001" transform="translate(69.176 94.414)">
        <g id="Grupo_9000" data-name="Grupo 9000">
          <g id="Grupo_8999" data-name="Grupo 8999">
            <rect id="Rectángulo_1919" data-name="Rectángulo 1919" width="4.833" height="27.299" fill="#b1e2e3"/>
          </g>
        </g>
      </g>
      <g id="Grupo_9004" data-name="Grupo 9004" transform="translate(58.521 101.175)">
        <g id="Grupo_9003" data-name="Grupo 9003">
          <g id="Grupo_9002" data-name="Grupo 9002">
            <rect id="Rectángulo_1920" data-name="Rectángulo 1920" width="4.833" height="20.538" fill="#b1e2e3"/>
          </g>
        </g>
      </g>
      <g id="Grupo_9006" data-name="Grupo 9006" transform="translate(28.634 9.031)">
        <g id="Grupo_9005" data-name="Grupo 9005">
          <path id="Trazado_12679" data-name="Trazado 12679" d="M1040.121,1523.246l-1.048-.373,9.114-25.568,19.765-5.228,7.1-28.063,15.253-6.732,3.416-21.821,1.1.172-3.51,22.421L1076,1464.812l-7.131,28.172-19.832,5.246Z" transform="translate(-1039.073 -1435.461)" fill="#b1e2e3"/>
        </g>
      </g>
      <g id="Grupo_9007" data-name="Grupo 9007" transform="translate(55.006 63.135)">
        <path id="Trazado_12680" data-name="Trazado 12680" d="M1125.312,1602.675a2.966,2.966,0,1,1-4.174-.419A2.966,2.966,0,0,1,1125.312,1602.675Z" transform="translate(-1120.049 -1601.586)" fill="#fdb056"/>
      </g>
      <g id="Grupo_9008" data-name="Grupo 9008" transform="translate(54.451 62.58)">
        <path id="Trazado_12681" data-name="Trazado 12681" d="M1124.1,1606.132a3.522,3.522,0,1,1,.5-4.956A3.526,3.526,0,0,1,1124.1,1606.132Zm-3.754-4.593a2.41,2.41,0,1,0,3.391.341A2.412,2.412,0,0,0,1120.341,1601.539Z" transform="translate(-1118.346 -1599.884)" fill="#b1e2e3"/>
      </g>
      <g id="Grupo_9009" data-name="Grupo 9009" transform="translate(62.202 35.187)">
        <path id="Trazado_12682" data-name="Trazado 12682" d="M1147.41,1516.861a2.966,2.966,0,1,1-4.174-.42A2.967,2.967,0,0,1,1147.41,1516.861Z" transform="translate(-1142.147 -1515.772)" fill="#fcb355"/>
      </g>
      <g id="Grupo_9010" data-name="Grupo 9010" transform="translate(61.648 34.632)">
        <path id="Trazado_12683" data-name="Trazado 12683" d="M1146.193,1520.317a3.522,3.522,0,1,1,.5-4.957A3.527,3.527,0,0,1,1146.193,1520.317Zm-3.754-4.594a2.41,2.41,0,1,0,3.391.341A2.413,2.413,0,0,0,1142.439,1515.723Z" transform="translate(-1140.443 -1514.069)" fill="#b1e2e3"/>
      </g>
      <g id="Grupo_9011" data-name="Grupo 9011" transform="translate(77.22 28.263)">
        <path id="Trazado_12684" data-name="Trazado 12684" d="M1193.521,1495.6a2.966,2.966,0,1,1-4.174-.419A2.966,2.966,0,0,1,1193.521,1495.6Z" transform="translate(-1188.258 -1494.513)" fill="#fcb355"/>
      </g>
      <g id="Grupo_9012" data-name="Grupo 9012" transform="translate(76.665 27.709)">
        <path id="Trazado_12685" data-name="Trazado 12685" d="M1192.305,1499.058a3.522,3.522,0,1,1,.5-4.956A3.526,3.526,0,0,1,1192.305,1499.058Zm-3.754-4.593a2.41,2.41,0,1,0,3.391.341A2.413,2.413,0,0,0,1188.551,1494.465Z" transform="translate(-1186.555 -1492.81)" fill="#b1e2e3"/>
      </g>
      <g id="Grupo_9013" data-name="Grupo 9013" transform="translate(35.318 68.624)">
        <path id="Trazado_12686" data-name="Trazado 12686" d="M1064.86,1619.53a2.966,2.966,0,1,1-4.174-.419A2.967,2.967,0,0,1,1064.86,1619.53Z" transform="translate(-1059.597 -1618.441)" fill="#fdb255"/>
      </g>
      <g id="Grupo_9014" data-name="Grupo 9014" transform="translate(34.763 68.069)">
        <path id="Trazado_12687" data-name="Trazado 12687" d="M1063.644,1622.986a3.522,3.522,0,1,1,.5-4.956A3.527,3.527,0,0,1,1063.644,1622.986Zm-3.754-4.593a2.41,2.41,0,1,0,3.391.341A2.413,2.413,0,0,0,1059.889,1618.393Z" transform="translate(-1057.894 -1616.738)" fill="#b1e2e3"/>
      </g>
      <g id="Grupo_9017" data-name="Grupo 9017" transform="translate(20.471 35.724)">
        <g id="Grupo_9016" data-name="Grupo 9016">
          <g id="Grupo_9015" data-name="Grupo 9015">
            <path id="Rectángulo_1921" data-name="Rectángulo 1921" d="M.4,0H29.3a.394.394,0,0,1,.394.394V5.755a.4.4,0,0,1-.4.4H.4a.4.4,0,0,1-.4-.4V.4A.4.4,0,0,1,.4,0Z" fill="#e9e9e9"/>
          </g>
        </g>
      </g>
      <g id="Grupo_9020" data-name="Grupo 9020" transform="translate(20.471 24.97)">
        <g id="Grupo_9019" data-name="Grupo 9019">
          <g id="Grupo_9018" data-name="Grupo 9018">
            <path id="Rectángulo_1922" data-name="Rectángulo 1922" d="M.4,0H29.3a.394.394,0,0,1,.394.394V5.757a.395.395,0,0,1-.395.395H.4a.4.4,0,0,1-.4-.4V.4A.4.4,0,0,1,.4,0Z" fill="#e9e9e9"/>
          </g>
        </g>
      </g>
    </g>
    <g id="Grupo_9080" data-name="Grupo 9080" transform="translate(389.44 456.064)">
      <g id="Grupo_9026" data-name="Grupo 9026" transform="translate(23.049 11.436)">
        <g id="Grupo_9025" data-name="Grupo 9025">
          <g id="Grupo_9024" data-name="Grupo 9024">
            <g id="Grupo_9023" data-name="Grupo 9023">
              <g id="Grupo_9022" data-name="Grupo 9022">
                <path id="Trazado_12688" data-name="Trazado 12688" d="M793.887,1186.335s8.147,3.985,6.133,14.827-2.906,12.3-.653,16.538,4.912,22.307,2.884,25.732-25.1-15.052-28.3-30.554,2.028-22.4,3.876-24.966S786.695,1182.685,793.887,1186.335Z" transform="translate(-772.937 -1184.546)" fill="#0d2d3d"/>
              </g>
            </g>
          </g>
        </g>
      </g>
      <g id="Grupo_9028" data-name="Grupo 9028" transform="translate(58.784)">
        <g id="Grupo_9027" data-name="Grupo 9027">
          <path id="Trazado_12689" data-name="Trazado 12689" d="M908.725,1149.432H882.659V1172.3l3.979-3.979h22.087Z" transform="translate(-882.659 -1149.432)" fill="#fdc955"/>
        </g>
      </g>
      <g id="Grupo_9029" data-name="Grupo 9029" transform="translate(39.015 242.295)">
        <path id="Trazado_12690" data-name="Trazado 12690" d="M823.87,1915.936h1.847v-8.708a24.743,24.743,0,0,1,5.894,5.752c2.273,3.338,5.4,3.054,10.155,2.841s4.545-2.131,4.119-4.829-5.255-3.551-6.818-3.977-5.109-6.537-6.249-8.024a20.394,20.394,0,0,1-2.379-3.977s-.887-3.622-5.29,0-3.125,10.581-2.628,11.22S823.87,1915.936,823.87,1915.936Z" transform="translate(-821.96 -1893.403)" fill="#163342"/>
      </g>
      <g id="Grupo_9030" data-name="Grupo 9030" transform="translate(41.203 242.948)">
        <path id="Trazado_12691" data-name="Trazado 12691" d="M837.7,1908.365c1.633,1.065,5.894,0,5.894,0-1.207-1.563-8.629-12-8.629-12-4.509-2.628-6.291.988-6.291.988C830.517,1897.915,836.07,1907.3,837.7,1908.365Z" transform="translate(-828.678 -1895.407)" fill="#ffb490"/>
      </g>
      <g id="Grupo_9034" data-name="Grupo 9034" transform="translate(97.477 90.356)">
        <g id="Grupo_9033" data-name="Grupo 9033">
          <g id="Grupo_9032" data-name="Grupo 9032">
            <g id="Grupo_9031" data-name="Grupo 9031">
              <path id="Trazado_12692" data-name="Trazado 12692" d="M1001.7,1431.773s2.956.566,3.966-.823a9.649,9.649,0,0,1,3.426-2.368c.808-.375,2.859-2.449,3.341-1.435s-3.216,3.582-3.884,4.276,3.627,1,4.368,1.675-.171,7.76-3.094,7.208-5.683-3.071-6.217-3.066a18.206,18.206,0,0,1-2.143-.318Z" transform="translate(-1001.467 -1426.87)" fill="#ffb490"/>
            </g>
          </g>
        </g>
      </g>
      <g id="Grupo_9038" data-name="Grupo 9038" transform="translate(105.976 96.293)">
        <g id="Grupo_9037" data-name="Grupo 9037">
          <g id="Grupo_9036" data-name="Grupo 9036">
            <g id="Grupo_9035" data-name="Grupo 9035">
              <path id="Trazado_12693" data-name="Trazado 12693" d="M1029.865,1445.1s8.838,2.283,9.3,2.929.31,1.117-.526.938-8.6-1.959-8.6-1.959,10.007,4.46,10.5,4.906c.29.261.049,1.191-.406,1.137s-10.627-3.908-10.627-3.908,9.336,4.181,9.637,4.677a.7.7,0,0,1-.884.97c-.714-.262-9.6-3.653-9.6-3.653s6.6,3.47,6.611,4.041c0,.349-.165,1.162-1.841.214s-5.865-2.772-5.865-2.772Z" transform="translate(-1027.563 -1445.1)" fill="#ffb490"/>
            </g>
          </g>
        </g>
      </g>
      <g id="Grupo_9039" data-name="Grupo 9039" transform="translate(16.481 249.379)">
        <path id="Trazado_12694" data-name="Trazado 12694" d="M753.288,1931.2h1.136v-6.391a13.9,13.9,0,0,1,2.944,5.133c.923,3.053,4.229,3.959,9.27,3.817s5.113-2.132,4.687-5.115-4.687-4.545-4.687-4.545c-1.917-1.7-6.675-8.771-6.675-8.771a6.652,6.652,0,0,0-5.45,1.118c-2.4,1.935-1.652,6.3-1.581,7.439S753.288,1931.2,753.288,1931.2Z" transform="translate(-752.768 -1915.155)" fill="#163342"/>
      </g>
      <g id="Grupo_9040" data-name="Grupo 9040" transform="translate(10.141 110.642)">
        <path id="Trazado_12695" data-name="Trazado 12695" d="M743.641,1491.683s-6.008,7.812-7.638,17.079.962,40.373.891,44.953-4.332,15.978-3.48,24.607,4.216,51.573,4.216,51.573l9.206-1.827s-.532-43.781,0-47.4,1.6-16.823,1.815-18.314,13.525-40.652,13.525-47.333S758.129,1480.783,743.641,1491.683Z" transform="translate(-733.302 -1489.161)" fill="#1d3b54"/>
      </g>
      <g id="Grupo_9041" data-name="Grupo 9041" transform="translate(30.004 114.262)">
        <path id="Trazado_12696" data-name="Trazado 12696" d="M814.948,1502.232s9.871,37.674,11.043,42.894,2.869,9.524,2.869,11.74c0,5.142-1.91,13.4-1.91,13.4l-12.534,59.95H802.477s6.652-35.966,6.83-43c.18-7.048,5.606-17.057,4.54-20.04s-17.15-37.389-17.15-37.389S784.518,1491.3,814.948,1502.232Z" transform="translate(-794.289 -1500.277)" fill="#1d3b54"/>
      </g>
      <g id="Grupo_9042" data-name="Grupo 9042" transform="translate(18.226 249.55)">
        <path id="Trazado_12697" data-name="Trazado 12697" d="M770.251,1924.451l-6.675-8.771-5.45,1.118a24.714,24.714,0,0,0,4.116,6.879C765.379,1927.175,770.251,1924.451,770.251,1924.451Z" transform="translate(-758.126 -1915.68)" fill="#ffb490"/>
      </g>
      <g id="Grupo_9044" data-name="Grupo 9044" transform="translate(43.001 52.197)">
        <g id="Grupo_9043" data-name="Grupo 9043">
          <path id="Trazado_12698" data-name="Trazado 12698" d="M837.782,1309.7a12.318,12.318,0,0,1,7.145,3.678,47.174,47.174,0,0,1,6.766,10.306c.806,1.757,12.1,18.042,12.681,18.408s6.261,2.262,10.021,3.528c5.8,1.953,17.434,6.18,17.434,6.18l-2.31,7.314s-21.872-7.157-27.349-8.507c-6.7-1.65-22.118-21.432-22.118-21.432S828.556,1315.707,837.782,1309.7Z" transform="translate(-834.197 -1309.703)" fill="#285173"/>
        </g>
      </g>
      <g id="Grupo_9046" data-name="Grupo 9046" transform="translate(11.227 49.066)">
        <g id="Grupo_9045" data-name="Grupo 9045">
          <path id="Trazado_12699" data-name="Trazado 12699" d="M764.893,1300.364a55.151,55.151,0,0,0,7.1,2.855c1.83.366,8.933,9.591,10.177,12.959s0,8.42-2.562,14.351-.146,7.907-1.318,13.838-.795,28.117-.575,31.412-34.27,8.289-41.079,2.285c0,0,4.609-20,10.067-25.7,1.181-1.234,1.056-9.459.25-11.509s-9.884-17.352-9.884-17.352-.667-15.521,3.294-18.6c3.441-2.673,12.82-3.626,14.5-4.211S761.451,1299.852,764.893,1300.364Z" transform="translate(-736.637 -1300.088)" fill="#ffaa3f"/>
        </g>
      </g>
      <g id="Grupo_9048" data-name="Grupo 9048" transform="translate(29.46 36.043)">
        <g id="Grupo_9047" data-name="Grupo 9047">
          <path id="Trazado_12700" data-name="Trazado 12700" d="M805.161,1267.318s-.157,1.452-.339,3.413c-.07.776-.147,1.633-.217,2.511a59.252,59.252,0,0,0-.276,6.9s-5.48,5.491-11.708-6.406a16.346,16.346,0,0,0,.646-11.585C791.3,1255.463,805.161,1267.318,805.161,1267.318Z" transform="translate(-792.621 -1260.103)" fill="#ffb490"/>
        </g>
      </g>
      <g id="Grupo_9049" data-name="Grupo 9049" transform="translate(54.734 67.59)">
        <path id="Trazado_12701" data-name="Trazado 12701" d="M872.824,1371.072s1.319-8.77-.083-14.1a34.057,34.057,0,0,1-2.515,11.1Z" transform="translate(-870.226 -1356.968)" fill="#173c5a"/>
      </g>
      <g id="Grupo_9050" data-name="Grupo 9050" transform="translate(25.251 49.534)">
        <path id="Trazado_12702" data-name="Trazado 12702" d="M779.7,1302.508s3.768,11.13,14.114,10.311,4.9-9.4,4.9-9.4a22.81,22.81,0,0,0-3.3-1.619c-.726-.139-11.438-.275-11.438-.275Z" transform="translate(-779.695 -1301.528)" fill="#ffb490"/>
      </g>
      <g id="Grupo_9051" data-name="Grupo 9051" transform="translate(44.269 51.428)">
        <path id="Trazado_12703" data-name="Trazado 12703" d="M838.091,1307.343s5.419,14.989,5.419,30.265.437,40.162,2.329,48.021,7.276,32.162,7.276,32.162l4.221-2.183s-10.149-38.787-10.915-41.584.582-32.345,1.309-34.819,3.823-13.487,3.342-16.542c-.606-3.852-4.211-9.551-10.032-14.451Z" transform="translate(-838.091 -1307.343)" fill="#285173"/>
      </g>
      <g id="Grupo_9052" data-name="Grupo 9052" transform="translate(4.428 50.046)">
        <path id="Trazado_12704" data-name="Trazado 12704" d="M738.626,1303.1a155.854,155.854,0,0,1,5.075,24.6c1.707,13.812-5.239,77.921-9.9,92.474l-18.045-2.911s3.884-45.316,9.158-53.563,6.951-15.543,1.258-32.755,2.5-25.737,2.5-25.737S737.043,1303.278,738.626,1303.1Z" transform="translate(-715.759 -1303.1)" fill="#285173"/>
      </g>
      <g id="Grupo_9053" data-name="Grupo 9053" transform="translate(0.559 81.186)">
        <path id="Trazado_12705" data-name="Trazado 12705" d="M750.083,1413.307l-21.88,37.9-24.324-14.044,20.93-38.447Z" transform="translate(-703.879 -1398.715)" fill="#616161"/>
      </g>
      <g id="Grupo_9054" data-name="Grupo 9054" transform="translate(3.091 84.122)">
        <path id="Trazado_12706" data-name="Trazado 12706" d="M752.688,1420.69l-19.433,33.658-21.6-12.472,18.589-34.145Z" transform="translate(-711.652 -1407.731)" fill="#deccc5"/>
      </g>
      <g id="Grupo_9055" data-name="Grupo 9055" transform="translate(27.882 86.653)">
        <path id="Trazado_12707" data-name="Trazado 12707" d="M796.85,1422.907l1.364-2.362-8.734-5.043-1.7,2.166Z" transform="translate(-787.775 -1415.502)" fill="#616161"/>
      </g>
      <g id="Grupo_9061" data-name="Grupo 9061" transform="translate(25.881 109.167)">
        <g id="Grupo_9060" data-name="Grupo 9060">
          <g id="Grupo_9059" data-name="Grupo 9059">
            <g id="Grupo_9058" data-name="Grupo 9058">
              <g id="Grupo_9057" data-name="Grupo 9057">
                <g id="Grupo_9056" data-name="Grupo 9056">
                  <path id="Trazado_12708" data-name="Trazado 12708" d="M791.665,1496.411a4.525,4.525,0,0,1-1.431-.206s-.764-.443-1.326-.726a4.467,4.467,0,0,0-.444-.2,8.29,8.29,0,0,1-2.439-1.031,55.541,55.541,0,0,1-4.393-4.637l1.619-2.461,1.186-2.52s7.194.465,8.167.985a2.842,2.842,0,0,1,.269.163,10.49,10.49,0,0,1,1.523,1.557c.139.118,1.436,1.388,1.391,1.928a1.772,1.772,0,0,1-.862,1.493,4.234,4.234,0,0,1-.908,2.146,2.634,2.634,0,0,1-1.267,1.95S792.465,1496.214,791.665,1496.411Z" transform="translate(-781.632 -1484.631)" fill="#ffb490"/>
                </g>
              </g>
            </g>
          </g>
        </g>
      </g>
      <g id="Grupo_9063" data-name="Grupo 9063" transform="translate(0 51.974)">
        <g id="Grupo_9062" data-name="Grupo 9062">
          <path id="Trazado_12709" data-name="Trazado 12709" d="M723.25,1309.242s-6.644-1.9-10.452,5.418-3.788,10.447-4.3,14.021c-.48,3.376-2.649,12.593-2.869,13.544s-5.131,12.3-2.879,16.269c2.265,3.988,25.262,15.725,25.116,16.6s3.983-8.874,3.983-8.874-9.306-5.187-10.83-6.784c-2.476-2.594-7.7-5.389-6.625-8.607,1.261-3.78,5.046-16.534,5.925-18.4S728.851,1311.621,723.25,1309.242Z" transform="translate(-702.163 -1309.019)" fill="#285173"/>
        </g>
      </g>
      <g id="Grupo_9068" data-name="Grupo 9068" transform="translate(27.216 14.081)">
        <g id="Grupo_9067" data-name="Grupo 9067">
          <g id="Grupo_9066" data-name="Grupo 9066">
            <g id="Grupo_9065" data-name="Grupo 9065">
              <g id="Grupo_9064" data-name="Grupo 9064">
                <path id="Trazado_12710" data-name="Trazado 12710" d="M801.332,1193.013s11.829,3.719,5.408,24.132-22.577-2.365-20.887-14.8S801.332,1193.013,801.332,1193.013Z" transform="translate(-785.729 -1192.668)" fill="#ffb490"/>
              </g>
            </g>
          </g>
        </g>
      </g>
      <g id="Grupo_9073" data-name="Grupo 9073" transform="translate(26.283 12.442)">
        <g id="Grupo_9072" data-name="Grupo 9072">
          <g id="Grupo_9071" data-name="Grupo 9071">
            <g id="Grupo_9070" data-name="Grupo 9070">
              <g id="Grupo_9069" data-name="Grupo 9069">
                <path id="Trazado_12711" data-name="Trazado 12711" d="M806.017,1201.532a26.683,26.683,0,0,1-15.715,6.489s-3.78,4.432-4.07,6.172c0,0-8.777-14.96,2.012-23.928S809.983,1197.836,806.017,1201.532Z" transform="translate(-782.865 -1187.635)" fill="#0d2d3d"/>
              </g>
            </g>
          </g>
        </g>
      </g>
      <g id="Grupo_9078" data-name="Grupo 9078" transform="translate(29.734 29.149)">
        <g id="Grupo_9077" data-name="Grupo 9077">
          <g id="Grupo_9076" data-name="Grupo 9076">
            <g id="Grupo_9075" data-name="Grupo 9075">
              <g id="Grupo_9074" data-name="Grupo 9074">
                <path id="Trazado_12712" data-name="Trazado 12712" d="M797.565,1243.019c-.076-1.486-.991-4.867-3.2-3.921s.136,7.832,1.6,7.408C795.966,1246.507,797.746,1246.534,797.565,1243.019Z" transform="translate(-793.46 -1238.934)" fill="#ffb490"/>
              </g>
            </g>
          </g>
        </g>
      </g>
      <g id="Grupo_9079" data-name="Grupo 9079" transform="translate(32.733 41.104)">
        <path id="Trazado_12713" data-name="Trazado 12713" d="M811.6,1281.21c-.07.776-.147,1.633-.217,2.511,0,0-5.221-.311-8.711-8.077C802.9,1275.982,806.723,1281.6,811.6,1281.21Z" transform="translate(-802.67 -1275.643)" fill="#ff9f84"/>
      </g>
    </g>
    <g id="Grupo_9248" data-name="Grupo 9248" transform="translate(280.553 300.854)">
      <g id="Grupo_9085" data-name="Grupo 9085" transform="translate(57.943 206.361)">
        <g id="Grupo_9084" data-name="Grupo 9084">
          <g id="Grupo_9083" data-name="Grupo 9083">
            <g id="Grupo_9082" data-name="Grupo 9082">
              <g id="Grupo_9081" data-name="Grupo 9081">
                <path id="Trazado_12714" data-name="Trazado 12714" d="M545.737,1312.542s7.756,2.051,7.927,1.306,1.431-5.692,1.431-5.692c-.91-.815-9.351-1.665-9.351-1.665Z" transform="translate(-545.737 -1306.492)" fill="#747bc5"/>
              </g>
            </g>
          </g>
        </g>
      </g>
      <g id="Grupo_9090" data-name="Grupo 9090" transform="translate(54.951 211.87)">
        <g id="Grupo_9089" data-name="Grupo 9089">
          <g id="Grupo_9088" data-name="Grupo 9088">
            <g id="Grupo_9087" data-name="Grupo 9087">
              <g id="Grupo_9086" data-name="Grupo 9086">
                <path id="Trazado_12715" data-name="Trazado 12715" d="M552.068,1329.5a21.487,21.487,0,0,1-4.446-4.877c-5.94-.053-8.079-1.217-8.079-1.217s-3.753,10.1-2.853,11.844,5.835,1.4,15.84,2.751c14.081,1.9,12.795-2.258,11.869-3.356C563.118,1333.127,554.342,1331.083,552.068,1329.5Z" transform="translate(-536.55 -1323.408)" fill="#3c4146"/>
              </g>
            </g>
          </g>
        </g>
      </g>
      <g id="Grupo_9179" data-name="Grupo 9179" transform="translate(0 56.531)">
        <g id="Grupo_9095" data-name="Grupo 9095" transform="translate(57.333 5.558)">
          <g id="Grupo_9094" data-name="Grupo 9094" transform="translate(0 0)">
            <g id="Grupo_9093" data-name="Grupo 9093">
              <g id="Grupo_9092" data-name="Grupo 9092">
                <g id="Grupo_9091" data-name="Grupo 9091">
                  <rect id="Rectángulo_1923" data-name="Rectángulo 1923" width="373.341" height="3.559" transform="matrix(0.097, -0.995, 0.995, 0.097, 0, 371.598)" fill="#bdbdbd"/>
                </g>
              </g>
            </g>
          </g>
        </g>
        <g id="Grupo_9100" data-name="Grupo 9100" transform="translate(0 0)">
          <g id="Grupo_9099" data-name="Grupo 9099">
            <g id="Grupo_9098" data-name="Grupo 9098">
              <g id="Grupo_9097" data-name="Grupo 9097">
                <g id="Grupo_9096" data-name="Grupo 9096">
                  <rect id="Rectángulo_1924" data-name="Rectángulo 1924" width="373.34" height="3.559" transform="translate(0 371.591) rotate(-84.452)" fill="#bdbdbd"/>
                </g>
              </g>
            </g>
          </g>
        </g>
        <g id="Grupo_9146" data-name="Grupo 9146" transform="translate(16.474 5.005)">
          <g id="Grupo_9105" data-name="Grupo 9105" transform="translate(20.686 0)">
            <g id="Grupo_9104" data-name="Grupo 9104">
              <g id="Grupo_9103" data-name="Grupo 9103">
                <g id="Grupo_9102" data-name="Grupo 9102">
                  <g id="Grupo_9101" data-name="Grupo 9101">
                    <rect id="Rectángulo_1925" data-name="Rectángulo 1925" width="3.559" height="57.568" transform="translate(0 3.542) rotate(-84.457)" fill="#bdbdbd"/>
                  </g>
                </g>
              </g>
            </g>
          </g>
          <g id="Grupo_9110" data-name="Grupo 9110" transform="translate(18.101 26.644)">
            <g id="Grupo_9109" data-name="Grupo 9109" transform="translate(0 0)">
              <g id="Grupo_9108" data-name="Grupo 9108">
                <g id="Grupo_9107" data-name="Grupo 9107">
                  <g id="Grupo_9106" data-name="Grupo 9106">
                    <rect id="Rectángulo_1926" data-name="Rectángulo 1926" width="3.559" height="57.568" transform="translate(0 3.543) rotate(-84.457)" fill="#bdbdbd"/>
                  </g>
                </g>
              </g>
            </g>
          </g>
          <g id="Grupo_9115" data-name="Grupo 9115" transform="translate(15.515 53.288)">
            <g id="Grupo_9114" data-name="Grupo 9114" transform="translate(0 0)">
              <g id="Grupo_9113" data-name="Grupo 9113">
                <g id="Grupo_9112" data-name="Grupo 9112">
                  <g id="Grupo_9111" data-name="Grupo 9111">
                    <rect id="Rectángulo_1927" data-name="Rectángulo 1927" width="3.559" height="57.568" transform="translate(0 3.542) rotate(-84.457)" fill="#bdbdbd"/>
                  </g>
                </g>
              </g>
            </g>
          </g>
          <g id="Grupo_9120" data-name="Grupo 9120" transform="translate(12.929 79.932)">
            <g id="Grupo_9119" data-name="Grupo 9119" transform="translate(0 0)">
              <g id="Grupo_9118" data-name="Grupo 9118">
                <g id="Grupo_9117" data-name="Grupo 9117">
                  <g id="Grupo_9116" data-name="Grupo 9116">
                    <rect id="Rectángulo_1928" data-name="Rectángulo 1928" width="3.559" height="57.568" transform="translate(0 3.542) rotate(-84.457)" fill="#bdbdbd"/>
                  </g>
                </g>
              </g>
            </g>
          </g>
          <g id="Grupo_9125" data-name="Grupo 9125" transform="translate(10.343 106.577)">
            <g id="Grupo_9124" data-name="Grupo 9124" transform="translate(0 0)">
              <g id="Grupo_9123" data-name="Grupo 9123">
                <g id="Grupo_9122" data-name="Grupo 9122">
                  <g id="Grupo_9121" data-name="Grupo 9121">
                    <rect id="Rectángulo_1929" data-name="Rectángulo 1929" width="3.559" height="57.568" transform="translate(0 3.543) rotate(-84.457)" fill="#bdbdbd"/>
                  </g>
                </g>
              </g>
            </g>
          </g>
          <g id="Grupo_9130" data-name="Grupo 9130" transform="translate(7.757 133.221)">
            <g id="Grupo_9129" data-name="Grupo 9129" transform="translate(0 0)">
              <g id="Grupo_9128" data-name="Grupo 9128">
                <g id="Grupo_9127" data-name="Grupo 9127">
                  <g id="Grupo_9126" data-name="Grupo 9126">
                    <rect id="Rectángulo_1930" data-name="Rectángulo 1930" width="3.559" height="57.568" transform="translate(0 3.543) rotate(-84.457)" fill="#bdbdbd"/>
                  </g>
                </g>
              </g>
            </g>
          </g>
          <g id="Grupo_9135" data-name="Grupo 9135" transform="translate(5.172 159.865)">
            <g id="Grupo_9134" data-name="Grupo 9134" transform="translate(0 0)">
              <g id="Grupo_9133" data-name="Grupo 9133">
                <g id="Grupo_9132" data-name="Grupo 9132">
                  <g id="Grupo_9131" data-name="Grupo 9131">
                    <rect id="Rectángulo_1931" data-name="Rectángulo 1931" width="3.559" height="57.568" transform="translate(0 3.543) rotate(-84.457)" fill="#bdbdbd"/>
                  </g>
                </g>
              </g>
            </g>
          </g>
          <g id="Grupo_9140" data-name="Grupo 9140" transform="translate(2.586 186.509)">
            <g id="Grupo_9139" data-name="Grupo 9139" transform="translate(0 0)">
              <g id="Grupo_9138" data-name="Grupo 9138">
                <g id="Grupo_9137" data-name="Grupo 9137">
                  <g id="Grupo_9136" data-name="Grupo 9136">
                    <rect id="Rectángulo_1932" data-name="Rectángulo 1932" width="3.559" height="57.568" transform="matrix(0.097, -0.995, 0.995, 0.097, 0, 3.542)" fill="#bdbdbd"/>
                  </g>
                </g>
              </g>
            </g>
          </g>
          <g id="Grupo_9145" data-name="Grupo 9145" transform="translate(0 213.153)">
            <g id="Grupo_9144" data-name="Grupo 9144" transform="translate(0 0)">
              <g id="Grupo_9143" data-name="Grupo 9143">
                <g id="Grupo_9142" data-name="Grupo 9142">
                  <g id="Grupo_9141" data-name="Grupo 9141">
                    <rect id="Rectángulo_1933" data-name="Rectángulo 1933" width="3.559" height="57.568" transform="matrix(0.097, -0.995, 0.995, 0.097, 0, 3.542)" fill="#bdbdbd"/>
                  </g>
                </g>
              </g>
            </g>
          </g>
        </g>
        <g id="Grupo_9167" data-name="Grupo 9167" transform="translate(6.131 244.802)">
          <g id="Grupo_9151" data-name="Grupo 9151" transform="translate(7.757 0)">
            <g id="Grupo_9150" data-name="Grupo 9150" transform="translate(0)">
              <g id="Grupo_9149" data-name="Grupo 9149">
                <g id="Grupo_9148" data-name="Grupo 9148">
                  <g id="Grupo_9147" data-name="Grupo 9147">
                    <rect id="Rectángulo_1934" data-name="Rectángulo 1934" width="3.559" height="57.568" transform="translate(0 3.543) rotate(-84.457)" fill="#bdbdbd"/>
                  </g>
                </g>
              </g>
            </g>
          </g>
          <g id="Grupo_9156" data-name="Grupo 9156" transform="translate(5.172 26.644)">
            <g id="Grupo_9155" data-name="Grupo 9155" transform="translate(0)">
              <g id="Grupo_9154" data-name="Grupo 9154">
                <g id="Grupo_9153" data-name="Grupo 9153">
                  <g id="Grupo_9152" data-name="Grupo 9152">
                    <rect id="Rectángulo_1935" data-name="Rectángulo 1935" width="3.559" height="57.568" transform="translate(0 3.543) rotate(-84.456)" fill="#bdbdbd"/>
                  </g>
                </g>
              </g>
            </g>
          </g>
          <g id="Grupo_9161" data-name="Grupo 9161" transform="translate(2.586 53.288)">
            <g id="Grupo_9160" data-name="Grupo 9160" transform="translate(0 0)">
              <g id="Grupo_9159" data-name="Grupo 9159">
                <g id="Grupo_9158" data-name="Grupo 9158">
                  <g id="Grupo_9157" data-name="Grupo 9157">
                    <rect id="Rectángulo_1936" data-name="Rectángulo 1936" width="3.559" height="57.568" transform="matrix(0.097, -0.995, 0.995, 0.097, 0, 3.543)" fill="#bdbdbd"/>
                  </g>
                </g>
              </g>
            </g>
          </g>
          <g id="Grupo_9166" data-name="Grupo 9166" transform="translate(0 79.933)">
            <g id="Grupo_9165" data-name="Grupo 9165" transform="translate(0 0)">
              <g id="Grupo_9164" data-name="Grupo 9164">
                <g id="Grupo_9163" data-name="Grupo 9163">
                  <g id="Grupo_9162" data-name="Grupo 9162">
                    <rect id="Rectángulo_1937" data-name="Rectángulo 1937" width="3.559" height="57.568" transform="translate(0 3.543) rotate(-84.457)" fill="#bdbdbd"/>
                  </g>
                </g>
              </g>
            </g>
          </g>
        </g>
        <g id="Grupo_9178" data-name="Grupo 9178" transform="translate(3.545 324.735)">
          <g id="Grupo_9172" data-name="Grupo 9172" transform="translate(2.586 0)">
            <g id="Grupo_9171" data-name="Grupo 9171" transform="translate(0)">
              <g id="Grupo_9170" data-name="Grupo 9170">
                <g id="Grupo_9169" data-name="Grupo 9169">
                  <g id="Grupo_9168" data-name="Grupo 9168">
                    <rect id="Rectángulo_1938" data-name="Rectángulo 1938" width="3.559" height="57.568" transform="translate(0 3.543) rotate(-84.457)" fill="#bdbdbd"/>
                  </g>
                </g>
              </g>
            </g>
          </g>
          <g id="Grupo_9177" data-name="Grupo 9177" transform="translate(0 26.644)">
            <g id="Grupo_9176" data-name="Grupo 9176" transform="translate(0 0)">
              <g id="Grupo_9175" data-name="Grupo 9175">
                <g id="Grupo_9174" data-name="Grupo 9174">
                  <g id="Grupo_9173" data-name="Grupo 9173">
                    <rect id="Rectángulo_1939" data-name="Rectángulo 1939" width="3.559" height="57.568" transform="translate(0 3.543) rotate(-84.457)" fill="#bdbdbd"/>
                  </g>
                </g>
              </g>
            </g>
          </g>
        </g>
      </g>
      <g id="Grupo_9184" data-name="Grupo 9184" transform="translate(34.71 99.935)">
        <g id="Grupo_9183" data-name="Grupo 9183">
          <g id="Grupo_9182" data-name="Grupo 9182">
            <g id="Grupo_9181" data-name="Grupo 9181">
              <g id="Grupo_9180" data-name="Grupo 9180">
                <path id="Trazado_12716" data-name="Trazado 12716" d="M523.692,1012.1c-1.488-7.492-7.132-28.45-7.132-28.45-4.165-6.672-42.159-2.844-42.159-2.844,3.076,21.035,14.53,21.3,19.534,32.641s5.831,10.922,12.182,24.684c4.271,9.254-12.1,50.9-12.1,50.9l15.517,2.491c1.772-7.227,18.8-47.236,18.433-51.37S524.989,1018.623,523.692,1012.1Z" transform="translate(-474.401 -979.709)" fill="#ffaa3f"/>
              </g>
            </g>
          </g>
        </g>
      </g>
      <g id="Grupo_9189" data-name="Grupo 9189" transform="translate(42.827 1.096)">
        <g id="Grupo_9188" data-name="Grupo 9188">
          <g id="Grupo_9187" data-name="Grupo 9187">
            <g id="Grupo_9186" data-name="Grupo 9186">
              <g id="Grupo_9185" data-name="Grupo 9185">
                <path id="Trazado_12717" data-name="Trazado 12717" d="M505.773,677.168c-2.705,1.369-6.33,4-6.445,8.74s2.285,11.837,4.944,16.745,10.461,5.917,15.654,3.986,5.651-17.633.9-25.476S505.773,677.168,505.773,677.168Z" transform="translate(-499.324 -676.224)" fill="#ffb490"/>
              </g>
            </g>
          </g>
        </g>
      </g>
      <g id="Grupo_9194" data-name="Grupo 9194" transform="translate(45.633 21.535)">
        <g id="Grupo_9193" data-name="Grupo 9193">
          <g id="Grupo_9192" data-name="Grupo 9192">
            <g id="Grupo_9191" data-name="Grupo 9191">
              <g id="Grupo_9190" data-name="Grupo 9190">
                <path id="Trazado_12718" data-name="Trazado 12718" d="M524.006,748.476s-18-14.069-15.9-7.955a89.9,89.9,0,0,1,3.209,13.351s13.648-.035,12.96-1.365S524.006,748.476,524.006,748.476Z" transform="translate(-507.94 -738.982)" fill="#ffb490"/>
              </g>
            </g>
          </g>
        </g>
      </g>
      <g id="Grupo_9199" data-name="Grupo 9199" transform="translate(41.952)">
        <g id="Grupo_9198" data-name="Grupo 9198">
          <g id="Grupo_9197" data-name="Grupo 9197">
            <g id="Grupo_9196" data-name="Grupo 9196">
              <g id="Grupo_9195" data-name="Grupo 9195">
                <path id="Trazado_12719" data-name="Trazado 12719" d="M505.772,673.73s-9.471,2.611-9.127,8,1.724,11.522,3.843,14.2c0,0,.942,1.554,4.787.951s8.536-5.719,10.141-6.281,1.621-1.5,1.621-1.5l1.005,1.468,1.706.108s-1.555-4.575.791-6.442S518.1,669.421,505.772,673.73Z" transform="translate(-496.636 -672.857)" fill="#192454"/>
              </g>
            </g>
          </g>
        </g>
      </g>
      <g id="Grupo_9204" data-name="Grupo 9204" transform="translate(58.503 12.319)">
        <g id="Grupo_9203" data-name="Grupo 9203">
          <g id="Grupo_9202" data-name="Grupo 9202">
            <g id="Grupo_9201" data-name="Grupo 9201">
              <g id="Grupo_9200" data-name="Grupo 9200">
                <path id="Trazado_12720" data-name="Trazado 12720" d="M547.66,711.925c-.88,2.765,1.329,6.483,2.561,6.165s1.379-3.153.832-5.444C550.837,711.743,548.54,709.161,547.66,711.925Z" transform="translate(-547.458 -710.683)" fill="#ffb490"/>
              </g>
            </g>
          </g>
        </g>
      </g>
      <g id="Grupo_9209" data-name="Grupo 9209" transform="translate(54.951 211.87)">
        <g id="Grupo_9208" data-name="Grupo 9208">
          <g id="Grupo_9207" data-name="Grupo 9207">
            <g id="Grupo_9206" data-name="Grupo 9206">
              <g id="Grupo_9205" data-name="Grupo 9205">
                <path id="Trazado_12721" data-name="Trazado 12721" d="M547.623,1324.625c-5.94-.052-8.08-1.217-8.08-1.217s-3.753,10.1-2.853,11.845,5.836,1.4,15.84,2.75a45.866,45.866,0,0,0,6.578.486l.584-6.018c-2.927-1.018-6.33-2.068-7.623-2.969A21.473,21.473,0,0,1,547.623,1324.625Z" transform="translate(-536.55 -1323.408)" fill="#192454"/>
              </g>
            </g>
          </g>
        </g>
      </g>
      <g id="Grupo_9214" data-name="Grupo 9214" transform="translate(19.516 229.495)">
        <g id="Grupo_9213" data-name="Grupo 9213">
          <g id="Grupo_9212" data-name="Grupo 9212">
            <g id="Grupo_9211" data-name="Grupo 9211">
              <g id="Grupo_9210" data-name="Grupo 9210">
                <path id="Trazado_12722" data-name="Trazado 12722" d="M427.747,1383.576s7.756,2.051,7.928,1.306,1.43-5.691,1.43-5.691c-.909-.816-9.351-1.665-9.351-1.665Z" transform="translate(-427.747 -1377.526)" fill="#747bc5"/>
              </g>
            </g>
          </g>
        </g>
      </g>
      <g id="Grupo_9219" data-name="Grupo 9219" transform="translate(16.896 101.028)">
        <g id="Grupo_9218" data-name="Grupo 9218">
          <g id="Grupo_9217" data-name="Grupo 9217">
            <g id="Grupo_9216" data-name="Grupo 9216">
              <g id="Grupo_9215" data-name="Grupo 9215">
                <path id="Trazado_12723" data-name="Trazado 12723" d="M433.851,1006.41c-.774,10.793-2.183,22.63-3.3,33.919-1.248,12.584-4.809,32.928-4.994,39.66s-5.852,36.151-5.852,36.151l14.494,1.666s9.416-51.989,11.64-57.3,13.253-43.2,13.624-47.454-21.943-29.983-21.943-29.983A163.4,163.4,0,0,0,433.851,1006.41Z" transform="translate(-419.702 -983.065)" fill="#ffaa3f"/>
              </g>
            </g>
          </g>
        </g>
      </g>
      <g id="Grupo_9224" data-name="Grupo 9224" transform="translate(16.524 235.005)">
        <g id="Grupo_9223" data-name="Grupo 9223">
          <g id="Grupo_9222" data-name="Grupo 9222">
            <g id="Grupo_9221" data-name="Grupo 9221">
              <g id="Grupo_9220" data-name="Grupo 9220">
                <path id="Trazado_12724" data-name="Trazado 12724" d="M434.079,1400.538a21.5,21.5,0,0,1-4.445-4.878c-5.94-.053-8.079-1.217-8.079-1.217s-3.753,10.1-2.853,11.844,5.835,1.4,15.839,2.751c14.082,1.9,12.8-2.258,11.87-3.355C445.129,1404.162,436.353,1402.118,434.079,1400.538Z" transform="translate(-418.561 -1394.443)" fill="#192454"/>
              </g>
            </g>
          </g>
        </g>
      </g>
      <g id="Grupo_9229" data-name="Grupo 9229" transform="translate(127.273 6.083)">
        <g id="Grupo_9228" data-name="Grupo 9228">
          <g id="Grupo_9227" data-name="Grupo 9227">
            <g id="Grupo_9226" data-name="Grupo 9226">
              <g id="Grupo_9225" data-name="Grupo 9225">
                <path id="Trazado_12725" data-name="Trazado 12725" d="M773.018,696.1a4.963,4.963,0,0,0-1.277-2.413,2.076,2.076,0,0,0-.717-1.887c-.457-.442-2.57-.2-2.78-.165a12.356,12.356,0,0,0-2.541.23,3.284,3.284,0,0,0-.347.123c-1.194.5-6.739,7.684-6.739,7.684l1,2.871,1.393,3.555s5.991-1.364,7.315-1.746a9.711,9.711,0,0,0,2.743-1.452,4.973,4.973,0,0,1,.509-.255c.673-.3,1.641-.667,1.641-.667a5.3,5.3,0,0,0,1.246-1.147c.413-.872-.612-2.137-.612-2.137A3.085,3.085,0,0,0,773.018,696.1Z" transform="translate(-758.616 -691.535)" fill="#ffb490"/>
              </g>
            </g>
          </g>
        </g>
      </g>
      <g id="Grupo_9247" data-name="Grupo 9247" transform="translate(22.724 13.364)">
        <g id="Grupo_9233" data-name="Grupo 9233" transform="translate(0 26.217)">
          <g id="Grupo_9232" data-name="Grupo 9232">
            <g id="Grupo_9231" data-name="Grupo 9231">
              <g id="Grupo_9230" data-name="Grupo 9230">
                <path id="Trazado_12726" data-name="Trazado 12726" d="M447.078,794.391c-.462.046-10.443,18.444-9.407,30.844.112,1.352,1.656,2.814,2.708,3.536a4.406,4.406,0,0,0,2.349.773l.612.021h0l10.707.364S462.009,804.2,447.078,794.391Z" transform="translate(-437.596 -794.391)" fill="#192454"/>
              </g>
            </g>
          </g>
        </g>
        <g id="Grupo_9237" data-name="Grupo 9237" transform="translate(24.959 19.929)">
          <g id="Grupo_9236" data-name="Grupo 9236">
            <g id="Grupo_9235" data-name="Grupo 9235">
              <g id="Grupo_9234" data-name="Grupo 9234">
                <path id="Trazado_12727" data-name="Trazado 12727" d="M515.121,775.71l-.715.662s-1.439,2.76,3.979,3,13.935.631,9.874-3.3C528.259,776.066,519.857,774.111,515.121,775.71Z" transform="translate(-514.233 -775.081)" fill="#192454"/>
              </g>
            </g>
          </g>
        </g>
        <g id="Grupo_9241" data-name="Grupo 9241" transform="translate(6.679 20.913)">
          <g id="Grupo_9240" data-name="Grupo 9240">
            <g id="Grupo_9239" data-name="Grupo 9239">
              <g id="Grupo_9238" data-name="Grupo 9238">
                <path id="Trazado_12728" data-name="Trazado 12728" d="M508.76,785a12.546,12.546,0,0,0-1.738-.868c-.959-.407-1.9-.8-2.814-1.177-6.078-2.5-13.8-4.849-13.8-4.849h-12.4s-9.441,1.886-15.068,4.189a10.519,10.519,0,0,0-2.032,1.115l1.685,35.358c0,.007,0,.014,0,.022s0,.028.006.047c.76,4.974,1.559,10.842,1.825,14.957.109,1.68-1.812,10.7-2.814,18.979l-3.508,19.812s2.027,8.21,50.4,1.294c1.235-.176-3.065-36.974-2.736-39.281.22-1.54.185-13.5.1-20.953l1.345-7.545a34.521,34.521,0,0,1,2.954-1.867c1.869-1.078,4.213-2.311,6.817-3.613-.3-1.782-.513-3.185-.594-4A15.073,15.073,0,0,0,508.76,785Z" transform="translate(-458.105 -778.104)" fill="#192454"/>
              </g>
            </g>
          </g>
        </g>
        <g id="Grupo_9246" data-name="Grupo 9246" transform="translate(49.545)">
          <g id="Grupo_9245" data-name="Grupo 9245">
            <g id="Grupo_9244" data-name="Grupo 9244">
              <g id="Grupo_9243" data-name="Grupo 9243">
                <g id="Grupo_9242" data-name="Grupo 9242">
                  <path id="Trazado_12729" data-name="Trazado 12729" d="M644.63,713.89s-19.946,18.893-24.3,21.218c-3.749,2-22.264,4.02-27.364,4.544-.828.085-1.3.132-1.3.132-5.327,7.264,1.727,24.647,4.7,22.732a82.186,82.186,0,0,1,9.372-5.2c11.538-5.773,25.783-16.237,28.493-17.749,4.164-2.324,17.322-18.4,17.322-18.4C650.868,718.749,644.63,713.89,644.63,713.89Z" transform="translate(-589.726 -713.89)" fill="#192454"/>
                </g>
              </g>
            </g>
          </g>
        </g>
      </g>
    </g>
    <g id="Grupo_9296" data-name="Grupo 9296" transform="translate(696.24 469.252)">
      <g id="Grupo_9250" data-name="Grupo 9250" transform="translate(19.748 55.359)">
        <g id="Grupo_9249" data-name="Grupo 9249">
          <path id="Trazado_12730" data-name="Trazado 12730" d="M1704.94,1367.61s4.375-.994,5.424-2.367-2.3-4.853-2.3-4.853l-3.234-.482Z" transform="translate(-1704.835 -1359.908)" fill="#ffb490"/>
        </g>
      </g>
      <g id="Grupo_9252" data-name="Grupo 9252" transform="translate(7.71 52.627)">
        <g id="Grupo_9251" data-name="Grupo 9251">
          <path id="Trazado_12731" data-name="Trazado 12731" d="M1681.766,1355.32s-3.175-2.908-3.673-3.338-2.453-.625-4.546-.31c-2.033.306-4.923.423-5.134.72a1.753,1.753,0,0,0-.543,1.4,3.559,3.559,0,0,0,.5,1.733,2.165,2.165,0,0,0,.147,2.083,1.885,1.885,0,0,0,.5,2.037,1.577,1.577,0,0,0,.33,1.708,14.294,14.294,0,0,1,2.48.5,30.066,30.066,0,0,0,8.188.1S1683.394,1360.413,1681.766,1355.32Z" transform="translate(-1667.871 -1351.517)" fill="#ffb490"/>
        </g>
      </g>
      <g id="Grupo_9254" data-name="Grupo 9254" transform="translate(13.491 56.925)">
        <g id="Grupo_9253" data-name="Grupo 9253">
          <path id="Trazado_12732" data-name="Trazado 12732" d="M1687.641,1364.716a10.6,10.6,0,0,0,1.427,2.393c.531.426-3.427,3.137-3.427,3.137S1685.278,1365.869,1687.641,1364.716Z" transform="translate(-1685.622 -1364.716)" fill="#cd8a6c"/>
        </g>
      </g>
      <g id="Grupo_9256" data-name="Grupo 9256" transform="translate(7.724 53.455)">
        <g id="Grupo_9255" data-name="Grupo 9255">
          <path id="Trazado_12733" data-name="Trazado 12733" d="M1669.027,1354.067s5.357.3,5.415,1.17a1.364,1.364,0,0,1-.447,1.224l2.149,1.124s1,1.547-.976,2.187c0,0,1.086,1.348-.9,1.738,0,0,.32,1.209-.567,1.552s-4.326.006-4.326.006-.773-.376-.41-1.687a1.89,1.89,0,0,1-.5-2.056,3.064,3.064,0,0,1-.3-2.577,2.549,2.549,0,0,1,.3-2.677S1668.8,1354.052,1669.027,1354.067Z" transform="translate(-1667.915 -1354.061)" fill="#d89a7c"/>
        </g>
      </g>
      <g id="Grupo_9258" data-name="Grupo 9258" transform="translate(12.463 53.064)">
        <g id="Grupo_9257" data-name="Grupo 9257">
          <path id="Trazado_12734" data-name="Trazado 12734" d="M1687.768,1352.86a18.224,18.224,0,0,0-4.846,3.114c-.335.367-.592.783-.378,1.233s1.137.709,2.628.137a13.473,13.473,0,0,1,3.68-.629S1690.213,1355.678,1687.768,1352.86Z" transform="translate(-1682.466 -1352.86)" fill="#ffb490"/>
        </g>
      </g>
      <g id="Grupo_9259" data-name="Grupo 9259" transform="translate(7.518 53.39)">
        <path id="Trazado_12735" data-name="Trazado 12735" d="M1667.741,1356.613s5.806-.369,6.328-.094.4-1.852-.063-2.057a41.559,41.559,0,0,0-5.786-.595A1.806,1.806,0,0,0,1667.741,1356.613Z" transform="translate(-1667.281 -1353.861)" fill="#ffb490"/>
      </g>
      <g id="Grupo_9260" data-name="Grupo 9260" transform="translate(22.182 55.582)">
        <path id="Trazado_12736" data-name="Trazado 12736" d="M1713.521,1360.59l-1.213.14.906,6.615h2.525Z" transform="translate(-1712.308 -1360.59)" fill="#dcc9c2"/>
      </g>
      <g id="Grupo_9261" data-name="Grupo 9261" transform="translate(0 53.213)">
        <path id="Trazado_12737" data-name="Trazado 12737" d="M1653.689,1353.316s-9.5.689-9.492,1.793c0,1.06,2.217,1.8,9.495.981C1660.767,1355.294,1653.689,1353.316,1653.689,1353.316Z" transform="translate(-1644.197 -1353.316)" fill="#ffb490"/>
      </g>
      <g id="Grupo_9262" data-name="Grupo 9262" transform="translate(56.476 242.468)">
        <path id="Trazado_12738" data-name="Trazado 12738" d="M1836.36,1935.025s-4.559,4.767-9.059,5.649-9.568,2.749-9.694,5.566,14.6,4.439,19.8,1.766c7.766-3.99,8.5-2.687,9.414-4.779s-.761-7.82-.684-8.492C1846.237,1933.9,1836.36,1935.025,1836.36,1935.025Z" transform="translate(-1817.607 -1934.429)" fill="#292c47"/>
      </g>
      <g id="Grupo_9263" data-name="Grupo 9263" transform="translate(75.222 239.631)">
        <path id="Trazado_12739" data-name="Trazado 12739" d="M1875.745,1926.817a20.3,20.3,0,0,0-.571,2.333c.084.052,10.022,1.566,9.781-.289-.2-1.506-.491-3.144-.491-3.144Z" transform="translate(-1875.167 -1925.717)" fill="#414773"/>
      </g>
      <g id="Grupo_9264" data-name="Grupo 9264" transform="translate(157.512 230.297)">
        <path id="Trazado_12740" data-name="Trazado 12740" d="M2138.288,1901.274s-2.2,6.077-5.879,8.65-5.279,6.333-4.276,8.907,12.556,1.177,16.239-6.342c2.521-5.146,5.417-7.079,5.408-9.316s-2.646-5.4-2.843-6.032C2146.693,1896.359,2138.288,1901.274,2138.288,1901.274Z" transform="translate(-2127.839 -1897.056)" fill="#292c47"/>
      </g>
      <g id="Grupo_9265" data-name="Grupo 9265" transform="translate(167.05 227.699)">
        <path id="Trazado_12741" data-name="Trazado 12741" d="M2157.128,1893.694a22.511,22.511,0,0,0,.91,2.2c.1.012,9.494-2.506,8.649-4.134a14.962,14.962,0,0,0-1.961-2.682Z" transform="translate(-2157.128 -1889.08)" fill="#414773"/>
      </g>
      <g id="Grupo_9267" data-name="Grupo 9267" transform="translate(176.321 120.612)">
        <g id="Grupo_9266" data-name="Grupo 9266">
          <path id="Trazado_12742" data-name="Trazado 12742" d="M2191.273,1566.959s-2.629-6.242-4.668-6.633-.363,1.234-.363,1.234,2.587,4.289,3.46,6.089A10.124,10.124,0,0,0,2191.273,1566.959Z" transform="translate(-2185.594 -1560.266)" fill="#292c47"/>
        </g>
      </g>
      <g id="Grupo_9269" data-name="Grupo 9269" transform="translate(169.105 109.736)">
        <g id="Grupo_9268" data-name="Grupo 9268">
          <path id="Trazado_12743" data-name="Trazado 12743" d="M2163.438,1532.862a49.665,49.665,0,0,1,.652,6.085c.111,3.062-.375,4.222.531,5.677.684,1.1,2.349,1.515,2.554,1.012s-1.272-5.192.655-5.851,1.459,5.939,2.452,5.115,4.538-4.792,3.434-7.028-3.461-3.3-4.584-6.827c-1.019-3.2-2.472-4.173-2.472-4.173Z" transform="translate(-2163.438 -1526.871)" fill="#ffb490"/>
        </g>
      </g>
      <g id="Grupo_9271" data-name="Grupo 9271" transform="translate(172.427 122.363)">
        <g id="Grupo_9270" data-name="Grupo 9270">
          <path id="Trazado_12744" data-name="Trazado 12744" d="M2174.448,1565.8s-2.324,1.558.891,10.149l2.723-1.509s-1.747-4.759-1.805-7.668C2176.257,1566.774,2175.511,1565.135,2174.448,1565.8Z" transform="translate(-2173.636 -1565.642)" fill="#292c47"/>
        </g>
      </g>
      <g id="Grupo_9273" data-name="Grupo 9273" transform="translate(166.616 123.151)">
        <g id="Grupo_9272" data-name="Grupo 9272">
          <path id="Trazado_12745" data-name="Trazado 12745" d="M2155.793,1582.443l20.268-14.38,9.771,27.778-17.663,21.389Z" transform="translate(-2155.793 -1568.063)" fill="#292c47"/>
        </g>
      </g>
      <g id="Grupo_9274" data-name="Grupo 9274" transform="translate(67.9 111.171)">
        <path id="Trazado_12746" data-name="Trazado 12746" d="M1881.438,1540.485s-22.613,40.28-26.806,50.033c-3.885,9.036-.8,18.307-.531,25.3.31,8.005,4.614,42.273,4.143,44.607s12.509,1.046,12.509,1.046-2.643-54.479,1.2-62.324c2.564-5.234,26.93-40.377,28.633-38.215s20.238,34.433,22.691,40.774c2.3,5.941,27.256,51.658,27.256,51.658s7.062-.588,11.818-5c0,0-22.58-50.309-24.546-58.874-1-4.359-10.566-34.96-17.661-54.7C1916.392,1524.361,1881.438,1540.485,1881.438,1540.485Z" transform="translate(-1852.685 -1531.28)" fill="#292c47"/>
      </g>
      <g id="Grupo_9275" data-name="Grupo 9275" transform="translate(39.624 40.528)">
        <path id="Trazado_12747" data-name="Trazado 12747" d="M1902.561,1388.613s-4.792,4.744-7.012,4.337-16.232-28.6-18.029-32.83-11.027-13.935-11.027-13.935a.177.177,0,0,0,0,.02.033.033,0,0,0,0,.015.1.1,0,0,0,0,.018c-.247.91-3.641,13.5-3.759,19.553-.126,6.279-1.765,17.9-1.765,17.9l-1.934.272-32.149,4.524-2.882.4s-1.632-2.157-1.384-7.036c.155-3.1.529-8.936.374-14.346,0-.028,0-.056,0-.083,0-.068,0-.137-.006-.205,0-.028,0-.054,0-.081-.1-2.971,1.7-5.5,1.15-7.642a29.4,29.4,0,0,1-.49-11.573l-.2-11.769c-.309.672-21.309-1.344-23.048-.706-1.771.651-31.225,1.282-33.078-.447-1.978-1.847-1.346-4.818-1.346-4.818l33.64-2.31,18.928-4.371c.266-.212,4.192-.035,6.486-1.126,3.53-1.681,8.446-3.945,11.6-5.392,1.851-.848,3.094-1.414,3.094-1.414s13.172-1.262,14.2-1.2a32.05,32.05,0,0,1,3.966,1.354c4.471,1.7,11.244,4.51,12.621,5.5,2.012,1.442,15.568,30.993,16.754,33.087S1902.561,1388.613,1902.561,1388.613Z" transform="translate(-1765.864 -1314.368)" fill="#dcc9c2"/>
      </g>
      <g id="Grupo_9276" data-name="Grupo 9276" transform="translate(96.653 109.848)">
        <path id="Trazado_12748" data-name="Trazado 12748" d="M1942.07,1532.414s-.851,1.019-1.1,5.331c0,0,35-4.083,38.7-5.693,0,0,.145-4.752-.64-4.835C1978.174,1527.127,1942.07,1532.414,1942.07,1532.414Z" transform="translate(-1940.972 -1527.216)" fill="#363b5e"/>
      </g>
      <g id="Grupo_9277" data-name="Grupo 9277" transform="translate(113.305 26.806)">
        <path id="Trazado_12749" data-name="Trazado 12749" d="M2006.4,1284.77c-.108,5.494-10.745,8.5-10.745,8.5s-4.449-5.578-3.387-6.112c.417-.21.587-1.043.639-1.976a19.426,19.426,0,0,0-.06-2.491c-.032-.388-.062-.638-.062-.638s1.52-1.6,3.453-3.514c3.378-3.341,8.023-7.62,8.031-5.918a1.528,1.528,0,0,1-.039.323C2003.411,1276.773,2006.4,1284.77,2006.4,1284.77Z" transform="translate(-1992.102 -1272.233)" fill="#ffb490"/>
      </g>
      <g id="Grupo_9278" data-name="Grupo 9278" transform="translate(126.719 110.49)">
        <path id="Trazado_12750" data-name="Trazado 12750" d="M2033.289,1529.39s.764,4.817.83,6.073l1.619-.323s-.446-5.1-.708-5.952Z" transform="translate(-2033.289 -1529.188)" fill="#5d676c"/>
      </g>
      <g id="Grupo_9279" data-name="Grupo 9279" transform="translate(100.042 114.255)">
        <path id="Trazado_12751" data-name="Trazado 12751" d="M1952.007,1540.976s-.614,4.379-.628,6.033l1.713-.223s.351-5.469.547-6.04Z" transform="translate(-1951.379 -1540.747)" fill="#292c47"/>
      </g>
      <g id="Grupo_9280" data-name="Grupo 9280" transform="translate(112.991 31.293)">
        <path id="Trazado_12752" data-name="Trazado 12752" d="M2001.652,1286.013h0c-.021.032-.472.707-1.242,1.676-1.633,2.054-4.7,5.428-8.154,6.783a19.426,19.426,0,0,0-.06-2.492,5.559,5.559,0,0,1-1.056-.127,32.677,32.677,0,0,1,2.312-3.386l2.135-.639Z" transform="translate(-1991.139 -1286.013)" fill="#ff9f84"/>
      </g>
      <g id="Grupo_9281" data-name="Grupo 9281" transform="translate(105.817 8.804)">
        <path id="Trazado_12753" data-name="Trazado 12753" d="M1988.841,1235.421c-.921,2-1.794,3.452-2.042,4.027h0a7.136,7.136,0,0,1-1.243,1.676c-1.752,1.888-5.011,4.379-8.214,4.292a5.554,5.554,0,0,1-1.056-.127,5.027,5.027,0,0,1-3.661-2.529c-6.636-12.992-1.832-23.616-1.832-23.616s18.145-5.132,20.984.331C1993.768,1223.307,1991,1230.718,1988.841,1235.421Z" transform="translate(-1969.111 -1216.959)" fill="#ffb490"/>
      </g>
      <g id="Grupo_9282" data-name="Grupo 9282" transform="translate(105.283)">
        <path id="Trazado_12754" data-name="Trazado 12754" d="M1969.685,1200.916s-1.684-.094-2.1-3.288c-.411-3.157.421-4.031.421-4.031s.377,2.136,9.776-2.508c2.439-1.2,9.708-1.835,11.259-.062,0,0,3.767-.876,4.793,5.378,1.628,9.921-5.548,19.554-5.548,19.554s.061-6.481-1.368-7.34-2.663,1.184-2.663,1.184l-2.924.524s4.441-9.589-.887-9.945S1972.735,1201.472,1969.685,1200.916Z" transform="translate(-1967.469 -1189.926)" fill="#facaa0"/>
      </g>
      <g id="Grupo_9283" data-name="Grupo 9283" transform="translate(122.054 14.558)">
        <path id="Trazado_12755" data-name="Trazado 12755" d="M2019.059,1237.361c.278-2.855,5.442-3.946,5.1-.953s-2.889,5.868-4.063,5.767S2018.847,1239.537,2019.059,1237.361Z" transform="translate(-2018.965 -1234.626)" fill="#ffb490"/>
      </g>
      <g id="Grupo_9284" data-name="Grupo 9284" transform="translate(117.586 41.885)">
        <path id="Trazado_12756" data-name="Trazado 12756" d="M2038.941,1362.929c2.027,4.127,14.688,31.719,16.908,32.128s8.133-4.7,8.133-4.7-14.127-31.143-15.315-33.236-14.742-31.645-16.754-33.087c-1.163-.834-6.181-2.974-10.408-4.639-.772-.305-1.52-.6-2.212-.858-.9,1-15.311,17.287-13.957,31.727.407,4.338.952,11.414,2.153,18.864,1.242,7.74,3.248,16.491,4.545,23.1a121.088,121.088,0,0,0,7.518,23.33l13.5-6.756a4.7,4.7,0,0,0,2.323-5.781c-3.036-8.5-9.1-25.677-9.1-33.138,0,0,.479-16.845,1.64-20.861C2027.909,1349.014,2036.616,1358.2,2038.941,1362.929Z" transform="translate(-2005.246 -1318.533)" fill="#192454"/>
      </g>
      <g id="Grupo_9285" data-name="Grupo 9285" transform="translate(22.802 43.141)">
        <path id="Trazado_12757" data-name="Trazado 12757" d="M1755.649,1331.21l-41.437,3.4s.579,5.393,1.1,7.251c.327,1.173,39.238,1.138,41.126,1.173,2.074.039,29.965,1,30.273.327l.588,10.4c-.261,9.35.959,15.78.4,23.038-1.082,13.986-6.56,29.639-8.3,35.26a2.547,2.547,0,0,0,.705,2.627l4.2,3.88s5.846-18.009,6.537-24.51c.667-6.279,2.765-14.693,3.684-22.892v0c1.165-10.4,2.377-20.706,3.241-26.761,2.253-15.761,4.107-21.936,4.107-21.936l-.083-.066c-1.02.468-2.225,1.022-3.506,1.614-2.681,1.238-13.71,3.15-16.321,3.573C1781.956,1327.579,1758.951,1330.351,1755.649,1331.21Z" transform="translate(-1714.212 -1322.392)" fill="#192454"/>
      </g>
      <g id="Grupo_9286" data-name="Grupo 9286" transform="translate(117.586 41.885)">
        <path id="Trazado_12758" data-name="Trazado 12758" d="M2016.34,1332.167l-5.175,2.918,2.21,2.255-5.886,31.784c-1.2-7.45-1.747-14.525-2.153-18.864-1.354-14.44,13.06-30.73,13.957-31.727.692.262,1.44.553,2.212.858Z" transform="translate(-2005.246 -1318.533)" fill="#3c4168"/>
      </g>
      <g id="Grupo_9287" data-name="Grupo 9287" transform="translate(101.905 43.067)">
        <path id="Trazado_12759" data-name="Trazado 12759" d="M1965.729,1322.165s-1.933,6.315-4.187,22.076c-.864,6.055-2.076,16.36-3.241,26.761l-1.205-29.766,2.465-2.671-2.191-2.739,4.689-11.973c1.281-.592,2.487-1.146,3.507-1.614Z" transform="translate(-1957.097 -1322.165)" fill="#3c4168"/>
      </g>
      <g id="Grupo_9288" data-name="Grupo 9288" transform="translate(133.844 42.743)">
        <path id="Trazado_12760" data-name="Trazado 12760" d="M2055.168,1321.168c4.227,1.666,12.419,4.264,13.582,5.1,2.012,1.443,12.394,30.534,13.581,32.627Z" transform="translate(-2055.168 -1321.168)" fill="#192454"/>
      </g>
      <g id="Grupo_9289" data-name="Grupo 9289" transform="translate(178.992 122.615)">
        <path id="Trazado_12761" data-name="Trazado 12761" d="M2193.794,1616.119l3.008-.48,17-21.3-10.2-27.927-1.919.536Z" transform="translate(-2193.794 -1566.417)" fill="#292c47"/>
      </g>
      <g id="Grupo_9290" data-name="Grupo 9290" transform="translate(110.116 51.809)">
        <path id="Trazado_12762" data-name="Trazado 12762" d="M1983.817,1411.518l-.811-.132c.656-4.039.106-17.492-.336-28.3-.142-3.5-.278-6.8-.35-9.294-.287-9.973,5.444-24.638,5.5-24.784l.765.3c-.057.146-5.727,14.656-5.444,24.459.072,2.486.206,5.789.35,9.285C1983.935,1393.9,1984.487,1407.4,1983.817,1411.518Z" transform="translate(-1982.31 -1349.007)" fill="#ab9d97"/>
      </g>
      <g id="Grupo_9291" data-name="Grupo 9291" transform="translate(108.587 112.196)">
        <path id="Trazado_12763" data-name="Trazado 12763" d="M1984.468,1534.425s-5.15.615-6.854,1.04l.223,5.773,6.745-.719Z" transform="translate(-1977.614 -1534.425)" fill="#5b629c"/>
      </g>
      <g id="Grupo_9292" data-name="Grupo 9292" transform="translate(113.577 51.956)">
        <path id="Trazado_12764" data-name="Trazado 12764" d="M1992.939,1349.917s1.419,15.607,13.339,17.572,27.937,10.323,32.7,15.09l5.822,6.214-.187-7.1s-2.663-11.609-37.9-15.532c0,0-10.093-.228-10.158-16.647C1996.556,1349.514,1992.854,1349.235,1992.939,1349.917Z" transform="translate(-1992.938 -1349.458)" fill="#ffaa3f"/>
      </g>
      <g id="Grupo_9293" data-name="Grupo 9293" transform="translate(112.67 47.842)">
        <path id="Trazado_12765" data-name="Trazado 12765" d="M1990.179,1341.536a6.121,6.121,0,0,0,6.221.376s-1.253-4.911-2.011-5.083S1989.808,1340.644,1990.179,1341.536Z" transform="translate(-1990.153 -1336.824)" fill="#ffaa3f"/>
      </g>
      <g id="Grupo_9294" data-name="Grupo 9294" transform="translate(116.856 39.343)">
        <path id="Trazado_12766" data-name="Trazado 12766" d="M2018.04,1313.334l-4.29-2.606s-.12,2.353-10.745,8.5l3.018,8.5Z" transform="translate(-2003.004 -1310.728)" fill="#f3e0d7"/>
      </g>
      <g id="Grupo_9295" data-name="Grupo 9295" transform="translate(110.537 40.528)">
        <path id="Trazado_12767" data-name="Trazado 12767" d="M1987.1,1314.368s.167,2.539,2.827,7.313l-5.889,7.677-.429-12.451Z" transform="translate(-1983.603 -1314.368)" fill="#f3e0d7"/>
      </g>
    </g>
    <g id="Grupo_9311" data-name="Grupo 9311" transform="translate(301.621 244.499)">
      <g id="Grupo_9297" data-name="Grupo 9297" transform="translate(0 3.472)">
        <rect id="Rectángulo_1940" data-name="Rectángulo 1940" width="4.709" height="31.23" fill="#dedede"/>
      </g>
      <g id="Grupo_9298" data-name="Grupo 9298" transform="translate(11.694 9.818)">
        <rect id="Rectángulo_1941" data-name="Rectángulo 1941" width="4.709" height="24.884" fill="#dedede"/>
      </g>
      <g id="Grupo_9299" data-name="Grupo 9299" transform="translate(23.387 5.149)">
        <rect id="Rectángulo_1942" data-name="Rectángulo 1942" width="4.709" height="29.553" fill="#dedede"/>
      </g>
      <g id="Grupo_9300" data-name="Grupo 9300" transform="translate(35.08 14.368)">
        <rect id="Rectángulo_1943" data-name="Rectángulo 1943" width="4.71" height="20.334" fill="#dedede"/>
      </g>
      <g id="Grupo_9301" data-name="Grupo 9301" transform="translate(46.774 6.106)">
        <rect id="Rectángulo_1944" data-name="Rectángulo 1944" width="4.71" height="28.596" fill="#dedede"/>
      </g>
      <g id="Grupo_9302" data-name="Grupo 9302" transform="translate(58.467 1.796)">
        <rect id="Rectángulo_1945" data-name="Rectángulo 1945" width="4.709" height="32.906" fill="#dedede"/>
      </g>
      <g id="Grupo_9303" data-name="Grupo 9303" transform="translate(70.161)">
        <rect id="Rectángulo_1946" data-name="Rectángulo 1946" width="4.709" height="34.702" fill="#dedede"/>
      </g>
      <g id="Grupo_9304" data-name="Grupo 9304" transform="translate(0 15.109)">
        <rect id="Rectángulo_1947" data-name="Rectángulo 1947" width="4.709" height="19.593" fill="#00c0c2"/>
      </g>
      <g id="Grupo_9305" data-name="Grupo 9305" transform="translate(11.694 19.09)">
        <rect id="Rectángulo_1948" data-name="Rectángulo 1948" width="4.709" height="15.612" fill="#00c0c2"/>
      </g>
      <g id="Grupo_9306" data-name="Grupo 9306" transform="translate(23.387 16.161)">
        <rect id="Rectángulo_1949" data-name="Rectángulo 1949" width="4.709" height="18.541" fill="#00c0c2"/>
      </g>
      <g id="Grupo_9307" data-name="Grupo 9307" transform="translate(35.08 21.944)">
        <rect id="Rectángulo_1950" data-name="Rectángulo 1950" width="4.71" height="12.757" fill="#00c0c2"/>
      </g>
      <g id="Grupo_9308" data-name="Grupo 9308" transform="translate(46.774 16.762)">
        <rect id="Rectángulo_1951" data-name="Rectángulo 1951" width="4.71" height="17.94" fill="#00c0c2"/>
      </g>
      <g id="Grupo_9309" data-name="Grupo 9309" transform="translate(58.467 14.058)">
        <rect id="Rectángulo_1952" data-name="Rectángulo 1952" width="4.709" height="20.644" fill="#00c0c2"/>
      </g>
      <g id="Grupo_9310" data-name="Grupo 9310" transform="translate(70.161 12.931)">
        <rect id="Rectángulo_1953" data-name="Rectángulo 1953" width="4.709" height="21.771" fill="#00c0c2"/>
      </g>
    </g>
    <g id="Grupo_9315" data-name="Grupo 9315" transform="translate(591.729 121.187)">
      <path id="Trazado_12768" data-name="Trazado 12768" d="M1452.781,748.494a35.57,35.57,0,0,0-5.447,6.381c-2.577,3.865-9.418,4.071-9.711,9.348s9.3,5.439,14.339,3.721,5.8-6.872,8.844-8.161,4.627-2.332,4.393-4.847a30.655,30.655,0,0,0-1.92-6.6,20.821,20.821,0,0,1-3.005.727A24.914,24.914,0,0,1,1452.781,748.494Z" transform="translate(-1400.383 -544.088)" fill="#252840"/>
      <path id="Trazado_12769" data-name="Trazado 12769" d="M1516.432,277.952s-1.93,11.481-3.486,19.064h0a45.334,45.334,0,0,1-1.554,6.276c-.445.964-4.069,4.856-8.5,9.421-7.782,8.011-18.063,18.1-18.063,18.1l-4.019-7.629s9.132-10.706,15.323-17.849c2.866-3.306,5.1-5.848,5.51-6.215,1.294-1.158,2.8-12.567,4.908-21.967s6.343-14.6,6.343-14.6Z" transform="translate(-1429.507 -216.516)" fill="#ffaa3f"/>
      <path id="Trazado_12770" data-name="Trazado 12770" d="M1502.887,401.285c-7.782,8.011-18.063,18.1-18.063,18.1l-4.019-7.629s9.132-10.706,15.323-17.849A12.987,12.987,0,0,1,1502.887,401.285Z" transform="translate(-1429.507 -305.087)" fill="#ffb490"/>
      <g id="Grupo_9312" data-name="Grupo 9312" transform="translate(111.407 200.999)">
        <path id="Trazado_12771" data-name="Trazado 12771" d="M1677.247,738.621s2.642,2.922,4.206,4.694,7.549,4.938,7.581,10.2c.035,5.705-4.416,5.205-8.375,5a10.942,10.942,0,0,1-8.845-6.175c-1.667-3.23-6.1-4.079-6.416-6.684s2.056-7.295,2.056-7.295Z" transform="translate(-1665.369 -738.358)" fill="#252840"/>
      </g>
      <path id="Trazado_12772" data-name="Trazado 12772" d="M1672.28,723.446l-.511,4.857s8.265,3.6,9.794.263l-.355-4.325Z" transform="translate(-1558.278 -527.303)" fill="#608ac7"/>
      <path id="Trazado_12773" data-name="Trazado 12773" d="M1484.632,738.024l-.451,3.515a17.331,17.331,0,0,0,10.5-.157l.112-3.126Z" transform="translate(-1431.783 -537.134)" fill="#608ac7"/>
      <path id="Trazado_12774" data-name="Trazado 12774" d="M1593.738,315.722c.287,1.022-52.9,0-52.9,0s14.714-10.71,15.667-13.571-3.746-20.027-4.359-25.613c-.49-4.469-1.72-24.467,1.226-27.521,3.08-3.193,14.169-6.539,14.169-6.539l16.167.6a25.393,25.393,0,0,1,4.576,1.443c1.907.886,12.815,4.771,14.586,10.22s-10.884,22.971-10.884,22.971-.025.787-.063,2.078h0c-.049,1.721-.121,4.336-.187,7.172-.084,3.674-.158,7.719-.158,10.674A105.587,105.587,0,0,0,1593.738,315.722Z" transform="translate(-1469.986 -202.977)" fill="#ffd236"/>
      <path id="Trazado_12775" data-name="Trazado 12775" d="M1516.21,461.672s7.235,10.627,7.338,17.881-2.68,27.37-2.885,31.355-3.951,37.193-3.951,37.193-2.9,2.691-11.58-.681c0,0-1.917-31.493-2.122-34.865s-.2-18.9-2.145-21.15-13.691-9.3-15.224-10.626-28.233,5.045-31.03,5.771c-7.244,1.878-3.943,14.483-2.34,20.135,2.682,9.453,5.025,43.6,5.025,43.6s-5.16,2.2-13.8.34c0,0-16.971-61.648-17.516-67.779s-.813-16.24,41.011-23.924Z" transform="translate(-1392.458 -348.927)" fill="#192454"/>
      <path id="Trazado_12776" data-name="Trazado 12776" d="M1613.041,134.168s-14.034-3.166-10.828,14.5,6.581,19.05,15.048,15.394,7.709-14.971,8.135-20.519S1617.518,134.36,1613.041,134.168Z" transform="translate(-1511.053 -129.791)" fill="#ffb490"/>
      <path id="Trazado_12777" data-name="Trazado 12777" d="M1625.045,210.326s6.215,6.589,16.038.6c0,0-2.2-14.28-1.041-21.235s-12.816,10.777-12.816,10.777c.184.1.306.76.333,1.7a19.074,19.074,0,0,1-.147,2.83C1627.125,207.315,1626.406,209.757,1625.045,210.326Z" transform="translate(-1526.771 -166.291)" fill="#ffb490"/>
      <path id="Trazado_12778" data-name="Trazado 12778" d="M1659.289,169.125c.185-1.558,3.265-2.129,3.513.207s-1.4,6.436-2.568,6.033S1659.035,171.274,1659.289,169.125Z" transform="translate(-1549.776 -152.596)" fill="#ffb490"/>
      <path id="Trazado_12779" data-name="Trazado 12779" d="M1623.022,144s-.362-5.565-2.395-5.738-2.345,2.067-2.345,2.067l-2.053.387s.649-4.877-1.38-5.729-13.149,2.685-14.778,1.253-.863-11.325,2.083-12.679,11.082-4.388,17.045-.353c0,0,4.647-.53,5.336,3.22S1624.285,141.208,1623.022,144Z" transform="translate(-1509.364 -121.187)" fill="#192454"/>
      <path id="Trazado_12780" data-name="Trazado 12780" d="M1632.316,220.754c10.134-3.125,10.9-9.226,10.908-9.322-3.337,5.734-10.761,6.491-10.761,6.491A19.072,19.072,0,0,1,1632.316,220.754Z" transform="translate(-1531.674 -182.041)" fill="#ff9f84"/>
      <path id="Trazado_12781" data-name="Trazado 12781" d="M1634.648,242.628s-7.421,14.773-19.41,13.819-2.043-15.8-1.5-15.94C1614.339,240.356,1626.036,237.442,1634.648,242.628Z" transform="translate(-1516.189 -201.006)" fill="#ffb490"/>
      <path id="Trazado_12782" data-name="Trazado 12782" d="M1522.151,455.625s36.734,4.529,58.988.748l-42.524-5.313S1538.365,452.144,1522.151,455.625Z" transform="translate(-1457.387 -343.628)" fill="#ffaa3f"/>
      <path id="Trazado_12783" data-name="Trazado 12783" d="M1600.845,445.923l-2.736,1.386s.623,4.347,2.122,5.664l3.071-.783S1602.662,447.421,1600.845,445.923Z" transform="translate(-1508.607 -340.164)" fill="#ffb490"/>
      <path id="Trazado_12784" data-name="Trazado 12784" d="M1649.018,322.331c-.547.633-7.769,3.538-15.927,6.68h0c-11.145,4.293-23.717,8.355-23.717,8.355l-2.862-6.135s13.165-7.154,22.062-12.171c4.2-2.37,7.452-4.263,7.911-4.7,1.43-1.362,1.8-3.547.749-7.357s-3.474-21.321-3.747-23.365.682-7.493,5.791-7.765,7.709,1.17,7.709,1.17,1.283.533,2.236,12.931S1650.312,320.832,1649.018,322.331Z" transform="translate(-1514.273 -225.472)" fill="#ffaa3f"/>
      <path id="Trazado_12785" data-name="Trazado 12785" d="M1691.24,326.057h0c-.049,1.721-.121,4.336-.187,7.172-4.986-12.222-2.105-21.976-2.056-22.14C1688.457,314.406,1691.2,325.894,1691.24,326.057Z" transform="translate(-1569.307 -249.243)" fill="#ffd236"/>
      <path id="Trazado_12786" data-name="Trazado 12786" d="M1574.608,342.445h0a45.3,45.3,0,0,1-1.554,6.276c-1.7-8.243-.171-18.795-.171-18.795A106.142,106.142,0,0,0,1574.608,342.445Z" transform="translate(-1491.17 -261.945)" fill="#ffaa3f"/>
      <path id="Trazado_12787" data-name="Trazado 12787" d="M1633.091,418.5h0c-11.145,4.293-24.123,8.487-24.123,8.487l-2.456-6.267s13.165-7.154,22.062-12.171C1628.573,408.553,1631.809,410.129,1633.091,418.5Z" transform="translate(-1514.273 -314.964)" fill="#ffb490"/>
      <path id="Trazado_12788" data-name="Trazado 12788" d="M1495.976,464.691l-52.211-.768,26.361,13.385Z" transform="translate(-1404.53 -352.301)" fill="#5e5953"/>
      <path id="Trazado_12789" data-name="Trazado 12789" d="M1520.475,478.9l25.85-10.013v-2.6l-27.894,10.062Z" transform="translate(-1454.879 -353.892)" fill="#8f867f"/>
      <g id="Grupo_9313" data-name="Grupo 9313" transform="translate(71.896 106.076)">
        <path id="Trazado_12790" data-name="Trazado 12790" d="M1562.247,448.06s-3.262-.508-5.516-1.032c-1.744-.406-6.082.154-7.186,1.273s-4.618,8.92-5.283,9.4.34,1.578,1.507,1.024c0,0,1.071,3.413,3.715,2.135s4.44-4.067,5.825-4.559,9.449-2.971,9.449-2.971S1564.325,447.229,1562.247,448.06Z" transform="translate(-1544.05 -446.895)" fill="#ffb490"/>
      </g>
      <g id="Grupo_9314" data-name="Grupo 9314" transform="translate(72.131 106.97)">
        <path id="Trazado_12791" data-name="Trazado 12791" d="M1550.829,449.639a22.783,22.783,0,0,0-2.642,1.463c-.546.451-2.763,2.11-3.3,2.5s.81,1.5,4.773-.216S1550.829,449.639,1550.829,449.639Z" transform="translate(-1544.773 -449.639)" fill="#ffb490"/>
      </g>
      <path id="Trazado_12792" data-name="Trazado 12792" d="M1388.889,417.227l-15.531-42.4-50.065.817,14.8,39.075Z" transform="translate(-1323.293 -292.22)" fill="#6e6760"/>
      <path id="Trazado_12793" data-name="Trazado 12793" d="M1410.243,424.245c1.528,3.054,1.066,6.38-1.03,7.429s-5.035-.576-6.563-3.63-1.067-6.38,1.03-7.43S1408.716,421.19,1410.243,424.245Z" transform="translate(-1376.197 -322.882)" fill="#00c0c2"/>
    </g>
    <g id="Grupo_9359" data-name="Grupo 9359" transform="translate(587.557 466.715)">
      <g id="Grupo_9316" data-name="Grupo 9316" transform="translate(44.6 9.829)">
        <path id="Trazado_12794" data-name="Trazado 12794" d="M1455.4,1216.63s2.931-6.41,8.852-3.6,4.945,11.313,2.747,14.906-10.059,8.9-7.5,15.375a72.985,72.985,0,0,0,5.792,11.478s-15.873-.717-17.644-9.15S1455.4,1216.63,1455.4,1216.63Z" transform="translate(-1447.428 -1212.317)" fill="#233247"/>
      </g>
      <g id="Grupo_9317" data-name="Grupo 9317" transform="translate(93.441 109.121)">
        <path id="Trazado_12795" data-name="Trazado 12795" d="M1597.394,1520.87s2.064,1.889,1.929,3.547-.3,6.862.392,7.387,1.4.061,1.474-.819.423-5.049.922-4.933c4.374,1.019,9.226,9.229,10.69,11.195.47.631,1.5.591,1.566-.238a47.208,47.208,0,0,0-4.22-10.357c-2.96-5.3-8.857-9.456-8.857-9.456Z" transform="translate(-1597.394 -1517.196)" fill="#ffb490"/>
      </g>
      <g id="Grupo_9318" data-name="Grupo 9318" transform="translate(25.995 15.926)">
        <path id="Trazado_12796" data-name="Trazado 12796" d="M1396.073,1247.743l12.136-10.883-6.969-5.822-10.939,11.457Z" transform="translate(-1390.301 -1231.037)" fill="#51578a"/>
      </g>
      <g id="Grupo_9319" data-name="Grupo 9319" transform="translate(27.104 17.043)">
        <path id="Trazado_12797" data-name="Trazado 12797" d="M1398.7,1248.925l10.5-9.419-6.031-5.039-9.468,9.915Z" transform="translate(-1393.707 -1234.468)" fill="#3e3b42"/>
      </g>
      <g id="Grupo_9320" data-name="Grupo 9320" transform="translate(24.706 27.795)">
        <path id="Trazado_12798" data-name="Trazado 12798" d="M1386.488,1272.528a1.864,1.864,0,0,0,1.283-2.494c-.551-2.07.293-2.551.293-2.551l6.422,5.814s-3.092,2.838-4.034,2.955S1385.546,1273.663,1386.488,1272.528Z" transform="translate(-1386.344 -1267.483)" fill="#e19e80"/>
      </g>
      <g id="Grupo_9321" data-name="Grupo 9321" transform="translate(30.038 27.443)">
        <path id="Trazado_12799" data-name="Trazado 12799" d="M1405.525,1272.567s3.879-2.367,4.244-2.719a32.928,32.928,0,0,0,2.807-2.861c.708-.932-2.131-.69-2.95.278a4.572,4.572,0,0,1-2.126,1.46c-.57.216-4.016.424-4.695,1.38S1405.525,1272.567,1405.525,1272.567Z" transform="translate(-1402.715 -1266.4)" fill="#e19e80"/>
      </g>
      <g id="Grupo_9322" data-name="Grupo 9322" transform="translate(27.36 24.554)">
        <path id="Trazado_12800" data-name="Trazado 12800" d="M1394.755,1259.508a.467.467,0,0,0,.835-.095c.368-.667.332-2.2-.612-1.827S1394.755,1259.508,1394.755,1259.508Z" transform="translate(-1394.493 -1257.529)" fill="#e19e80"/>
      </g>
      <g id="Grupo_9323" data-name="Grupo 9323" transform="translate(28.807 22.757)">
        <path id="Trazado_12801" data-name="Trazado 12801" d="M1398.939,1253.753s.168,1.132.752.62,1.163-2.413.142-2.36S1398.939,1253.753,1398.939,1253.753Z" transform="translate(-1398.934 -1252.013)" fill="#e19e80"/>
      </g>
      <g id="Grupo_9324" data-name="Grupo 9324" transform="translate(30.471 21.097)">
        <path id="Trazado_12802" data-name="Trazado 12802" d="M1404.05,1248.657s0,1.367.681.97c.511-.3,1.235-2.763.213-2.71S1404.05,1248.657,1404.05,1248.657Z" transform="translate(-1404.044 -1246.916)" fill="#e19e80"/>
      </g>
      <g id="Grupo_9327" data-name="Grupo 9327" transform="translate(28.023 238.179)">
        <g id="Grupo_9326" data-name="Grupo 9326">
          <g id="Grupo_9325" data-name="Grupo 9325">
            <path id="Trazado_12803" data-name="Trazado 12803" d="M1414.426,1925.425c-2.449.734-3.183,4.9-5.265,6.122s-12.245,2.082-12.612-1.1,4.263-6.037,6.345-7.628,7.39-7.267,8.345-9.348a2.364,2.364,0,0,0,2.5,1.079c2.514-.2,3.1-.782,3.1-.782.4,2.507.768,4.213,1.016,5.17A5.11,5.11,0,0,1,1414.426,1925.425Z" transform="translate(-1396.528 -1913.468)" fill="#deccc5"/>
          </g>
        </g>
      </g>
      <g id="Grupo_9330" data-name="Grupo 9330" transform="translate(46.697 238.093)">
        <g id="Grupo_9329" data-name="Grupo 9329">
          <g id="Grupo_9328" data-name="Grupo 9328">
            <path id="Trazado_12804" data-name="Trazado 12804" d="M1469.7,1925.817c-1.89,1.721-2.248,4.466-4.33,5.69a10.944,10.944,0,0,1-3.182.959c-2.542.455-5.767.553-7.346-.368a1.739,1.739,0,0,1-.95-1.316c-.367-3.183,4.351-6.75,6.433-8.342,1.28-.979,2.609-3.256,3.664-5.349.659-1.308,1.21-2.542,1.579-3.345l.374-.542a1.768,1.768,0,0,0,.447.87,2.411,2.411,0,0,0,2.278.5,6.164,6.164,0,0,0,2.988-1.049l.031-.029c.013-.013.024-.023.031-.031a.037.037,0,0,1,.01-.01l.005-.006h0c.411,1.99,1.057,4.022,1.3,4.979C1473.891,1921.734,1471.483,1924.188,1469.7,1925.817Z" transform="translate(-1453.867 -1913.204)" fill="#deccc5"/>
          </g>
        </g>
      </g>
      <g id="Grupo_9333" data-name="Grupo 9333" transform="translate(18.753 85.559)">
        <g id="Grupo_9332" data-name="Grupo 9332">
          <g id="Grupo_9331" data-name="Grupo 9331">
            <path id="Trazado_12805" data-name="Trazado 12805" d="M1380.735,1468.159s-6.7,23.356-7.87,29.317-4.441,34.83-4.792,39.739,10.941,27.928,11.557,29.586c2.386,6.427,12.129,29.733,12.129,29.733s6.3,3.741,5.589-1.738c-2.14-16.635-3.144-20.752-4.643-29.389-3.282-18.909-10.06-21.393-9.023-24.151,10.488-27.888,12.6-46.812,14-48.448s1.595.835,2.413,4.458-.331,28.564,1.142,38.19c.8,5.241,2.608,16.992,3.192,23.771s3.646,38.153,3.646,38.153.4,1.169,5.08-1.419c.776-.43,4.485-27.729,4.6-35.794s-3.449-9.217-.589-24.83c6.131-33.466,5.282-39.232-1.867-63.285C1397.81,1413.2,1380.735,1468.159,1380.735,1468.159Z" transform="translate(-1368.064 -1444.847)" fill="#ffb490"/>
          </g>
        </g>
      </g>
      <g id="Grupo_9336" data-name="Grupo 9336" transform="translate(0 31.908)">
        <g id="Grupo_9335" data-name="Grupo 9335">
          <g id="Grupo_9334" data-name="Grupo 9334">
            <path id="Trazado_12806" data-name="Trazado 12806" d="M1403.479,1362.514c.393-.092-9-19.489-10.485-22.181-2.754-4.982-3.99-6.086-6.221-10.843-2.292-4.893-9.917-17.792-11.505-22.306a13.593,13.593,0,0,1-.768,1.854c-3.335,6.813-4.417,15.282-4.86,22.773-.342,5.788,1.215,10.266,3.324,15,.739,1.656,1.542,3.344,2.358,5.13,1.068,2.341,2.577,4.758.5,6.9-1.867,1.925-5.53,2.315-7.981,2.635-.57.075-1.167.145-1.788.213-5.948.639-14.011.829-19.26-1.336-7.094-2.926-5.822-11.856-6.582-18.091-.506-4.171-4.241-17.527-5.4-21.575-1.143-3.99.735-8.974,1.953-13.535-.757.264-1.616.561-2.545.875-7.014,2.366-18.149,5.675-21.679,2.706-4.246-3.57-1.054-8.061,1.686-11.87,4.5-6.255,17.219-14.173,20.323-18.75a48.481,48.481,0,0,1,5.684,5.331l-10.705,10.914c-.606.7-1.286,1.438-1.975,2.145q-.27.277-.54.545a.04.04,0,0,1-.008.01c1.289-.7,2.657-1.441,3.932-2.178h0c.979-.565,1.9-1.125,2.689-1.65,4.954-3.3,6.857-3.35,12.965-5.786a27.336,27.336,0,0,1,16.653-.844c3.764.958,6.187,1.534,9.846,2.365.608.137.979.219,1.192.266-.894-.236.825.175.035.008.192.05.487.125.927.236,4.2,1.055,7.932,5.778,10.148,11.157,1.321,3.207,7.141,16.467,8.256,19.76,1.336,3.944,15.3,32.338,17.3,36.639C1410.954,1359.028,1408.653,1361.3,1403.479,1362.514Z" transform="translate(-1310.483 -1280.11)" fill="#ffaa3f"/>
          </g>
        </g>
      </g>
      <g id="Grupo_9339" data-name="Grupo 9339" transform="translate(36.518 39.309)">
        <g id="Grupo_9338" data-name="Grupo 9338">
          <g id="Grupo_9337" data-name="Grupo 9337">
            <path id="Trazado_12807" data-name="Trazado 12807" d="M1440.849,1304.422s-6.176,12.335-13.006,14.908c0,0-6.734-5.979-4.921-14.836C1422.922,1304.494,1432.389,1300.809,1440.849,1304.422Z" transform="translate(-1422.612 -1302.835)" fill="#ffb490"/>
          </g>
        </g>
      </g>
      <g id="Grupo_9341" data-name="Grupo 9341" transform="translate(15.42 103.928)">
        <g id="Grupo_9340" data-name="Grupo 9340">
          <path id="Trazado_12808" data-name="Trazado 12808" d="M1408.573,1504.192s10.636,22.027,3.486,66.717c0,0-21.693-2.032-54.228-4.356,0,0,14.8-60.115,15.215-63.936S1408.573,1504.192,1408.573,1504.192Z" transform="translate(-1357.831 -1501.249)" fill="#192454"/>
        </g>
      </g>
      <g id="Grupo_9344" data-name="Grupo 9344" transform="translate(42.262 236.033)">
        <g id="Grupo_9343" data-name="Grupo 9343">
          <g id="Grupo_9342" data-name="Grupo 9342">
            <path id="Trazado_12809" data-name="Trazado 12809" d="M1440.248,1907.65a4.765,4.765,0,0,0,5.823-.771l.25,2.443s-4.327,4.343-5.6-.3Z" transform="translate(-1440.248 -1906.879)" fill="#ffb490"/>
          </g>
        </g>
      </g>
      <g id="Grupo_9347" data-name="Grupo 9347" transform="translate(58.767 235.6)">
        <g id="Grupo_9346" data-name="Grupo 9346">
          <g id="Grupo_9345" data-name="Grupo 9345">
            <path id="Trazado_12810" data-name="Trazado 12810" d="M1491.812,1906.364s1.814,1.639,4.555-.812l.353,2.737s-4.518,4.4-5.791-.244Z" transform="translate(-1490.929 -1905.551)" fill="#ffb490"/>
          </g>
        </g>
      </g>
      <g id="Grupo_9348" data-name="Grupo 9348" transform="translate(16.536 50.297)">
        <path id="Trazado_12811" data-name="Trazado 12811" d="M1361.8,1336.576q-.27.277-.54.544A5.791,5.791,0,0,1,1361.8,1336.576Z" transform="translate(-1361.256 -1336.576)" fill="#e94747"/>
      </g>
      <g id="Grupo_9349" data-name="Grupo 9349" transform="translate(23.742 53.309)">
        <path id="Trazado_12812" data-name="Trazado 12812" d="M1388.072,1345.823c-.948,1.371-2.144,5.637-2.144,5.637-.758.264-1.616.561-2.546.875C1384.372,1349.694,1387.962,1345.939,1388.072,1345.823Z" transform="translate(-1383.383 -1345.823)" fill="#ffaa3f"/>
      </g>
      <g id="Grupo_9350" data-name="Grupo 9350" transform="translate(52.814 10.928)">
        <path id="Trazado_12813" data-name="Trazado 12813" d="M1476.93,1215.691s3.3,1.649,3.113,6.472-4.91,8.546-6.96,7.565S1476.93,1215.691,1476.93,1215.691Z" transform="translate(-1472.65 -1215.691)" fill="#51578a"/>
      </g>
      <g id="Grupo_9351" data-name="Grupo 9351" transform="translate(30.32 1.926)">
        <path id="Trazado_12814" data-name="Trazado 12814" d="M1409.474,1189.727a14.888,14.888,0,0,0-5.861,13.126c.549,8.913,3.54,17.827,5.372,18.621s9.321-2.539,10.867-3.358a22.785,22.785,0,0,0,5.7-4.9c.61-1.038,7.061-15.182.834-20.554S1416.923,1187.04,1409.474,1189.727Z" transform="translate(-1403.58 -1188.05)" fill="#ffb490"/>
      </g>
      <g id="Grupo_9352" data-name="Grupo 9352" transform="translate(37.972 23.633)">
        <path id="Trazado_12815" data-name="Trazado 12815" d="M1440.337,1274.355s-3.236-8.364-.306-17.033-12.515,6.96-12.515,6.96.006.8,0,1.961c-.006.825-.021,1.834-.05,2.862a35.25,35.25,0,0,1-.376,4.945C1426.6,1276.37,1440.337,1274.355,1440.337,1274.355Z" transform="translate(-1427.076 -1254.703)" fill="#ffb490"/>
      </g>
      <g id="Grupo_9353" data-name="Grupo 9353" transform="translate(30.259)">
        <path id="Trazado_12816" data-name="Trazado 12816" d="M1414.476,1196.362a29.031,29.031,0,0,1-11.021,1.529s-1.8-15.754,13.983-15.754,13.462,15.751,13.156,17.888-3.981,9.811-7.362,11.589c0,0,1.989-8.109-.27-9.574S1415.636,1198.8,1414.476,1196.362Z" transform="translate(-1403.393 -1182.137)" fill="#233247"/>
      </g>
      <g id="Grupo_9354" data-name="Grupo 9354" transform="translate(46.402 15.754)">
        <path id="Trazado_12817" data-name="Trazado 12817" d="M1453.151,1232.95c.322-1.793,2.015-3.48,3.968-1.648s-1.343,6.41-2.747,6.166S1452.724,1235.331,1453.151,1232.95Z" transform="translate(-1452.961 -1230.511)" fill="#ffb490"/>
      </g>
      <g id="Grupo_9355" data-name="Grupo 9355" transform="translate(38.36 31.991)">
        <path id="Trazado_12818" data-name="Trazado 12818" d="M1428.269,1286.41h0s6.308-2.076,8.231-6.044a47.864,47.864,0,0,1-8.182,3.182C1428.313,1284.373,1428.3,1285.382,1428.269,1286.41Z" transform="translate(-1428.269 -1280.366)" fill="#ff9f84"/>
      </g>
      <g id="Grupo_9356" data-name="Grupo 9356" transform="translate(46.753 98.526)">
        <path id="Trazado_12819" data-name="Trazado 12819" d="M1472.63,1496.77c-1.868,1.925-5.53,2.315-7.981,2.635-.57.075-1.168.145-1.788.213-4.723-4.38-8.823-9-8.823-9l15.649-5.954.08.082c.738,1.656,1.542,3.344,2.358,5.13C1473.194,1492.216,1474.7,1494.632,1472.63,1496.77Z" transform="translate(-1454.038 -1484.662)" fill="#192454"/>
      </g>
      <g id="Grupo_9358" data-name="Grupo 9358" transform="translate(30.27 96.5)">
        <g id="Grupo_9357" data-name="Grupo 9357">
          <path id="Trazado_12820" data-name="Trazado 12820" d="M1403.477,1484.075s12.806,4.8,31.259-5.634c0,0,.714,1.444,1.539,3.512,0,0-16.83,10.369-32.483,5.284A11.283,11.283,0,0,1,1403.477,1484.075Z" transform="translate(-1403.427 -1478.441)" fill="#ffaa3f"/>
        </g>
      </g>
    </g>
  </g>
</svg>
