<svg xmlns="http://www.w3.org/2000/svg" xmlns:xlink="http://www.w3.org/1999/xlink" width="218.257" height="252.572" viewBox="0 0 218.257 252.572">
  <defs>
    <linearGradient id="linear-gradient" x1="1.481" y1="0.5" x2="2.481" y2="0.5" gradientUnits="objectBoundingBox">
      <stop offset="0" stop-color="#dfefea"/>
      <stop offset="1" stop-color="#bfe3ee"/>
    </linearGradient>
    <linearGradient id="linear-gradient-2" y1="0.5" x2="1" y2="0.5" gradientUnits="objectBoundingBox">
      <stop offset="0" stop-color="#f1f8f7"/>
      <stop offset="1" stop-color="#bfe3ee"/>
    </linearGradient>
    <linearGradient id="linear-gradient-4" x1="16.319" x2="17.319" xlink:href="#linear-gradient-2"/>
    <linearGradient id="linear-gradient-5" x1="13.624" x2="14.624" xlink:href="#linear-gradient-2"/>
  </defs>
  <g id="Grupo_9517" data-name="Grupo 9517" transform="translate(-431.261 -193.051)">
    <path id="Trazado_13049" data-name="Trazado 13049" d="M733.02,885.7c-1.1,3.913-7.638,5.493-12.005,16.364s-.62,27.906,13.07,27.38,23.26-6.04,26.017-15.393-9.013-19.048-9.539-27.5-11.367-8.734-11.367-8.734Z" transform="translate(-258.447 -614.439)" fill="#222954"/>
    <path id="Trazado_13051" data-name="Trazado 13051" d="M528.306,635.306H433.545s-5.139-6.5,0-10.875a8.969,8.969,0,0,1,8.617-1.455,2.836,2.836,0,0,0,3.513-2.221c.576-2.673,2.352-6.17,7.453-8.237,5.018-2.033,8.193,1.072,10.029,4.261a1.425,1.425,0,0,0,2.578-.263c1.591-5.036,7.135-11.711,25.35-11.711,23.167,0,20.593,12.316,18.523,17.435a1.18,1.18,0,0,0,1.339,1.609c3.574-.764,10.207-1.754,13.181.581C528.306,627.71,528.306,635.306,528.306,635.306Z" transform="translate(0 -369.469)" fill="url(#linear-gradient)"/>
    <g id="Grupo_9502" data-name="Grupo 9502" transform="translate(503.618 199.592)">
      <g id="Grupo_9498" data-name="Grupo 9498" transform="translate(34.75 43.398)">
        <path id="Trazado_13052" data-name="Trazado 13052" d="M1635.77,724.207s-17.681-13.954-19.145-17.2-2.14-23.4-2.14-23.4l7.6-1.689,4.392,23.818,25.846,7.433L1637.4,728.824Z" transform="translate(-1600.082 -681.654)" fill="#00666b"/>
        <g id="Grupo_9497" data-name="Grupo 9497">
          <path id="Trazado_13053" data-name="Trazado 13053" d="M1671.006,2347.652l-.9,7.433-2.815,3.491-7.658-3.322.619-1.182,1.774-23.706Z" transform="translate(-1640.593 -2160.816)" fill="#f6b690"/>
          <path id="Trazado_13054" data-name="Trazado 13054" d="M2040.953,2347.652l1.394,11.36,2.322-.437,6.76-3.322-.619-1.182-1.774-23.706Z" transform="translate(-1982.755 -2160.816)" fill="#f6b690"/>
          <path id="Trazado_13055" data-name="Trazado 13055" d="M1669.807,1435.659l-1.412,3.655-4.818,58.466-2.027,47.637h13.176l7.939-49.411,12.582-55.34-4.881-4.759Z" transform="translate(-1642.315 -1357.99)" fill="#222954"/>
          <path id="Trazado_13056" data-name="Trazado 13056" d="M1867.209,1433.352a406.912,406.912,0,0,0,3.451,48.29c2.793,20.8,7.34,44.357,12.285,61.278h13.937s-4.089-103.54-4.658-106.39a6.718,6.718,0,0,0-2.505-4.134Z" transform="translate(-1826.853 -1355.063)" fill="#0a3c5f"/>
          <path id="Trazado_13057" data-name="Trazado 13057" d="M1940.264,855.151a88.531,88.531,0,0,0-.271,9.969c-2.365,2.154-7.644,1.774-10.093-.591a82.642,82.642,0,0,0,.439-13.423s7.933,2.679,8.068,2.782S1940.264,855.151,1940.264,855.151Z" transform="translate(-1883.106 -833.466)" fill="#f4a086"/>
          <path id="Trazado_13058" data-name="Trazado 13058" d="M1879.055,756.756s-4.441,5.643-5.585,6.312-8.657,1.489-12.272-1.572,5.373-13.788,7.631-15.786c5.182,2.183,11.6,7,11.6,7Z" transform="translate(-1820.7 -738.894)" fill="#f6b690"/>
          <path id="Trazado_13059" data-name="Trazado 13059" d="M1940.319,679.511s-2.113-1.338-5.653,3.4,4.876,11.6,8.755,11.308c-1.69,3.276.024,7.618.024,7.618s10.259-3.488,10.116-8.406c-.043-1.491-1.972-2.292-1.972-2.292s2.007-2.55-1.707-5.854-7.818-2.2-9.246-3.5S1940.319,679.511,1940.319,679.511Z" transform="translate(-1886.62 -679.337)" fill="#222954"/>
          <path id="Trazado_13060" data-name="Trazado 13060" d="M2009.078,865.879c.348-.208,1.74-.578,2.2.546s-.145,1.875-1.123,2.549-3.063,1.284-3.614.417C2006.026,868.582,2007.219,866.99,2009.078,865.879Z" transform="translate(-1951.769 -846.517)" fill="#f6b690"/>
          <path id="Trazado_13061" data-name="Trazado 13061" d="M1771.344,975.212c-8.636-.823-9.734-1.415-9.734-1.415s-13.389-.31-17,17.3c-2.068,10.081-2.66,30.133-2.66,30.133s14.627,3.458,35.373-.335c-.478-5.516-.933-7.606.017-14.574C1778.692,996.394,1788.616,979.726,1771.344,975.212Z" transform="translate(-1714.457 -943.558)" fill="#63c0c4"/>
          <path id="Trazado_13062" data-name="Trazado 13062" d="M1504.188,2540.857l.975,8.775h-30.9a4.9,4.9,0,0,1,1.764-4.387c2.159-1.532,5.5-.255,8.287-1.555s6.105-5.687,9.471-5.27,1.718,4.991,4.805,5.107c2.6.1,2.549-1.672,3.974-2.436a2.474,2.474,0,0,1,1.437-.253Z" transform="translate(-1474.237 -2347.48)" fill="#0a3c5f"/>
          <path id="Trazado_13063" data-name="Trazado 13063" d="M1504.934,2626.594l.243,2.182h-30.9a5.69,5.69,0,0,1,.214-2.182Z" transform="translate(-1474.251 -2426.624)" fill="#222954"/>
          <path id="Trazado_13064" data-name="Trazado 13064" d="M2059.124,2562.252h-21.445l.882-8.714h.9s.867,3.46,2.412,3.46,2.579-4.509,5.324-4.542,1.514,2.329,4.908,4.06S2059.124,2557.843,2059.124,2562.252Z" transform="translate(-1979.817 -2360.1)" fill="#0a3c5f"/>
          <path id="Trazado_13065" data-name="Trazado 13065" d="M2058.514,2625.634a3.823,3.823,0,0,1,.609,2.281h-21.445l.249-2.281Z" transform="translate(-1979.817 -2425.763)" fill="#222954"/>
          <path id="Trazado_13066" data-name="Trazado 13066" d="M2130.7,2603.516a9.315,9.315,0,0,1,5.114.994,3.8,3.8,0,0,1,1.682,3.553h-12.476S2125.5,2603.642,2130.7,2603.516Z" transform="translate(-2058.186 -2405.911)" fill="#222954"/>
        </g>
      </g>
      <g id="Grupo_9500" data-name="Grupo 9500" transform="translate(0)">
        <path id="Trazado_13067" data-name="Trazado 13067" d="M1909.807,587.473l1.521.394a6.423,6.423,0,0,0,4.573-.974c1.122,1.216-.856,1.988-.856,1.988s4.054.9,4.448,2.252-4.8,1.464-5.816,1.07a8.849,8.849,0,0,1-2.292-1.689l-3.547-1.126Z" transform="translate(-1828.559 -552.989)" fill="#f6b690"/>
        <g id="Grupo_9499" data-name="Grupo 9499">
          <path id="Trazado_13068" data-name="Trazado 13068" d="M1341.172,405.607l-1.394-6.335,2.661-.422,2.027,6.757Z" transform="translate(-1318.836 -384.256)" fill="#f6b690"/>
          <path id="Trazado_13069" data-name="Trazado 13069" d="M1224.017,536.134l-4.307-3.632-2.069.929a32.632,32.632,0,0,0,3.547,4.9C1222.834,540.019,1224.017,536.134,1224.017,536.134Z" transform="translate(-1209.241 -504.183)" fill="#f6b690"/>
          <path id="Trazado_13070" data-name="Trazado 13070" d="M1774.045,467.089l2.4,4.41a13.671,13.671,0,0,0,5.525,5.5l4.57,2.462-1.9,4.167-6.719-1.932a13.672,13.672,0,0,1-6-3.582l-2.261-2.312Z" transform="translate(-1704.572 -445.488)" fill="#d1eaed"/>
          <path id="Trazado_13071" data-name="Trazado 13071" d="M1776.769,370.542l-4.928,6.388,4.351,3.721,4.651-6.313Z" transform="translate(-1706.53 -358.856)" fill="#f4a086"/>
          <path id="Trazado_13072" data-name="Trazado 13072" d="M1817.048,325.519s-5.3,5.061-3.586,9.5,4.6,5.031,5.941,4.541,4.517-1.838,5.009-2.853.659-1.963,1.036-2.229,3.66-1.851,3.688-4.512-4.607-7.913-7.193-7.665S1817.048,325.519,1817.048,325.519Z" transform="translate(-1743.571 -315.563)" fill="#f6b690"/>
          <path id="Trazado_13073" data-name="Trazado 13073" d="M1860.718,271.237a9.385,9.385,0,0,0-1.459-9.146c-3.514-4.322-8.685-6.317-11.373-4.361.691-1.531-.458-1.047-.392-.153-.762,1.013.947,7.947,8.017,12.8.059-.847.363-1.09.363-1.09a4.99,4.99,0,0,0,2.639,2.614c-.681-1.579-.347-1.69-.347-1.69S1859.56,272.691,1860.718,271.237Z" transform="translate(-1774.264 -256.74)" fill="#222954"/>
          <path id="Trazado_13074" data-name="Trazado 13074" d="M1803.488,267.69a2.8,2.8,0,0,0-3.8.815c-1.884,2.17-2.632,4.008-2.2,6.634a13.389,13.389,0,0,0,1.25,4.07l4.608.54a10.85,10.85,0,0,0,2.8-4.061C1806.726,273.633,1803.488,267.69,1803.488,267.69Z" transform="translate(-1729.435 -266.19)" fill="#222954"/>
          <ellipse id="Elipse_504" data-name="Elipse 504" cx="1.768" cy="1.471" rx="1.768" ry="1.471" transform="translate(69.26 13.306) rotate(-51.151)" fill="#f6b690"/>
          <path id="Trazado_13075" data-name="Trazado 13075" d="M1344.693,446.116l4.225-1.07a92.929,92.929,0,0,1,7.32,16.386c4.279-1.183,9.854-5.462,13.739-5.406,1.521,8.052-15.485,15.26-15.485,15.26l-5.753-7.7Z" transform="translate(-1323.247 -425.708)" fill="#222954"/>
          <path id="Trazado_13076" data-name="Trazado 13076" d="M1274.335,551.968l13.739,11.712s-8,7.151-28.943,9.91c-13.007-5.687-21.341-18.244-21.341-18.244l3.773-3.041s10.473,6.419,16.442,10.867C1264.256,559.907,1268.761,552.306,1274.335,551.968Z" transform="translate(-1227.323 -521.65)" fill="#0a3c5f"/>
          <path id="Trazado_13077" data-name="Trazado 13077" d="M1612.824,432.479c4.345,2.563,4.336,15.766-6.7,23.087-11.487-5.631-14.64-7.264-13.739-11.712C1598.691,440.566,1605,427.862,1612.824,432.479Z" transform="translate(-1545.372 -413.536)" fill="#b7dddf"/>
          <path id="Trazado_13078" data-name="Trazado 13078" d="M1493.486,352.534l-1.276-.916a6.423,6.423,0,0,1-2.177-4.138c-1.653-.084-.98,1.93-.98,1.93s-3.286-2.539-4.577-1.978,1.948,4.628,2.9,5.155a8.848,8.848,0,0,0,2.765.681l3.135,2.006Z" transform="translate(-1448.406 -338.047)" fill="#f6b690"/>
          <path id="Trazado_13079" data-name="Trazado 13079" d="M1568.765,387.563s-11.487-.015-21.116-5.026l-2.252,4.309a31.419,31.419,0,0,0,19.258,10.05c4.476.537,6.532-2.7,6.138-6.138A4.05,4.05,0,0,0,1568.765,387.563Z" transform="translate(-1503.34 -369.619)" fill="#d1eaed"/>
          <path id="Trazado_13080" data-name="Trazado 13080" d="M1136.018,502.039l10.784-2.051.536,4.195s-1.776-1.546-2.282,1.354c0,0-2.111-1.661-8.446-1.7C1135.384,503.5,1136.018,502.039,1136.018,502.039Z" transform="translate(-1135.854 -475.008)" fill="#0a3c5f"/>
          <path id="Trazado_13081" data-name="Trazado 13081" d="M1273.975,362.34l10.662,2.61-1.077,3.468s-1.151-1.573-2.815.855c0,0-1.232-2.387-6.977-5.055C1272.794,363.4,1273.975,362.34,1273.975,362.34Z" transform="translate(-1259.26 -351.496)" fill="#0a3c5f"/>
        </g>
      </g>
      <g id="Grupo_9501" data-name="Grupo 9501" transform="translate(50.886 27.031)">
        <path id="Trazado_13082" data-name="Trazado 13082" d="M1642.138,533.653l-1.07-4.44,2.167-7.715s-1.1-1.6-2.111,1.3c-.7,2.006-5.349-3.21-6.982-2.815s-4.174,4.373-1.809,7.189a15.15,15.15,0,0,0,4.568,3.848l1.064,5.31Z" transform="translate(-1631.372 -519.957)" fill="#f6b690"/>
        <path id="Trazado_13083" data-name="Trazado 13083" d="M1672.059,637.523l7.177-2.759,6.506,26.747,24.427,9.942s9.083,1.6,8.517,11.4-13.067,5.687-16.9,4.167c-3.188-1.266-18.635-12.513-23.715-16.243a4.751,4.751,0,0,1-1.9-3.185Z" transform="translate(-1667.881 -622.974)" fill="#01888b"/>
      </g>
    </g>
    <g id="Grupo_9504" data-name="Grupo 9504" transform="translate(450.996 250.925)">
      <path id="Trazado_13084" data-name="Trazado 13084" d="M895.964,1098.133l14.229,23.775,17.6,19.576s10,3.61,9.813,6.55c-.259,4.118-7.711,3.143-9.409,1.751s-3.728-5.911-3.728-5.911l-21.194-17.02s-15.55-14.955-16.739-20.27S890.593,1092.363,895.964,1098.133Z" transform="translate(-859.362 -1061.379)" fill="#f39f85"/>
      <g id="Grupo_9503" data-name="Grupo 9503" transform="translate(0 0)">
        <path id="Trazado_13085" data-name="Trazado 13085" d="M1049.156,831.288s1.053,3.531-.093,5.265a5.664,5.664,0,0,1-3.717,2.013l-.991-7.805Z" transform="translate(-1001.13 -823.147)" fill="#161c3a"/>
        <path id="Trazado_13086" data-name="Trazado 13086" d="M916.943,940.329a71.988,71.988,0,0,1-.166,10.429,41.693,41.693,0,0,1,7.153.7l-.4-9.4Z" transform="translate(-886.654 -921.462)" fill="#f4a086"/>
        <path id="Trazado_13087" data-name="Trazado 13087" d="M904.4,792.462s1.611,8.424-.31,14.34-4.4,5.668-5.916,5.482a10.33,10.33,0,0,1-7.588-7.545c-3.19-2.366-4.708-4.627-3.748-8.87,1.237-5.468,5.916-7.712,11-7.247C901.752,788.98,904.4,792.462,904.4,792.462Z" transform="translate(-859.535 -785.281)" fill="#f6b690"/>
        <path id="Trazado_13088" data-name="Trazado 13088" d="M692.422,1885.968S691,1902.8,655.929,1904.727s-27.9-21.55-27.9-21.55Z" transform="translate(-627.014 -1767.486)" fill="#fdac47"/>
        <path id="Trazado_13089" data-name="Trazado 13089" d="M866.646,763.6c1.611,2.447,10.159.557,8.27,6.411,3.035-3.562,1.084-10.1-4.4-12.451s-11.5-.082-12.147,3.769c-3.37-1.632-5.817-.3-6.715,1.979-.969,2.457.155,8.655-1.208,14.106s5.916-.031,5.916-.031l1.3-3.325S866.306,772.089,866.646,763.6Z" transform="translate(-826.983 -756.607)" fill="#222954"/>
        <path id="Trazado_13090" data-name="Trazado 13090" d="M806.1,1039.878c-11.175,0-14.889,2.971-16.355,5.322s-1.108,6.652-.261,10.073,8.34,18.537,3.518,24.336h21.8s1.085-10.548,1.824-20.02c.647-8.292-.448-15.433-4.6-17.426A22.855,22.855,0,0,0,806.1,1039.878Z" transform="translate(-771.772 -1010.788)" fill="#fdd247"/>
        <path id="Trazado_13091" data-name="Trazado 13091" d="M846.082,1426.773c2.1,18.865,11.534,61.227,11.534,61.227s-.888,22.77,4.161,56.592c-1.734,5.3-4.625,2.442-4.625,2.442s-1.942-.489-2.086-3.217c-.934-20.787-13.407-44.852-10.365-52.488-2.323-7.046-30.2-43.924-18.026-64.556Z" transform="translate(-803.055 -1357.952)" fill="#f6b690"/>
        <path id="Trazado_13092" data-name="Trazado 13092" d="M747.229,1426.773s-1.765,26.383-15.8,65.594c.186,17-10.779,40.7-9.571,50.547-3.81-.557-4.033,5.655-3.81-.557.743-20.628-4.274-32.181.743-51.027-1.394-23.957-4.311-45.782,9.413-64.556Z" transform="translate(-706.977 -1357.952)" fill="#f6b690"/>
        <path id="Trazado_13093" data-name="Trazado 13093" d="M666.47,1426.773s3.727,41.457,22.38,49.661c-6.686,23.79-44.37,1.089-55.847.563-9.859-.452-8.349,6.613-8.349,6.613a12.877,12.877,0,0,1-.8-3.166,50.361,50.361,0,0,1,1.264-19.254c3.151-11.588,19.559-34.417,19.559-34.417Z" transform="translate(-623.443 -1357.952)" fill="#fdd247"/>
        <path id="Trazado_13094" data-name="Trazado 13094" d="M1109.847,2551.579c1.29-.309,2.117,4.182,8.741,4.95a4.393,4.393,0,0,1,3.854,3.969h-22.085l2.394-9.394s.843-.3,1.114-.075,2.062,2.544,3.673,2.665S1109.847,2551.579,1109.847,2551.579Z" transform="translate(-1051.382 -2366.679)" fill="#018a89"/>
        <path id="Trazado_13095" data-name="Trazado 13095" d="M1122.142,2632.223a4.9,4.9,0,0,1,.3,1.206h-22.085l.307-1.206Z" transform="translate(-1051.382 -2439.61)" fill="#0a3c5f"/>
        <path id="Trazado_13096" data-name="Trazado 13096" d="M702.952,2532.167c-.258-.861-3.206-1.3-3.552,0-1.093,4.114-3.478,4.658-3.7,10.746h11.739C707.535,2536.968,704.655,2537.866,702.952,2532.167Z" transform="translate(-688.283 -2349.094)" fill="#018a89"/>
        <path id="Trazado_13097" data-name="Trazado 13097" d="M707.406,2631.017c.03.4.044.842.037,1.33H695.7c.017-.477.049-.917.091-1.33Z" transform="translate(-688.283 -2438.528)" fill="#0a3c5f"/>
        <path id="Trazado_13098" data-name="Trazado 13098" d="M794.88,1063.159c2.84,2.008,16.446,31.456,16.446,31.456l20.589,17.635s5.343,2.476,7.5,2.823,6.191,4.062,5.894,5.5-4.167,4.855-9.86,2.477-4-5.449-6.655-7.133-22.988-14.465-22.988-14.465-17.976-24.42-20.2-30.117S789.976,1059.692,794.88,1063.159Z" transform="translate(-768.556 -1030.755)" fill="#f6b690"/>
        <path id="Trazado_13099" data-name="Trazado 13099" d="M906.765,903.721s-.083-2.385-1.211-2.385-1.844,1.022-1.789,2.385,1.266,2.927,2.312,2.787C906.821,906.409,906.765,903.721,906.765,903.721Z" transform="translate(-874.974 -886.473)" fill="#f6b690"/>
      </g>
    </g>
    <g id="Grupo_9506" data-name="Grupo 9506" transform="translate(519.529 338.67)">
      <path id="Trazado_13100" data-name="Trazado 13100" d="M1863.547,2083.484l.819,1.709,3.1,3.275s.381,5.7-1.8,6.088-3.537-7.405-3.537-7.405l-1.175-2.67Z" transform="translate(-1802.397 -2034.968)" fill="#f6b690"/>
      <path id="Trazado_13101" data-name="Trazado 13101" d="M1504.141,1699.921a10.854,10.854,0,0,1,0,8.2c-3.578,8.251,11.278,8.237,10.424,19.452s-9.319,13.671-19.893,13.164-13-11.428-10.547-17.783,6.665-5.269,5.944-12.59C1489.635,1705.956,1504.141,1699.921,1504.141,1699.921Z" transform="translate(-1463.482 -1690.794)" fill="#222954"/>
      <path id="Trazado_13102" data-name="Trazado 13102" d="M1575.153,1777.925l.544,12.323-5.874-1.2-.625-7.7Z" transform="translate(-1540.609 -1760.788)" fill="#f4a086"/>
      <path id="Trazado_13103" data-name="Trazado 13103" d="M1497.657,1689.862c.531,3.4.32,8.545-1.629,10.414s-4.139,3.845-7.557,3.444-4.459-4.3-4.245-6.488.828-2.937.748-4.112-1.575-2.59-.774-4.406S1496.482,1682.332,1497.657,1689.862Z" transform="translate(-1464.127 -1678.012)" fill="#f6b690"/>
      <path id="Trazado_13104" data-name="Trazado 13104" d="M1450.754,1617.052a4.376,4.376,0,0,1,4.753,3.124c1.175,3.738-1.442,7.77-4.94,6.969a18.515,18.515,0,0,0-2.376-.828s-1.415,2.376-3.124.641-.8-4.459-.8-4.459-1.282,1.431-3.365-.179c-2.67,2.262-11.775.286-11.855-5.615s7.43-7.768,11.615-2.777C1443.865,1610.323,1450.941,1612.646,1450.754,1617.052Z" transform="translate(-1414.848 -1611.049)" fill="#222954"/>
      <path id="Trazado_13105" data-name="Trazado 13105" d="M1664.509,1886.7s-7.939-1.922-11.144-2.955-6.052-12.781-1.994-12.033,14.846,7.761,14.846,7.761l8.3,14.17-3.6,2.065Z" transform="translate(-1612.545 -1844.909)" fill="#01888b"/>
      <path id="Trazado_13106" data-name="Trazado 13106" d="M1333.379,1738.175h-2.528s-8.58-1.451-12.532-4.268c-2.6-5.06-5.34-11.049-5.34-11.049l-5.34,2.037,7.085,16.341s7.9,7.441,15.985,8.3C1334.732,1742.27,1333.379,1738.175,1333.379,1738.175Z" transform="translate(-1305.909 -1711.377)" fill="#00666b"/>
      <g id="Grupo_9505" data-name="Grupo 9505" transform="translate(22.484 50.474)">
        <path id="Trazado_13107" data-name="Trazado 13107" d="M1557.4,2102.583s9.043,22.714,15.843,28.019c10.325.249,25.349.748,25.349.748a8.229,8.229,0,0,1,3.7,3.774c1.424-.143.641-1.923.641-1.923l-3.1-5.946a15.458,15.458,0,0,1-2.207.926c-7.3-1.282-15.338-5.341-18.406-4.237-3.223-6.23-3.382-19.724-6.586-21.361C1559.825,2102.512,1557.4,2102.583,1557.4,2102.583Z" transform="translate(-1552.509 -2102.551)" fill="#f6b690"/>
        <path id="Trazado_13108" data-name="Trazado 13108" d="M1509.741,2102.552l4.895.032s7.342-.032,9.047-.032c1.385,12.813-2.567,24.419-2.781,28.762,1.709,1.744.641,18.264,1.175,20.044a6.047,6.047,0,0,0,.89,2.136l-6.017,3.632-2.314-.214v-1.139l2.243-.605,1.994-3.062s-2.1-13.742-4.771-20.08C1511.146,2121.417,1510.1,2107.928,1509.741,2102.552Z" transform="translate(-1509.741 -2102.552)" fill="#f6b690"/>
        <path id="Trazado_13109" data-name="Trazado 13109" d="M1951.607,2332.391l.4.925s1.85.5,2.138,1.105-1.73,2.115-1.73,2.115l1.237,1.093s1.682-.613,2.259.492-.769,1.814-.769,1.814a7.032,7.032,0,0,0,1.286,1.141c.649.408,3.087-.841,3.087-.841l-3.6-9.25Z" transform="translate(-1906.231 -2307.527)" fill="#60c2c5"/>
        <path id="Trazado_13110" data-name="Trazado 13110" d="M1984.19,2330.985l3.6,9.25s-.4.207-.925.425l-3.743-9.327Z" transform="translate(-1934.513 -2307.527)" fill="#11858a"/>
        <path id="Trazado_13111" data-name="Trazado 13111" d="M1551.773,2576.18l-.777.156s.268,1.632-.76,2.306-3.005-.682-3.005-.682l-.648.87s1.019,1.22.061,1.988-1.6-.63-1.6-.63a3.555,3.555,0,0,1-1.253.354c-2.1,0-1.373,3.48-1.373,3.48h5.855l5.889-4.214Z" transform="translate(-1538.956 -2527.541)" fill="#60c2c5"/>
        <path id="Trazado_13112" data-name="Trazado 13112" d="M1542.412,2606.252h5.74l5.468-4.3.646.98-5.889,4.214h-5.855A6.889,6.889,0,0,1,1542.412,2606.252Z" transform="translate(-1539.057 -2550.671)" fill="#11858a"/>
      </g>
      <path id="Trazado_13113" data-name="Trazado 13113" d="M1297.261,1629.052l-.637-1.793,1.769-4.279s-.637-.741-1.156,0-.542,1.236-.943,1.165.094-6.18-1.392-6.6-4.081,4.782-4.1,6.047,2.335,4.615,2.335,4.615l1.132,2.831Z" transform="translate(-1290.797 -1616.852)" fill="#f6b690"/>
      <path id="Trazado_13114" data-name="Trazado 13114" d="M1612.769,1737.9c1.591.426,2.056,3.071.561,4.432s-2.343-.074-2.563-1.068C1610.5,1740.061,1610.473,1737.284,1612.769,1737.9Z" transform="translate(-1577.798 -1724.793)" fill="#f6b690"/>
      <path id="Trazado_13115" data-name="Trazado 13115" d="M1521.39,1869.655s-8.438-.605-11.357,0-6.587,11.179-5.234,23.676h21.076a98.2,98.2,0,0,1-.89-14.49C1524.523,1873.038,1524.736,1870.3,1521.39,1869.655Z" transform="translate(-1482.563 -1842.857)" fill="#01888b"/>
      <path id="Trazado_13116" data-name="Trazado 13116" d="M1513.412,2102.552s6.941,14.511,7.8,18.054c-5.447,8.745-18.366,11.737-28.05,10.491-5.2-19.012-.831-28.545-.831-28.545Z" transform="translate(-1470.099 -2052.078)" fill="#01888b"/>
    </g>
    <g id="Grupo_9513" data-name="Grupo 9513" transform="translate(630.993 236.029)">
      <g id="Grupo_9507" data-name="Grupo 9507" transform="translate(0 0)">
        <path id="Trazado_13117" data-name="Trazado 13117" d="M2391,632.777l1.787,3.514-3.752-.856L2376.2,631.39Z" transform="translate(-2376.202 -629.354)" fill="#afd8c7"/>
        <path id="Trazado_13118" data-name="Trazado 13118" d="M2482.033,668.712l-6.374-.4,1.562-.794Z" transform="translate(-2465.445 -661.774)" fill="#63c0c4"/>
        <path id="Trazado_13119" data-name="Trazado 13119" d="M2391,614.984l1.116-3.423L2376.2,613.6Z" transform="translate(-2376.202 -611.56)" fill="url(#linear-gradient-2)"/>
        <path id="Trazado_13120" data-name="Trazado 13120" d="M2376.2,631.39l12.835,4.044-1.913,4.934Z" transform="translate(-2376.202 -629.354)" fill="url(#linear-gradient-2)"/>
      </g>
      <g id="Grupo_9512" data-name="Grupo 9512" transform="translate(1.826 9.029)">
        <g id="Grupo_9508" data-name="Grupo 9508" transform="translate(11.702)">
          <path id="Trazado_13121" data-name="Trazado 13121" d="M2509.587,700.924a.3.3,0,0,0,.061-.493,8.4,8.4,0,0,0-1.262-.909.3.3,0,1,0-.3.517,7.8,7.8,0,0,1,1.172.844A.3.3,0,0,0,2509.587,700.924Z" transform="translate(-2507.935 -699.479)" fill="#63c0c4"/>
        </g>
        <g id="Grupo_9510" data-name="Grupo 9510" transform="translate(0 2.206)">
          <g id="Grupo_9509" data-name="Grupo 9509">
            <path id="Trazado_13122" data-name="Trazado 13122" d="M2402.673,752.97a.3.3,0,0,1,.106-.411,8.438,8.438,0,0,0,2.2-1.906.3.3,0,0,1,.462.382,9.036,9.036,0,0,1-2.357,2.04l-.017.009A.3.3,0,0,1,2402.673,752.97Zm3.417-3.362a.3.3,0,0,1-.112-.408,10.736,10.736,0,0,0,1.087-2.729.3.3,0,1,1,.582.144,11.319,11.319,0,0,1-1.149,2.881.3.3,0,0,1-.125.119A.3.3,0,0,1,2406.089,749.608Zm1.527-4.559a.3.3,0,0,1-.278-.32l.008-.135a13.831,13.831,0,0,0-.147-2.818.3.3,0,0,1,.593-.09,14.483,14.483,0,0,1,.153,2.941l-.009.145a.3.3,0,0,1-.321.278Zm-.416-4.805a.3.3,0,0,1-.366-.213,21.848,21.848,0,0,0-.974-2.823.3.3,0,0,1,.161-.392.3.3,0,0,1,.392.16,22.312,22.312,0,0,1,1,2.9.3.3,0,0,1-.154.344A.308.308,0,0,1,2407.2,740.244Zm-1.686-4.536a.3.3,0,0,1-.4-.137c-.037-.075-.074-.151-.112-.226a10.157,10.157,0,0,1-.969.323.3.3,0,1,1-.16-.578q.435-.12.855-.282c-.311-.6-.655-1.216-1.042-1.883a.3.3,0,1,1,.518-.3c.4.691.757,1.333,1.078,1.951a9.11,9.11,0,0,0,1.249-.7.3.3,0,0,1,.333.5,9.781,9.781,0,0,1-1.309.732l.1.2a.3.3,0,0,1-.133.4Zm2.369-2.523a.3.3,0,0,1-.006-.424,7.529,7.529,0,0,0,1.591-2.42.3.3,0,0,1,.555.228,8.129,8.129,0,0,1-1.716,2.611.294.294,0,0,1-.079.058A.3.3,0,0,1,2407.883,733.185ZM2402.19,736a9.368,9.368,0,0,1-3.1-.243.3.3,0,0,1,.147-.581,8.762,8.762,0,0,0,2.907.226.3.3,0,1,1,.051.6Zm8-6.993a.3.3,0,0,1-.244-.347,9.1,9.1,0,0,0,.027-2.92.3.3,0,0,1,.593-.089,9.709,9.709,0,0,1-.029,3.112.3.3,0,0,1-.347.244Zm-12.869,6.089a7.8,7.8,0,0,1-.7-.407,6.4,6.4,0,0,1-1.695-1.619.3.3,0,1,1,.487-.35,5.8,5.8,0,0,0,1.535,1.466,7.313,7.313,0,0,0,.65.377.3.3,0,0,1,.13.4.3.3,0,0,1-.131.13A.3.3,0,0,1,2397.326,735.1Zm5.424-3.714a11.121,11.121,0,0,0-1.852-2.285.3.3,0,0,1,.4-.445,11.714,11.714,0,0,1,1.955,2.405.3.3,0,0,1-.09.415l-.027.015A.3.3,0,0,1,2402.75,731.382Zm7.192-7.165a.3.3,0,0,1-.381-.186,9.626,9.626,0,0,0-.521-1.232,9.158,9.158,0,0,0-.843-1.353.3.3,0,0,1,.479-.36,9.733,9.733,0,0,1,.9,1.442,10.25,10.25,0,0,1,.554,1.309.3.3,0,0,1-.148.364A.318.318,0,0,1,2409.942,724.216Zm-15.48,7.34a.3.3,0,0,1-.364-.218,3.329,3.329,0,0,1,.246-2.391,3.042,3.042,0,0,1,.512-.7.3.3,0,1,1,.43.418,2.436,2.436,0,0,0-.411.566,2.706,2.706,0,0,0-.195,1.967.3.3,0,0,1-.218.364Zm5.012-3.425a4.29,4.29,0,0,0-2.761-.26.3.3,0,1,1-.147-.581,4.84,4.84,0,0,1,3.159.3.3.3,0,1,1-.251.544Z" transform="translate(-2393.983 -720.964)" fill="#63c0c4"/>
          </g>
        </g>
        <g id="Grupo_9511" data-name="Grupo 9511" transform="translate(5.48 34.493)">
          <path id="Trazado_13123" data-name="Trazado 13123" d="M2449.261,1035.928a.3.3,0,0,0-.219-.556,6.425,6.425,0,0,1-1.409.238.3.3,0,1,0,.033.6,7.038,7.038,0,0,0,1.541-.259A.342.342,0,0,0,2449.261,1035.928Z" transform="translate(-2447.349 -1035.361)" fill="#63c0c4"/>
        </g>
      </g>
    </g>
    <g id="Grupo_9516" data-name="Grupo 9516" transform="translate(457.846 193.051)">
      <g id="Grupo_9514" data-name="Grupo 9514" transform="translate(49.051 0)">
        <path id="Trazado_13124" data-name="Trazado 13124" d="M1226.608,199.839l-10.378-5.728-5.3-1.06-4,.589Z" transform="translate(-1202.909 -193.051)" fill="url(#linear-gradient-4)"/>
        <path id="Trazado_13125" data-name="Trazado 13125" d="M1226.608,204.983l-19.433-5-.246-1.2" transform="translate(-1202.909 -198.196)" fill="#afd8c7"/>
        <path id="Trazado_13126" data-name="Trazado 13126" d="M1203.926,242.97l.025.041.816,3.017,19.1-1.395Z" transform="translate(-1200.215 -237.844)" fill="#63c0c4"/>
        <path id="Trazado_13127" data-name="Trazado 13127" d="M1167.79,206.09l2.773-2.25,20.8,5.647-17.905-.532Z" transform="translate(-1167.79 -202.732)" fill="url(#linear-gradient-5)"/>
      </g>
      <g id="Grupo_9515" data-name="Grupo 9515" transform="translate(0 0.96)">
        <path id="Trazado_13128" data-name="Trazado 13128" d="M734.291,593.316a14.538,14.538,0,0,0,1.87-.811.282.282,0,1,1,.26.5,15.123,15.123,0,0,1-1.942.843q-.359.127-.721.235a.282.282,0,0,1-.163-.54Q733.945,593.438,734.291,593.316Z" transform="translate(-728.952 -552.415)" fill="#63c0c4"/>
        <path id="Trazado_13129" data-name="Trazado 13129" d="M1109.714,205.244c.881.113,1.8.258,2.8.444a.282.282,0,1,1-.1.555c-1-.184-1.9-.327-2.773-.439a.282.282,0,1,1,.072-.56Z" transform="translate(-1066.341 -204.949)" fill="#63c0c4"/>
        <path id="Trazado_13130" data-name="Trazado 13130" d="M1065.64,202.91a.282.282,0,0,1,.166-.509c.906-.008,1.864.03,2.846.112a.282.282,0,0,1-.047.563c-.965-.081-1.905-.118-2.794-.11A.281.281,0,0,1,1065.64,202.91Z" transform="translate(-1026.977 -202.4)" fill="#63c0c4"/>
        <path id="Trazado_13131" data-name="Trazado 13131" d="M775.31,566.824a.278.278,0,0,1,.4.005.281.281,0,0,1-.005.4,15.732,15.732,0,0,1-2.228,1.81.282.282,0,0,1-.325-.007.274.274,0,0,1-.066-.07.282.282,0,0,1,.077-.392A15.252,15.252,0,0,0,775.31,566.824Z" transform="translate(-764.523 -529.327)" fill="#63c0c4"/>
        <path id="Trazado_13132" data-name="Trazado 13132" d="M805.607,534.7a.282.282,0,0,1-.039-.4q.239-.293.464-.6a14.636,14.636,0,0,0,1.085-1.7.282.282,0,0,1,.383-.113.285.285,0,0,1,.113.383,15.18,15.18,0,0,1-1.127,1.762q-.233.315-.482.617a.282.282,0,0,1-.386.048Z" transform="translate(-793.657 -498.031)" fill="#63c0c4"/>
        <path id="Trazado_13133" data-name="Trazado 13133" d="M828.124,494.088a.286.286,0,0,1-.061-.034.282.282,0,0,1-.093-.334,19.265,19.265,0,0,0,.859-2.643.282.282,0,1,1,.547.138,19.665,19.665,0,0,1-.885,2.72A.282.282,0,0,1,828.124,494.088Z" transform="translate(-813.797 -461.24)" fill="#63c0c4"/>
        <path id="Trazado_13134" data-name="Trazado 13134" d="M883.764,283.589q-.353.431-.684.877c-.333.449-.651.915-.945,1.383a.282.282,0,0,1-.389.089l-.018-.012a.282.282,0,0,1-.07-.376c.3-.481.627-.958.969-1.419q.339-.458.7-.9a.269.269,0,0,1,.4-.039A.282.282,0,0,1,883.764,283.589Z" transform="translate(-861.952 -274.831)" fill="#63c0c4"/>
        <path id="Trazado_13135" data-name="Trazado 13135" d="M864.022,320.193a20.593,20.593,0,0,0-1.119,2.547.282.282,0,1,1-.531-.191,21.065,21.065,0,0,1,1.149-2.618.283.283,0,0,1,.5.262Z" transform="translate(-844.67 -307.726)" fill="#63c0c4"/>
        <path id="Trazado_13136" data-name="Trazado 13136" d="M911.14,252.647a22.946,22.946,0,0,0-2.044,1.9.282.282,0,0,1-.372.032l-.027-.023a.282.282,0,0,1-.009-.4,23.623,23.623,0,0,1,2.094-1.943.283.283,0,0,1,.359.437Z" transform="translate(-886.174 -247.037)" fill="#63c0c4"/>
        <path id="Trazado_13137" data-name="Trazado 13137" d="M980.472,212.5a.282.282,0,1,1-.228-.516,22.334,22.334,0,0,1,2.682-.987.282.282,0,1,1,.16.541A21.808,21.808,0,0,0,980.472,212.5Z" transform="translate(-950.302 -210.105)" fill="#63c0c4"/>
        <path id="Trazado_13138" data-name="Trazado 13138" d="M846.288,407.238a.282.282,0,0,1-.248-.312l.04-.355c.093-.818.187-1.638.295-2.454a.282.282,0,0,1,.56.074c-.108.813-.2,1.628-.294,2.443l-.041.355A.282.282,0,0,1,846.288,407.238Z" transform="translate(-830.029 -383.181)" fill="#63c0c4"/>
        <path id="Trazado_13139" data-name="Trazado 13139" d="M942.322,229.714a.282.282,0,0,1-.331,0,.286.286,0,0,1-.063-.064.282.282,0,0,1,.068-.393,23.439,23.439,0,0,1,2.43-1.5.282.282,0,0,1,.267.5A22.786,22.786,0,0,0,942.322,229.714Z" transform="translate(-916.026 -225.119)" fill="#63c0c4"/>
        <path id="Trazado_13140" data-name="Trazado 13140" d="M840.689,447.563a.281.281,0,0,1,.245.316c-.138,1.1-.275,1.992-.428,2.808a.283.283,0,0,1-.555-.1c.151-.8.286-1.686.424-2.775A.282.282,0,0,1,840.689,447.563Z" transform="translate(-824.562 -422.384)" fill="#63c0c4"/>
        <path id="Trazado_13141" data-name="Trazado 13141" d="M693.171,606.72a.282.282,0,1,1,.109.554,22.778,22.778,0,0,1-2.832.366.282.282,0,1,1-.04-.563A22.44,22.44,0,0,0,693.171,606.72Z" transform="translate(-690.145 -565.194)" fill="#63c0c4"/>
        <path id="Trazado_13142" data-name="Trazado 13142" d="M852.659,360.688a.283.283,0,0,1,.2.346c-.223.831-.413,1.725-.582,2.733a.282.282,0,1,1-.557-.093c.172-1.027.366-1.938.594-2.786A.282.282,0,0,1,852.659,360.688Z" transform="translate(-835.123 -344.424)" fill="#63c0c4"/>
        <path id="Trazado_13143" data-name="Trazado 13143" d="M1023.913,203.193q.495-.059.99-.1a.283.283,0,0,1,.043.563q-.484.036-.966.093c-.6.071-1.2.17-1.791.3a.282.282,0,1,1-.117-.552C1022.68,203.368,1023.3,203.266,1023.913,203.193Z" transform="translate(-987.785 -203.025)" fill="#63c0c4"/>
      </g>
    </g>
  </g>
</svg>
