<?xml version="1.0" encoding="utf-8"?>
<!-- Generator: Adobe Illustrator 22.0.1, SVG Export Plug-In . SVG Version: 6.00 Build 0)  -->
<svg version="1.1" id="Capa_1" xmlns="http://www.w3.org/2000/svg" xmlns:xlink="http://www.w3.org/1999/xlink" x="0px" y="0px"
	 viewBox="0 0 1500.9 565" style="enable-background:new 0 0 1500.9 565;" xml:space="preserve">
<style type="text/css">
	.st0{fill:none;}
	.st1{fill:none;stroke:#B19C2E;stroke-width:2;stroke-dasharray:6;}
	.st2{fill:#EDE0BB;}
	.st3{fill:none;stroke:#AF8E28;stroke-width:3;}
	.st4{fill:#B19467;}
	.st5{clip-path:url(#SVGID_2_);}
	.st6{fill:url(#SVGID_3_);}
	.st7{fill:none;stroke:#DD4F4F;}
	.st8{clip-path:url(#SVGID_5_);}
	.st9{fill:#884228;}
	.st10{fill:#8C482F;}
</style>
<pattern  y="565" width="1280" height="801" patternUnits="userSpaceOnUse" id="pattern" viewBox="0 -801 1280 801" style="overflow:visible;">
	<g>
		<rect y="-801" class="st0" width="1280" height="801"/>
		
			<image style="overflow:visible;enable-background:new    ;" width="1280" height="801" xlink:href="67478BF45C42EE6.jpg"  transform="matrix(1 0 0 -1 0 0)">
		</image>
	</g>
</pattern>
<g id="Grupo_9662" transform="translate(-257.784 -822)">
	<path id="Trazado_12670" class="st1" d="M454,822v455"/>
	<g id="Elipse_498" transform="translate(436 1028)">
		<circle class="st2" cx="18" cy="18" r="18"/>
		<circle class="st3" cx="18" cy="18" r="16.5"/>
	</g>
	<path id="Trazado_18467" class="st4" d="M519.2,910.2v3.1h3.4V927h3.9v-16.8H519.2z M540.8,918.2c1.2-0.7,2-2,2-3.5
		c0-3-2.6-4.8-6.5-4.8c-3.8,0-6.5,1.8-6.5,4.8c0,1.4,0.7,2.7,1.9,3.5c-1.6,0.7-2.6,2.2-2.5,4c0,3.2,2.8,5.2,7.1,5.2
		c4.3,0,7.1-2,7.1-5.2C543.4,920.4,542.4,918.8,540.8,918.2z M536.3,912.8c1.6,0,2.6,0.8,2.6,2.1c0,1.3-1,2.1-2.6,2.1
		c-1.6,0-2.6-0.8-2.6-2.1C533.7,913.6,534.7,912.8,536.3,912.8L536.3,912.8z M536.3,924.4c-1.9,0-3.1-0.9-3.1-2.4s1.2-2.4,3.1-2.4
		c1.9,0,3.2,0.9,3.2,2.4S538.2,924.4,536.3,924.4L536.3,924.4z M560.6,920.3h-2.7v-3.1h-3.7v3.1h-4.5l7.3-10.1h-4.1l-7.9,10.7v2.6h9
		v3.5h3.8v-3.5h2.7V920.3z M577.1,920.3h-2.7v-3.1h-3.7v3.1h-4.5l7.3-10.1h-4.1l-7.9,10.7v2.6h9v3.5h3.8v-3.5h2.7V920.3z"/>
	<path id="Trazado_18468" class="st4" d="M272.5,927h4.1l-7.5-16.8h-3.8l-7.5,16.8h4l1.5-3.6h7.8L272.5,927z M264.5,920.4l2.7-6.4
		l2.7,6.4H264.5z M284.5,907.4c0.9,0,1.7,1.5,3.4,1.5c1.7,0,2.8-1.4,2.8-3.4h-1.9c0,0.8-0.5,1.3-1.2,1.3c-0.9,0-1.7-1.5-3.4-1.5
		c-1.7,0-2.8,1.4-2.8,3.5h1.9C283.4,907.9,283.9,907.4,284.5,907.4z M289.9,910.2v10.2l-8.4-10.2h-3.2V927h3.8v-10.2l8.4,10.2h3.2
		v-16.8H289.9z M305.9,927.3c5.3,0,9.2-3.7,9.2-8.7c0-5-3.9-8.7-9.2-8.7c-5.3,0-9.2,3.7-9.2,8.7
		C296.7,923.6,300.6,927.3,305.9,927.3z M305.9,924c-2.8,0.1-5.2-2.2-5.3-5c0-0.1,0-0.3,0-0.4c-0.1-2.8,2-5.2,4.9-5.4
		c0.1,0,0.3,0,0.4,0c2.8-0.1,5.2,2.2,5.3,5c0,0.1,0,0.3,0,0.4c0.1,2.8-2,5.2-4.9,5.4C306.2,924,306,924,305.9,924z"/>
	<path id="Trazado_18466" class="st4" d="M521.7,962h1.8v-16.8h-1.8V962z M535.1,949.3c-1.9-0.1-3.8,0.8-4.8,2.4v-2.3h-1.6V962h1.7
		v-6.6c0-2.9,1.7-4.6,4.4-4.6c2.4,0,3.8,1.4,3.8,4v7.2h1.7v-7.3C540.2,951.1,538.1,949.3,535.1,949.3z M555,949.4v2.4
		c-1.1-1.7-3-2.6-5-2.5c-3.3-0.2-6.1,2.3-6.3,5.7c0,0.1,0,0.3,0,0.4c-0.1,3.3,2.6,6.1,5.9,6.1c0.1,0,0.3,0,0.4,0
		c2,0.1,3.8-0.8,4.9-2.4v1.6c0,3.1-1.5,4.6-4.7,4.6c-1.8,0-3.6-0.6-5-1.7l-0.9,1.3c1.7,1.3,3.8,2,5.9,1.9c4.2,0,6.3-2,6.3-6.3v-11.1
		L555,949.4z M550.2,960c-2.5,0.1-4.6-1.8-4.8-4.2c0-0.1,0-0.3,0-0.4c-0.1-2.5,1.9-4.5,4.4-4.6c0.1,0,0.3,0,0.4,0
		c2.5-0.2,4.6,1.7,4.8,4.2c0,0.1,0,0.3,0,0.4c0.1,2.5-1.9,4.6-4.4,4.6C550.4,960,550.3,960,550.2,960z M561.4,962h1.7v-17.8h-1.7
		V962z M572.3,949.3c-1.9,0-3.7,0.6-5.1,1.7l0.8,1.3c1.2-1,2.7-1.5,4.2-1.5c2.4,0,3.6,1.2,3.6,3.3v0.8h-4c-3.6,0-4.9,1.6-4.9,3.6
		c0,2.2,1.8,3.7,4.6,3.7c1.7,0.1,3.4-0.7,4.3-2.1v2h1.6v-7.8C577.4,950.9,575.5,949.3,572.3,949.3z M571.7,960.8
		c-2,0-3.2-0.9-3.2-2.4c0-1.3,0.8-2.3,3.2-2.3h4v2.1C575,959.8,573.4,960.9,571.7,960.8L571.7,960.8z M588,960
		c-0.5,0.4-1.2,0.7-1.9,0.6c-1.1,0.1-2.1-0.7-2.2-1.8c0-0.2,0-0.3,0-0.5v-7.5h3.8v-1.4H584v-2.8h-1.7v2.8H580v1.4h2.3v7.6
		c-0.2,1.8,1.1,3.5,3,3.7c0.2,0,0.5,0,0.7,0c1,0,1.9-0.3,2.7-0.9L588,960z M602.3,955.7c0-3.8-2.6-6.4-6.1-6.4
		c-3.4-0.1-6.1,2.6-6.2,6c0,0.1,0,0.3,0,0.4c-0.1,3.5,2.6,6.3,6.1,6.4c0.2,0,0.4,0,0.6,0c1.9,0.1,3.6-0.7,4.9-2.1l-1-1.1
		c-1,1.1-2.4,1.7-3.9,1.7c-2.6,0.2-4.8-1.8-5-4.4c0,0,0,0,0,0h10.6C602.3,956,602.3,955.8,602.3,955.7z M596.2,950.7
		c2.4-0.1,4.4,1.8,4.5,4.2h-8.9C591.8,952.6,593.8,950.7,596.2,950.7L596.2,950.7z M607.4,951.8v-2.5h-1.6V962h1.7v-6.4
		c0-3,1.6-4.7,4.2-4.7c0.1,0,0.3,0,0.4,0v-1.7C609.8,949.3,608.2,950.2,607.4,951.8L607.4,951.8z M616.8,951.8v-2.5h-1.6V962h1.7
		v-6.4c0-3,1.6-4.7,4.2-4.7c0.1,0,0.3,0,0.4,0v-1.7C619.2,949.3,617.6,950.2,616.8,951.8L616.8,951.8z M629,949.3
		c-1.9,0-3.7,0.6-5.1,1.7l0.8,1.3c1.2-1,2.7-1.5,4.2-1.5c2.4,0,3.6,1.2,3.6,3.3v0.8h-4c-3.6,0-4.9,1.6-4.9,3.6
		c0,2.2,1.8,3.7,4.6,3.7c1.7,0.1,3.4-0.7,4.3-2.1v2h1.6v-7.8C634.2,950.9,632.3,949.3,629,949.3z M628.4,960.8c-2,0-3.2-0.9-3.2-2.4
		c0-1.3,0.8-2.3,3.2-2.3h4v2.1C631.8,959.8,630.2,960.9,628.4,960.8L628.4,960.8z"/>
	<path id="Trazado_12671" class="st1" d="M926,822v565"/>
	<g id="Elipse_499" transform="translate(908 1028)">
		<circle class="st2" cx="18" cy="18" r="18"/>
		<circle class="st3" cx="18" cy="18" r="16.5"/>
	</g>
	<g>
		<defs>
			<path id="SVGID_1_" d="M532,1017h243c7.2,0,13,5.8,13,13v162c0,7.2-5.8,13-13,13H532c-7.2,0-13-5.8-13-13v-162
				C519,1022.8,524.8,1017,532,1017z"/>
		</defs>
		<clipPath id="SVGID_2_">
			<use xlink:href="#SVGID_1_"  style="overflow:visible;"/>
		</clipPath>
		<g id="Enmascarar_grupo_1" transform="translate(36 -212)" class="st5">
			<g id="workers_in_the_fuse_factory_woolwich_arsenal_flickr_4615367952_d40a18ec24_o" transform="translate(466 1216)">
				<pattern  id="SVGID_3_" xlink:href="#pattern" patternTransform="matrix(0.2836 0 0 -0.2828 -5531.2793 -11174.7061)">
				</pattern>
				<rect x="0" class="st6" width="363" height="226.5"/>
				<rect x="0.5" y="0.5" class="st7" width="362" height="225.5"/>
			</g>
		</g>
	</g>
	<path id="Trazado_18465" class="st4" d="M975.2,910.2v3.1h3.4V927h3.9v-16.8H975.2z M996.8,918.2c1.2-0.7,2-2,2-3.5
		c0-3-2.6-4.8-6.5-4.8c-3.8,0-6.5,1.8-6.5,4.8c0,1.4,0.7,2.7,1.9,3.5c-1.6,0.7-2.6,2.2-2.5,4c0,3.2,2.8,5.2,7.1,5.2
		c4.3,0,7.1-2,7.1-5.2C999.4,920.4,998.4,918.8,996.8,918.2z M992.3,912.8c1.6,0,2.6,0.8,2.6,2.1c0,1.3-1,2.1-2.6,2.1
		c-1.6,0-2.6-0.8-2.6-2.1C989.7,913.6,990.7,912.8,992.3,912.8L992.3,912.8z M992.3,924.4c-1.9,0-3.1-0.9-3.1-2.4s1.2-2.4,3.1-2.4
		c1.9,0,3.2,0.9,3.2,2.4S994.2,924.4,992.3,924.4L992.3,924.4z M1009.3,916.5c-1.5-0.1-3,0.5-4.2,1.5c0.1-3.2,1.9-4.9,4.7-4.9
		c1.1,0,2.2,0.3,3.1,0.8l1.4-2.9c-1.4-0.8-3-1.2-4.7-1.2c-5.1,0-8.6,3.2-8.6,9c0,5.4,2.9,8.3,7.5,8.3c3.6,0,6.4-2.2,6.4-5.6
		C1015.1,918.5,1012.5,916.5,1009.3,916.5z M1008.5,924.4c-1.9,0-3-1.1-3-2.5c0.1-1.5,1.3-2.6,2.7-2.5c0.1,0,0.1,0,0.2,0
		c1.7,0,2.9,1,2.9,2.5c0,1.4-1.1,2.5-2.5,2.5C1008.7,924.4,1008.6,924.4,1008.5,924.4z M1031.9,920.3h-2.7v-3.1h-3.7v3.1h-4.5
		l7.3-10.1h-4.1l-7.9,10.7v2.6h9v3.5h3.8v-3.5h2.7V920.3z"/>
	<path id="Trazado_18464" class="st4" d="M979.5,960.5v-6.2h8.7v-1.5h-8.7v-6h9.7v-1.5h-11.5V962h11.9v-1.5H979.5z M996.6,962.1
		c3.3,0,5.2-1.4,5.2-3.6c0-4.8-8.2-2.3-8.2-5.7c0-1.2,1-2.1,3.3-2.1c1.3,0,2.6,0.3,3.7,1.1l0.7-1.4c-1.4-0.8-2.9-1.2-4.5-1.2
		c-3.2,0-5,1.5-5,3.6c0,5,8.2,2.4,8.2,5.7c0,1.2-1,2.1-3.4,2.1c-1.6,0-3.2-0.5-4.5-1.4l-0.8,1.3C993,961.6,994.8,962.2,996.6,962.1z
		 M1011.5,949.3c-2-0.1-3.8,0.9-4.9,2.6v-2.5h-1.6v17.3h1.7v-7c1.1,1.6,2.9,2.6,4.8,2.5c3.4,0.1,6.2-2.6,6.3-5.9c0-0.2,0-0.3,0-0.5
		c0.2-3.4-2.4-6.2-5.8-6.4C1011.8,949.3,1011.6,949.3,1011.5,949.3z M1011.4,960.6c-2.6,0-4.7-2-4.7-4.5c0-0.1,0-0.3,0-0.4
		c-0.2-2.6,1.8-4.8,4.3-4.9c0.1,0,0.2,0,0.4,0c2.6,0,4.7,2,4.7,4.6c0,0.1,0,0.2,0,0.3c0.2,2.6-1.8,4.8-4.3,4.9
		C1011.6,960.6,1011.5,960.6,1011.4,960.6z M1025.6,949.3c-1.9,0-3.7,0.6-5.1,1.7l0.8,1.3c1.2-1,2.7-1.5,4.2-1.5
		c2.4,0,3.6,1.2,3.6,3.3v0.8h-4c-3.6,0-4.9,1.6-4.9,3.6c0,2.2,1.8,3.7,4.6,3.7c1.7,0.1,3.4-0.7,4.3-2.1v2h1.6v-7.8
		C1030.7,950.9,1028.9,949.3,1025.6,949.3z M1025,960.8c-2,0-3.2-0.9-3.2-2.4c0-1.3,0.8-2.3,3.2-2.3h4v2.1
		C1028.4,959.8,1026.7,960.9,1025,960.8L1025,960.8z M1039.6,945.7c1,0,1.7,1.6,3.1,1.6c1.3,0,2.1-1,2.2-2.6h-1
		c0,0.9-0.5,1.5-1.2,1.5c-0.9,0-1.7-1.6-3.1-1.6c-1.3,0-2.1,1-2.2,2.6h1C1038.4,946.2,1038.9,945.7,1039.6,945.7L1039.6,945.7z
		 M1041.8,949.3c-1.9-0.1-3.8,0.8-4.8,2.4v-2.3h-1.6V962h1.7v-6.6c0-2.9,1.7-4.6,4.4-4.6c2.4,0,3.8,1.4,3.8,4v7.2h1.7v-7.3
		C1047,951.1,1044.8,949.3,1041.8,949.3L1041.8,949.3z M1056.8,962.1c3.4,0.1,6.3-2.6,6.4-6c0-0.1,0-0.3,0-0.4
		c0.1-3.4-2.5-6.3-6-6.4c-0.1,0-0.3,0-0.4,0c-3.4-0.1-6.3,2.6-6.4,6c0,0.1,0,0.3,0,0.4c-0.1,3.4,2.6,6.3,6,6.4
		C1056.5,962.1,1056.7,962.1,1056.8,962.1z M1056.8,960.6c-2.6,0-4.7-2-4.7-4.5c0-0.1,0-0.3,0-0.4c-0.2-2.5,1.8-4.7,4.3-4.9
		c0.1,0,0.3,0,0.4,0c2.5-0.1,4.6,2,4.7,4.5c0,0.1,0,0.3,0,0.4c0.2,2.5-1.7,4.7-4.3,4.9C1057.1,960.6,1056.9,960.6,1056.8,960.6z
		 M1066.7,962h1.7v-17.8h-1.7V962z M1084.2,955.7c0-3.8-2.6-6.4-6.1-6.4c-3.4-0.1-6.1,2.6-6.2,6c0,0.1,0,0.3,0,0.4
		c-0.1,3.5,2.6,6.3,6.1,6.4c0.2,0,0.4,0,0.6,0c1.9,0.1,3.6-0.7,4.9-2.1l-1-1.1c-1,1.1-2.4,1.7-3.9,1.7c-2.6,0.2-4.8-1.8-5-4.4
		c0,0,0,0,0,0h10.6C1084.1,956,1084.2,955.8,1084.2,955.7z M1078,950.7c2.4-0.1,4.4,1.8,4.5,4.2h-9
		C1073.7,952.6,1075.7,950.7,1078,950.7z M1091,962.1c3.3,0,5.2-1.4,5.2-3.6c0-4.8-8.2-2.3-8.2-5.7c0-1.2,1-2.1,3.3-2.1
		c1.3,0,2.6,0.3,3.7,1.1l0.7-1.4c-1.4-0.8-2.9-1.2-4.5-1.2c-3.2,0-5,1.5-5,3.6c0,5,8.2,2.4,8.2,5.7c0,1.2-1,2.1-3.4,2.1
		c-1.6,0-3.2-0.5-4.5-1.4l-0.8,1.3C1087.4,961.6,1089.2,962.2,1091,962.1z"/>
	<g>
		<defs>
			<path id="SVGID_4_" d="M988,1011h243c7.2,0,13,5.8,13,13v162c0,7.2-5.8,13-13,13H988c-7.2,0-13-5.8-13-13v-162
				C975,1016.8,980.8,1011,988,1011z"/>
		</defs>
		<clipPath id="SVGID_5_">
			<use xlink:href="#SVGID_4_"  style="overflow:visible;"/>
		</clipPath>
		<g id="Enmascarar_grupo_2" transform="translate(0 -145)" class="st8">
			
				<image style="overflow:visible;enable-background:new    ;" width="480" height="360" id="hqdefault" xlink:href="67478BF45C42EEA.jpeg"  transform="matrix(0.8333 0 0 0.8333 960 1117)">
			</image>
		</g>
	</g>
	<path id="Trazado_12672" class="st1" d="M1414,822v565"/>
	<g id="Elipse_500" transform="translate(1396 1028)">
		<circle class="st2" cx="18" cy="18" r="18"/>
		<circle class="st3" cx="18" cy="18" r="16.5"/>
	</g>
	<path id="Trazado_18463" class="st4" d="M1463.2,910.2v3.1h3.4V927h3.9v-16.8H1463.2z M1479.2,909.9c-3.6,0-6.4,2.2-6.4,5.6
		c0,3.2,2.5,5.2,5.8,5.2c1.5,0.1,3-0.5,4.2-1.5c-0.1,3.2-1.9,4.9-4.7,4.9c-1.1,0-2.2-0.2-3.1-0.8l-1.4,2.9c1.4,0.8,3,1.2,4.7,1.2
		c5.1,0,8.6-3.2,8.6-9C1486.8,912.8,1483.9,909.9,1479.2,909.9z M1479.5,917.8c-1.7,0-2.9-1-2.9-2.5c0-1.4,1.1-2.5,2.5-2.5
		c0.1,0,0.2,0,0.3,0c1.8,0,2.9,1.1,2.9,2.5c0,1.4-1.2,2.6-2.7,2.5C1479.7,917.8,1479.6,917.8,1479.5,917.8z M1496.2,917l3.8-4.3
		v-2.5h-11.8v3.1h7.2l-3.5,3.9v2.6h1.8c2.2,0,3.1,0.8,3.1,2.1c0,1.4-1.2,2.2-3.1,2.2c-1.7,0-3.4-0.5-4.8-1.5l-1.5,3
		c1.9,1.2,4.1,1.8,6.4,1.8c4.8,0,7-2.6,7-5.4C1500.8,919.4,1499.3,917.5,1496.2,917L1496.2,917z M1501.8,910.2v3.1h3.4V927h3.9
		v-16.8H1501.8z"/>
	<path id="Trazado_18462" class="st4" d="M1473,962.1c2.3,0.1,4.6-0.8,6.2-2.5l-1.1-1.1c-1.3,1.3-3.1,2.1-5,2
		c-3.8,0.1-7-2.8-7.1-6.6c0-0.1,0-0.2,0-0.3c-0.1-3.8,3-6.9,6.8-7c0.1,0,0.2,0,0.3,0c1.9-0.1,3.7,0.7,5,2l1.1-1.1
		c-1.6-1.6-3.8-2.5-6.1-2.4c-4.7-0.2-8.6,3.4-8.8,8.1c0,0.2,0,0.3,0,0.5c-0.1,4.7,3.6,8.5,8.3,8.6
		C1472.7,962.2,1472.9,962.2,1473,962.1z M1487.2,962.1c3.4,0.1,6.3-2.6,6.4-6c0-0.1,0-0.3,0-0.4c0.1-3.4-2.5-6.3-6-6.4
		c-0.1,0-0.3,0-0.4,0c-3.4-0.1-6.3,2.6-6.4,6c0,0.1,0,0.3,0,0.4c-0.1,3.4,2.6,6.3,6,6.4C1487,962.1,1487.1,962.1,1487.2,962.1z
		 M1487.2,960.6c-2.6,0-4.7-2-4.7-4.5c0-0.1,0-0.3,0-0.4c-0.2-2.5,1.8-4.7,4.3-4.9c0.1,0,0.3,0,0.4,0c2.5-0.1,4.6,2,4.7,4.5
		c0,0.1,0,0.3,0,0.4c0.2,2.5-1.7,4.7-4.3,4.9C1487.5,960.6,1487.4,960.6,1487.2,960.6z M1497.1,962h1.7v-17.8h-1.7V962z
		 M1508.7,962.1c3.4,0.1,6.3-2.6,6.4-6c0-0.1,0-0.3,0-0.4c0.1-3.4-2.5-6.3-6-6.4c-0.1,0-0.3,0-0.4,0c-3.4-0.1-6.3,2.6-6.4,6
		c0,0.1,0,0.3,0,0.4c-0.1,3.4,2.6,6.3,6,6.4C1508.5,962.1,1508.6,962.1,1508.7,962.1z M1508.7,960.6c-2.6,0-4.7-2-4.7-4.5
		c0-0.1,0-0.3,0-0.4c-0.2-2.5,1.8-4.7,4.3-4.9c0.1,0,0.3,0,0.4,0c2.5-0.1,4.6,2,4.7,4.5c0,0.1,0,0.3,0,0.4c0.2,2.5-1.7,4.7-4.3,4.9
		C1509,960.6,1508.9,960.6,1508.7,960.6z M1534.4,949.3c-2-0.1-3.9,0.9-5,2.7c-0.8-1.7-2.6-2.8-4.5-2.7c-1.9-0.1-3.6,0.8-4.6,2.4
		v-2.3h-1.6V962h1.7v-6.6c0-2.9,1.7-4.6,4.2-4.6c2.3,0,3.6,1.4,3.6,4v7.2h1.7v-6.6c0-2.9,1.6-4.6,4.2-4.6c2.3,0,3.6,1.4,3.6,4v7.2
		h1.7v-7.3C1539.5,951.1,1537.4,949.3,1534.4,949.3z M1550.6,949.3c-1.9-0.1-3.7,0.9-4.8,2.5v-7.6h-1.7V962h1.6v-2.5
		c1,1.7,2.9,2.7,4.9,2.6c3.4,0.1,6.2-2.6,6.3-6c0-0.2,0-0.3,0-0.5c0.2-3.4-2.4-6.2-5.8-6.4C1550.9,949.3,1550.8,949.3,1550.6,949.3z
		 M1550.5,960.6c-2.6,0-4.7-2-4.7-4.5c0-0.1,0-0.3,0-0.4c-0.2-2.5,1.8-4.7,4.3-4.9c0.1,0,0.3,0,0.4,0c2.6,0,4.7,2,4.7,4.6
		c0,0.1,0,0.2,0,0.4c0.2,2.6-1.8,4.8-4.3,4.9C1550.7,960.6,1550.6,960.6,1550.5,960.6z M1561.2,946.6c0.7,0,1.2-0.5,1.2-1.2
		c0,0,0,0,0,0c0-0.7-0.6-1.2-1.2-1.2c0,0,0,0,0,0c-0.7,0-1.2,0.5-1.2,1.2C1560,946.1,1560.5,946.6,1561.2,946.6
		C1561.2,946.6,1561.2,946.6,1561.2,946.6z M1560.4,962h1.7v-12.6h-1.7V962z M1571.2,949.3c-1.9,0-3.7,0.6-5.1,1.7l0.8,1.3
		c1.2-1,2.7-1.5,4.2-1.5c2.4,0,3.6,1.2,3.6,3.3v0.8h-4c-3.6,0-4.9,1.6-4.9,3.6c0,2.2,1.8,3.7,4.6,3.7c1.7,0.1,3.4-0.7,4.3-2.1v2h1.6
		v-7.8C1576.4,950.9,1574.5,949.3,1571.2,949.3z M1570.6,960.8c-2,0-3.2-0.9-3.2-2.4c0-1.3,0.8-2.3,3.2-2.3h4v2.1
		C1574,959.8,1572.4,960.9,1570.6,960.8L1570.6,960.8z"/>
	<path id="Trazado_18460" class="st9" d="M976.7,1240v-12.8h2.1v11h5.4v1.8H976.7z M994.9,1235.1c0.1,1.3-0.4,2.7-1.2,3.7
		c-0.9,0.9-2.1,1.4-3.4,1.3c-0.8,0-1.7-0.2-2.4-0.6c-0.7-0.4-1.3-1-1.6-1.8c-0.4-0.8-0.6-1.8-0.6-2.7c-0.1-1.3,0.4-2.7,1.2-3.7
		c0.9-0.9,2.1-1.4,3.4-1.3c1.3-0.1,2.5,0.4,3.3,1.4C994.5,1232.5,994.9,1233.8,994.9,1235.1L994.9,1235.1z M987.8,1235.1
		c0,2.2,0.8,3.4,2.5,3.4c1.6,0,2.5-1.1,2.5-3.4c0-2.2-0.8-3.3-2.5-3.3c-0.7-0.1-1.5,0.3-1.9,0.9
		C987.9,1233.4,987.7,1234.3,987.8,1235.1L987.8,1235.1z M1003.8,1237.2c0,0.9-0.3,1.7-1,2.2c-0.9,0.6-1.9,0.8-3,0.8
		c-1.1,0-2.1-0.2-3.1-0.6v-1.8c1,0.5,2.1,0.8,3.2,0.8c1.3,0,1.9-0.4,1.9-1.2c0-0.2-0.1-0.4-0.2-0.6c-0.2-0.2-0.4-0.4-0.7-0.5
		c-0.4-0.2-0.9-0.4-1.3-0.6c-0.8-0.3-1.6-0.7-2.3-1.3c-0.4-0.5-0.6-1.1-0.6-1.7c0-0.8,0.4-1.5,1-1.9c0.8-0.5,1.8-0.7,2.7-0.7
		c1.1,0,2.2,0.2,3.2,0.7l-0.7,1.6c-0.8-0.4-1.7-0.6-2.6-0.6c-1.1,0-1.6,0.3-1.6,0.9c0,0.3,0.2,0.6,0.4,0.8c0.6,0.4,1.2,0.6,1.9,0.9
		c0.6,0.2,1.2,0.5,1.7,0.9c0.3,0.2,0.6,0.5,0.8,0.9C1003.7,1236.4,1003.8,1236.8,1003.8,1237.2L1003.8,1237.2z M1014.9,1240.2
		c-1.3,0.1-2.6-0.4-3.5-1.3c-0.9-1-1.4-2.3-1.3-3.6c-0.1-1.4,0.3-2.7,1.2-3.7c0.8-0.9,2-1.4,3.3-1.4c1.1-0.1,2.2,0.4,3,1.2
		c0.8,0.9,1.2,2,1.1,3.2v1.1h-6.5c0,0.8,0.2,1.6,0.8,2.2c0.5,0.5,1.3,0.8,2,0.8c0.5,0,1.1-0.1,1.6-0.2c0.6-0.1,1.1-0.3,1.6-0.5v1.7
		c-0.5,0.2-1,0.4-1.5,0.5C1016.1,1240.1,1015.5,1240.2,1014.9,1240.2L1014.9,1240.2z M1014.5,1231.7c-0.6,0-1.2,0.2-1.6,0.6
		c-0.4,0.5-0.7,1.2-0.7,1.8h4.4c0-0.7-0.2-1.3-0.6-1.8C1015.7,1231.9,1015.1,1231.6,1014.5,1231.7L1014.5,1231.7z M1027.6,1237.2
		c0,0.9-0.3,1.7-1,2.2c-0.9,0.6-1.9,0.8-3,0.8c-1.1,0-2.1-0.2-3.1-0.6v-1.8c1,0.5,2.1,0.8,3.2,0.8c1.3,0,1.9-0.4,1.9-1.2
		c0-0.2-0.1-0.4-0.2-0.6c-0.2-0.2-0.4-0.4-0.7-0.5c-0.4-0.2-0.9-0.4-1.3-0.6c-0.8-0.3-1.6-0.7-2.3-1.3c-0.4-0.5-0.6-1.1-0.6-1.7
		c0-0.8,0.4-1.5,1-1.9c0.8-0.5,1.8-0.7,2.7-0.7c1.1,0,2.2,0.2,3.2,0.7l-0.7,1.6c-0.8-0.4-1.7-0.6-2.6-0.7c-1.1,0-1.6,0.3-1.6,0.9
		c0,0.3,0.2,0.6,0.4,0.8c0.6,0.4,1.2,0.6,1.9,0.9c0.6,0.2,1.2,0.5,1.7,0.9c0.3,0.2,0.6,0.5,0.8,0.9
		C1027.5,1236.4,1027.6,1236.8,1027.6,1237.2L1027.6,1237.2z M1034.7,1240.2c-1.1,0.1-2.2-0.4-2.9-1.3h-0.1c0.1,0.8,0.1,1.3,0.1,1.5
		v4h-2.1v-14h1.7c0,0.2,0.1,0.6,0.3,1.3h0.1c0.6-1,1.7-1.5,2.9-1.5c1.1-0.1,2.2,0.4,2.8,1.3c0.7,1.1,1.1,2.4,1,3.7
		c0.1,1.3-0.3,2.6-1,3.7C1036.9,1239.7,1035.8,1240.2,1034.7,1240.2L1034.7,1240.2z M1034.2,1231.8c-0.7-0.1-1.3,0.2-1.8,0.7
		c-0.4,0.7-0.6,1.5-0.6,2.3v0.3c-0.1,0.9,0.1,1.8,0.6,2.6c0.4,0.6,1.1,0.9,1.8,0.8c0.7,0,1.3-0.3,1.7-0.9c0.4-0.8,0.6-1.6,0.6-2.5
		c0.1-0.9-0.1-1.7-0.6-2.5C1035.5,1232.1,1034.9,1231.8,1034.2,1231.8L1034.2,1231.8z M1047.1,1240l-0.4-1.4h-0.1
		c-0.4,0.5-0.9,0.9-1.4,1.2c-0.6,0.2-1.2,0.3-1.8,0.3c-0.8,0-1.6-0.2-2.2-0.8c-0.6-0.6-0.9-1.4-0.8-2.2c-0.1-0.9,0.4-1.8,1.1-2.3
		c1-0.6,2.2-0.9,3.4-0.8l1.7-0.1v-0.5c0-0.5-0.1-1-0.4-1.4c-0.4-0.3-0.9-0.5-1.3-0.5c-0.5,0-1,0.1-1.4,0.2c-0.5,0.1-0.9,0.3-1.3,0.5
		l-0.7-1.5c0.5-0.3,1.1-0.5,1.7-0.6c0.6-0.1,1.2-0.2,1.8-0.2c1-0.1,2,0.2,2.8,0.8c0.7,0.7,1,1.6,0.9,2.5v6.6H1047.1z M1044,1238.6
		c0.7,0,1.3-0.2,1.8-0.6c0.5-0.5,0.7-1.1,0.7-1.8v-0.8l-1.2,0.1c-0.7,0-1.5,0.1-2.1,0.5c-0.4,0.3-0.7,0.8-0.7,1.3
		c0,0.4,0.1,0.7,0.4,1C1043.2,1238.5,1043.6,1238.6,1044,1238.6L1044,1238.6z M1060,1240h-2.1v-6c0-0.6-0.1-1.2-0.5-1.7
		c-0.4-0.4-0.9-0.6-1.4-0.6c-0.7-0.1-1.4,0.2-1.9,0.8c-0.5,0.8-0.7,1.7-0.6,2.6v4.8h-2.1v-9.7h1.6l0.3,1.3h0.1
		c0.3-0.5,0.7-0.8,1.2-1.1c0.6-0.3,1.2-0.4,1.8-0.4c2.3,0,3.5,1.2,3.5,3.6L1060,1240z M1057.1,1229.1c-0.2,0-0.5-0.1-0.7-0.2
		c-0.2-0.1-0.5-0.2-0.7-0.3c-0.2-0.1-0.5-0.2-0.7-0.3c-0.2-0.1-0.4-0.1-0.6-0.2c-0.5,0-0.8,0.3-1,1h-1.1c0-0.7,0.3-1.3,0.7-1.9
		c0.4-0.4,0.9-0.7,1.5-0.6c0.3,0,0.5,0.1,0.7,0.2c0.2,0.1,0.5,0.2,0.7,0.3c0.2,0.1,0.5,0.2,0.7,0.3c0.2,0.1,0.4,0.2,0.6,0.2
		c0.5,0,0.8-0.3,0.9-1h1.1c0,0.7-0.3,1.3-0.7,1.8C1058.2,1228.9,1057.7,1229.1,1057.1,1229.1z M1071.5,1235.1
		c0.1,1.3-0.4,2.7-1.2,3.7c-0.9,0.9-2.1,1.4-3.4,1.3c-0.8,0-1.7-0.2-2.4-0.6c-0.7-0.4-1.3-1-1.6-1.8c-0.4-0.8-0.6-1.8-0.6-2.7
		c-0.1-1.3,0.4-2.7,1.2-3.7c0.9-0.9,2.1-1.4,3.4-1.3c1.3-0.1,2.5,0.4,3.3,1.4C1071.1,1232.5,1071.6,1233.8,1071.5,1235.1z
		 M1064.4,1235.1c0,2.2,0.8,3.4,2.5,3.4c1.6,0,2.5-1.1,2.5-3.4c0-2.2-0.8-3.3-2.5-3.3c-0.7-0.1-1.5,0.3-1.9,0.9
		C1064.6,1233.4,1064.4,1234.3,1064.4,1235.1L1064.4,1235.1z M1075.9,1240h-2.1v-13.7h2.1V1240z M1083.1,1240.2
		c-1.3,0.1-2.6-0.4-3.5-1.3c-0.9-1-1.4-2.3-1.3-3.6c-0.1-1.4,0.3-2.7,1.2-3.7c0.8-0.9,2-1.4,3.3-1.4c1.1-0.1,2.2,0.4,3,1.2
		c0.8,0.9,1.2,2,1.1,3.2v1.1h-6.5c0,0.8,0.2,1.6,0.8,2.2c0.5,0.5,1.3,0.8,2,0.8c0.5,0,1.1-0.1,1.6-0.2c0.6-0.1,1.1-0.3,1.6-0.5v1.7
		c-0.5,0.2-1,0.4-1.5,0.5C1084.3,1240.1,1083.7,1240.2,1083.1,1240.2L1083.1,1240.2z M1082.8,1231.7c-0.6,0-1.2,0.2-1.6,0.6
		c-0.4,0.5-0.7,1.2-0.7,1.8h4.4c0-0.7-0.2-1.3-0.6-1.8C1083.9,1231.9,1083.3,1231.6,1082.8,1231.7L1082.8,1231.7z M1095.8,1237.2
		c0,0.9-0.3,1.7-1,2.2c-0.9,0.6-1.9,0.8-3,0.8c-1.1,0-2.1-0.2-3.1-0.6v-1.8c1,0.5,2.1,0.8,3.2,0.8c1.3,0,1.9-0.4,1.9-1.2
		c0-0.2-0.1-0.4-0.2-0.6c-0.2-0.2-0.4-0.4-0.7-0.5c-0.4-0.2-0.9-0.4-1.3-0.6c-0.8-0.3-1.6-0.7-2.3-1.3c-0.4-0.5-0.6-1.1-0.6-1.7
		c0-0.8,0.4-1.5,1-1.9c0.8-0.5,1.8-0.7,2.7-0.7c1.1,0,2.2,0.2,3.2,0.7l-0.7,1.6c-0.8-0.4-1.7-0.6-2.6-0.7c-1.1,0-1.6,0.3-1.6,0.9
		c0,0.3,0.2,0.6,0.4,0.8c0.6,0.4,1.2,0.6,1.9,0.9c0.6,0.2,1.2,0.5,1.7,0.9c0.3,0.2,0.6,0.5,0.8,0.9
		C1095.7,1236.4,1095.8,1236.8,1095.8,1237.2z M1107,1240.2c-1.3,0.1-2.6-0.4-3.5-1.3c-0.9-1-1.4-2.3-1.3-3.6
		c-0.1-1.4,0.3-2.7,1.2-3.7c0.8-0.9,2-1.4,3.3-1.4c1.1-0.1,2.2,0.4,3,1.2c0.8,0.9,1.2,2,1.1,3.2v1.1h-6.5c0,0.8,0.2,1.6,0.8,2.2
		c0.5,0.5,1.3,0.8,2,0.8c0.5,0,1.1-0.1,1.6-0.2c0.6-0.1,1.1-0.3,1.6-0.5v1.7c-0.5,0.2-1,0.4-1.5,0.5
		C1108.1,1240.1,1107.5,1240.2,1107,1240.2L1107,1240.2z M1106.6,1231.7c-0.6,0-1.2,0.2-1.6,0.6c-0.4,0.5-0.7,1.2-0.7,1.8h4.4
		c0-0.7-0.2-1.3-0.6-1.8C1107.7,1231.9,1107.2,1231.6,1106.6,1231.7L1106.6,1231.7z M1121.6,1240h-2.1v-6c0-0.6-0.1-1.2-0.5-1.7
		c-0.4-0.4-0.9-0.6-1.4-0.6c-0.7-0.1-1.4,0.2-1.9,0.8c-0.5,0.8-0.7,1.7-0.6,2.6v4.8h-2.1v-9.7h1.6l0.3,1.3h0.1
		c0.3-0.5,0.7-0.8,1.2-1.1c0.6-0.3,1.2-0.4,1.8-0.4c2.3,0,3.5,1.2,3.5,3.6L1121.6,1240z M1134.6,1240h-2.1v-8.3c0-1,0-1.8,0.1-2.4
		c-0.1,0.1-0.3,0.3-0.5,0.5c-0.2,0.2-0.9,0.7-2,1.6l-1-1.3l3.8-3h1.7L1134.6,1240z M1143.1,1227c1-0.1,2.1,0.2,2.9,0.8
		c0.7,0.5,1.1,1.4,1.1,2.2c0,1.3-0.8,2.4-2.4,3.1c0.8,0.4,1.6,0.9,2.1,1.6c0.4,0.5,0.6,1.2,0.6,1.9c0,1-0.4,1.9-1.2,2.5
		c-0.9,0.7-2,1-3.2,1c-1.2,0.1-2.3-0.2-3.2-0.9c-0.8-0.6-1.2-1.6-1.2-2.5c0-0.7,0.2-1.4,0.6-1.9c0.5-0.7,1.2-1.2,2-1.5
		c-0.7-0.4-1.2-0.9-1.7-1.5c-0.3-0.5-0.5-1.1-0.5-1.8c0-0.9,0.4-1.7,1.1-2.2C1141.1,1227.2,1142.1,1226.9,1143.1,1227L1143.1,1227z
		 M1140.7,1236.7c0,0.5,0.2,1.1,0.6,1.4c0.5,0.4,1.1,0.5,1.7,0.5c0.6,0,1.3-0.1,1.8-0.5c0.4-0.3,0.7-0.9,0.6-1.4
		c0-0.5-0.2-1-0.6-1.3c-0.5-0.5-1.1-0.8-1.8-1.1l-0.3-0.1c-0.6,0.2-1.2,0.6-1.7,1.1C1140.9,1235.7,1140.7,1236.2,1140.7,1236.7z
		 M1143.1,1228.6c-0.5,0-1,0.1-1.4,0.4c-0.4,0.3-0.6,0.7-0.5,1.2c0,0.3,0.1,0.6,0.2,0.8c0.1,0.3,0.3,0.5,0.6,0.7
		c0.4,0.3,0.8,0.5,1.2,0.7c0.6-0.2,1.1-0.5,1.5-1c0.3-0.3,0.4-0.8,0.4-1.2c0-0.5-0.2-0.9-0.5-1.2
		C1144.1,1228.7,1143.6,1228.5,1143.1,1228.6z M1149.1,1234.5c0-5,2-7.5,6.1-7.5c0.5,0,1.1,0,1.6,0.1v1.7c-0.5-0.1-1-0.2-1.5-0.2
		c-1.1-0.1-2.3,0.3-3.1,1.1c-0.8,1-1.2,2.3-1.1,3.6h0.1c0.3-0.5,0.7-0.9,1.2-1.1c0.5-0.3,1.1-0.4,1.8-0.4c1-0.1,2,0.3,2.7,1.1
		c0.7,0.8,1,1.9,1,2.9c0.1,1.2-0.3,2.3-1.1,3.2c-0.8,0.8-1.9,1.2-3.1,1.2c-0.8,0-1.7-0.2-2.4-0.7c-0.7-0.5-1.3-1.1-1.6-1.9
		C1149.2,1236.6,1149,1235.6,1149.1,1234.5z M1153.6,1238.5c0.6,0,1.2-0.2,1.6-0.7c0.4-0.6,0.6-1.3,0.6-2c0-0.6-0.2-1.2-0.5-1.7
		c-0.4-0.4-1-0.7-1.6-0.6c-0.4,0-0.8,0.1-1.2,0.3c-0.4,0.2-0.7,0.4-0.9,0.8c-0.2,0.3-0.3,0.7-0.3,1c0,0.8,0.2,1.5,0.7,2.1
		C1152.2,1238.2,1152.9,1238.5,1153.6,1238.5L1153.6,1238.5z M1168.5,1237.2h-1.7v2.8h-2v-2.8h-5.9v-1.6l5.9-8.5h2v8.4h1.7V1237.2z
		 M1164.7,1235.5v-3.2c0-1.1,0-2.1,0.1-2.8h-0.1c-0.2,0.5-0.5,1-0.8,1.4l-3.2,4.6L1164.7,1235.5z M1178.6,1238.5
		c0.5,0,1-0.1,1.5-0.2v1.6c-0.3,0.1-0.6,0.2-0.9,0.2c-0.4,0.1-0.7,0.1-1.1,0.1c-2,0-2.9-1-2.9-3.1v-5.2h-1.3v-0.9l1.4-0.8l0.7-2.1
		h1.3v2.2h2.8v1.6h-2.8v5.2c0,0.4,0.1,0.8,0.4,1.1C1177.9,1238.4,1178.2,1238.5,1178.6,1238.5L1178.6,1238.5z M1187,1230.1
		c0.3,0,0.7,0,1,0.1l-0.2,1.9c-0.3-0.1-0.6-0.1-0.9-0.1c-0.8,0-1.5,0.3-2,0.8c-0.5,0.6-0.8,1.3-0.8,2.1v5.1h-2.1v-9.7h1.6l0.3,1.7
		h0.1c0.3-0.6,0.7-1,1.3-1.4C1185.8,1230.3,1186.4,1230.1,1187,1230.1L1187,1230.1z M1195.5,1240l-0.4-1.4h-0.1
		c-0.4,0.5-0.9,0.9-1.4,1.2c-0.6,0.2-1.2,0.3-1.8,0.3c-0.8,0-1.6-0.2-2.2-0.8c-0.6-0.6-0.9-1.4-0.8-2.2c-0.1-0.9,0.4-1.8,1.1-2.3
		c1-0.6,2.2-0.9,3.4-0.8l1.7-0.1v-0.5c0-0.5-0.1-1-0.4-1.4c-0.4-0.3-0.9-0.5-1.3-0.5c-0.5,0-1,0.1-1.4,0.2c-0.5,0.1-0.9,0.3-1.3,0.5
		l-0.7-1.5c0.5-0.3,1.1-0.5,1.7-0.6c0.6-0.1,1.2-0.2,1.8-0.2c1-0.1,2,0.2,2.8,0.8c0.7,0.7,1,1.6,0.9,2.5v6.5L1195.5,1240z
		 M1192.4,1238.6c0.7,0,1.3-0.2,1.8-0.6c0.5-0.5,0.7-1.1,0.7-1.8v-0.8l-1.2,0.1c-0.7,0-1.5,0.1-2.1,0.5c-0.4,0.3-0.7,0.8-0.7,1.3
		c0,0.4,0.1,0.7,0.4,1C1191.6,1238.5,1192,1238.6,1192.4,1238.6L1192.4,1238.6z M1198.9,1244.3c-0.5,0-1-0.1-1.5-0.2v-1.6
		c0.4,0.1,0.8,0.2,1.2,0.2c0.9,0,1.3-0.5,1.3-1.5v-10.9h2.1v11c0.1,0.8-0.2,1.7-0.8,2.3C1200.5,1244.1,1199.7,1244.4,1198.9,1244.3
		L1198.9,1244.3z M1199.7,1227.7c0-0.3,0.1-0.6,0.3-0.9c0.2-0.2,0.5-0.3,0.9-0.3c0.3,0,0.6,0.1,0.8,0.3c0.2,0.2,0.3,0.5,0.3,0.9
		c0,0.3-0.1,0.6-0.3,0.8c-0.2,0.2-0.5,0.3-0.8,0.3c-0.3,0-0.6-0.1-0.9-0.3C1199.8,1228.3,1199.7,1228,1199.7,1227.7L1199.7,1227.7z
		 M1209.1,1240.2c-1.3,0.1-2.6-0.4-3.5-1.3c-0.9-1-1.4-2.3-1.3-3.6c-0.1-1.4,0.3-2.7,1.2-3.7c0.8-0.9,2-1.4,3.3-1.4
		c1.1-0.1,2.2,0.4,3,1.2c0.8,0.9,1.2,2,1.1,3.2v1.1h-6.5c0,0.8,0.2,1.6,0.8,2.2c0.5,0.5,1.3,0.8,2,0.8c0.5,0,1.1-0.1,1.6-0.2
		c0.6-0.1,1.1-0.3,1.6-0.5v1.7c-0.5,0.2-1,0.4-1.5,0.5C1210.3,1240.1,1209.7,1240.2,1209.1,1240.2L1209.1,1240.2z M1208.8,1231.7
		c-0.6,0-1.2,0.2-1.6,0.6c-0.4,0.5-0.7,1.2-0.7,1.8h4.4c0-0.7-0.2-1.3-0.6-1.8C1209.9,1231.9,1209.3,1231.6,1208.8,1231.7
		L1208.8,1231.7z M1220.2,1230.1c0.3,0,0.7,0,1,0.1l-0.2,1.9c-0.3-0.1-0.6-0.1-0.9-0.1c-0.8,0-1.5,0.3-2,0.8
		c-0.5,0.6-0.8,1.3-0.8,2.1v5.1h-2.1v-9.7h1.6l0.3,1.7h0.1c0.3-0.6,0.7-1,1.3-1.4C1219,1230.3,1219.6,1230.1,1220.2,1230.1z
		 M1231.3,1235.1c0.1,1.3-0.4,2.7-1.2,3.7c-0.9,0.9-2.1,1.4-3.4,1.3c-0.8,0-1.7-0.2-2.4-0.6c-0.7-0.4-1.3-1-1.6-1.8
		c-0.4-0.8-0.6-1.8-0.6-2.7c-0.1-1.3,0.4-2.7,1.2-3.7c0.9-0.9,2.1-1.4,3.4-1.3c1.3-0.1,2.5,0.4,3.3,1.4
		C1230.9,1232.5,1231.4,1233.8,1231.3,1235.1L1231.3,1235.1z M1224.2,1235.1c0,2.2,0.8,3.4,2.5,3.4c1.6,0,2.5-1.1,2.5-3.4
		c0-2.2-0.8-3.3-2.5-3.3c-0.7-0.1-1.5,0.3-1.9,0.9C1224.4,1233.4,1224.2,1234.3,1224.2,1235.1L1224.2,1235.1z M1242.2,1240h-2.1v-6
		c0-0.6-0.1-1.2-0.5-1.7c-0.4-0.4-0.9-0.6-1.4-0.6c-0.7-0.1-1.4,0.2-1.9,0.8c-0.5,0.8-0.7,1.7-0.6,2.6v4.8h-2.1v-9.7h1.6l0.3,1.3
		h0.1c0.3-0.5,0.7-0.8,1.2-1.1c0.6-0.3,1.2-0.4,1.8-0.4c2.3,0,3.5,1.2,3.5,3.6L1242.2,1240z M1254,1240.2c-1.3,0.1-2.6-0.4-3.5-1.3
		c-0.9-1-1.4-2.3-1.3-3.6c-0.1-1.4,0.3-2.7,1.2-3.7c0.8-0.9,2-1.4,3.3-1.4c1.1-0.1,2.2,0.4,3,1.2c0.8,0.9,1.2,2,1.1,3.2v1.1h-6.5
		c0,0.8,0.2,1.6,0.8,2.2c0.5,0.5,1.3,0.8,2,0.8c0.5,0,1.1-0.1,1.6-0.2c0.6-0.1,1.1-0.3,1.6-0.5v1.7c-0.5,0.2-1,0.4-1.5,0.5
		C1255.2,1240.1,1254.6,1240.2,1254,1240.2z M1253.6,1231.7c-0.6,0-1.2,0.2-1.6,0.6c-0.4,0.5-0.7,1.2-0.7,1.8h4.4
		c0-0.7-0.2-1.3-0.6-1.8C1254.8,1231.9,1254.2,1231.6,1253.6,1231.7z M1262.2,1240h-2.1v-13.7h2.1V1240z M980.4,1270.2
		c-1.3,0.1-2.5-0.4-3.4-1.3c-0.8-1-1.2-2.4-1.1-3.7c-0.1-1.4,0.3-2.7,1.2-3.8c0.9-0.9,2.2-1.4,3.5-1.3c1,0,1.9,0.2,2.8,0.6l-0.6,1.7
		c-0.7-0.3-1.4-0.5-2.2-0.5c-1.7,0-2.5,1.1-2.5,3.3c-0.1,0.9,0.2,1.7,0.6,2.5c0.4,0.6,1.1,0.9,1.8,0.8c0.9,0,1.8-0.2,2.6-0.7v1.8
		c-0.4,0.2-0.8,0.4-1.2,0.5C981.4,1270.1,980.9,1270.2,980.4,1270.2z M994,1265.1c0.1,1.3-0.4,2.7-1.2,3.7c-0.9,0.9-2.1,1.4-3.4,1.3
		c-0.8,0-1.7-0.2-2.4-0.6c-0.7-0.4-1.3-1-1.6-1.8c-0.4-0.8-0.6-1.8-0.6-2.7c-0.1-1.3,0.4-2.7,1.2-3.7c0.9-0.9,2.1-1.4,3.4-1.3
		c1.3-0.1,2.5,0.4,3.3,1.4C993.6,1262.5,994.1,1263.8,994,1265.1L994,1265.1z M986.9,1265.1c0,2.2,0.8,3.4,2.5,3.4
		c1.6,0,2.5-1.1,2.5-3.4c0-2.2-0.8-3.3-2.5-3.3c-0.7-0.1-1.5,0.3-1.9,0.9C987.1,1263.4,986.9,1264.3,986.9,1265.1L986.9,1265.1z
		 M1005,1265.1c0.1,1.3-0.4,2.7-1.2,3.7c-0.9,0.9-2.1,1.4-3.4,1.3c-0.8,0-1.7-0.2-2.4-0.6c-0.7-0.4-1.3-1-1.6-1.8
		c-0.4-0.8-0.6-1.8-0.6-2.7c-0.1-1.3,0.4-2.7,1.2-3.7c0.9-0.9,2.1-1.4,3.4-1.3c1.3-0.1,2.5,0.4,3.3,1.4
		C1004.6,1262.5,1005.1,1263.8,1005,1265.1L1005,1265.1z M997.9,1265.1c0,2.2,0.8,3.4,2.5,3.4c1.6,0,2.5-1.1,2.5-3.4
		c0-2.2-0.8-3.3-2.5-3.3c-0.7-0.1-1.5,0.3-1.9,0.9C998.1,1263.4,997.9,1264.3,997.9,1265.1L997.9,1265.1z M1012.3,1270.2
		c-1.1,0.1-2.2-0.4-2.9-1.3h-0.1c0.1,0.8,0.1,1.3,0.1,1.5v4h-2.1v-14h1.7c0,0.2,0.1,0.6,0.3,1.3h0.1c0.6-1,1.7-1.5,2.9-1.5
		c1.1-0.1,2.2,0.4,2.8,1.3c0.7,1.1,1.1,2.4,1,3.7c0.1,1.3-0.3,2.6-1,3.7C1014.5,1269.7,1013.4,1270.2,1012.3,1270.2z M1011.8,1261.8
		c-0.7-0.1-1.3,0.2-1.8,0.7c-0.4,0.7-0.6,1.5-0.6,2.3v0.3c-0.1,0.9,0.1,1.8,0.6,2.6c0.4,0.6,1.1,0.9,1.8,0.8c0.7,0,1.3-0.3,1.7-0.9
		c0.4-0.8,0.6-1.6,0.6-2.5c0.1-0.9-0.1-1.7-0.6-2.5C1013.1,1262.1,1012.5,1261.8,1011.8,1261.8L1011.8,1261.8z M1022.8,1270.2
		c-1.3,0.1-2.6-0.4-3.5-1.3c-0.9-1-1.4-2.3-1.3-3.6c-0.1-1.4,0.3-2.7,1.2-3.7c0.8-0.9,2-1.4,3.3-1.4c1.1-0.1,2.2,0.4,3,1.2
		c0.8,0.9,1.2,2,1.1,3.2v1.1h-6.5c0,0.8,0.2,1.6,0.8,2.2c0.5,0.5,1.3,0.8,2,0.8c0.5,0,1.1-0.1,1.6-0.2c0.6-0.1,1.1-0.3,1.6-0.5v1.7
		c-0.5,0.2-1,0.4-1.5,0.5C1024,1270.1,1023.4,1270.2,1022.8,1270.2L1022.8,1270.2z M1022.5,1261.7c-0.6,0-1.2,0.2-1.6,0.6
		c-0.4,0.5-0.7,1.2-0.7,1.8h4.4c0-0.7-0.2-1.3-0.6-1.8C1023.6,1261.9,1023,1261.6,1022.5,1261.7L1022.5,1261.7z M1033.9,1260.1
		c0.3,0,0.7,0,1,0.1l-0.2,1.9c-0.3-0.1-0.6-0.1-0.9-0.1c-0.8,0-1.5,0.3-2,0.8c-0.5,0.6-0.8,1.3-0.8,2.1v5.1h-2.1v-9.7h1.6l0.3,1.7
		h0.1c0.3-0.6,0.7-1,1.3-1.4C1032.7,1260.3,1033.3,1260.1,1033.9,1260.1z M1042.4,1270l-0.4-1.4h-0.1c-0.4,0.5-0.9,0.9-1.4,1.2
		c-0.6,0.2-1.2,0.3-1.8,0.3c-0.8,0-1.6-0.2-2.2-0.8c-0.6-0.6-0.9-1.4-0.8-2.2c-0.1-0.9,0.4-1.8,1.1-2.3c1-0.6,2.2-0.9,3.4-0.8
		l1.7-0.1v-0.5c0-0.5-0.1-1-0.4-1.4c-0.4-0.3-0.9-0.5-1.3-0.5c-0.5,0-1,0.1-1.4,0.2c-0.5,0.1-0.9,0.3-1.3,0.5l-0.7-1.5
		c0.5-0.3,1.1-0.5,1.7-0.6c0.6-0.1,1.2-0.2,1.8-0.2c1-0.1,2,0.2,2.8,0.8c0.7,0.7,1,1.6,0.9,2.5v6.6H1042.4z M1039.4,1268.6
		c0.7,0,1.3-0.2,1.8-0.6c0.5-0.5,0.7-1.1,0.7-1.8v-0.8l-1.2,0.1c-0.7,0-1.5,0.1-2.1,0.5c-0.4,0.3-0.7,0.8-0.7,1.3
		c0,0.4,0.1,0.7,0.4,1C1038.5,1268.5,1039,1268.6,1039.4,1268.6z M1050.4,1268.5c0.5,0,1-0.1,1.5-0.2v1.6c-0.3,0.1-0.6,0.2-0.9,0.2
		c-0.4,0.1-0.7,0.1-1.1,0.1c-2,0-2.9-1-2.9-3.1v-5.2h-1.3v-0.9l1.4-0.8l0.7-2.1h1.3v2.2h2.8v1.6h-2.8v5.2c0,0.4,0.1,0.8,0.4,1.1
		C1049.7,1268.4,1050.1,1268.5,1050.4,1268.5z M1055.9,1270h-2.1v-9.7h2.1V1270z M1053.8,1257.7c0-0.3,0.1-0.6,0.3-0.9
		c0.2-0.2,0.5-0.3,0.9-0.3c0.3,0,0.6,0.1,0.8,0.3c0.2,0.2,0.3,0.5,0.3,0.9c0,0.3-0.1,0.6-0.3,0.8c-0.2,0.2-0.5,0.3-0.8,0.3
		c-0.3,0-0.6-0.1-0.9-0.3C1053.8,1258.3,1053.7,1258,1053.8,1257.7z M1061.1,1270l-3.7-9.7h2.2l2,5.7c0.3,0.7,0.5,1.5,0.6,2.3h0.1
		c0.1-0.8,0.4-1.6,0.6-2.3l2-5.7h2.2l-3.7,9.7H1061.1z M1070.6,1270h-2.1v-9.7h2.1V1270z M1068.4,1257.7c0-0.3,0.1-0.6,0.3-0.9
		c0.2-0.2,0.5-0.3,0.9-0.3c0.3,0,0.6,0.1,0.8,0.3c0.2,0.2,0.3,0.5,0.3,0.9c0,0.3-0.1,0.6-0.3,0.8c-0.2,0.2-0.5,0.3-0.8,0.3
		c-0.3,0-0.6-0.1-0.9-0.3C1068.5,1258.3,1068.4,1258,1068.4,1257.7z M1080.1,1267.2c0,0.9-0.3,1.7-1,2.2c-0.9,0.6-1.9,0.8-3,0.8
		c-1.1,0-2.1-0.2-3.1-0.6v-1.8c1,0.5,2.1,0.8,3.2,0.8c1.3,0,1.9-0.4,1.9-1.2c0-0.2-0.1-0.4-0.2-0.6c-0.2-0.2-0.4-0.4-0.7-0.5
		c-0.4-0.2-0.9-0.4-1.3-0.6c-0.8-0.3-1.6-0.7-2.3-1.3c-0.4-0.5-0.6-1.1-0.6-1.7c0-0.8,0.4-1.5,1-1.9c0.8-0.5,1.8-0.7,2.7-0.7
		c1.1,0,2.2,0.2,3.2,0.7l-0.7,1.6c-0.8-0.4-1.7-0.6-2.6-0.7c-1.1,0-1.6,0.3-1.6,0.9c0,0.3,0.2,0.6,0.4,0.8c0.6,0.4,1.2,0.6,1.9,0.9
		c0.6,0.2,1.2,0.5,1.7,0.9c0.3,0.2,0.6,0.5,0.8,0.9C1080,1266.4,1080.1,1266.8,1080.1,1267.2L1080.1,1267.2z M1090.5,1270h-2.1v-6
		c0-0.6-0.1-1.2-0.4-1.7c-0.3-0.4-0.8-0.6-1.3-0.5c-0.7-0.1-1.3,0.2-1.8,0.8c-0.4,0.8-0.6,1.7-0.6,2.6v4.8h-2.1v-9.7h1.6l0.3,1.3
		h0.1c0.3-0.5,0.7-0.8,1.2-1.1c0.5-0.3,1.1-0.4,1.7-0.4c1.2-0.2,2.4,0.5,3,1.5h0.1c0.3-0.5,0.7-0.9,1.2-1.1c0.6-0.3,1.2-0.4,1.8-0.4
		c0.9-0.1,1.9,0.2,2.5,0.9c0.6,0.8,0.9,1.7,0.8,2.7v6.3h-2.1v-6c0-0.6-0.1-1.2-0.4-1.7c-0.3-0.4-0.8-0.6-1.3-0.5
		c-0.7-0.1-1.3,0.2-1.8,0.8c-0.4,0.7-0.6,1.5-0.6,2.3L1090.5,1270z M1108.1,1265.1c0.1,1.3-0.4,2.7-1.2,3.7
		c-0.9,0.9-2.1,1.4-3.4,1.3c-0.8,0-1.7-0.2-2.4-0.6c-0.7-0.4-1.3-1-1.6-1.8c-0.4-0.8-0.6-1.8-0.6-2.7c-0.1-1.3,0.4-2.7,1.2-3.7
		c0.9-0.9,2.1-1.4,3.4-1.3c1.3-0.1,2.5,0.4,3.3,1.4C1107.8,1262.5,1108.2,1263.8,1108.1,1265.1z M1101.1,1265.1
		c0,2.2,0.8,3.4,2.5,3.4c1.6,0,2.5-1.1,2.5-3.4c0-2.2-0.8-3.3-2.5-3.3c-0.7-0.1-1.5,0.3-1.9,0.9
		C1101.2,1263.4,1101,1264.3,1101.1,1265.1L1101.1,1265.1z M1121.3,1270l-0.4-1.4h-0.1c-0.4,0.5-0.9,0.9-1.4,1.2
		c-0.6,0.2-1.2,0.3-1.8,0.3c-0.8,0-1.6-0.2-2.2-0.8c-0.6-0.6-0.9-1.4-0.8-2.2c-0.1-0.9,0.4-1.8,1.1-2.3c1-0.6,2.2-0.9,3.4-0.8
		l1.7-0.1v-0.5c0-0.5-0.1-1-0.4-1.4c-0.4-0.3-0.9-0.5-1.3-0.5c-0.5,0-1,0.1-1.4,0.2c-0.5,0.1-0.9,0.3-1.3,0.5l-0.7-1.5
		c0.5-0.3,1.1-0.5,1.7-0.6c0.6-0.1,1.2-0.2,1.8-0.2c1-0.1,2,0.2,2.8,0.8c0.7,0.7,1,1.6,0.9,2.5v6.5H1121.3z M1118.2,1268.6
		c0.7,0,1.3-0.2,1.8-0.6c0.5-0.5,0.7-1.1,0.7-1.8v-0.8l-1.2,0.1c-0.7,0-1.5,0.1-2.1,0.5c-0.4,0.3-0.7,0.8-0.7,1.3
		c0,0.4,0.1,0.7,0.4,1C1117.4,1268.5,1117.8,1268.6,1118.2,1268.6z M1133.9,1268.5c0.5,0,1-0.1,1.5-0.2v1.6
		c-0.3,0.1-0.6,0.2-0.9,0.2c-0.4,0.1-0.7,0.1-1.1,0.1c-2,0-2.9-1-2.9-3.1v-5.2h-1.3v-0.9l1.4-0.8l0.7-2.1h1.3v2.2h2.8v1.6h-2.8v5.2
		c0,0.4,0.1,0.8,0.4,1.1C1133.2,1268.4,1133.6,1268.5,1133.9,1268.5L1133.9,1268.5z M1142.3,1260.1c0.3,0,0.7,0,1,0.1l-0.2,1.9
		c-0.3-0.1-0.6-0.1-0.9-0.1c-0.8,0-1.5,0.3-2,0.8c-0.5,0.6-0.8,1.3-0.8,2.1v5.1h-2.1v-9.7h1.6l0.3,1.7h0.1c0.3-0.6,0.7-1,1.3-1.4
		C1141.1,1260.3,1141.7,1260.1,1142.3,1260.1L1142.3,1260.1z M1150.9,1270l-0.4-1.4h-0.1c-0.4,0.5-0.9,0.9-1.4,1.2
		c-0.6,0.2-1.2,0.3-1.8,0.3c-0.8,0-1.6-0.2-2.2-0.8c-0.6-0.6-0.9-1.4-0.8-2.2c-0.1-0.9,0.4-1.8,1.1-2.3c1-0.6,2.2-0.9,3.4-0.8
		l1.7-0.1v-0.5c0-0.5-0.1-1-0.4-1.4c-0.4-0.3-0.9-0.5-1.3-0.5c-0.5,0-1,0.1-1.4,0.2c-0.5,0.1-0.9,0.3-1.3,0.5l-0.7-1.5
		c0.5-0.3,1.1-0.5,1.7-0.6c0.6-0.1,1.2-0.2,1.8-0.2c1-0.1,2,0.2,2.8,0.8c0.7,0.7,1,1.6,0.9,2.5v6.6L1150.9,1270z M1147.8,1268.6
		c0.7,0,1.3-0.2,1.8-0.6c0.5-0.5,0.7-1.1,0.7-1.8v-0.8l-1.2,0.1c-0.7,0-1.5,0.1-2.1,0.5c-0.4,0.3-0.7,0.8-0.7,1.3
		c0,0.4,0.1,0.7,0.4,1C1147,1268.5,1147.4,1268.6,1147.8,1268.6L1147.8,1268.6z M1157.4,1270l-3.7-9.7h2.2l2,5.7
		c0.3,0.7,0.5,1.5,0.6,2.3h0.1c0.1-0.8,0.4-1.6,0.6-2.3l2-5.7h2.2l-3.7,9.7H1157.4z M1169.1,1270.2c-1.3,0.1-2.6-0.4-3.5-1.3
		c-0.9-1-1.4-2.3-1.3-3.6c-0.1-1.4,0.3-2.7,1.2-3.7c0.8-0.9,2-1.4,3.3-1.4c1.1-0.1,2.2,0.4,3,1.2c0.8,0.9,1.2,2,1.1,3.2v1.1h-6.5
		c0,0.8,0.2,1.6,0.8,2.2c0.5,0.5,1.3,0.8,2,0.8c0.5,0,1.1-0.1,1.6-0.2c0.6-0.1,1.1-0.3,1.6-0.5v1.7c-0.5,0.2-1,0.4-1.5,0.5
		C1170.3,1270.1,1169.7,1270.2,1169.1,1270.2L1169.1,1270.2z M1168.7,1261.7c-0.6,0-1.2,0.2-1.6,0.6c-0.4,0.5-0.7,1.2-0.7,1.8h4.4
		c0-0.7-0.2-1.3-0.6-1.8C1169.9,1261.9,1169.3,1261.6,1168.7,1261.7L1168.7,1261.7z M1167.4,1259.1v-0.2c0.3-0.4,0.7-0.9,1-1.4
		c0.4-0.5,0.6-0.9,0.8-1.3h2.4v0.2c-0.4,0.5-0.9,0.9-1.4,1.4c-0.5,0.5-1,0.9-1.5,1.3H1167.4z M1181.8,1267.2c0,0.9-0.3,1.7-1,2.2
		c-0.9,0.6-1.9,0.8-3,0.8c-1.1,0-2.1-0.2-3.1-0.6v-1.8c1,0.5,2.1,0.8,3.2,0.8c1.3,0,1.9-0.4,1.9-1.2c0-0.2-0.1-0.4-0.2-0.6
		c-0.2-0.2-0.4-0.4-0.7-0.5c-0.4-0.2-0.9-0.4-1.3-0.6c-0.8-0.3-1.6-0.7-2.3-1.3c-0.4-0.5-0.6-1.1-0.6-1.7c0-0.8,0.4-1.5,1-1.9
		c0.8-0.5,1.8-0.7,2.7-0.7c1.1,0,2.2,0.2,3.2,0.7l-0.7,1.6c-0.8-0.4-1.7-0.6-2.6-0.7c-1.1,0-1.6,0.3-1.6,0.9c0,0.3,0.2,0.6,0.4,0.8
		c0.6,0.4,1.2,0.6,1.9,0.9c0.6,0.2,1.2,0.5,1.7,0.9c0.3,0.2,0.6,0.5,0.8,0.9C1181.7,1266.4,1181.8,1266.8,1181.8,1267.2
		L1181.8,1267.2z M1191.9,1270.2c-1.1,0.1-2.2-0.4-2.8-1.3c-0.7-1.1-1.1-2.4-1-3.7c-0.1-1.3,0.3-2.6,1-3.7c0.7-0.9,1.7-1.4,2.9-1.3
		c1.2-0.1,2.3,0.5,2.9,1.4h0.1c-0.1-0.5-0.1-1.1-0.1-1.7v-3.5h2.1v13.7h-1.6l-0.4-1.3h-0.1
		C1194.2,1269.7,1193.1,1270.2,1191.9,1270.2L1191.9,1270.2z M1192.5,1268.5c0.7,0.1,1.4-0.2,1.9-0.7c0.4-0.7,0.7-1.5,0.6-2.3v-0.3
		c0.1-0.9-0.1-1.8-0.6-2.6c-0.5-0.5-1.2-0.8-1.9-0.8c-0.7,0-1.3,0.3-1.7,0.9c-0.4,0.8-0.6,1.6-0.6,2.5c-0.1,0.9,0.1,1.7,0.6,2.5
		C1191.2,1268.2,1191.8,1268.5,1192.5,1268.5L1192.5,1268.5z M1204.1,1270.2c-1.3,0.1-2.6-0.4-3.5-1.3c-0.9-1-1.4-2.3-1.3-3.6
		c-0.1-1.4,0.3-2.7,1.2-3.7c0.8-0.9,2-1.4,3.3-1.4c1.1-0.1,2.2,0.4,3,1.2c0.8,0.9,1.2,2,1.1,3.2v1.1h-6.5c0,0.8,0.2,1.6,0.8,2.2
		c0.5,0.5,1.3,0.8,2,0.8c0.5,0,1.1-0.1,1.6-0.2c0.6-0.1,1.1-0.3,1.6-0.5v1.7c-0.5,0.2-1,0.4-1.5,0.5
		C1205.3,1270.1,1204.7,1270.2,1204.1,1270.2L1204.1,1270.2z M1203.8,1261.7c-0.6,0-1.2,0.2-1.6,0.6c-0.4,0.5-0.7,1.2-0.7,1.8h4.4
		c0-0.7-0.2-1.3-0.6-1.8C1204.9,1261.9,1204.3,1261.6,1203.8,1261.7L1203.8,1261.7z M1221.5,1267.2c0,0.9-0.3,1.7-1,2.2
		c-0.9,0.6-1.9,0.8-3,0.8c-1.1,0-2.1-0.2-3.1-0.6v-1.8c1,0.5,2.1,0.8,3.2,0.8c1.3,0,1.9-0.4,1.9-1.2c0-0.2-0.1-0.4-0.2-0.6
		c-0.2-0.2-0.4-0.4-0.7-0.5c-0.4-0.2-0.9-0.4-1.3-0.6c-0.8-0.3-1.6-0.7-2.3-1.3c-0.4-0.5-0.6-1.1-0.6-1.7c0-0.8,0.4-1.5,1-1.9
		c0.8-0.5,1.8-0.7,2.7-0.7c1.1,0,2.2,0.2,3.2,0.7l-0.7,1.6c-0.8-0.4-1.7-0.6-2.6-0.7c-1.1,0-1.6,0.3-1.6,0.9c0,0.3,0.2,0.6,0.4,0.8
		c0.6,0.4,1.2,0.6,1.9,0.9c0.6,0.2,1.2,0.5,1.7,0.9c0.3,0.2,0.6,0.5,0.8,0.9C1221.4,1266.4,1221.5,1266.8,1221.5,1267.2
		L1221.5,1267.2z M1230.6,1270l-0.3-1.3h-0.1c-0.3,0.5-0.7,0.8-1.2,1.1c-0.6,0.3-1.2,0.4-1.8,0.4c-1,0.1-1.9-0.2-2.6-0.9
		c-0.6-0.7-0.9-1.7-0.9-2.7v-6.4h2.1v6c0,0.6,0.1,1.2,0.5,1.7c0.4,0.4,0.9,0.6,1.4,0.6c0.7,0.1,1.4-0.2,1.9-0.8
		c0.5-0.8,0.7-1.7,0.6-2.6v-4.8h2.1v9.7H1230.6z M1241.7,1267.2c0,0.9-0.3,1.7-1,2.2c-0.9,0.6-1.9,0.8-3,0.8c-1.1,0-2.1-0.2-3.1-0.6
		v-1.8c1,0.5,2.1,0.8,3.2,0.8c1.3,0,1.9-0.4,1.9-1.2c0-0.2-0.1-0.4-0.2-0.6c-0.2-0.2-0.4-0.4-0.7-0.5c-0.4-0.2-0.9-0.4-1.3-0.6
		c-0.8-0.3-1.6-0.7-2.3-1.3c-0.4-0.5-0.6-1.1-0.6-1.7c0-0.8,0.4-1.5,1-1.9c0.8-0.5,1.8-0.7,2.7-0.7c1.1,0,2.2,0.2,3.2,0.7l-0.7,1.6
		c-0.8-0.4-1.7-0.6-2.6-0.7c-1.1,0-1.6,0.3-1.6,0.9c0,0.3,0.2,0.6,0.4,0.8c0.6,0.4,1.2,0.6,1.9,0.9c0.6,0.2,1.2,0.5,1.7,0.9
		c0.3,0.2,0.6,0.5,0.8,0.9C1241.6,1266.4,1241.7,1266.8,1241.7,1267.2z M1256.8,1270h-2.1v-6c0-0.6-0.1-1.2-0.4-1.7
		c-0.3-0.4-0.8-0.6-1.3-0.5c-0.7-0.1-1.3,0.2-1.8,0.8c-0.4,0.8-0.6,1.7-0.6,2.6v4.8h-2.1v-9.7h1.6l0.3,1.3h0.1
		c0.3-0.5,0.7-0.8,1.2-1.1c0.5-0.3,1.1-0.4,1.7-0.4c1.2-0.2,2.4,0.5,3,1.5h0.1c0.3-0.5,0.7-0.9,1.2-1.1c0.6-0.3,1.2-0.4,1.8-0.4
		c0.9-0.1,1.9,0.2,2.5,0.9c0.6,0.8,0.9,1.7,0.8,2.7v6.3h-2.1v-6c0-0.6-0.1-1.2-0.4-1.7c-0.3-0.4-0.8-0.6-1.3-0.5
		c-0.7-0.1-1.3,0.2-1.8,0.8c-0.4,0.7-0.6,1.5-0.6,2.3V1270z M1274.4,1265.1c0.1,1.3-0.4,2.7-1.2,3.7c-0.9,0.9-2.1,1.4-3.4,1.3
		c-0.8,0-1.7-0.2-2.4-0.6c-0.7-0.4-1.3-1-1.6-1.8c-0.4-0.8-0.6-1.8-0.6-2.7c-0.1-1.3,0.4-2.7,1.2-3.7c0.9-0.9,2.1-1.4,3.4-1.3
		c1.3-0.1,2.5,0.4,3.3,1.4C1274,1262.5,1274.5,1263.8,1274.4,1265.1z M1267.3,1265.1c0,2.2,0.8,3.4,2.5,3.4c1.6,0,2.5-1.1,2.5-3.4
		c0-2.2-0.8-3.3-2.5-3.3c-0.7-0.1-1.5,0.3-1.9,0.9C1267.5,1263.4,1267.3,1264.3,1267.3,1265.1L1267.3,1265.1z M1280,1270.2
		c-1.1,0.1-2.2-0.4-2.8-1.3c-0.7-1.1-1.1-2.4-1-3.7c-0.1-1.3,0.3-2.6,1-3.7c0.7-0.9,1.7-1.4,2.9-1.3c1.2-0.1,2.3,0.5,2.9,1.4h0.1
		c-0.1-0.5-0.1-1.1-0.1-1.7v-3.5h2.1v13.7h-1.6l-0.4-1.3h-0.1C1282.3,1269.7,1281.2,1270.2,1280,1270.2L1280,1270.2z M1280.6,1268.5
		c0.7,0.1,1.4-0.2,1.9-0.7c0.4-0.7,0.7-1.5,0.6-2.3v-0.3c0.1-0.9-0.1-1.8-0.6-2.6c-0.5-0.5-1.2-0.8-1.9-0.8c-0.7,0-1.3,0.3-1.7,0.9
		c-0.4,0.8-0.6,1.6-0.6,2.5c-0.1,0.9,0.1,1.7,0.6,2.5C1279.3,1268.2,1279.9,1268.5,1280.6,1268.5L1280.6,1268.5z M1292.2,1270.2
		c-1.3,0.1-2.6-0.4-3.5-1.3c-0.9-1-1.4-2.3-1.3-3.6c-0.1-1.4,0.3-2.7,1.2-3.7c0.8-0.9,2-1.4,3.3-1.4c1.1-0.1,2.2,0.4,3,1.2
		c0.8,0.9,1.2,2,1.1,3.2v1.1h-6.5c0,0.8,0.2,1.6,0.8,2.2c0.5,0.5,1.3,0.8,2,0.8c0.5,0,1.1-0.1,1.6-0.2c0.6-0.1,1.1-0.3,1.6-0.5v1.7
		c-0.5,0.2-1,0.4-1.5,0.5C1293.4,1270.1,1292.8,1270.2,1292.2,1270.2L1292.2,1270.2z M1291.8,1261.7c-0.6,0-1.2,0.2-1.6,0.6
		c-0.4,0.5-0.7,1.2-0.7,1.8h4.4c0-0.7-0.2-1.3-0.6-1.8C1293,1261.9,1292.4,1261.6,1291.8,1261.7L1291.8,1261.7z M1300.4,1270h-2.1
		v-13.7h2.1V1270z M1312,1265.1c0.1,1.3-0.4,2.7-1.2,3.7c-0.9,0.9-2.1,1.4-3.4,1.3c-0.8,0-1.7-0.2-2.4-0.6c-0.7-0.4-1.3-1-1.6-1.8
		c-0.4-0.8-0.6-1.8-0.6-2.7c-0.1-1.3,0.4-2.7,1.2-3.7c0.9-0.9,2.1-1.4,3.4-1.3c1.3-0.1,2.5,0.4,3.3,1.4
		C1311.6,1262.5,1312.1,1263.8,1312,1265.1L1312,1265.1z M1304.9,1265.1c0,2.2,0.8,3.4,2.5,3.4c1.6,0,2.5-1.1,2.5-3.4
		c0-2.2-0.8-3.3-2.5-3.3c-0.7-0.1-1.5,0.3-1.9,0.9C1305.1,1263.4,1304.9,1264.3,1304.9,1265.1z M1320.9,1267.2c0,0.9-0.3,1.7-1,2.2
		c-0.9,0.6-1.9,0.8-3,0.8c-1.1,0-2.1-0.2-3.1-0.6v-1.8c1,0.5,2.1,0.8,3.2,0.8c1.3,0,1.9-0.4,1.9-1.2c0-0.2-0.1-0.4-0.2-0.6
		c-0.2-0.2-0.4-0.4-0.7-0.5c-0.4-0.2-0.9-0.4-1.3-0.6c-0.8-0.3-1.6-0.7-2.3-1.3c-0.4-0.5-0.6-1.1-0.6-1.7c0-0.8,0.4-1.5,1-1.9
		c0.8-0.5,1.8-0.7,2.7-0.7c1.1,0,2.2,0.2,3.2,0.7l-0.7,1.6c-0.8-0.4-1.7-0.6-2.6-0.7c-1.1,0-1.6,0.3-1.6,0.9c0,0.3,0.2,0.6,0.4,0.8
		c0.6,0.4,1.2,0.6,1.9,0.9c0.6,0.2,1.2,0.5,1.7,0.9c0.3,0.2,0.6,0.5,0.8,0.9C1320.8,1266.4,1320.9,1266.8,1320.9,1267.2z
		 M980.7,1300.2c-1.3,0.1-2.6-0.4-3.5-1.3c-0.9-1-1.4-2.3-1.3-3.6c-0.1-1.4,0.3-2.7,1.2-3.7c0.8-0.9,2-1.4,3.3-1.4
		c1.1-0.1,2.2,0.4,3,1.2c0.8,0.9,1.2,2,1.1,3.2v1.1H978c0,0.8,0.2,1.6,0.8,2.2c0.5,0.5,1.3,0.8,2,0.8c0.5,0,1.1-0.1,1.6-0.2
		c0.6-0.1,1.1-0.3,1.6-0.5v1.7c-0.5,0.2-1,0.4-1.5,0.5C981.9,1300.1,981.3,1300.2,980.7,1300.2z M980.3,1291.7
		c-0.6,0-1.2,0.2-1.6,0.6c-0.4,0.5-0.7,1.2-0.7,1.8h4.4c0-0.7-0.2-1.3-0.6-1.8C981.5,1291.9,980.9,1291.6,980.3,1291.7z
		 M990.8,1300.2c-1.3,0.1-2.5-0.4-3.4-1.3c-1.5-2.3-1.5-5.2,0.1-7.5c0.9-0.9,2.2-1.4,3.5-1.3c1,0,1.9,0.2,2.8,0.6l-0.6,1.7
		c-0.7-0.3-1.4-0.5-2.2-0.5c-1.7,0-2.5,1.1-2.5,3.3c-0.1,0.9,0.2,1.7,0.6,2.5c0.4,0.6,1.1,0.9,1.8,0.8c0.9,0,1.8-0.2,2.6-0.7v1.8
		c-0.4,0.2-0.8,0.4-1.2,0.5C991.8,1300.1,991.3,1300.2,990.8,1300.2z M1004.4,1295.1c0.1,1.3-0.4,2.7-1.2,3.7
		c-0.9,0.9-2.1,1.4-3.4,1.3c-0.8,0-1.7-0.2-2.4-0.6c-0.7-0.4-1.3-1-1.6-1.8c-0.4-0.8-0.6-1.8-0.6-2.7c-0.1-1.3,0.4-2.7,1.2-3.7
		c0.9-0.9,2.1-1.4,3.4-1.3c1.3-0.1,2.5,0.4,3.3,1.4C1004,1292.5,1004.5,1293.8,1004.4,1295.1z M997.3,1295.1c0,2.2,0.8,3.4,2.5,3.4
		c1.6,0,2.5-1.1,2.5-3.4c0-2.2-0.8-3.3-2.5-3.3c-0.7-0.1-1.5,0.3-1.9,0.9C997.5,1293.4,997.3,1294.3,997.3,1295.1z M1015.3,1300
		h-2.1v-6c0-0.6-0.1-1.2-0.5-1.7c-0.4-0.4-0.9-0.6-1.4-0.6c-0.7-0.1-1.4,0.2-1.9,0.8c-0.5,0.8-0.7,1.7-0.6,2.6v4.8h-2.1v-9.7h1.6
		l0.3,1.3h0.1c0.3-0.5,0.7-0.8,1.2-1.1c0.6-0.3,1.2-0.4,1.8-0.4c2.3,0,3.5,1.2,3.5,3.6L1015.3,1300z M1026.8,1295.1
		c0.1,1.3-0.4,2.7-1.2,3.7c-0.9,0.9-2.1,1.4-3.4,1.3c-0.8,0-1.7-0.2-2.4-0.6c-0.7-0.4-1.3-1-1.6-1.8c-0.4-0.8-0.6-1.8-0.6-2.7
		c-0.1-1.3,0.4-2.7,1.2-3.7c0.9-0.9,2.1-1.4,3.4-1.3c1.3-0.1,2.5,0.4,3.3,1.4C1026.4,1292.5,1026.9,1293.8,1026.8,1295.1
		L1026.8,1295.1z M1019.7,1295.1c0,2.2,0.8,3.4,2.5,3.4c1.6,0,2.5-1.1,2.5-3.4c0-2.2-0.8-3.3-2.5-3.3c-0.7-0.1-1.5,0.3-1.9,0.9
		C1019.9,1293.4,1019.7,1294.3,1019.7,1295.1L1019.7,1295.1z M1020.9,1289.1v-0.2c0.3-0.4,0.7-0.9,1-1.4c0.4-0.5,0.6-0.9,0.8-1.3
		h2.4v0.2c-0.4,0.5-0.9,0.9-1.4,1.4c-0.5,0.5-1,0.9-1.5,1.3H1020.9z M1037.4,1300h-2.1v-6c0-0.6-0.1-1.2-0.4-1.7
		c-0.3-0.4-0.8-0.6-1.3-0.5c-0.7-0.1-1.3,0.2-1.8,0.8c-0.4,0.8-0.6,1.7-0.6,2.6v4.8h-2.1v-9.7h1.6l0.3,1.3h0.1
		c0.3-0.5,0.7-0.8,1.2-1.1c0.5-0.3,1.1-0.4,1.7-0.4c1.2-0.2,2.4,0.5,3,1.5h0.1c0.3-0.5,0.7-0.9,1.2-1.1c0.6-0.3,1.2-0.4,1.8-0.4
		c0.9-0.1,1.9,0.2,2.5,0.9c0.6,0.8,0.9,1.7,0.8,2.7v6.3h-2.1v-6c0-0.6-0.1-1.2-0.4-1.7c-0.3-0.4-0.8-0.6-1.3-0.5
		c-0.7-0.1-1.3,0.2-1.8,0.8c-0.4,0.7-0.6,1.5-0.6,2.3L1037.4,1300z M1048.4,1300h-2.1v-9.7h2.1V1300z M1046.3,1287.7
		c0-0.3,0.1-0.6,0.3-0.9c0.2-0.2,0.5-0.3,0.9-0.3c0.3,0,0.6,0.1,0.8,0.3c0.2,0.2,0.3,0.5,0.3,0.9c0,0.3-0.1,0.6-0.3,0.8
		c-0.2,0.2-0.5,0.3-0.8,0.3c-0.3,0-0.6-0.1-0.9-0.3C1046.4,1288.3,1046.2,1288,1046.3,1287.7z M1055.3,1300.2
		c-1.3,0.1-2.5-0.4-3.4-1.3c-1.5-2.3-1.5-5.2,0.1-7.5c0.9-0.9,2.2-1.4,3.5-1.3c1,0,1.9,0.2,2.8,0.6l-0.6,1.7
		c-0.7-0.3-1.4-0.5-2.2-0.5c-1.7,0-2.5,1.1-2.5,3.3c-0.1,0.9,0.2,1.7,0.6,2.5c0.4,0.6,1.1,0.9,1.8,0.8c0.9,0,1.8-0.2,2.6-0.7v1.8
		c-0.4,0.2-0.8,0.4-1.2,0.5C1056.3,1300.1,1055.8,1300.2,1055.3,1300.2L1055.3,1300.2z M1068.9,1295.1c0.1,1.3-0.4,2.7-1.2,3.7
		c-0.9,0.9-2.1,1.4-3.4,1.3c-0.8,0-1.7-0.2-2.4-0.6c-0.7-0.4-1.3-1-1.6-1.8c-0.4-0.8-0.6-1.8-0.6-2.7c-0.1-1.3,0.4-2.7,1.2-3.7
		c0.9-0.9,2.1-1.4,3.4-1.3c1.3-0.1,2.5,0.4,3.3,1.4C1068.6,1292.5,1069,1293.8,1068.9,1295.1L1068.9,1295.1z M1061.9,1295.1
		c0,2.2,0.8,3.4,2.5,3.4c1.6,0,2.5-1.1,2.5-3.4c0-2.2-0.8-3.3-2.5-3.3c-0.7-0.1-1.5,0.3-1.9,0.9
		C1062,1293.4,1061.8,1294.3,1061.9,1295.1L1061.9,1295.1z M1077.8,1297.2c0,0.9-0.3,1.7-1,2.2c-0.9,0.6-1.9,0.8-3,0.8
		c-1.1,0-2.1-0.2-3.1-0.6v-1.8c1,0.5,2.1,0.8,3.2,0.8c1.3,0,1.9-0.4,1.9-1.2c0-0.2-0.1-0.4-0.2-0.6c-0.2-0.2-0.4-0.4-0.7-0.5
		c-0.4-0.2-0.9-0.4-1.3-0.6c-0.8-0.3-1.6-0.7-2.3-1.3c-0.4-0.5-0.6-1.1-0.6-1.7c0-0.8,0.4-1.5,1-1.9c0.8-0.5,1.8-0.7,2.7-0.7
		c1.1,0,2.2,0.2,3.2,0.7l-0.7,1.6c-0.8-0.4-1.7-0.6-2.6-0.7c-1.1,0-1.6,0.3-1.6,0.9c0,0.3,0.2,0.6,0.4,0.8c0.6,0.4,1.2,0.6,1.9,0.9
		c0.6,0.2,1.2,0.5,1.7,0.9c0.3,0.2,0.6,0.5,0.8,0.9C1077.8,1296.4,1077.9,1296.8,1077.8,1297.2L1077.8,1297.2z M1080.5,1298.9
		c0-0.4,0.1-0.7,0.3-1c0.3-0.2,0.6-0.4,1-0.3c0.4,0,0.7,0.1,1,0.4c0.2,0.3,0.4,0.6,0.3,1c0,0.4-0.1,0.7-0.3,1
		c-0.6,0.5-1.4,0.5-1.9,0C1080.6,1299.6,1080.5,1299.3,1080.5,1298.9z"/>
	<path id="Trazado_18461" class="st10" d="M1472,1107h-7.3v-12.8h7.3v1.8h-5.2v3.5h4.8v1.8h-4.8v4h5.2V1107z M1481.1,1104.2
		c0,0.9-0.3,1.7-1,2.2c-0.9,0.6-1.9,0.8-3,0.8c-1.1,0-2.1-0.2-3.1-0.6v-1.8c1,0.5,2.1,0.8,3.2,0.8c1.3,0,1.9-0.4,1.9-1.2
		c0-0.2-0.1-0.4-0.2-0.6c-0.2-0.2-0.4-0.4-0.7-0.5c-0.4-0.2-0.9-0.4-1.3-0.6c-0.8-0.3-1.6-0.7-2.3-1.3c-0.4-0.5-0.6-1.1-0.6-1.7
		c0-0.8,0.4-1.5,1-1.9c0.8-0.5,1.8-0.7,2.7-0.7c1.1,0,2.2,0.2,3.2,0.7l-0.7,1.6c-0.8-0.4-1.7-0.6-2.6-0.7c-1.1,0-1.6,0.3-1.6,0.9
		c0,0.3,0.2,0.6,0.4,0.8c0.6,0.4,1.2,0.6,1.9,0.9c0.6,0.2,1.2,0.5,1.7,0.9c0.3,0.2,0.6,0.5,0.8,0.9
		C1481,1103.4,1481.1,1103.8,1481.1,1104.2z M1494,1107l-0.4-1.4h-0.1c-0.4,0.5-0.9,0.9-1.4,1.2c-0.6,0.2-1.2,0.3-1.8,0.3
		c-0.8,0-1.6-0.2-2.2-0.8c-0.6-0.6-0.9-1.4-0.8-2.2c-0.1-0.9,0.4-1.8,1.1-2.3c1-0.6,2.2-0.9,3.4-0.8l1.7-0.1v-0.5
		c0-0.5-0.1-1-0.4-1.4c-0.4-0.3-0.9-0.5-1.3-0.5c-0.5,0-1,0.1-1.4,0.2c-0.5,0.1-0.9,0.3-1.3,0.5l-0.7-1.5c0.5-0.3,1.1-0.5,1.7-0.6
		c0.6-0.1,1.2-0.2,1.8-0.2c1-0.1,2,0.2,2.8,0.8c0.7,0.7,1,1.6,0.9,2.5v6.6H1494z M1491,1105.6c0.7,0,1.3-0.2,1.8-0.6
		c0.5-0.5,0.7-1.1,0.7-1.8v-0.8l-1.2,0.1c-0.7,0-1.5,0.1-2.1,0.5c-0.4,0.3-0.7,0.8-0.7,1.3c0,0.4,0.1,0.7,0.4,1
		C1490.1,1105.5,1490.5,1105.6,1491,1105.6z M1504.9,1104.2c0,0.9-0.3,1.7-1,2.2c-0.9,0.6-1.9,0.8-3,0.8c-1.1,0-2.1-0.2-3.1-0.6
		v-1.8c1,0.5,2.1,0.8,3.2,0.8c1.3,0,1.9-0.4,1.9-1.2c0-0.2-0.1-0.4-0.2-0.6c-0.2-0.2-0.4-0.4-0.7-0.5c-0.4-0.2-0.9-0.4-1.3-0.6
		c-0.8-0.3-1.6-0.7-2.3-1.3c-0.4-0.5-0.6-1.1-0.6-1.7c0-0.8,0.4-1.5,1-1.9c0.8-0.5,1.8-0.7,2.7-0.7c1.1,0,2.2,0.2,3.2,0.7l-0.7,1.6
		c-0.8-0.4-1.7-0.6-2.6-0.7c-1.1,0-1.6,0.3-1.6,0.9c0,0.3,0.2,0.6,0.4,0.8c0.6,0.4,1.2,0.6,1.9,0.9c0.6,0.2,1.2,0.5,1.7,0.9
		c0.3,0.2,0.6,0.5,0.8,0.9C1504.9,1103.4,1504.9,1103.8,1504.9,1104.2L1504.9,1104.2z M1509.2,1107h-2.1v-9.7h2.1V1107z
		 M1507.1,1096.1v-0.2c0.3-0.4,0.7-0.9,1-1.4c0.4-0.5,0.6-0.9,0.8-1.3h2.4v0.2c-0.4,0.5-0.9,0.9-1.4,1.4c-0.5,0.5-1,0.9-1.5,1.3
		H1507.1z M1520.8,1107.2c-1.3,0.1-2.5-0.4-3.4-1.3c-0.8-1-1.2-2.4-1.1-3.7c-0.1-1.4,0.3-2.7,1.2-3.8c0.9-0.9,2.2-1.4,3.5-1.3
		c1,0,1.9,0.2,2.8,0.6l-0.6,1.7c-0.7-0.3-1.4-0.5-2.2-0.5c-1.7,0-2.5,1.1-2.5,3.3c-0.1,0.9,0.2,1.7,0.6,2.5c0.4,0.6,1.1,0.9,1.8,0.8
		c0.9,0,1.8-0.2,2.6-0.7v1.8c-0.4,0.2-0.8,0.4-1.2,0.5C1521.8,1107.1,1521.3,1107.2,1520.8,1107.2L1520.8,1107.2z M1534.4,1102.1
		c0.1,1.3-0.4,2.7-1.2,3.7c-0.9,0.9-2.1,1.4-3.4,1.3c-0.8,0-1.7-0.2-2.4-0.6c-0.7-0.4-1.3-1-1.6-1.8c-0.4-0.8-0.6-1.8-0.6-2.7
		c-0.1-1.3,0.3-2.7,1.2-3.7c0.9-0.9,2.1-1.4,3.4-1.3c1.3-0.1,2.5,0.4,3.3,1.4C1534,1099.5,1534.5,1100.8,1534.4,1102.1z
		 M1527.3,1102.1c0,2.2,0.8,3.4,2.5,3.4c1.6,0,2.5-1.1,2.5-3.4c0-2.2-0.8-3.3-2.5-3.3c-0.7-0.1-1.5,0.3-1.9,0.9
		C1527.5,1100.4,1527.3,1101.3,1527.3,1102.1L1527.3,1102.1z M1545,1107h-2.1v-6c0-0.6-0.1-1.2-0.4-1.7c-0.3-0.4-0.8-0.6-1.3-0.5
		c-0.7-0.1-1.3,0.2-1.8,0.8c-0.4,0.8-0.6,1.7-0.6,2.6v4.8h-2.1v-9.7h1.6l0.3,1.3h0.1c0.3-0.5,0.7-0.8,1.2-1.1
		c0.5-0.3,1.1-0.4,1.7-0.4c1.2-0.2,2.4,0.5,3,1.5h0.1c0.3-0.5,0.7-0.9,1.2-1.1c0.6-0.3,1.2-0.4,1.8-0.4c0.9-0.1,1.9,0.2,2.5,0.9
		c0.6,0.8,0.9,1.7,0.8,2.7v6.3h-2.1v-6c0-0.6-0.1-1.2-0.4-1.7c-0.3-0.4-0.8-0.6-1.3-0.5c-0.7-0.1-1.3,0.2-1.8,0.8
		c-0.4,0.7-0.6,1.5-0.6,2.3L1545,1107z M1562.6,1102.1c0.1,1.3-0.4,2.7-1.2,3.7c-0.9,0.9-2.1,1.4-3.4,1.3c-0.8,0-1.7-0.2-2.4-0.6
		c-0.7-0.4-1.3-1-1.6-1.8c-0.4-0.8-0.6-1.8-0.6-2.7c-0.1-1.3,0.4-2.7,1.2-3.7c0.9-0.9,2.1-1.4,3.4-1.3c1.3-0.1,2.5,0.4,3.3,1.4
		C1562.2,1099.5,1562.7,1100.8,1562.6,1102.1z M1555.5,1102.1c0,2.2,0.8,3.4,2.5,3.4c1.6,0,2.5-1.1,2.5-3.4c0-2.2-0.8-3.3-2.5-3.3
		c-0.7-0.1-1.5,0.3-1.9,0.9C1555.7,1100.4,1555.5,1101.3,1555.5,1102.1L1555.5,1102.1z M1573.9,1107.2c-1.3,0.1-2.6-0.4-3.5-1.3
		c-0.9-1-1.4-2.3-1.3-3.6c-0.1-1.4,0.3-2.7,1.2-3.7c0.8-0.9,2-1.4,3.3-1.4c1.1-0.1,2.2,0.4,3,1.2c0.8,0.9,1.2,2,1.1,3.2v1.1h-6.5
		c0,0.8,0.2,1.6,0.8,2.2c0.5,0.5,1.3,0.8,2,0.8c0.5,0,1.1-0.1,1.6-0.2c0.6-0.1,1.1-0.3,1.6-0.5v1.7c-0.5,0.2-1,0.4-1.5,0.5
		C1575.1,1107.1,1574.5,1107.2,1573.9,1107.2L1573.9,1107.2z M1573.5,1098.7c-0.6,0-1.2,0.2-1.6,0.6c-0.4,0.5-0.7,1.2-0.7,1.8h4.4
		c0-0.7-0.2-1.3-0.6-1.8C1574.7,1098.9,1574.1,1098.6,1573.5,1098.7L1573.5,1098.7z M1588.6,1107h-2.1v-6c0-0.6-0.1-1.2-0.5-1.7
		c-0.4-0.4-0.9-0.6-1.4-0.6c-0.7-0.1-1.4,0.2-1.9,0.8c-0.5,0.8-0.7,1.7-0.6,2.6v4.8h-2.1v-9.7h1.6l0.3,1.3h0.1
		c0.3-0.5,0.7-0.8,1.2-1.1c0.6-0.3,1.2-0.4,1.8-0.4c2.3,0,3.5,1.2,3.5,3.6L1588.6,1107z M1601.8,1095.8c-1.1,0-2.2,0.4-2.8,1.3
		c-0.7,1-1.1,2.3-1,3.5c-0.1,1.3,0.3,2.5,1,3.6c0.7,0.8,1.8,1.3,2.9,1.2c0.5,0,1.1-0.1,1.6-0.2c0.5-0.1,1-0.2,1.6-0.4v1.8
		c-1.1,0.4-2.3,0.6-3.4,0.6c-1.6,0.1-3.2-0.5-4.3-1.7c-1.1-1.4-1.6-3.1-1.5-4.9c0-1.2,0.2-2.4,0.7-3.5c0.5-1,1.2-1.8,2.1-2.3
		c1-0.6,2.1-0.8,3.3-0.8c1.3,0,2.5,0.3,3.6,0.8l-0.8,1.7c-0.4-0.2-0.9-0.4-1.4-0.5C1602.8,1095.8,1602.3,1095.8,1601.8,1095.8z
		 M1616.2,1102.1c0.1,1.3-0.4,2.7-1.2,3.7c-0.9,0.9-2.1,1.4-3.4,1.3c-0.8,0-1.7-0.2-2.4-0.6c-0.7-0.4-1.3-1-1.6-1.8
		c-0.4-0.8-0.6-1.8-0.6-2.7c-0.1-1.3,0.4-2.7,1.2-3.7c0.9-0.9,2.1-1.4,3.4-1.3c1.3-0.1,2.5,0.4,3.3,1.4
		C1615.8,1099.5,1616.2,1100.8,1616.2,1102.1L1616.2,1102.1z M1609.1,1102.1c0,2.2,0.8,3.4,2.5,3.4c1.6,0,2.5-1.1,2.5-3.4
		c0-2.2-0.8-3.3-2.5-3.3c-0.7-0.1-1.5,0.3-1.9,0.9C1609.2,1100.4,1609,1101.3,1609.1,1102.1L1609.1,1102.1z M1620.6,1107h-2.1v-13.7
		h2.1V1107z M1632.2,1102.1c0.1,1.3-0.4,2.7-1.2,3.7c-0.9,0.9-2.1,1.4-3.4,1.3c-0.8,0-1.7-0.2-2.4-0.6c-0.7-0.4-1.3-1-1.6-1.8
		c-0.4-0.8-0.6-1.8-0.6-2.7c-0.1-1.3,0.4-2.7,1.2-3.7c0.9-0.9,2.1-1.4,3.4-1.3c1.3-0.1,2.5,0.4,3.3,1.4
		C1631.8,1099.5,1632.2,1100.8,1632.2,1102.1z M1625.1,1102.1c0,2.2,0.8,3.4,2.5,3.4c1.6,0,2.5-1.1,2.5-3.4c0-2.2-0.8-3.3-2.5-3.3
		c-0.7-0.1-1.5,0.3-1.9,0.9C1625.2,1100.4,1625,1101.3,1625.1,1102.1z M1642.7,1107h-2.1v-6c0-0.6-0.1-1.2-0.4-1.7
		c-0.3-0.4-0.8-0.6-1.3-0.5c-0.7-0.1-1.3,0.2-1.8,0.8c-0.4,0.8-0.6,1.7-0.6,2.6v4.8h-2.1v-9.7h1.6l0.3,1.3h0.1
		c0.3-0.5,0.7-0.8,1.2-1.1c0.5-0.3,1.1-0.4,1.7-0.4c1.2-0.2,2.4,0.5,3,1.5h0.1c0.3-0.5,0.7-0.9,1.2-1.1c0.6-0.3,1.2-0.4,1.8-0.4
		c0.9-0.1,1.9,0.2,2.5,0.9c0.6,0.8,0.9,1.7,0.8,2.7v6.3h-2.1v-6c0-0.6-0.1-1.2-0.4-1.7c-0.3-0.4-0.8-0.6-1.3-0.5
		c-0.7-0.1-1.3,0.2-1.8,0.8c-0.4,0.7-0.6,1.5-0.6,2.3L1642.7,1107z M1656.7,1097.1c1.1-0.1,2.2,0.4,2.8,1.3c0.7,1.1,1.1,2.4,1,3.7
		c0.1,1.3-0.3,2.6-1,3.7c-1.3,1.6-3.7,1.8-5.3,0.4c-0.2-0.1-0.3-0.3-0.4-0.4h-0.1l-0.4,1.2h-1.5v-13.7h2.1v3.3c0,0.2,0,0.6,0,1.1
		c0,0.5,0,0.8-0.1,0.9h0.1C1654.5,1097.6,1655.6,1097,1656.7,1097.1z M1656.2,1098.8c-0.7-0.1-1.4,0.2-1.8,0.7
		c-0.4,0.7-0.6,1.6-0.6,2.5v0.1c-0.1,0.9,0.1,1.8,0.6,2.6c0.4,0.6,1.1,0.9,1.8,0.8c0.7,0,1.3-0.3,1.7-0.9c0.4-0.8,0.6-1.6,0.6-2.5
		C1658.4,1099.9,1657.7,1098.8,1656.2,1098.8L1656.2,1098.8z M1665,1107h-2.1v-9.7h2.1V1107z M1662.8,1094.7c0-0.3,0.1-0.6,0.3-0.9
		c0.2-0.2,0.5-0.3,0.9-0.3c0.3,0,0.6,0.1,0.8,0.3c0.2,0.2,0.3,0.5,0.3,0.9c0,0.3-0.1,0.6-0.3,0.8c-0.2,0.2-0.5,0.3-0.8,0.3
		c-0.3,0-0.6-0.1-0.9-0.3C1662.9,1095.3,1662.8,1095,1662.8,1094.7z M1674.1,1107l-0.4-1.4h-0.1c-0.4,0.5-0.9,0.9-1.4,1.2
		c-0.6,0.2-1.2,0.3-1.8,0.3c-0.8,0-1.6-0.2-2.2-0.8c-0.6-0.6-0.9-1.4-0.8-2.2c-0.1-0.9,0.4-1.8,1.1-2.3c1-0.6,2.2-0.9,3.4-0.8
		l1.7-0.1v-0.5c0-0.5-0.1-1-0.4-1.4c-0.4-0.3-0.9-0.5-1.3-0.5c-0.5,0-1,0.1-1.4,0.2c-0.5,0.1-0.9,0.3-1.3,0.5l-0.7-1.5
		c0.5-0.3,1.1-0.5,1.7-0.6c0.6-0.1,1.2-0.2,1.8-0.2c1-0.1,2,0.2,2.8,0.8c0.7,0.7,1,1.6,0.9,2.5v6.5H1674.1z M1671,1105.6
		c0.7,0,1.3-0.2,1.8-0.6c0.5-0.5,0.7-1.1,0.7-1.8v-0.8l-1.2,0.1c-0.7,0-1.5,0.1-2.1,0.5c-0.4,0.3-0.7,0.8-0.7,1.3
		c0,0.4,0.1,0.7,0.4,1C1670.2,1105.5,1670.6,1105.6,1671,1105.6L1671,1105.6z M1689.6,1104.2c0,0.9-0.3,1.7-1,2.2
		c-0.9,0.6-1.9,0.8-3,0.8c-1.1,0-2.1-0.2-3.1-0.6v-1.8c1,0.5,2.1,0.8,3.2,0.8c1.3,0,1.9-0.4,1.9-1.2c0-0.2-0.1-0.4-0.2-0.6
		c-0.2-0.2-0.4-0.4-0.7-0.5c-0.4-0.2-0.9-0.4-1.3-0.6c-0.8-0.3-1.6-0.7-2.3-1.3c-0.4-0.5-0.6-1.1-0.6-1.7c0-0.8,0.4-1.5,1-1.9
		c0.8-0.5,1.8-0.7,2.7-0.7c1.1,0,2.2,0.2,3.2,0.7l-0.7,1.6c-0.8-0.4-1.7-0.6-2.6-0.7c-1.1,0-1.6,0.3-1.6,0.9c0,0.3,0.2,0.6,0.4,0.8
		c0.6,0.4,1.2,0.6,1.9,0.9c0.6,0.2,1.2,0.5,1.7,0.9c0.3,0.2,0.6,0.5,0.8,0.9C1689.5,1103.4,1689.6,1103.8,1689.6,1104.2
		L1689.6,1104.2z M1696.1,1107.2c-1.3,0.1-2.6-0.4-3.5-1.3c-0.9-1-1.4-2.3-1.3-3.6c-0.1-1.4,0.3-2.7,1.2-3.7c0.8-0.9,2-1.4,3.3-1.4
		c1.1-0.1,2.2,0.4,3,1.2c0.8,0.9,1.2,2,1.1,3.2v1.1h-6.5c0,0.8,0.2,1.6,0.8,2.2c0.5,0.5,1.3,0.8,2,0.8c0.5,0,1.1-0.1,1.6-0.2
		c0.6-0.1,1.1-0.3,1.6-0.5v1.7c-0.5,0.2-1,0.4-1.5,0.5C1697.3,1107.1,1696.7,1107.2,1696.1,1107.2L1696.1,1107.2z M1695.7,1098.7
		c-0.6,0-1.2,0.2-1.6,0.6c-0.4,0.5-0.7,1.2-0.7,1.8h4.4c0-0.7-0.2-1.3-0.6-1.8C1696.9,1098.9,1696.3,1098.6,1695.7,1098.7
		L1695.7,1098.7z M1711.8,1097.1c0.3,0,0.7,0,1,0.1l-0.2,1.9c-0.3-0.1-0.6-0.1-0.9-0.1c-0.8,0-1.5,0.3-2,0.8
		c-0.5,0.6-0.8,1.3-0.8,2.1v5.1h-2.1v-9.7h1.6l0.3,1.7h0.1c0.3-0.6,0.7-1,1.3-1.4C1710.7,1097.3,1711.2,1097.1,1711.8,1097.1z
		 M1718.6,1107.2c-1.3,0.1-2.6-0.4-3.6-1.3c-0.9-1-1.4-2.3-1.3-3.6c-0.1-1.4,0.3-2.7,1.2-3.7c0.8-0.9,2-1.4,3.3-1.4
		c1.1-0.1,2.2,0.4,3,1.2c0.8,0.9,1.2,2,1.1,3.2v1.1h-6.5c0,0.8,0.2,1.6,0.8,2.2c0.5,0.5,1.3,0.8,2,0.8c0.5,0,1.1-0.1,1.6-0.2
		c0.6-0.1,1.1-0.3,1.6-0.5v1.7c-0.5,0.2-1,0.4-1.5,0.5C1719.7,1107.1,1719.1,1107.2,1718.6,1107.2L1718.6,1107.2z M1718.2,1098.7
		c-0.6,0-1.2,0.2-1.6,0.6c-0.4,0.5-0.7,1.2-0.7,1.8h4.4c0-0.7-0.2-1.3-0.6-1.8C1719.3,1098.9,1718.8,1098.6,1718.2,1098.7
		L1718.2,1098.7z M1732.9,1097.3v1.1l-1.7,0.3c0.2,0.2,0.3,0.5,0.4,0.8c0.1,0.3,0.2,0.6,0.1,0.9c0,0.9-0.3,1.8-1,2.4
		c-0.8,0.6-1.8,0.9-2.9,0.9c-0.3,0-0.6,0-0.8-0.1c-0.4,0.2-0.6,0.5-0.7,1c0,0.2,0.1,0.4,0.3,0.5c0.4,0.1,0.8,0.2,1.1,0.2h1.7
		c0.9-0.1,1.7,0.2,2.4,0.7c0.6,0.5,0.9,1.2,0.8,2c0,1-0.5,2-1.4,2.5c-1.2,0.7-2.6,1-3.9,0.9c-1.1,0.1-2.1-0.2-3-0.7
		c-0.7-0.4-1.1-1.2-1-2c0-0.6,0.2-1.1,0.6-1.5c0.4-0.4,1-0.7,1.6-0.8c-0.3-0.1-0.5-0.3-0.7-0.6c-0.2-0.2-0.3-0.5-0.3-0.8
		c0-0.3,0.1-0.7,0.3-0.9c0.3-0.3,0.6-0.6,0.9-0.7c-0.5-0.2-0.9-0.6-1.2-1.1c-0.3-0.5-0.5-1.1-0.5-1.7c-0.1-0.9,0.3-1.8,1-2.5
		c0.8-0.6,1.8-0.9,2.8-0.9c0.3,0,0.6,0,0.9,0.1c0.2,0,0.5,0.1,0.7,0.1L1732.9,1097.3z M1725.2,1108.5c0,0.4,0.2,0.8,0.6,1
		c0.5,0.3,1.1,0.4,1.7,0.4c0.9,0.1,1.7-0.1,2.5-0.5c0.5-0.2,0.8-0.7,0.8-1.3c0-0.4-0.1-0.7-0.5-0.9c-0.5-0.2-1.1-0.3-1.7-0.3h-1.6
		c-0.5,0-1,0.1-1.4,0.4C1725.4,1107.7,1725.2,1108.1,1725.2,1108.5L1725.2,1108.5z M1726.1,1100.4c0,0.5,0.1,1,0.5,1.4
		c0.4,0.3,0.9,0.5,1.3,0.5c1.2,0,1.8-0.6,1.8-1.9c0-0.5-0.1-1-0.4-1.5c-0.3-0.4-0.8-0.6-1.3-0.5c-0.5,0-1,0.2-1.4,0.5
		C1726.3,1099.4,1726.1,1099.9,1726.1,1100.4L1726.1,1100.4z M1741.5,1107l-0.3-1.3h-0.1c-0.3,0.5-0.7,0.8-1.2,1.1
		c-0.6,0.3-1.2,0.4-1.8,0.4c-1,0.1-1.9-0.2-2.6-0.9c-0.6-0.7-0.9-1.7-0.9-2.7v-6.4h2.1v6c0,0.6,0.1,1.2,0.5,1.7
		c0.4,0.4,0.9,0.6,1.4,0.6c0.7,0.1,1.4-0.2,1.9-0.8c0.5-0.8,0.7-1.7,0.6-2.6v-4.8h2.1v9.7H1741.5z M1748.2,1107h-2.1v-13.7h2.1V1107
		z M1757.2,1107l-0.4-1.4h-0.1c-0.4,0.5-0.9,0.9-1.4,1.2c-0.6,0.2-1.2,0.3-1.8,0.3c-0.8,0-1.6-0.2-2.2-0.8c-0.6-0.6-0.9-1.4-0.8-2.2
		c-0.1-0.9,0.4-1.8,1.1-2.3c1-0.6,2.2-0.9,3.4-0.8l1.7-0.1v-0.5c0-0.5-0.1-1-0.4-1.4c-0.4-0.3-0.9-0.5-1.3-0.5c-0.5,0-1,0.1-1.4,0.2
		c-0.5,0.1-0.9,0.3-1.3,0.5l-0.7-1.5c0.5-0.3,1.1-0.5,1.7-0.6c0.6-0.1,1.2-0.2,1.8-0.2c1-0.1,2,0.2,2.8,0.8c0.7,0.7,1,1.6,0.9,2.5
		v6.5H1757.2z M1754.1,1105.6c0.7,0,1.3-0.2,1.8-0.6c0.5-0.5,0.7-1.1,0.7-1.8v-0.8l-1.2,0.1c-0.7,0-1.5,0.1-2.1,0.5
		c-0.4,0.3-0.7,0.8-0.7,1.3c0,0.4,0.1,0.7,0.4,1C1753.3,1105.5,1753.7,1105.6,1754.1,1105.6z M1463,1127.3h2.2l2,5.5
		c0.3,0.7,0.5,1.5,0.6,2.2h0.1c0.1-0.4,0.2-0.8,0.3-1.2c0.1-0.5,0.9-2.6,2.2-6.6h2.2l-4.2,11c-0.8,2-2,3-3.8,3c-0.4,0-0.9,0-1.3-0.1
		v-1.6c0.3,0.1,0.7,0.1,1.1,0.1c1,0,1.9-0.7,2.1-1.7l0.4-0.9L1463,1127.3z M1485.3,1134.2c0,0.9-0.3,1.7-1,2.2
		c-0.9,0.6-1.9,0.8-3,0.8c-1.1,0-2.1-0.2-3.1-0.6v-1.8c1,0.5,2.1,0.8,3.2,0.8c1.3,0,1.9-0.4,1.9-1.2c0-0.2-0.1-0.4-0.2-0.6
		c-0.2-0.2-0.4-0.4-0.7-0.5c-0.4-0.2-0.9-0.4-1.3-0.6c-0.8-0.3-1.6-0.7-2.3-1.3c-0.4-0.5-0.6-1.1-0.6-1.7c0-0.8,0.4-1.5,1-1.9
		c0.8-0.5,1.8-0.7,2.7-0.7c1.1,0,2.2,0.2,3.2,0.7l-0.7,1.6c-0.8-0.4-1.7-0.6-2.6-0.7c-1.1,0-1.6,0.3-1.6,0.9c0,0.3,0.2,0.6,0.4,0.8
		c0.6,0.4,1.2,0.6,1.9,0.9c0.6,0.2,1.2,0.5,1.7,0.9c0.3,0.2,0.6,0.5,0.8,0.9C1485.3,1133.4,1485.3,1133.8,1485.3,1134.2z
		 M1491.8,1137.2c-1.3,0.1-2.6-0.4-3.5-1.3c-0.9-1-1.4-2.3-1.3-3.6c-0.1-1.4,0.3-2.7,1.2-3.7c0.8-0.9,2-1.4,3.3-1.4
		c1.1-0.1,2.2,0.4,3,1.2c0.8,0.9,1.2,2,1.1,3.2v1.1h-6.5c0,0.8,0.2,1.6,0.8,2.2c0.5,0.5,1.3,0.8,2,0.8c0.5,0,1.1-0.1,1.6-0.2
		c0.6-0.1,1.1-0.3,1.6-0.5v1.7c-0.5,0.2-1,0.4-1.5,0.5C1493,1137.1,1492.4,1137.2,1491.8,1137.2L1491.8,1137.2z M1491.4,1128.7
		c-0.6,0-1.2,0.2-1.6,0.6c-0.4,0.5-0.7,1.2-0.7,1.8h4.4c0-0.7-0.2-1.3-0.6-1.8C1492.6,1128.9,1492,1128.6,1491.4,1128.7
		L1491.4,1128.7z M1507.5,1128.8h-2.4v8.2h-2.1v-8.2h-1.6v-1l1.6-0.6v-0.6c-0.1-0.9,0.2-1.8,0.8-2.6c0.7-0.6,1.6-0.9,2.5-0.8
		c0.7,0,1.5,0.1,2.1,0.4l-0.5,1.6c-0.5-0.2-1-0.2-1.5-0.2c-0.4,0-0.8,0.1-1,0.4c-0.2,0.4-0.4,0.8-0.3,1.3v0.6h2.4L1507.5,1128.8z
		 M1517.8,1132.1c0.1,1.3-0.4,2.7-1.2,3.7c-0.9,0.9-2.1,1.4-3.4,1.3c-0.8,0-1.7-0.2-2.4-0.6c-0.7-0.4-1.3-1-1.6-1.8
		c-0.4-0.8-0.6-1.8-0.6-2.7c-0.1-1.3,0.4-2.7,1.2-3.7c0.9-0.9,2.1-1.4,3.4-1.3c1.3-0.1,2.5,0.4,3.3,1.4
		C1517.4,1129.5,1517.8,1130.8,1517.8,1132.1L1517.8,1132.1z M1510.7,1132.1c0,2.2,0.8,3.4,2.5,3.4c1.6,0,2.5-1.1,2.5-3.4
		c0-2.2-0.8-3.3-2.5-3.3c-0.7-0.1-1.5,0.3-1.9,0.9C1510.8,1130.4,1510.6,1131.3,1510.7,1132.1L1510.7,1132.1z M1528.3,1137h-2.1v-6
		c0-0.6-0.1-1.2-0.4-1.7c-0.3-0.4-0.8-0.6-1.3-0.5c-0.7-0.1-1.3,0.2-1.8,0.8c-0.4,0.8-0.6,1.7-0.6,2.6v4.8h-2.1v-9.7h1.6l0.3,1.3
		h0.1c0.3-0.5,0.7-0.8,1.2-1.1c0.5-0.3,1.1-0.4,1.7-0.4c1.2-0.2,2.4,0.5,3,1.5h0.1c0.3-0.5,0.7-0.9,1.2-1.1c0.6-0.3,1.2-0.4,1.8-0.4
		c0.9-0.1,1.9,0.2,2.5,0.9c0.6,0.8,0.9,1.7,0.8,2.7v6.3h-2.1v-6c0-0.6-0.1-1.2-0.4-1.7c-0.3-0.4-0.8-0.6-1.3-0.5
		c-0.7-0.1-1.3,0.2-1.8,0.8c-0.4,0.7-0.6,1.5-0.6,2.3L1528.3,1137z M1541.6,1137.2c-1.3,0.1-2.6-0.4-3.5-1.3c-0.9-1-1.4-2.3-1.3-3.6
		c-0.1-1.4,0.3-2.7,1.2-3.7c0.8-0.9,2-1.4,3.3-1.4c1.1-0.1,2.2,0.4,3,1.2c0.8,0.9,1.2,2,1.1,3.2v1.1h-6.5c0,0.8,0.2,1.6,0.8,2.2
		c0.5,0.5,1.3,0.8,2,0.8c0.5,0,1.1-0.1,1.6-0.2c0.6-0.1,1.1-0.3,1.6-0.5v1.7c-0.5,0.2-1,0.4-1.5,0.5
		C1542.8,1137.1,1542.2,1137.2,1541.6,1137.2z M1541.2,1128.7c-0.6,0-1.2,0.2-1.6,0.6c-0.4,0.5-0.7,1.2-0.7,1.8h4.4
		c0-0.7-0.2-1.3-0.6-1.8C1542.4,1128.9,1541.8,1128.6,1541.2,1128.7z M1556.3,1137h-2.1v-6c0-0.6-0.1-1.2-0.5-1.7
		c-0.4-0.4-0.9-0.6-1.4-0.6c-0.7-0.1-1.4,0.2-1.9,0.8c-0.5,0.8-0.7,1.7-0.6,2.6v4.8h-2.1v-9.7h1.6l0.3,1.3h0.1
		c0.3-0.5,0.7-0.8,1.2-1.1c0.6-0.3,1.2-0.4,1.8-0.4c2.3,0,3.5,1.2,3.5,3.6L1556.3,1137z M1562.8,1135.5c0.5,0,1-0.1,1.5-0.2v1.6
		c-0.3,0.1-0.6,0.2-0.9,0.2c-0.4,0.1-0.7,0.1-1.1,0.1c-2,0-2.9-1-2.9-3.1v-5.2h-1.3v-0.9l1.4-0.8l0.7-2.1h1.3v2.2h2.8v1.6h-2.8v5.2
		c0,0.4,0.1,0.8,0.4,1.1C1562.1,1135.4,1562.4,1135.5,1562.8,1135.5L1562.8,1135.5z M1572.3,1137l-0.4-1.4h-0.1
		c-0.4,0.5-0.9,0.9-1.4,1.2c-0.6,0.2-1.2,0.3-1.8,0.3c-0.8,0-1.6-0.2-2.2-0.8c-0.6-0.6-0.9-1.4-0.8-2.2c-0.1-0.9,0.4-1.8,1.1-2.3
		c1-0.6,2.2-0.9,3.4-0.8l1.7-0.1v-0.5c0-0.5-0.1-1-0.4-1.4c-0.4-0.3-0.9-0.5-1.3-0.5c-0.5,0-1,0.1-1.4,0.2c-0.5,0.1-0.9,0.3-1.3,0.5
		l-0.7-1.5c0.5-0.3,1.1-0.5,1.7-0.6c0.6-0.1,1.2-0.2,1.8-0.2c1-0.1,2,0.2,2.8,0.8c0.7,0.7,1,1.6,0.9,2.5v6.5H1572.3z M1569.2,1135.6
		c0.7,0,1.3-0.2,1.8-0.6c0.5-0.5,0.7-1.1,0.7-1.8v-0.8l-1.2,0.1c-0.7,0-1.5,0.1-2.1,0.5c-0.4,0.3-0.7,0.8-0.7,1.3
		c0,0.4,0.1,0.7,0.4,1C1568.4,1135.5,1568.8,1135.6,1569.2,1135.6L1569.2,1135.6z M1585.6,1137.2c-1.3,0.1-2.6-0.4-3.5-1.3
		c-0.9-1-1.4-2.3-1.3-3.6c-0.1-1.4,0.3-2.7,1.2-3.7c0.8-0.9,2-1.4,3.3-1.4c1.1-0.1,2.2,0.4,3,1.2c0.8,0.9,1.2,2,1.1,3.2v1.1h-6.5
		c0,0.8,0.2,1.6,0.8,2.2c0.5,0.5,1.3,0.8,2,0.8c0.5,0,1.1-0.1,1.6-0.2c0.6-0.1,1.1-0.3,1.6-0.5v1.7c-0.5,0.2-1,0.4-1.5,0.5
		C1586.8,1137.1,1586.2,1137.2,1585.6,1137.2L1585.6,1137.2z M1585.2,1128.7c-0.6,0-1.2,0.2-1.6,0.6c-0.4,0.5-0.7,1.2-0.7,1.8h4.4
		c0-0.7-0.2-1.3-0.6-1.8C1586.3,1128.9,1585.8,1128.6,1585.2,1128.7L1585.2,1128.7z M1593.8,1137h-2.1v-13.7h2.1V1137z
		 M1605.3,1137.2c-1.3,0.1-2.5-0.4-3.4-1.3c-0.8-1-1.2-2.4-1.1-3.7c-0.1-1.4,0.3-2.7,1.2-3.8c0.9-0.9,2.2-1.4,3.5-1.3
		c1,0,1.9,0.2,2.8,0.6l-0.6,1.7c-0.7-0.3-1.4-0.5-2.2-0.5c-1.7,0-2.5,1.1-2.5,3.3c-0.1,0.9,0.2,1.7,0.6,2.5c0.4,0.6,1.1,0.9,1.8,0.8
		c0.9,0,1.8-0.2,2.6-0.7v1.8c-0.4,0.2-0.8,0.4-1.2,0.5C1606.3,1137.1,1605.8,1137.2,1605.3,1137.2z M1618.9,1132.1
		c0.1,1.3-0.4,2.7-1.2,3.7c-0.9,0.9-2.1,1.4-3.4,1.3c-0.8,0-1.7-0.2-2.4-0.6c-0.7-0.4-1.3-1-1.6-1.8c-0.4-0.8-0.6-1.8-0.6-2.7
		c-0.1-1.3,0.4-2.7,1.2-3.7c0.9-0.9,2.1-1.4,3.4-1.3c1.3-0.1,2.5,0.4,3.3,1.4C1618.6,1129.5,1619,1130.8,1618.9,1132.1
		L1618.9,1132.1z M1611.9,1132.1c0,2.2,0.8,3.4,2.5,3.4c1.6,0,2.5-1.1,2.5-3.4c0-2.2-0.8-3.3-2.5-3.3c-0.7-0.1-1.5,0.3-1.9,0.9
		C1612,1130.4,1611.8,1131.3,1611.9,1132.1z M1629.9,1132.1c0.1,1.3-0.4,2.7-1.2,3.7c-0.9,0.9-2.1,1.4-3.4,1.3
		c-0.8,0-1.7-0.2-2.4-0.6c-0.7-0.4-1.3-1-1.6-1.8c-0.4-0.8-0.6-1.8-0.6-2.7c-0.1-1.3,0.4-2.7,1.2-3.7c0.9-0.9,2.1-1.4,3.4-1.3
		c1.3-0.1,2.5,0.4,3.3,1.4C1629.6,1129.5,1630,1130.8,1629.9,1132.1L1629.9,1132.1z M1622.9,1132.1c0,2.2,0.8,3.4,2.5,3.4
		c1.6,0,2.5-1.1,2.5-3.4c0-2.2-0.8-3.3-2.5-3.3c-0.7-0.1-1.5,0.3-1.9,0.9C1623,1130.4,1622.8,1131.3,1622.9,1132.1z M1637.2,1137.2
		c-1.1,0.1-2.2-0.4-2.9-1.3h-0.1c0.1,0.8,0.1,1.3,0.1,1.5v4h-2.1v-14h1.7c0,0.2,0.1,0.6,0.3,1.3h0.1c0.6-1,1.7-1.5,2.9-1.5
		c1.1-0.1,2.2,0.4,2.8,1.3c0.7,1.1,1.1,2.4,1,3.7c0.1,1.3-0.3,2.6-1,3.7C1639.4,1136.7,1638.3,1137.2,1637.2,1137.2z M1636.7,1128.8
		c-0.7-0.1-1.3,0.2-1.8,0.7c-0.4,0.7-0.6,1.5-0.6,2.3v0.3c-0.1,0.9,0.1,1.8,0.6,2.6c0.4,0.6,1.1,0.9,1.8,0.8c0.7,0,1.3-0.3,1.7-0.9
		c0.4-0.8,0.6-1.6,0.6-2.5c0.1-0.9-0.1-1.7-0.6-2.5C1638,1129.1,1637.4,1128.8,1636.7,1128.8L1636.7,1128.8z M1647.8,1137.2
		c-1.3,0.1-2.6-0.4-3.5-1.3c-0.9-1-1.4-2.3-1.3-3.6c-0.1-1.4,0.3-2.7,1.2-3.7c0.8-0.9,2-1.4,3.3-1.4c1.1-0.1,2.2,0.4,3,1.2
		c0.8,0.9,1.2,2,1.1,3.2v1.1h-6.5c0,0.8,0.2,1.6,0.8,2.2c0.5,0.5,1.3,0.8,2,0.8c0.5,0,1.1-0.1,1.6-0.2c0.6-0.1,1.1-0.3,1.6-0.5v1.7
		c-0.5,0.2-1,0.4-1.5,0.5C1648.9,1137.1,1648.4,1137.2,1647.8,1137.2L1647.8,1137.2z M1647.4,1128.7c-0.6,0-1.2,0.2-1.6,0.6
		c-0.4,0.5-0.7,1.2-0.7,1.8h4.4c0-0.7-0.2-1.3-0.6-1.8C1648.5,1128.9,1648,1128.6,1647.4,1128.7L1647.4,1128.7z M1658.8,1127.1
		c0.3,0,0.7,0,1,0.1l-0.2,1.9c-0.3-0.1-0.6-0.1-0.9-0.1c-0.8,0-1.5,0.3-2,0.8c-0.5,0.6-0.8,1.3-0.8,2.1v5.1h-2.1v-9.7h1.6l0.3,1.7
		h0.1c0.3-0.6,0.7-1,1.3-1.4C1657.6,1127.3,1658.2,1127.1,1658.8,1127.1z M1667.4,1137l-0.4-1.4h-0.1c-0.4,0.5-0.9,0.9-1.4,1.2
		c-0.6,0.2-1.2,0.3-1.8,0.3c-0.8,0-1.6-0.2-2.2-0.8c-0.6-0.6-0.9-1.4-0.8-2.2c-0.1-0.9,0.4-1.8,1.1-2.3c1-0.6,2.2-0.9,3.4-0.8
		l1.7-0.1v-0.5c0-0.5-0.1-1-0.4-1.4c-0.4-0.3-0.9-0.5-1.3-0.5c-0.5,0-1,0.1-1.4,0.2c-0.5,0.1-0.9,0.3-1.3,0.5l-0.7-1.5
		c0.5-0.3,1.1-0.5,1.7-0.6c0.6-0.1,1.2-0.2,1.8-0.2c1-0.1,2,0.2,2.8,0.8c0.7,0.7,1,1.6,0.9,2.5v6.6H1667.4z M1664.3,1135.6
		c0.7,0,1.3-0.2,1.8-0.6c0.5-0.5,0.7-1.1,0.7-1.8v-0.8l-1.2,0.1c-0.7,0-1.5,0.1-2.1,0.5c-0.4,0.3-0.7,0.8-0.7,1.3
		c0,0.4,0.1,0.7,0.4,1C1663.5,1135.5,1663.9,1135.6,1664.3,1135.6z M1675.4,1135.5c0.5,0,1-0.1,1.5-0.2v1.6
		c-0.3,0.1-0.6,0.2-0.9,0.2c-0.4,0.1-0.7,0.1-1.1,0.1c-2,0-2.9-1-2.9-3.1v-5.2h-1.3v-0.9l1.4-0.8l0.7-2.1h1.3v2.2h2.8v1.6h-2.8v5.2
		c0,0.4,0.1,0.8,0.4,1.1C1674.6,1135.4,1675,1135.5,1675.4,1135.5L1675.4,1135.5z M1680.9,1137h-2.1v-9.7h2.1V1137z M1678.7,1124.7
		c0-0.3,0.1-0.6,0.3-0.9c0.2-0.2,0.5-0.3,0.9-0.3c0.3,0,0.6,0.1,0.8,0.3c0.2,0.2,0.3,0.5,0.3,0.9c0,0.3-0.1,0.6-0.3,0.8
		c-0.2,0.2-0.5,0.3-0.8,0.3c-0.3,0-0.6-0.1-0.9-0.3C1678.8,1125.3,1678.7,1125,1678.7,1124.7L1678.7,1124.7z M1686,1137l-3.7-9.7
		h2.2l2,5.7c0.3,0.7,0.5,1.5,0.6,2.3h0.1c0.1-0.8,0.4-1.6,0.6-2.3l2-5.7h2.2l-3.7,9.7H1686z M1695.5,1137h-2.1v-9.7h2.1V1137z
		 M1693.3,1124.7c0-0.3,0.1-0.6,0.3-0.9c0.2-0.2,0.5-0.3,0.9-0.3c0.3,0,0.6,0.1,0.8,0.3c0.2,0.2,0.3,0.5,0.3,0.9
		c0,0.3-0.1,0.6-0.3,0.8c-0.2,0.2-0.5,0.3-0.8,0.3c-0.3,0-0.6-0.1-0.9-0.3C1693.4,1125.3,1693.3,1125,1693.3,1124.7L1693.3,1124.7z
		 M1705,1134.2c0,0.9-0.3,1.7-1,2.2c-0.9,0.6-1.9,0.8-3,0.8c-1.1,0-2.1-0.2-3.1-0.6v-1.8c1,0.5,2.1,0.8,3.2,0.8
		c1.3,0,1.9-0.4,1.9-1.2c0-0.2-0.1-0.4-0.2-0.6c-0.2-0.2-0.4-0.4-0.7-0.5c-0.4-0.2-0.9-0.4-1.3-0.6c-0.8-0.3-1.6-0.7-2.3-1.3
		c-0.4-0.5-0.6-1.1-0.6-1.7c0-0.8,0.4-1.5,1-1.9c0.8-0.5,1.8-0.7,2.7-0.7c1.1,0,2.2,0.2,3.2,0.7l-0.7,1.6c-0.8-0.4-1.7-0.6-2.6-0.7
		c-1.1,0-1.6,0.3-1.6,0.9c0,0.3,0.2,0.6,0.4,0.8c0.6,0.4,1.2,0.6,1.9,0.9c0.6,0.2,1.2,0.5,1.7,0.9c0.3,0.2,0.6,0.5,0.8,0.9
		C1704.9,1133.4,1705,1133.8,1705,1134.2L1705,1134.2z M1715.4,1137h-2.1v-6c0-0.6-0.1-1.2-0.4-1.7c-0.3-0.4-0.8-0.6-1.3-0.5
		c-0.7-0.1-1.3,0.2-1.8,0.8c-0.4,0.8-0.6,1.7-0.6,2.6v4.8h-2.1v-9.7h1.6l0.3,1.3h0.1c0.3-0.5,0.7-0.8,1.2-1.1
		c0.5-0.3,1.1-0.4,1.7-0.4c1.2-0.2,2.4,0.5,3,1.5h0.1c0.3-0.5,0.7-0.9,1.2-1.1c0.6-0.3,1.2-0.4,1.8-0.4c0.9-0.1,1.9,0.2,2.5,0.9
		c0.6,0.8,0.9,1.7,0.8,2.7v6.3h-2.1v-6c0-0.6-0.1-1.2-0.4-1.7c-0.3-0.4-0.8-0.6-1.3-0.5c-0.7-0.1-1.3,0.2-1.8,0.8
		c-0.4,0.7-0.6,1.5-0.6,2.3V1137z M1733.1,1132.1c0.1,1.3-0.4,2.7-1.2,3.7c-0.9,0.9-2.1,1.4-3.4,1.3c-0.8,0-1.7-0.2-2.4-0.6
		c-0.7-0.4-1.3-1-1.6-1.8c-0.4-0.8-0.6-1.8-0.6-2.7c-0.1-1.3,0.4-2.7,1.2-3.7c0.9-0.9,2.1-1.4,3.4-1.3c1.3-0.1,2.5,0.4,3.3,1.4
		C1732.7,1129.5,1733.1,1130.8,1733.1,1132.1L1733.1,1132.1z M1726,1132.1c0,2.2,0.8,3.4,2.5,3.4c1.6,0,2.5-1.1,2.5-3.4
		c0-2.2-0.8-3.3-2.5-3.3c-0.7-0.1-1.5,0.3-1.9,0.9C1726.1,1130.4,1725.9,1131.3,1726,1132.1L1726,1132.1z M1468.4,1167.2
		c-1.3,0.1-2.5-0.4-3.4-1.3c-1.5-2.3-1.5-5.2,0.1-7.5c0.9-0.9,2.2-1.4,3.5-1.3c1,0,1.9,0.2,2.8,0.6l-0.6,1.7
		c-0.7-0.3-1.4-0.5-2.2-0.5c-1.7,0-2.5,1.1-2.5,3.3c-0.1,0.9,0.2,1.7,0.6,2.5c0.4,0.6,1.1,0.9,1.8,0.8c0.9,0,1.8-0.2,2.6-0.7v1.8
		c-0.4,0.2-0.8,0.4-1.2,0.5C1469.4,1167.1,1468.9,1167.2,1468.4,1167.2z M1482,1162.1c0.1,1.3-0.4,2.7-1.2,3.7
		c-0.9,0.9-2.1,1.4-3.4,1.3c-0.8,0-1.7-0.2-2.4-0.6c-0.7-0.4-1.3-1-1.6-1.8c-0.4-0.8-0.6-1.8-0.6-2.7c-0.1-1.3,0.4-2.7,1.2-3.7
		c0.9-0.9,2.1-1.4,3.4-1.3c1.3-0.1,2.5,0.4,3.3,1.4C1481.6,1159.5,1482.1,1160.8,1482,1162.1L1482,1162.1z M1474.9,1162.1
		c0,2.2,0.8,3.4,2.5,3.4c1.6,0,2.5-1.1,2.5-3.4c0-2.2-0.8-3.3-2.5-3.3c-0.7-0.1-1.5,0.3-1.9,0.9
		C1475.1,1160.4,1474.9,1161.3,1474.9,1162.1L1474.9,1162.1z M1492.9,1167h-2.1v-6c0-0.6-0.1-1.2-0.5-1.7c-0.4-0.4-0.9-0.6-1.4-0.6
		c-0.7-0.1-1.4,0.2-1.9,0.8c-0.5,0.8-0.7,1.7-0.6,2.6v4.8h-2.1v-9.7h1.6l0.3,1.3h0.1c0.3-0.5,0.7-0.8,1.2-1.1
		c0.6-0.3,1.2-0.4,1.8-0.4c2.3,0,3.5,1.2,3.5,3.6L1492.9,1167z M1502.6,1167h-2.1v-13.7h2.1L1502.6,1167z M1511.6,1167l-0.4-1.4
		h-0.1c-0.4,0.5-0.9,0.9-1.4,1.2c-0.6,0.2-1.2,0.3-1.8,0.3c-0.8,0-1.6-0.2-2.2-0.8c-0.6-0.6-0.9-1.4-0.8-2.2
		c-0.1-0.9,0.4-1.8,1.1-2.3c1-0.6,2.2-0.9,3.4-0.8l1.7-0.1v-0.5c0-0.5-0.1-1-0.4-1.4c-0.4-0.3-0.9-0.5-1.3-0.5c-0.5,0-1,0.1-1.4,0.2
		c-0.5,0.1-0.9,0.3-1.3,0.5l-0.7-1.5c0.5-0.3,1.1-0.5,1.7-0.6c0.6-0.1,1.2-0.2,1.8-0.2c1-0.1,2,0.2,2.8,0.8c0.7,0.7,1,1.6,0.9,2.5
		v6.5H1511.6z M1508.5,1165.6c0.7,0,1.3-0.2,1.8-0.6c0.5-0.5,0.7-1.1,0.7-1.8v-0.8l-1.2,0.1c-0.7,0-1.5,0.1-2.1,0.5
		c-0.4,0.3-0.7,0.8-0.7,1.3c0,0.4,0.1,0.7,0.4,1C1507.7,1165.5,1508.1,1165.6,1508.5,1165.6z M1522.7,1167h-2.1v-13.7h2.1
		L1522.7,1167z M1529.9,1167.2c-1.3,0.1-2.6-0.4-3.5-1.3c-0.9-1-1.4-2.3-1.3-3.6c-0.1-1.4,0.3-2.7,1.2-3.7c0.8-0.9,2-1.4,3.3-1.4
		c1.1-0.1,2.2,0.4,3,1.2c0.8,0.9,1.2,2,1.1,3.2v1.1h-6.5c0,0.8,0.2,1.6,0.8,2.2c0.5,0.5,1.3,0.8,2,0.8c0.5,0,1.1-0.1,1.6-0.2
		c0.6-0.1,1.1-0.3,1.6-0.5v1.7c-0.5,0.2-1,0.4-1.5,0.5C1531.1,1167.1,1530.5,1167.2,1529.9,1167.2L1529.9,1167.2z M1529.5,1158.7
		c-0.6,0-1.2,0.2-1.6,0.6c-0.4,0.5-0.7,1.2-0.7,1.8h4.4c0-0.7-0.2-1.3-0.6-1.8C1530.7,1158.9,1530.1,1158.6,1529.5,1158.7
		L1529.5,1158.7z M1534.2,1157.3h2.2l2,5.5c0.3,0.7,0.5,1.5,0.6,2.2h0.1c0.1-0.4,0.2-0.8,0.3-1.2c0.1-0.5,0.9-2.6,2.2-6.6h2.2
		l-4.2,11c-0.8,2-2,3-3.8,3c-0.4,0-0.9,0-1.3-0.1v-1.6c0.3,0.1,0.7,0.1,1.1,0.1c1,0,1.9-0.7,2.1-1.7l0.4-0.9L1534.2,1157.3z
		 M1555.4,1167h-2.1v-8.3c0-1,0-1.8,0.1-2.4c-0.1,0.1-0.3,0.3-0.5,0.5c-0.2,0.2-0.9,0.7-2,1.6l-1-1.3l3.8-3h1.7L1555.4,1167z
		 M1567.8,1157.1c0,0.7-0.2,1.5-0.7,2c-0.5,0.6-1.2,1-2,1.1v0.1c0.9,0.1,1.7,0.4,2.3,1c0.5,0.5,0.8,1.3,0.8,2
		c0.1,1.1-0.4,2.2-1.3,2.9c-1.1,0.7-2.4,1.1-3.7,1c-1.2,0-2.5-0.2-3.6-0.7v-1.8c0.6,0.3,1.1,0.5,1.7,0.6c0.6,0.1,1.2,0.2,1.8,0.2
		c0.8,0.1,1.6-0.1,2.2-0.6c0.5-0.4,0.8-1.1,0.7-1.7c0-0.6-0.3-1.2-0.8-1.5c-0.8-0.4-1.7-0.5-2.6-0.5h-1.1v-1.7h1.1
		c2.1,0,3.1-0.7,3.1-2.1c0-0.5-0.2-1-0.5-1.3c-0.5-0.3-1-0.5-1.6-0.4c-0.5,0-1,0.1-1.4,0.2c-0.6,0.2-1.1,0.5-1.6,0.8l-1-1.4
		c1.2-0.9,2.6-1.3,4.1-1.3c1.1-0.1,2.1,0.2,3,0.8C1567.4,1155.3,1567.8,1156.2,1567.8,1157.1z M1579,1164.2h-1.7v2.8h-2v-2.8h-5.9
		v-1.6l5.9-8.5h2v8.4h1.7V1164.2z M1575.3,1162.5v-3.2c0-1.1,0-2.1,0.1-2.8h-0.1c-0.2,0.5-0.5,1-0.8,1.4l-3.2,4.6L1575.3,1162.5z
		 M1588.8,1167.2c-1.1,0.1-2.2-0.4-2.8-1.3c-1.4-2.3-1.4-5.1,0-7.4c0.7-0.9,1.7-1.4,2.9-1.3c1.2-0.1,2.3,0.5,2.9,1.4h0.1
		c-0.1-0.5-0.1-1.1-0.1-1.7v-3.5h2.1v13.7h-1.6l-0.4-1.3h-0.1C1591,1166.7,1589.9,1167.2,1588.8,1167.2L1588.8,1167.2z
		 M1589.3,1165.5c0.7,0.1,1.4-0.2,1.9-0.7c0.4-0.7,0.7-1.5,0.6-2.3v-0.3c0.1-0.9-0.1-1.8-0.6-2.6c-0.5-0.5-1.2-0.8-1.9-0.8
		c-0.7,0-1.3,0.3-1.7,0.9c-0.4,0.8-0.6,1.6-0.6,2.5c-0.1,0.9,0.1,1.7,0.6,2.5C1588,1165.2,1588.6,1165.5,1589.3,1165.5
		L1589.3,1165.5z M1600.9,1167.2c-1.3,0.1-2.6-0.4-3.5-1.3c-0.9-1-1.4-2.3-1.3-3.6c-0.1-1.4,0.3-2.7,1.2-3.7c0.8-0.9,2-1.4,3.3-1.4
		c1.1-0.1,2.2,0.4,3,1.2c0.8,0.9,1.2,2,1.1,3.2v1.1h-6.5c0,0.8,0.2,1.6,0.8,2.2c0.5,0.5,1.3,0.8,2,0.8c0.5,0,1.1-0.1,1.6-0.2
		c0.6-0.1,1.1-0.3,1.6-0.5v1.7c-0.5,0.2-1,0.4-1.5,0.5C1602.1,1167.1,1601.5,1167.2,1600.9,1167.2L1600.9,1167.2z M1600.6,1158.7
		c-0.6,0-1.2,0.2-1.6,0.6c-0.4,0.5-0.7,1.2-0.7,1.8h4.4c0-0.7-0.2-1.3-0.6-1.8C1601.7,1158.9,1601.1,1158.6,1600.6,1158.7
		L1600.6,1158.7z M1617.1,1167h-2.1v-8.3c0-1,0-1.8,0.1-2.4c-0.1,0.1-0.3,0.3-0.5,0.5c-0.2,0.2-0.9,0.7-2,1.6l-1-1.3l3.8-3h1.7
		L1617.1,1167z M1630,1159.6c0,2.5-0.5,4.4-1.5,5.7c-1.2,1.3-2.9,2-4.6,1.9c-0.6,0-1.1,0-1.7-0.1v-1.7c0.5,0.1,1,0.2,1.6,0.2
		c1.2,0.1,2.3-0.3,3.1-1.1c0.8-1,1.2-2.3,1.1-3.5h-0.1c-0.3,0.5-0.7,0.9-1.3,1.1c-0.5,0.2-1.1,0.4-1.7,0.4c-1,0.1-2-0.3-2.7-1.1
		c-0.7-0.8-1-1.9-1-2.9c-0.1-1.2,0.3-2.3,1.1-3.2c0.8-0.8,1.9-1.3,3.1-1.2c1.7-0.1,3.3,1,4,2.6
		C1629.9,1157.6,1630,1158.6,1630,1159.6L1630,1159.6z M1625.5,1155.7c-0.6,0-1.2,0.2-1.6,0.7c-0.4,0.6-0.6,1.3-0.6,2
		c0,0.6,0.2,1.2,0.5,1.7c0.4,0.4,1,0.7,1.6,0.6c0.6,0,1.3-0.2,1.8-0.6c0.4-0.4,0.7-0.9,0.7-1.5c0-0.5-0.1-1-0.3-1.5
		c-0.2-0.4-0.5-0.8-0.8-1.1C1626.4,1155.8,1626,1155.7,1625.5,1155.7z M1639.8,1157.1c0,0.7-0.2,1.5-0.7,2c-0.5,0.6-1.2,1-2,1.1v0.1
		c0.9,0.1,1.7,0.4,2.3,1c0.5,0.5,0.8,1.3,0.8,2c0.1,1.1-0.4,2.2-1.3,2.9c-1.1,0.7-2.4,1.1-3.7,1c-1.2,0-2.5-0.2-3.6-0.7v-1.8
		c0.6,0.3,1.1,0.5,1.7,0.6c0.6,0.1,1.2,0.2,1.8,0.2c0.8,0.1,1.6-0.1,2.2-0.6c0.5-0.4,0.8-1.1,0.7-1.7c0-0.6-0.3-1.2-0.8-1.5
		c-0.8-0.4-1.7-0.5-2.6-0.5h-1.1v-1.7h1.1c2.1,0,3.1-0.7,3.1-2.1c0-0.5-0.2-1-0.5-1.3c-0.5-0.3-1-0.5-1.6-0.4c-0.5,0-1,0.1-1.4,0.2
		c-0.6,0.2-1.1,0.5-1.6,0.8l-1-1.4c1.2-0.9,2.6-1.3,4.1-1.3c1.1-0.1,2.1,0.2,3,0.8C1639.5,1155.3,1639.9,1156.2,1639.8,1157.1z
		 M1647.9,1167h-2.1v-8.3c0-1,0-1.8,0.1-2.4c-0.1,0.1-0.3,0.3-0.5,0.5c-0.2,0.2-0.9,0.7-2,1.6l-1-1.3l3.8-3h1.7L1647.9,1167z
		 M1652.5,1165.9c0-0.4,0.1-0.7,0.3-1c0.3-0.2,0.6-0.4,1-0.3c0.4,0,0.7,0.1,1,0.4c0.2,0.3,0.4,0.6,0.3,1c0,0.4-0.1,0.7-0.3,1
		c-0.6,0.5-1.4,0.5-1.9,0C1652.6,1166.6,1652.5,1166.3,1652.5,1165.9z"/>
</g>
</svg>
